<svg preserveAspectRatio="none" overflow="visible" style="display: block;" width="136.656" height="14.976" viewBox="0 0 136.656 14.976" fill="none" xmlns="http://www.w3.org/2000/svg">
<g id="Telegram_Logo_Full">
<path id="Vector" d="M28.5235 9.26091C28.5235 9.33744 28.1133 11.9142 26.2536 11.9142H23.3275V8.52105H27.1288V5.66366H23.3275V3.11241H27.0194C27.4296 3.16344 27.7578 3.31651 28.0039 3.54613C28.3868 3.9033 28.4961 4.38804 28.5235 4.64316L28.5782 5.22995L31.2309 5.20443V0.0254128H26.9373H17.6665V3.11241H19.2253V11.8887H17.6665V14.9502H31.2309V8.69963H28.5782L28.5235 9.26091Z" fill="black"/>
<path id="Vector_2" d="M58.5786 9.2354C58.5786 9.31193 58.1684 11.8887 56.3087 11.8887H53.3825V8.49553H57.1565V5.66366H53.3552V3.11241H57.0471C57.4573 3.16344 57.7855 3.31651 58.0316 3.54613C58.4145 3.9033 58.5239 4.38804 58.5512 4.64316L58.6059 5.22995L61.2586 5.20443V0.0254128H56.9651H47.6942V3.11241H49.253V11.8887H47.6942V14.9502H61.2586V8.67412H58.6059L58.5786 9.2354Z" fill="black"/>
<path id="Vector_3" d="M42.9904 8.29153C42.9904 8.44461 42.6622 11.7612 41.1308 11.8633H38.7515V3.087H40.2283V2.53311e-09H32.653V3.087H34.3486V11.8633H33.1179V14.9503H45.9713V7.70475H43.0178L42.9904 8.29153Z" fill="black"/>
<path id="Vector_4" d="M71.2952 9.33754H73.5924V9.66921C73.483 11.1489 71.5961 11.3275 70.803 11.3275H70.7756C70.0099 11.3275 68.8613 10.9703 68.0135 10.1795C67.3025 9.51613 66.8923 8.59768 66.8923 7.57719C66.947 5.58722 68.1503 3.59725 70.6936 3.59725H70.803C71.5961 3.62276 72.6626 3.9034 73.2096 4.38814C73.319 4.49019 73.4283 4.61775 73.483 4.74531L73.6745 5.10248H77.1203V0.306149H73.3736V0.433711C72.5532 0.153074 71.7601 2.53311e-09 70.9671 2.53311e-09C70.8577 2.53311e-09 70.7756 2.53311e-09 70.6936 2.53311e-09C70.6389 2.53311e-09 70.6389 2.53311e-09 70.6115 2.53311e-09C68.5605 2.53311e-09 66.6461 0.765372 65.2788 2.14304C63.9114 3.52071 63.173 5.40863 63.173 7.44963C63.173 9.56716 64.0208 11.5316 65.5796 12.9603C66.8649 14.1594 68.5331 14.8737 70.1193 14.9248C71.5687 14.9758 72.5806 14.8482 73.5651 14.5421V14.9248H77.4211V9.31203H78.7885V6.50567H71.2952V9.33754Z" fill="black"/>
<path id="Vector_5" d="M0 6.65894H3.33641V6.02113C3.30906 4.74551 3.55519 3.87809 4.0201 3.41886C4.29357 3.13823 4.56705 3.13823 4.62174 3.13823H5.36013V11.889H2.98089V14.976H13.5918V11.94H10.5562V3.16374H10.9937H11.1031C11.5133 3.16374 11.8142 3.26579 12.0876 3.52091C12.5799 3.98014 12.826 4.79653 12.8807 6.07215L12.9081 6.68445H16.1077V0.0767366H0V6.65894Z" fill="black"/>
<path id="Vector_6" d="M93.2827 9.0313C95.3884 8.18939 96.4277 6.76069 96.455 4.66867C96.455 3.44408 96.0721 2.44909 95.3064 1.70923C93.6382 0.152975 90.63 0.0254128 87.1295 0.0254128H79.1987V3.11241H81.2771V11.8632H79.226V14.9247H87.7585L87.7858 11.8377H86.0356V9.82218H89.2352L91.97 14.8992H96.6464V11.8377L94.9509 11.8121L93.2827 9.0313ZM86.0356 3.11241H86.2817C86.6372 3.11241 87.0474 3.11241 87.485 3.11241H87.8132C89.0985 3.11241 89.3173 3.11241 89.372 3.11241H89.5361C90.3565 3.13793 91.3957 3.23998 91.9426 3.75023C92.2161 4.00535 92.3529 4.38804 92.3529 4.82175C92.3529 5.94429 91.8879 6.68415 89.6728 6.68415C89.3446 6.68415 89.0438 6.68415 88.7703 6.68415H88.6883C88.5515 6.68415 88.4148 6.68415 88.3054 6.68415C87.2115 6.68415 86.4731 6.68415 86.0082 6.68415L86.0356 3.11241Z" fill="black"/>
<path id="Vector_7" d="M110.101 3.11232H111.797V0.0508255H101.542V3.11232L103.456 3.0868L99.3264 11.8631H98.1505V14.9246H105.999V11.8631H103.948L104.44 10.8681H109.172L109.664 11.8631H107.749V14.9501H115.598V11.8886H114.204L110.101 3.11232ZM108.187 8.69953H105.425L106.82 5.51048L108.187 8.69953Z" fill="black"/>
<path id="Vector_8" d="M136.656 2.80617V0.0508255H129.409L126.346 5.84214L123.912 0.0508255H116.419V2.83168H118.142V11.8886H116.774V14.9501H124.158V11.8886H122.873L122.845 7.8066L126.154 14.848L130.257 7.37289V11.8886H129.026V14.9246H136.41V11.8886H134.96V2.80617H136.656Z" fill="black"/>
</g>
</svg>
