<svg width="20" height="20" viewBox="0 0 20 20" fill="none" xmlns="http://www.w3.org/2000/svg">
<path d="M19.0616 5.96244C19.0616 5.73515 19.0616 5.50787 19.0616 5.28058C19.0616 5.09118 19.0616 4.8942 19.054 4.70479C19.0465 4.28811 19.0162 3.86384 18.9404 3.45473C18.8646 3.03804 18.7434 2.64408 18.5464 2.26527C18.357 1.89404 18.107 1.54554 17.8116 1.25007C17.5161 0.954596 17.1752 0.704583 16.7963 0.515179C16.4175 0.318199 16.0236 0.19698 15.6069 0.121219C15.1902 0.045457 14.7735 0.0227285 14.3568 0.00757616C14.1674 0.00757616 13.9704 0.00757616 13.781 0C13.5537 0 13.3265 0 13.0992 0H5.96244C5.73515 0 5.50787 0 5.28058 0C5.09118 0 4.8942 0 4.70479 0.00757616C4.28811 0.0151523 3.86384 0.045457 3.45473 0.121219C3.03804 0.19698 2.64408 0.318199 2.26527 0.515179C1.89404 0.704583 1.54554 0.954596 1.25007 1.25007C0.954596 1.54554 0.704583 1.88646 0.515179 2.26527C0.318199 2.64408 0.19698 3.03804 0.121219 3.45473C0.045457 3.86384 0.0227285 4.28811 0.00757616 4.70479C0.00757616 4.8942 0.00757616 5.09118 0 5.28058C0 5.50787 0 5.73515 0 5.96244V13.0992C0 13.3265 0 13.5537 0 13.781C0 13.9704 0 14.1674 0.00757616 14.3568C0.0151523 14.7735 0.045457 15.1978 0.121219 15.6069C0.19698 16.0236 0.318199 16.4175 0.515179 16.7963C0.704583 17.1676 0.954596 17.5161 1.25007 17.8116C1.54554 18.107 1.88646 18.357 2.26527 18.5464C2.64408 18.7434 3.03804 18.8646 3.45473 18.9404C3.87142 19.0162 4.28811 19.0389 4.70479 19.054C4.8942 19.054 5.09118 19.054 5.28058 19.0616C5.50787 19.0616 5.73515 19.0616 5.96244 19.0616H13.0992C13.3265 19.0616 13.5537 19.0616 13.781 19.0616C13.9704 19.0616 14.1674 19.0616 14.3568 19.054C14.7735 19.0465 15.1978 19.0162 15.6069 18.9404C16.0236 18.8646 16.4175 18.7434 16.7963 18.5464C17.1676 18.357 17.5161 18.107 17.8116 17.8116C18.107 17.5161 18.357 17.1752 18.5464 16.7963C18.7434 16.4175 18.8646 16.0236 18.9404 15.6069C19.0162 15.1902 19.0389 14.7735 19.054 14.3568C19.054 14.1674 19.054 13.9704 19.0616 13.781C19.0616 13.5537 19.0616 13.3265 19.0616 13.0992V5.96244Z" fill="url(#paint0_linear_308_428)"/>
<path d="M9.52059 6.93354C10.3085 6.93354 10.9449 7.56993 10.9449 8.35785C10.9449 9.14577 10.3085 9.78217 9.52059 9.78217C8.73267 9.78217 8.09627 9.14577 8.09627 8.35785C8.09627 7.56993 8.73267 6.93354 9.52059 6.93354ZM13.6269 8.85788C13.6269 10.267 12.9147 11.5095 11.8313 12.252C11.7783 12.2899 11.7025 12.252 11.7025 12.1838C11.7177 11.9338 11.7252 11.7141 11.7025 11.4868C11.7025 11.411 11.7252 11.3353 11.7859 11.2898C12.4298 10.6837 12.8389 9.82005 12.8389 8.87303C12.8389 7.00172 11.2783 5.47891 9.38421 5.55467C7.6417 5.62286 6.24011 7.04718 6.19465 8.78212C6.17192 9.7746 6.58104 10.6686 7.24016 11.2898C7.29319 11.3429 7.3235 11.411 7.3235 11.4868C7.30835 11.7141 7.31592 11.9338 7.3235 12.1838C7.3235 12.252 7.25531 12.2899 7.1947 12.252C6.09616 11.502 5.384 10.2367 5.39915 8.80485C5.42946 6.63049 7.17198 4.84252 9.34633 4.75918C11.6874 4.66826 13.6117 6.54715 13.6117 8.85788H13.6269ZM9.50543 2.73634C12.892 2.72877 15.6497 5.47891 15.6497 8.86546C15.6497 11.5323 13.9375 13.8127 11.551 14.6461C11.4904 14.6688 11.4298 14.6158 11.4449 14.5552C11.4752 14.343 11.5055 14.1385 11.5358 13.9263C11.5434 13.8506 11.5889 13.79 11.6571 13.7597C13.5435 12.9339 14.8694 11.0474 14.8694 8.85788C14.8694 5.8956 12.445 3.49396 9.48271 3.51669C6.58104 3.53942 4.2097 5.90318 4.17939 8.80485C4.15666 11.0171 5.49007 12.9263 7.39168 13.7597C7.45987 13.79 7.50533 13.8506 7.5129 13.9263C7.54321 14.1309 7.57351 14.343 7.60382 14.5552C7.61139 14.6158 7.55078 14.6688 7.49775 14.6461C5.08853 13.7975 3.36117 11.4868 3.39905 8.7897C3.43693 5.45619 6.17192 2.7515 9.51301 2.73634H9.50543ZM9.52059 10.3655C10.0661 10.3655 10.5206 10.5398 10.7858 10.8201C10.9222 10.9641 10.9979 11.108 11.0207 11.3201C11.0661 11.7292 11.0434 12.0777 10.9904 12.6384C10.9449 13.1687 10.8616 13.8809 10.7479 14.6082C10.6646 15.1234 10.604 15.4037 10.5434 15.6007C10.4449 15.9264 10.0888 16.2068 9.52816 16.2068C8.96753 16.2068 8.60387 15.9264 8.51296 15.6007C8.45235 15.4037 8.39174 15.1234 8.3084 14.6082C8.19476 13.8809 8.11142 13.1687 8.06596 12.6384C8.02051 12.0777 7.9902 11.7292 8.03566 11.3201C8.05839 11.108 8.13415 10.9641 8.27052 10.8201C8.53568 10.5474 8.99025 10.3655 9.53574 10.3655H9.52059Z" fill="white"/>
<defs>
<linearGradient id="paint0_linear_308_428" x1="9.53081" y1="0" x2="9.53081" y2="19.0616" gradientUnits="userSpaceOnUse">
<stop stop-color="#B378B3"/>
<stop offset="1" stop-color="#733A96"/>
</linearGradient>
</defs>
</svg>
