<svg width="120" height="29" viewBox="0 0 120 29" fill="none" xmlns="http://www.w3.org/2000/svg">
<g clip-path="url(#clip0_34_281)">
<mask id="mask0_34_281" style="mask-type:luminance" maskUnits="userSpaceOnUse" x="0" y="-1" width="120" height="30">
<path d="M119.704 -0.0022583H0.671875V28.0623H119.704V-0.0022583Z" fill="white"/>
</mask>
<g mask="url(#mask0_34_281)">
<path d="M0.671875 10.5641H5.62034V9.55005C5.57978 7.52199 5.94483 6.14292 6.63437 5.41282C7.03998 4.96664 7.44559 4.96664 7.52671 4.96664H8.62187V18.8792H5.09305V23.7871H20.8308V18.9603H16.3285V5.00721H16.9774H17.1397C17.7481 5.00721 18.1943 5.16945 18.5998 5.57506C19.33 6.30516 19.695 7.60312 19.7761 9.63118L19.8167 10.6047H24.5624V0.0993042H0.671875V10.5641Z" fill="white"/>
<path d="M30.0396 -0.0022583V23.8883" stroke="white" stroke-width="0.597263"/>
<path d="M36.7314 2.14082H41.3754V10.4944L48.7662 2.14082H54.5428L47.0671 10.1262L55.0525 22.1043H49.5307L43.9239 13.5243L41.3754 16.2427V22.1043H36.7314V2.14082ZM56.404 7.52105H60.5949V9.10681C61.0103 8.46495 61.5954 7.97412 62.3506 7.63432C63.1246 7.27564 63.9835 7.09629 64.9274 7.09629C66.4754 7.09629 67.7213 7.56824 68.6653 8.51215C69.6281 9.45605 70.1094 10.8625 70.1094 12.7314V22.1043H65.692V13.7791C65.692 12.9485 65.4938 12.3067 65.0973 11.8536C64.7009 11.3816 64.1251 11.1457 63.37 11.1457C62.5771 11.1457 61.9541 11.4005 61.5011 11.9102C61.048 12.401 60.8214 13.0807 60.8214 13.949V22.1043H56.404V7.52105ZM70.8802 26.7766V23.0388H71.2766C72.1639 23.0388 72.6075 22.6235 72.6075 21.7929V7.52105H77.0249V22.1326C77.0249 23.7372 76.6002 24.9077 75.7507 25.644C74.9201 26.399 73.7874 26.7766 72.3527 26.7766H70.8802ZM74.7879 6.2751C74.0517 6.2751 73.4476 6.03912 72.9756 5.56718C72.5037 5.07635 72.2677 4.46282 72.2677 3.72657C72.2677 2.99033 72.5037 2.38624 72.9756 1.91428C73.4664 1.42345 74.0706 1.17804 74.7879 1.17804C75.5242 1.17804 76.1377 1.42345 76.6285 1.91428C77.1194 2.40511 77.3648 3.00921 77.3648 3.72657C77.3648 4.46282 77.1194 5.07635 76.6285 5.56718C76.1377 6.03912 75.5242 6.2751 74.7879 6.2751ZM79.5089 7.52105H83.9264V22.1043H79.5089V7.52105ZM81.6893 6.2751C80.9531 6.2751 80.349 6.03912 79.8771 5.56718C79.4051 5.07635 79.1691 4.46282 79.1691 3.72657C79.1691 2.99033 79.4051 2.38624 79.8771 1.91428C80.3679 1.42345 80.972 1.17804 81.6893 1.17804C82.4256 1.17804 83.0391 1.42345 83.5299 1.91428C84.0207 2.40511 84.2662 3.00921 84.2662 3.72657C84.2662 4.46282 84.0207 5.07635 83.5299 5.56718C83.0391 6.03912 82.4256 6.2751 81.6893 6.2751ZM93.5232 27.2014C92.1073 27.2014 90.8614 26.9937 89.7853 26.5784C88.7092 26.1631 87.8598 25.5684 87.2368 24.7944C86.6138 24.0393 86.2834 23.1615 86.2457 22.161H90.7198C90.7953 22.614 91.0973 22.9727 91.6259 23.237C92.1545 23.5202 92.7869 23.6618 93.5232 23.6618C94.5615 23.6618 95.3637 23.4258 95.9301 22.9538C96.5153 22.5008 96.8078 21.8117 96.8078 20.8867V19.4142C96.3926 20.0749 95.7886 20.5846 94.9957 20.9433C94.2027 21.2831 93.3627 21.453 92.4754 21.453C91.0973 21.453 89.8891 21.1416 88.8508 20.5185C87.8314 19.8956 87.048 19.0461 86.5006 17.9701C85.972 16.8751 85.7077 15.6481 85.7077 14.2888C85.7077 12.9107 85.9814 11.6742 86.5288 10.5793C87.0764 9.48436 87.8598 8.63485 88.8792 8.03076C89.8986 7.40778 91.0879 7.09629 92.4472 7.09629C93.3721 7.09629 94.2217 7.27564 94.9957 7.63432C95.7886 7.97412 96.3926 8.47439 96.8078 9.13512V7.52105H101.226V20.5185C101.226 22.7273 100.574 24.3885 99.2717 25.5024C97.9691 26.635 96.0529 27.2014 93.5232 27.2014ZM93.4948 17.8568C94.4576 17.8568 95.2505 17.5452 95.8734 16.9223C96.4965 16.2805 96.8078 15.3932 96.8078 14.2605C96.8078 13.1278 96.4965 12.2499 95.8734 11.627C95.2505 10.9852 94.4576 10.6642 93.4948 10.6642C92.5321 10.6642 91.7392 10.9852 91.1162 11.627C90.4933 12.2499 90.1818 13.1278 90.1818 14.2605C90.1818 15.3932 90.4933 16.2805 91.1162 16.9223C91.7392 17.5452 92.5321 17.8568 93.4948 17.8568ZM110.459 22.5291C108.949 22.5291 107.617 22.2081 106.466 21.5663C105.334 20.9244 104.456 20.0183 103.833 18.8478C103.209 17.6774 102.899 16.3182 102.899 14.7702C102.899 13.2788 103.209 11.9574 103.833 10.8058C104.474 9.63539 105.362 8.72924 106.495 8.08739C107.627 7.42666 108.93 7.09629 110.403 7.09629C111.875 7.09629 113.177 7.39835 114.31 8.00244C115.462 8.60653 116.349 9.45605 116.972 10.551C117.614 11.627 117.935 12.8635 117.935 14.2605V14.2888C117.935 15.0439 117.878 15.7047 117.765 16.271H107.373C107.391 17.1394 107.693 17.8379 108.278 18.3665C108.864 18.8762 109.628 19.131 110.572 19.131C111.252 19.131 111.828 18.9989 112.299 18.7346C112.772 18.4514 113.093 18.0738 113.262 17.6019H117.736C117.321 19.1877 116.481 20.4053 115.216 21.2548C113.951 22.1043 112.366 22.5291 110.459 22.5291ZM113.433 13.1845C113.413 12.3538 113.131 11.6836 112.583 11.1739C112.035 10.6453 111.318 10.381 110.431 10.381C109.563 10.381 108.845 10.6359 108.278 11.1457C107.712 11.6554 107.41 12.3349 107.373 13.1845H113.433Z" fill="white"/>
</g>
</g>
<defs>
<clipPath id="clip0_34_281">
<rect width="120" height="28.0645" fill="white" transform="translate(0 -0.0022583)"/>
</clipPath>
</defs>
</svg>
