<svg width="116" height="116" viewBox="0 0 116 116" fill="none" xmlns="http://www.w3.org/2000/svg">
<path d="M38.6667 43.5H77.3333M38.6667 62.8333H67.6667M87 19.3333C90.8456 19.3333 94.5338 20.861 97.2531 23.5803C99.9723 26.2995 101.5 29.9877 101.5 33.8333V72.5C101.5 76.3456 99.9723 80.0337 97.2531 82.753C94.5338 85.4723 90.8456 87 87 87H62.8333L38.6667 101.5V87H29C25.1544 87 21.4662 85.4723 18.747 82.753C16.0277 80.0337 14.5 76.3456 14.5 72.5V33.8333C14.5 29.9877 16.0277 26.2995 18.747 23.5803C21.4662 20.861 25.1544 19.3333 29 19.3333H87Z" stroke="white" stroke-opacity="0.16" stroke-width="9.66667" stroke-linecap="round" stroke-linejoin="round"/>
</svg>
