<?xml version="1.0" encoding="UTF-8"?>
<svg id="Layer_1" data-name="Layer 1" xmlns="http://www.w3.org/2000/svg" version="1.1" viewBox="0 0 1393.6 180.4">
  <defs>
    <style>
      .cls-1 {
        fill: #000;
        stroke-width: 0px;
      }
    </style>
  </defs>
  <path class="cls-1" d="M.8,180.3v-36c4.9,0,9.6-.1,14.3,0,2.8,0,4.2-.6,4.2-3.7,0-33.6,0-67.2,0-100.7,0-3.2-1.4-4.1-4.5-4-4.9.1-9.8,0-14.9,0V.2C1.7.2,3.3,0,4.9,0c38.4,0,76.7,0,115.1,0,12.3,0,24.6.8,36.3,5.3,17,6.6,25.9,18.8,26.4,36.5.6,23-9.5,36.1-32.6,42.2-.9.2-1.6.7-3.5,1.6,5.4,1.3,9.9,2.3,14.1,3.5,16.7,4.9,26.1,15.9,28.2,32.5,1.5,11.5.9,23-4.4,33.6-6.5,13-18.6,19.1-32.5,21.4-12.4,2-25.1,3.3-37.7,3.5-36.2.5-72.4.2-108.6.2H.8ZM73.8,122.8c0,5.7.1,11.4,0,17.2-.1,3.3,1,4.5,4.5,4.4,10.8-.2,21.7.3,32.5-.3,4.9-.2,10.1-1.5,14.5-3.6,7.2-3.4,10.6-12.4,9.2-21-1.4-8.8-7.7-16.1-17.3-17.1-13.3-1.3-26.8-1.3-40.3-1.5-1,0-2.9,2.4-3,3.7-.3,6-.1,12.1-.1,18.1h0ZM73.8,53.9c0,4.6.2,9.2,0,13.8-.1,3.1,1.1,4.2,4.3,4.1,8.9-.2,17.8.2,26.6-.3,4.5-.2,9.1-1.3,13.2-2.9,7.6-3.1,10.9-10.7,9.4-19.9-.9-5.6-6.9-10.8-14.2-11.3-11.6-.8-23.3-1-34.9-1.5-3.2-.1-4.5,1.1-4.4,4.2.1,4.6,0,9.2,0,13.8h0Z"/>
  <path class="cls-1" d="M438.9.3h168.7c0,10.7.1,21.1-.1,31.6,0,1.4-1.7,3-2.8,4.3-32.4,34.9-64.8,69.8-97.3,104.7-.7.8-1.3,1.6-2.4,3,1.6.2,2.5.5,3.3.5,17.3,0,34.6,0,51.9,0,3.1,0,4.6-.7,5.3-4,2.1-10.1,4.7-20,7.2-30.1h35.8v69.7h-173.1c-.1-1.1-.4-2.3-.4-3.5,0-9.7-.2-19.4.1-29.1,0-2.6,1.1-5.7,2.9-7.6,30.6-33.5,61.3-66.9,92-100.3.7-.8,1.3-1.6,2.3-2.9-1.5-.3-2.4-.7-3.3-.7-14.2,0-28.3.1-42.5,0-3.5,0-5.1,1.1-5.8,4.3-1.5,7.1-3.1,14.3-5,21.3-.3,1.2-2.1,3-3.2,3.1-11.2.2-22.3.1-33.8.1V.3h0Z"/>
  <path class="cls-1" d="M1125,37.1h19.9V.2h-120.6v37l22.5-.3-48.6,105.9h-13.8v36.9h92.3v-36.9h-24.1l5.8-12h55.7l5.8,12h-22.5v37.3h92.3v-36.9h-16.4l-48.2-105.9h0ZM1102.5,104.6h-32.5l16.4-38.5,16.1,38.5Z"/>
  <path class="cls-1" d="M1211.4,35.9V.3h78.9v35.6h-12.6c7.9,25.4,15.6,49.9,23.6,75.5,1.2-1.6,2.3-2.5,2.7-3.6,7.6-23.2,15.2-46.5,22.8-69.7.1-.4,0-.9-.2-1.9-3.8-.2-7.6-.4-11.7-.6V.4h78.9v35c-.7.2-1.5.5-2.2.5-8.8.4-8.7.4-11.6,8.1-11.8,30.9-23.7,61.7-35.6,92.6-5.1,13.4-10.3,26.7-15.3,40.1-1.1,2.8-2.6,3.8-5.7,3.8-14-.2-28-.1-42,0-2.8,0-4.2-.7-5.2-3.5-12.9-34.1-25.9-68-39-102-4.6-11.9-9.3-23.7-13.6-35.6-1.5-4.1-4.7-3.2-7.7-3.3-1.3,0-2.6,0-4.3,0h0Z"/>
  <path class="cls-1" d="M858,27.9V.3h99.2v27.6c-4.2,0-8.6,0-12.9,0-10.5,0-9-1-9.1,6.9,0,33.2.2,66.3-.2,99.5,0,7.2-1.1,14.6-3.9,21.4-5.2,12.8-18.8,19.1-35.5,21.1-13.9,1.7-28,2-42.6,3v-38.5c3.9-.4,7.8-.7,11.6-1.2,10.5-1.5,15.4-5.7,15.5-13.8.2-10.6,0-21.2,0-31.8,0-20.8-.1-41.7.1-62.5,0-3.5-1.5-4.5-5.9-4.3-5.4.2-10.8,0-16.4,0h0Z"/>
  <path class="cls-1" d="M372.9,109.3c24.3-10.1,36.3-27.2,36.6-52.3,0-14.7-4.4-26.6-13.2-35.5C377,2.9,342.3,1.4,301.9,1.4h-91.4v37h24v104.9h-23.6v36.7h98.4l.3-37h-20.2v-24.2h36.9l31.5,60.9h53.9v-36.7l-19.5-.3-19.2-33.3h0ZM289.3,38.4h40.4c9.5.3,21.4,1.5,27.8,7.7,3.1,3.1,4.7,7.7,4.7,12.8,0,13.5-5.4,22.3-30.9,22.3h-42.2l.3-42.8h0Z"/>
  <path class="cls-1" d="M731.2.2c-49.7,0-90,40.3-90,90s40.3,90,90,90,90-40.3,90-90S781,.2,731.2.2ZM771.4,95c-2.7,16.7-11.6,29.2-29.1,33.9-20.8,5.5-40-4.3-47.8-23.8-8.9-22.4,1.4-46.8,23.6-55.2,4.2-1.6,8.9-1.9,13.3-2.8,27,.3,43.6,25.4,39.9,47.9h0Z"/>
</svg>