<?xml version="1.0" encoding="utf-8"?>
<!-- Generator: Adobe Illustrator 24.2.1, SVG Export Plug-In . SVG Version: 6.00 Build 0)  -->
<svg version="1.1" id="Layer_1" xmlns="http://www.w3.org/2000/svg" xmlns:xlink="http://www.w3.org/1999/xlink" x="0px" y="0px"
	 viewBox="0 0 1280 1280" style="enable-background:new 0 0 1280 1280;" xml:space="preserve" class="hrvatska-izborne">
<style type="text/css">
	.st0{fill:#999999;}
	.st1{fill:none;stroke:#FFFFFF;stroke-linecap:round;stroke-linejoin:round;}
</style>
<g transform="matrix( 1, 0, 0, 1, 0,0) ">
	<g id="izborna_x5F_10">
		<g id="Layer1_0_MEMBER_0_FILL">
			<path class="st0" d="M920.3,1066.4c-0.7,0.9-0.3,1.8,1.2,2.5c1.4,0.7,2.4,0.8,3.1,0.4c0.8-0.4,0.6-1.3-0.8-2.8
				C922.5,1065.1,921.3,1065,920.3,1066.4 M895.8,1044.6c-1-0.6-1.8-0.5-2.4,0.5c-0.8,1.3-1.9,2.1-3.1,2.2c-1.4,0.1-2.9-0.3-4.6-1.4
				c-1.5-1-2.4-1.4-2.6-1.3c-1.6,0.6-1.1,1.9,1.7,4c2.5,1.9,4.3,2.9,5.3,3c0.4,0,1.5,0,3.3,0c1.8,0.1,3.1,0.3,4,0.8
				c0.7,0.4,2,1.6,4.1,3.8c2.1,1.9,3.9,2.8,5.4,2.8c1.6,0,2.2-0.5,1.7-1.6c-0.9-1.2-1.5-2-1.7-2.4c-0.3-0.7-1.9-2.3-4.7-5
				C899.2,1047.2,897.1,1045.4,895.8,1044.6 M916,1062.5c-1.1-0.7-1.9-1.3-2.3-1.6c-0.5-0.4-1.2-0.5-2.2-0.3l-1.3,0.3
				c-0.8,0-1.2,0.3-1,0.9c0.1,0.5,0.6,1.1,1.3,1.7c2,1.6,3.7,2,4.9,1.3C916.5,1064,916.8,1063.2,916,1062.5 M682.3,1045.9
				c2.5,0.6,3.9,0.6,4,0c0.2-0.6-0.3-1.2-1.6-1.7C683.4,1043.8,682.6,1044.3,682.3,1045.9 M704.7,1038.8c-2.3-0.4-3.6-0.3-4,0.1
				c-0.2,0.3-0.4,0.8-0.6,1.6c-0.3,0.4-0.9,0.3-1.6-0.3c-1-0.8-1.6-1.3-1.9-1.3c-2,0.1-1.7,1.4,0.9,3.8c3,2.8,4.4,4.3,4.3,4.5
				c-0.3,0.7,0.3,1.8,1.8,3.2c1.5,1.4,2.8,1.8,3.7,1.1c1.2-0.8,2.4-1.3,3.7-1.4c1.5-0.2,2.5,0.3,2.9,1.4c0.7,1.9,2.9,1.3,6.4-1.8
				c1.4-1.2,2.6-2.6,3.5-4.2c1-1.7,1.5-3.3,1.5-4.8c0-1.3-0.8-1.8-2.5-1.7c-3.9,0.4-6.1,0.6-6.7,0.6c-2.8-0.1-4.7-0.1-5.7-0.2
				C709,1039.3,707.1,1039.1,704.7,1038.8 M798.2,1034.3c-1,0.7-2,1.3-2.8,1.9c-0.6,1.6,1,3.2,4.8,4.8c3.8,1.7,6.8,1.9,9,0.7
				c1.7-0.9,3.4-0.4,5.1,1.6c2.2,2.5,4.1,3.8,5.6,4.1c1.7,0.2,3.1,0.4,4,0.6c0.3,0,1.2-0.2,2.5-0.6c1.1-0.4,2.7,0.1,4.7,1.6
				c2.6,1.9,4.9,3,6.9,3.4c1.9,0.4,3.3,0.8,4.3,1.3s3.1,1.2,6.2,1.8c3.7,0.9,5.9,1.4,6.5,1.4s1.9,0,3.9-0.2c2,0,3.5,0.5,4.4,1.5
				c1.9,2.2,3.1,3.5,3.7,4c1.7,1.2,2.8,1.6,3.3,1.1c0.9-0.8,1.7-1.2,2.5-1.1c1.5,0.1,2.6-0.3,3.4-1.3c0.7-0.9,0.9-2.2,0.6-3.7
				c-0.2-1.1-1.8-2.1-4.5-3.1c-4.4-1.4-7.3-2.4-8.5-3c-2.6-1.3-4.6-2.1-6.2-2.5c-3-0.6-6.2-1.3-9.7-2.1c-3.8-0.9-6.3-1.8-7.5-2.7
				c-1.3-1-2.8-1.8-4.7-2.3c-4.8-1.2-7.2-1.8-7.3-1.9c-1.9-0.6-4-1.8-6.3-3.6c-1.8-1.4-4-1.9-6.4-1.6c-2.6,0.4-4.7,0.2-6.3-0.8
				c-2.4-1.5-3.8-2.4-4.3-2.7c-0.5-0.3-1.3-0.1-2.3,0.4C801.8,1032,800.3,1032.9,798.2,1034.3 M675.5,983.7l-6.2,1
				c-2.6,1.2-1.7,2.5,2.8,3.9c5.3,1.6,7.9,2.7,7.8,3.4c-0.1,0.9-1,1.5-2.6,1.8c-2.5,0.4-4.3,0.8-5.2,1.1c-1.8,0.8-2.8,1.9-2.9,3.4
				c-0.1,1.4,0.6,2.5,2,3.2c0.9,0.5,2.4,0.5,4.4,0.1c2.7-0.5,5-0.6,6.9-0.4c2.5,0.2,4,0.8,4.8,1.8c0.4,0.7,1.4,2.1,2.8,4.3
				c1.3,1.4,3.6,1.6,7,0.7c4.7-1.3,8.1-1.9,10.2-1.8c2.6,0.2,5.4,0.5,8.3,1c2.3,0.1,5.2-0.6,8.8-2.3c3.9-1.9,6.5-2.9,7.8-3.2
				c0.4-0.1,3.5-0.3,9.3-0.6c4-0.2,7.3,0.2,9.9,1.4c3.9,1.8,6.7,2.9,8.3,3.2c3.7,0.8,6.5,0.5,8.3-0.8c1.5-1.1,1.9-2.1,1.3-3.2
				c-1.1-1.9-2.1-3.6-3.1-5.1c-2-2.7-3.7-4.1-5.2-4.3c-1.4-0.2-4.3-0.9-8.6-2.3c-4.4-1.4-6.9-2.2-7.6-2.3c-2.9-0.7-6.9-1.2-12-1.3
				c-7.6-0.2-12.8,0.9-15.8,3.2c-3.2,2.5-7.3,3.3-12.3,2.3c-3.6-0.7-8.5-2.5-14.8-5.6C685.1,984.3,680.5,983.4,675.5,983.7
				 M676.3,956.3c-2.1,1.3-2.2,2.7-0.2,4.2c1.4,1.1,2.5,1.7,3.4,1.9c1.7,0.4,3.3-0.3,4.8-1.9c2.3-2.5,3.5-3.9,3.6-4.2
				c0.3-0.9-0.9-1.5-3.6-1.6C680.9,954.5,678.3,955,676.3,956.3 M826.3,938.2c-2.5-1.4-4.3-3-5.3-4.9c-0.5-0.9-0.9-2.5-1.4-5
				c-0.4-2.1-1-3.8-2-5c-1.4-1.8-3.7-3.5-7-4.9c-5.9-2.6-9.9-5.6-12-8.9c-0.7-1.5-1.4-3-2.1-4.5c-1.6-3-3.3-5.7-5.3-8.3
				c-4-5.3-6.1-9.7-6.4-13.3c-0.3-2.7,0.5-5.2,2.4-7.5c2-2.3,3-5.2,3.3-8.7c0.3-4.2-1.1-7.8-4.1-10.7c-2.7-2.6-6-3.9-9.8-3.7
				c-4.2,0.7-7.3,1.1-9.4,1.1c-2.1,0-6-2.8-11.8-8.3c-0.5-0.5-1-1-1.5-1.5l-55.8,5.8l-20.3,17.8c1.2,0.3,2.2,0.7,3,1.2
				c1.6,0.8,3.7,2.6,6.3,5.4c2.2,2.3,6.8,3.7,14,4.3c3.8,0.3,8.3,0.4,13.5,0.4c1.9,0.1,4,1.6,6,4.3c1.2,1.6,3,4.1,5.3,7.5
				c0.1,0.1,2.4,2.8,6.9,8c2.3,2.6,3.8,4.7,4.6,6.3c0.3,0.5,0.5,0.9,0.6,1.3c0.5,1.3,1.7,2.5,3.8,3.7c2.1,1.1,3.4,2.4,4,3.8
				c0.8,1.9,1.6,3.4,2.5,4.5c0,0.1,1.5,1.6,4.4,4.5c2.5,2.5,4,3.9,4.4,4.2c1,0.7,2.5,1.4,4.6,1.9c1.7,0.4,3.5,1.9,5.6,4.4
				c2.1,2.6,3.8,4.1,5.1,4.6c2,0.7,4.9,2.3,8.5,4.6s5.9,4.2,7.1,5.5c0.9,1,1.8,1.7,2.8,1.9c2.6,0.7,4.2,1.1,4.7,1.3
				c2,0.7,3.4,1.8,4.2,3.4c0.5,0.9,1.1,2.1,1.9,3.8c0.6,0.8,1.9,2.7,4.1,5.8c2.2,3,4,5.2,5.4,6.6c0.9,0.9,1.8,1.1,2.6,0.6
				c0.6-0.4,1-1.1,1.4-2c-1.4,5.1,0.4,7.4,5.5,6.9c2.3-0.2,4.5-0.5,6.6-0.9c1-0.2,1.4-0.2,1.2,0c-0.2,0.3-0.9,1.1-2.3,2.5
				c-1.2,1.5-1.9,3-2,4.4c-0.1,1.7,1.1,4.1,3.8,7.3c2.4,2.9,5,5.4,7.8,7.4c2.4,1.7,6.1,2.2,11.1,1.4c4.4-0.7,7.8-1.8,10.3-3.4
				c2.9-1.6,5.1-2.9,6.6-3.8c2.7-1.7,4.6-3.4,5.8-5.2c1.3-1.9-0.6-7.4-5.6-16.3c-4.9-8.6-8.2-13.3-10-14c-0.7-0.3-4.3-2.6-10.6-6.9
				C836.4,944.1,830.6,940.5,826.3,938.2 M990.3,1083.1c-4-0.2-7.3-0.4-9.8-0.5c-4.6-0.1-7.9,0-10,0.3c-1.6,0.3-3.1-0.7-4.3-2.8
				c-1.7-2.9-3.7-5-6-6.2c-2.8-1.3-4.7-2.3-5.7-2.9c-0.9-0.6-1.5-0.9-1.8-1.1c-0.4-0.2-1-0.8-1.7-1.8c-0.7-1.1-2.2-2.2-4.5-3.4
				c-2.2-1.2-3.5-2.2-3.6-3c-0.3-1.3-0.8-2.2-1.3-2.8c-0.9-1-2.3-2.8-4-5.2c-2.4-3.3-4.3-5.9-5.8-7.8c-1.8-2.4-3.3-3.3-4.4-2.8
				c-1.7,0.8-3.1,1-4.3,0.5c-1.8-0.7-3.1-1.9-3.9-3.6c-1-2-2-3.4-3-4.3c-2.5-1.9-4.1-3.1-4.6-3.3c-1.5-0.8-3.8-1.4-6.7-1.8
				c-2.7-0.4-3.8-1.2-3.3-2.5c1-1.5,1.5-2.5,1.3-3c-1-1-1.9-2-2.7-3c-1.5-1.8-2.5-4.1-2.8-6.9c-0.4-3.5-1.7-6.7-3.9-9.7
				c-2.1-2.9-4.2-4.3-6.2-4.2c-1.2,0.1-2.6,1.2-4,3.3c-1.1,1.7-2.2,2-3.2,1c-1.2-1.2-2.5-2.1-3.9-3c-2.1-1-4.1-2.1-5.9-3.1
				c-2.3-1.3-4.5-1.5-6.5-0.4c-1.1,0.6-2.3,1.6-3.7,3c-0.5,0.3-0.8,1.6-1,4c-0.2,2.8-0.8,5.3-1.9,7.3c-1.1,2.3-3,2.2-5.7-0.3
				c-2.9-3.5-5-5.6-6.2-6.3c-3.3-1.9-5.3-3.1-6-3.4c-2.6-1.3-4.6-1.8-6.1-1.5c-0.8,0.1-2,0.4-3.5,0.9c-1.1,0.3-2.5,0.5-4,0.5
				c-2.2,0-3.5-0.3-4-1c-0.7-0.9-0.7-3,0-6.3c0.6-2.8-0.5-4.4-3.3-4.8c-1.7-0.2-3-0.3-4-0.4c-1.7-0.2-3-0.6-4-1.1
				c-3.9-2.5-7.3-4.6-10-6.2c-5.1-3-9.8-4.8-14-5.4c-2.7-0.4-7.2-1.5-13.4-3.2c-4.7-1.4-8.4-2-10.9-1.8c-2.6,0.2-4.8,0.6-6.5,1.2
				c-2.8,0.9-5.2,1.6-7.1,2c-3,0.7-5-0.1-5.8-2.5c-0.4-1.5-0.7-2.7-1-3.5c-0.5-1.5-1.2-2.8-2-3.7c-1.8-2-2.6-2-2.3,0.1
				c0.2,1.6,0.8,3.6,1.8,5.9c0.6,1.3,0.5,2.4-0.2,3.4c-0.4,0.5-1,1.2-1.8,2.1c-0.8,2.3,3,4.5,11.6,6.4c1.6,0.4,7.3,1.4,17.3,3
				c2.4,0.3,3.9,0.3,4.6,0.1c2.5-0.8,4.1-1.2,4.9-1.3c2.4-0.4,4.7,0.8,6.9,3.6c2.8,3.5,5,5.5,6.7,6.1c2.5,1,5,2.5,7.5,4.5
				c1.3,1.1,3,2.6,4.9,4.5c1,0.9,2.6,1,4.6,0.4c2.8-0.9,4.3-1.3,4.4-1.3c1.5,0,3,0.5,4.6,1.5c1.9,1.2,2.9,2.8,2.9,4.5
				c0,1.6-0.2,2.6-0.6,3c-0.5,0.5-0.8,0.8-0.8,1c-0.1,0.6,3.4,2.4,10.5,5.5c8.8,3.8,13.3,5.8,13.5,5.9c1.4,0.7,5,1.9,11,3.5
				s9.3,2.6,10.1,3.1c0.3,0.2,2.1,0.8,5.5,2c2.6,0.9,4.3,1.9,5.3,2.9c0.8,0.9,1.8,2,3,3.5c1.1,0.9,2.2,0.8,3.3-0.3
				c0.9-0.9,0-2.7-2.8-5.3c-3.4-3.2-5.2-5.5-5.5-7.1c-0.3-1.7,1.3-0.8,4.8,2.8c4,4,6.4,5.8,7,5.3c0.3-0.2,1-1.4,2.1-3.7
				c0.9-1.7,2.2-2.5,4-2.4c1.7,0.1,3.2,1.2,4.5,3.3c1.3,2.1,2.4,3.1,3.3,3.1c1.5,0,2.4,0.3,2.8,0.9c0.4,0.7,0.2,1.4-0.8,2.3
				c-0.9,0.8-1,1.5-0.5,2.2c0.3,0.4,1.1,0.9,2.2,1.7c1.3,1,4.2,3.2,8.6,6.3c5.5,3.9,9.5,6.7,12.2,8.3c2.4,1.4,4.2,2.4,5.5,2.9
				c1.6,0.6,2.5,0.9,2.9,1.1c1.1,0.6,1.6,1.6,1.6,3.2c0,0.8-0.2,2-0.4,3.4c0,0.8,0.4,1.5,1.3,2.1c0.5,0.4,1.2,0.8,2.3,1.4
				c1.9,1,2.9,1.5,3,1.6c1.4,0.9,2.6,1.8,3.4,3c0.6,0.8,1.1,1.8,1.3,2.9c0.1,0.3,0.3-0.1,0.7-0.9c0.5-1,2.1-1.1,5-0.3
				c3.5,1,5.5,1.5,6,1.4c1.6-0.2,2.9-0.1,3.9,0.2c1.4,0.4,2.7,1.3,3.9,2.8c1.1,1.3,1.3,2.6,0.8,3.8c-0.1,0.2-0.2,0.5-0.4,0.8
				c-0.4,0.7-1,1.7-1.8,2.9c-0.6,1.3-0.4,2.3,0.5,3.1c0.5,0.4,2.6,1.4,6.3,3c2,0.9,3.5,2.4,4.7,4.5c0.9,1.8,2.8,3,5.8,3.6
				c3.2,0.7,6.8,2.9,11,6.7c5,4.5,7.9,7,8.8,7.5c2,1.1,2.8,2,2.3,2.6c-0.8,1.1-1.1,2-0.9,2.6c0.3,1.1,1.4,1.7,3.3,1.8
				c2.2,0.1,3.4,0.3,3.6,0.5c3.3,3.4,5.4,5.6,6.4,6.5s2.4,2.4,4.3,4.5c1.7,1.7,3.2,2.4,4.5,2c1.1-0.3,0.8-1.5-1-3.5
				c-2.1-2.4-3-4.1-2.8-4.9c0.3-1.4-0.4-3.4-2.1-5.9c-1.8-2.8-4.2-5.2-7.1-7.1c-3.2-2.2-4.9-3.4-5-3.8c-0.3-0.6,0-2.3,1-5.3
				c0.8-2.4,1.2-3.8,1.2-4.4c-0.1-1.4-0.1-2.5,0-3.3c0.3-2.3,0-4.3-0.8-6s-2.3-3.3-4.5-4.7c-0.8-0.5-1.7-1.5-3-2.8
				c-0.4-0.5-0.9-1.2-1.4-1.8C993.6,1084,992,1083.1,990.3,1083.1 M644,1045.2c1-0.5,2.1-0.8,3.5-1c1.7-0.2,2.4-0.9,2-2
				c-0.2-0.6-0.9-1.5-2-2.6c-0.6-0.6-1.3-0.9-2.3-0.8c-1.1,0.3-1.9,0.6-2.5,0.8c-1.6,0.4-2.5,1.6-2.8,3.6s0.2,2.9,1.5,2.7
				C642.3,1045.8,643.1,1045.5,644,1045.2 M449.5,958.3c-0.3-0.8-0.7-1.4-1-2c-0.8-1.1-1.3-1.2-1.5-0.3c-0.4,1.5-0.4,2.7,0.1,3.8
				C447.5,961,448.4,960.5,449.5,958.3 M622.3,930.7c-1.1,0.8,0.2,2.2,3.9,4.1c3.4,1.8,6.9,3.2,10.6,4.1c2.9,0.7,4.8,1.3,5.7,1.8
				c0.7,0.4,1.9,1.2,3.7,2.5c1.5,0.9,2.7,1.2,3.8,0.8c1.9-0.7,3.8-1,5.7-0.8c2.4,0.1,4.2,0.7,5.5,1.8c1.3,1.3,2.8,2,4.3,2.2
				c1.9,0.2,3.5,0.7,4.8,1.5c1.5,1,3,1.6,4.3,2c1.8,0.5,3.9,0.4,6.2-0.3c1.4-0.4,3.7-1.1,7.1-2.1c2.3-0.5,4.9-0.5,7.7,0.1
				c1.6,0.3,3.9,0.7,7,1.3c1.6,0.2,4.3,0.1,7.9-0.2c3.6-0.3,6.3-0.3,8-0.1c1.3,0.2,3.6,0.8,6.7,2c2.5,1,4.8,1.4,6.9,1.2
				c2.2-0.2,5-0.3,8.3-0.2c5.6,0.1,8.7,0.2,9,0.2c3.5,0,6.2-0.1,7.9-0.3c2-0.2,3.8-0.6,5.5-1.2c2.1-0.7,3.8-1.5,4.9-2.4
				c1.5-1.1,1.8-2,0.9-2.8c-0.8-0.7-3.8-1.2-8.8-1.5c-6.6-0.3-11.7-0.5-15.3-0.8c-3.6-0.2-6.7-0.8-9.3-1.7c-2.9-1-6.4-1.7-10.4-2
				c-8.9-0.7-14-1.1-15.4-1.2c-4.3-0.2-7,0-8,0.6s-3.5,0.8-7.6,0.5c-4.6-0.4-7.7-0.5-9.2-0.5c-1.9,0-4.2-1.7-6.9-5.2
				c-2.5-3.7-3.9-5.9-4.4-6.5c-0.7-1.7-1.4-2.8-2-3.5c-1.1-1.3-2.7-1.3-4.9-0.3c-2,1-4.4,0.6-7.1-1.1c-3-1.9-4.9-2.8-5.7-2.7
				c-1.7,0.3-2.9,0.7-3.6,1.3c-0.8,0.6-1.3,1.5-1.3,2.7c0,1,1.1,2,3.4,3.3c3.6,1.9,5.5,3,5.8,3.2c0.8,0.5,1,1,0.6,1.4
				c-0.3,0.4-1,0.6-2,0.7c-2.6,0.2-4.7-0.5-6-2c-1.3-1.4-3-2.6-5-3.5c-1.6-0.7-3-1.1-4-1.1c-1.3,0-3.1,0.2-5.4,0.7
				c-2.9,0.5-4.7,1.2-5.6,1.9C629.1,929.8,626.4,930.5,622.3,930.7 M624.5,938.8c-2.8-1.4-4.4-2.2-5-2.5c-1.5-0.6-3.2-0.8-5-0.4
				c-2,0.4-1.6,1.6,1.2,3.6c0.3,0.2,1.3,0.7,2.8,1.3c1.4,0.6,2.6,1,3.5,1.3c0.6,0.2,1.3,0.5,2.2,1c0.8,0.2,1.6-0.2,2.5-1
				C627.6,941.3,626.9,940.2,624.5,938.8 M562.8,962.3c-0.1,0.3-1.5,1.3-4,3c-1.3,0.9-0.7,1.8,2,2.8c4.1,1.6,6.3,2.5,6.6,2.8
				c0.8,0.7,0.3,2-1.7,3.7c-2.2,2-3.5,3.5-3.7,4.7s1,1.6,3.4,1.1c8.5-1.3,13.5-2.3,15.3-2.9c0.9-0.3,2.6-0.3,5.2,0.1
				c2.2,0.3,3.5,0.3,3.8-0.1c0.8-1.1,3-4.5,6.4-10.1c0.8-0.9,1.5-1.7,1.9-2.3c0.7-1.2,0.6-2.1-0.4-2.7c-0.8-0.5-2.4-0.5-4.9-0.1
				c-2.6,0.4-4.3,0.5-5.2,0.1c-2.2-1.1-4-2-5.4-2.6c-2.6-1.1-4.9-1.6-6.8-1.3c-3.4,0.5-5.9,0.9-7.5,1.3
				C564.9,960.3,563.3,961.2,562.8,962.3 M549.2,984.2c-0.1,0.4-0.3,1.6-0.7,3.8c-0.2,2.1,0,3.3,0.7,3.8c0.8,0.6,2,0.3,3.6-0.8
				c1.5-1.1,2.3-2.1,2.5-3.1c0.2-0.9-0.8-2-2.8-3.3C550.5,983.2,549.4,983.1,549.2,984.2 M503.6,972c-1.6,0.2-2.6,0.4-2.8,0.5
				c-0.9,0.3-1.4,0.8-1.4,1.5c-0.2,1.1,0.1,1.9,0.9,2.6c0.9,0.8,2,0.6,3.3-0.6c1.5-1.3,2.3-2.3,2.3-3.1
				C505.9,972,505.1,971.7,503.6,972 M560,864.5l2.1,2.5c1.7,1.5,3.1,1.7,4.3,0.8c0.7-0.5,0.9-1.2,0.8-2c-0.2-0.7-0.7-1.3-1.4-1.8
				C563.6,862.6,561.7,862.8,560,864.5 M593.5,872c-3.1,0-5,0.9-5.6,2.6c-1,2.8-0.5,4.9,1.5,6.1c1.3,0.7,3.8,1.7,7.5,3
				c2.5,1.3,4.2,2.1,5,2.3c0.8,0.3,3,0.8,6.7,1.7c2.8,0.7,5,2.2,6.8,4.4c1.6,2.2,3.1,3.4,4.5,3.7c2,0.3,4.5,1.3,7.5,2.8
				c1.6,0.9,3.9,2.1,6.9,3.8c2.6,1.2,4.5,2.2,5.7,2.8c0.9,0.4,1.4,0.7,1.5,0.8c0.9,0.4,2.5,1.3,5,2.6c2.6,1.3,5.4,2.4,8.3,3.2
				c4.9,1.3,9.5,2.4,13.9,3.2c1.4,0.3,3.9,0.4,7.6,0.3c4.1-0.2,6.6-0.3,7.4-0.3c2.4,0.2,8.5-1,18.2-3.5c6.5-1.7,10.5-3.2,12.1-4.6
				c0.6-0.5,1-1,1.4-1.7c0.4-0.6,0.7-1.3,0.8-2c0.4-1.4,0.4-2.9,0-4.4c-0.5-2.2-4.3-3.9-11.6-5.2c-1.6-0.3-2.6-1-2.8-2
				c-0.2-1.1-1.4-1.8-3.6-2c-2.5-0.2-4.9-0.3-7.2,0c-3.2,0.2-5,0.3-5.5,0.3c-1.1,0-2.4-0.8-3.8-2.3c-1.4-1.5-3.3-2.3-5.8-2.3
				c-2.8,0-5.5-0.4-8.4-1.3c-3.4-1.2-6.3-2.1-8.8-2.8c-3.1-0.8-6.2-1.3-9.4-1.5c-4,0-7.3-0.1-10-0.2c-3.8-0.1-5.8-0.2-6.1-0.2
				c-0.2,0.2-0.5,0.5-0.8,0.8c-0.5,0.4-0.8,1.1-0.9,2.1c0,0.1,0,1.2,0,3.1c0,0.3,0.3,1.4,0.8,3.1c0.3,1,0,1.6-0.8,1.8
				c-0.4,0.1-0.6,0.9-0.8,2.3c-0.1,1.3-1.2,2.2-3.2,2.6c-2.3,0.5-4-0.1-5-1.8c-0.2-0.3-0.9-2.3-2.1-6c-0.5-1.6-1.2-2.8-2-3.5
				c-1.1-1-1.8-1.8-2.3-2.5c-0.8-1.4-1.6-2.1-2.5-2.1c-0.8,0-1.8,0.5-3,1.6c-0.8,0.7-1.3,0.6-1.5-0.5c-0.3-1.4-0.6-2.2-1.1-2.3
				c-0.7-0.1-2-0.8-4-2c-2.3-1.5-3.8-2.5-4.5-2.8C598.2,872.4,596,872,593.5,872 M581.3,877.5c0.4,0.9,0.9,0.8,1.5-0.5
				s0.5-2-0.3-2.2c-1-0.2-1.6-0.2-1.8-0.1C580.4,874.9,580.6,875.9,581.3,877.5 M582.3,863.5c-0.8-2.5-1.9-3.3-3.3-2.4
				c-1,0.6-2.9,1.4-5.9,2.5c-2.2,1.2-2.5,2.7-1.1,4.7c1.7,2.2,4.8,2.2,9.3,0C582.8,867.6,583.1,866,582.3,863.5z"/>
		</g>
	</g>
</g>
<g transform="matrix( 1, 0, 0, 1, 0,0) ">
	<g id="izborna_x5F_9">
		<g id="Layer1_1_MEMBER_0_FILL">
			<path class="st0" d="M657,735c-1.9-0.2-4.8-4.1-8.5-11.7c-3.5-7.1-6.2-10.3-8.2-9.5c-2.6,1-4.7,0.7-6.2-0.9
				c-1.1-1.2-2.1-3.4-2.8-6.6c-0.3-2.8-0.6-4.6-0.8-5.2c-0.3-0.9-1.7-1.3-4-1.2s-4.4-0.7-6.3-2.5c-2.1-2.5-3.7-4.3-5-5.6
				c-1.4-1.4-2.6-2.1-3.6-2.1c-0.9,0.1-1.5-0.1-1.9-0.5c-0.2-0.2-1.1-2-2.5-5.2c-1.6-3.5-3.8-6.8-6.5-10.1c-1.4-1.7-3.6-4.1-6.7-7.2
				c-0.8-0.8-1-1.7-0.5-2.6c0.6-1.2,0.5-2.7-0.3-4.7s-2.2-3.8-4-5.4c-1.6-1.4-2.5-3.7-2.7-7c-0.1-1.4,0.1-3.7,0.4-6.8
				c0.1-1,0.9-2.8,2.3-5.4c1.4-2.6,2.1-4.2,2.1-5c0-1.3-0.9-2.8-2.6-4.5c-1.9-1.8-3.8-2.8-5.8-2.8c-2.3,0-3.8-0.1-4.4-0.3
				c-0.8-0.3-1.5-1.1-2.2-2.3c-0.6-1.1-0.1-1.8,1.3-2.3c0.9-0.3,2.6-0.7,5-1.3c1.7-0.6,2.3-1.3,1.9-2c-0.4-0.7-1.5-1.5-3.3-2.3
				c-1.5-0.6-2.3-1.1-2.4-1.6c0.1-1.3,0-2.8-0.2-4.5c-0.2-3.2-0.5-5.7-0.8-7.3c-0.4-2.8-1.2-5.8-2.5-8.9c-1.2-3-3.5-5.1-6.8-6.4
				c-4.5-1.3-8.2-2.5-11.1-3.7c-3.8-1.5-5.6-3.6-5.2-6.1c0.3-2.3,1.5-3.5,3.5-3.7c1.4-0.1,2.5-0.7,3.2-1.6c0.6-0.8,1.2-2.3,1.8-4.5
				c0.8-2.7,0.8-5,0-7c-1.1-2.8-3.7-4.8-7.8-6c-3.4-0.9-6-3.6-7.8-8c-1-2.4-1.6-3.8-1.9-4.1c-0.7-1.2-1.6-1.8-2.7-1.7
				c-1.8,0.1-3.2-0.8-4-2.8c-1.3-3.1-2.5-5.2-3.5-6.3c-1.8-1.8-2.9-2.5-3.3-1.9c-0.3,0.4-0.7,1.5-1.4,3.3c-0.6,1-1.3,1.4-2.1,1.3
				c-1.2-0.3-2.2-0.3-2.8,0c-0.8,0.3-1.5,0.8-1.9,1.5c-0.4,0.8-1.2,1.4-2.4,2c-1.2,0.5-2,0.1-2.4-1.3c-0.5-1.9-1.4-3.1-2.5-3.6
				c-1.3-0.6-2.4-1.9-3.4-3.9c-1.1-2.5-2.5-4.5-4.1-5.9c-2.2-1.9-3.8-3.8-4.6-5.6c-0.6-1.1-1-2.7-1.5-4.8c-0.2-1.2,0.5-2.1,2.2-2.5
				c2.8-0.7,4.5-1.3,5.3-1.8c2.2-1.5,3.5-2.4,3.8-2.8c0.6-0.7,0.2-1.4-1.2-1.9c-1.2-0.4-2.3-2.3-3.4-5.8c-0.1-0.5-0.3-1-0.4-1.5
				l-17.3-15.2L466.2,492l-21.7-16l-21-33.9l-45.1-25.8L353.3,438l9.7,90.4l-20.1,7.4c0.1,2.7,0.6,4.8,1.5,6.4
				c1,1.7,3.3,4.6,6.9,8.8c2.6,3.6,4.5,6.9,5.8,9.8c0.7,1.8,1.7,4.6,2.9,8.4c0.8,2.1,3.6,4.7,8.5,7.6c5.8,3.4,9.9,6.6,12.3,9.7
				c3.1,4,14.3,17.4,33.5,40.2c1.7,2,4.3,4,8,6c3.8,2.1,7.6,3.7,11.4,4.6c3,0.8,4.9,1.5,5.6,2.3c1.6,1.6,3,2.8,4.2,3.6
				c2.4,1.5,4.1,3.3,4.9,5.3c0.4,1,0.8,2,1.2,3.1c0.4,0.3,2.3,0.6,5.7,1c3.6,0.3,5.8,0.7,6.7,1c1.2,0.6,1.3,1.7,0.3,3.3
				c-1.1,1.6-2,1.8-2.6,0.8c-0.6-0.9-1.9-1.8-4-2.6c-2-0.8-3.6-1.2-5-1.2c-2.2,0.1-4.1,0.1-5.7,0c-3.1-0.1-5.7-0.3-7.9-0.6
				c-2.1-0.4-3.9-1.2-5.3-2.5c-1.3-1.5-2.3-2.5-3.1-3c-2.1-1.5-3.3-2.4-3.6-2.7c-1.4-1.1-2.7-2.3-3.9-3.4c-1.7-1.7-3-2.9-3.8-3.4
				c-1.3-0.9-2.3-1-3.1-0.4c-0.6,0.5-0.3,1.9,1,4.2c1.6,2.8,2.4,4.7,2.5,5.6c0.1,1.2,0.1,1.7,0,1.5c-0.4-0.4-0.9-0.2-1.4,0.5
				c-0.3,0.5,0.1,1.4,1.3,2.9c1,1.3,0.7,2.5-1,3.7s-2.9,1.2-3.8-0.1c-2.2-3.3-3.8-5.4-4.9-6.3c-2.6-2.3-4.5-3.2-5.8-2.7
				c-1.1,0.4-1.4,1.3-0.8,2.7c0.5,1.1,0.8,2.3,0.9,3.7c0.1,1.5-0.1,2.7-0.6,3.8c-0.4,1-1.7,0.7-3.9-1c-1.9-1.4-3.4-2.8-4.5-4.2
				c-0.4-0.6-1.4-1.7-3.1-3.5c-1.5-1.5-2.3-2.5-2.4-2.9c-0.2-0.6-1.7-2-4.6-4.2s-5-3.5-6.4-4c-2.1-0.7-3.8-1.2-5-1.4
				c-2.1-0.4-3.5-0.2-4.3,0.5c-1.1,1.1-0.7,3.2,1.3,6.4c2,3.3,4.4,4.5,7.1,3.7s4.9-1,6.4-0.3c1,0.4,2,1.5,3.1,3.2
				c0.7,1.1,1.1,2,1.1,2.9c0,0.5,0,1.5,0,2.9c0.1,0.7,1.2,2.4,3.4,4.9c2.1,2.5,3.2,4.4,3.2,5.8c0,1.3-0.2,2.3-0.7,2.9
				c-0.5,0.6-0.7,1.4-0.7,2.3c0,0.7,1.9,3.2,5.6,7.3c3.8,4.2,5.6,7.3,5.6,9.5c0,2.5,0.9,4.5,2.8,5.8c1.2,0.9,4.1,2.6,8.6,4.9
				c3.2,1.9,4.5,3.2,3.9,4.1c-0.1,0.1-0.5,0.4-1.1,1c-0.5,0.5-0.8,1-0.8,1.5c0,1,0.7,1.9,2.1,2.5c1.6,0.8,2.4,1.3,2.5,1.5
				c0.2,0.4,0.8,0.7,1.7,1.1c1.4,0.5,2.8,1.2,4.1,2.1c1.4,0.9,3.3,3.1,5.7,6.4c2.8,3.8,4.8,6.3,6.1,7.5c0.7,0.6,1.2,1.2,1.6,1.6
				c-0.1,0-0.5,0.2-1.1,0.6c-2.2,1.3-3.9,1.8-5.3,1.3s-4.5-2.5-9.3-6c-4.9-3.6-7.9-5.6-9.1-6c-1.4-0.5-3.5-2.7-6.2-6.5
				c-3.6-5-5.9-8.1-6.9-9.1c-2.4-3-4.2-5.1-5.4-6.3c-1.8-2-4.2-3.7-7-5c-2.3-1.1-4.9-3.2-7.7-6.3c-2.3-2.6-4-3.8-5.1-3.8
				c-0.8,0.1-2.4-0.3-4.6-1.2c-1.9-0.8-3.9-0.8-6-0.2c-2.1,0.7-3.7-0.1-4.8-2.5c-1.8-3.8-3.3-6.3-4.4-7.3c-2.1-2.1-3.4-2.5-3.8-1.5
				c-0.3,0.8-0.1,2.1,0.5,3.8c0.6,1.5,3.4,5,8.4,10.4c0,1.9,1,3.5,3,4.9c1.9,1.3,3.3,1.5,4,0.5c1.3-1.4,2.1-2.2,2.3-2.3
				c0.8-0.7,1.7-1.1,2.7-1.2c0.8-0.1,1.9,0.7,3,2.3c1.4,1.9,2.4,2.9,3,3.2c1.1,0.4,2.3,1.6,3.6,3.8c1,1.7,2,3.7,2.8,6
				c0.7,1.8,2.5,3.9,5.4,6.5c2.7,2.3,4.9,3.8,6.7,4.5c1.1,0.4,2.5,0.6,4.4,0.7c1.3,0.3,2,1.2,2,2.8c0,1.8,0.3,2.9,0.9,3.3
				c0.1,0,0.9,0.3,2.6,0.7c1,0.3,2.6,1.6,4.6,4c1.7,2,3,3.9,4.1,5.8c1.1,1.8,1.8,2.9,2.1,3.3c0.7,0.8,1.6,1.3,2.8,1.6
				c1.2,0.3,2.7,1.2,4.4,2.8c1.6,1.5,2.6,2.8,3.1,3.9c0.7,1.6,1.1,2.6,1.4,3c0.5,0.9,1,1.5,1.6,1.6c0.7,0.1,2.4,0.6,4.9,1.4l-1,1.8
				c-0.3,1.3,0.3,2.5,1.9,3.5c0.5,0.3,2.1,1.5,4.9,3.8c1.7,1.4,3.1,2,4.4,2c1.2,0,0.7-0.6-1.4-1.8c-2.5-1.5-3.8-2.4-3.8-2.8
				c0-0.2,0.8-0.8,2.5-1.6c1.7-0.9,2.6-1.9,2.7-3c0.1-1.2-1.2-3-3.9-5.3c-3.2-2.4-5.3-3.9-6.1-4.5c-1-0.8-1.3-1.7-0.7-2.6
				c1.8-3.1,2.7-4.8,2.7-4.9c0.4-0.9,0.6-1.5,0.5-1.8c0.6,0.6,1,1.1,1.1,1.4c0.5,0.9,1,1.7,1.6,2.3c3,3.3,4.9,5.4,5.8,6.2
				c2.9,2.7,5.4,4.2,7.5,4.5c2,0.2,3.5,1.2,4.4,3c0.5,1,1.2,2.4,2.1,4.3c0.6,0.9,1.3,2,2,3.3c0.3,0.5,0.5,0.9,0.6,1.2
				c-0.7-0.1-1.6,0.3-2.8,1.1l3.8,3c0.2-0.9,0.3-1.7,0.3-2.4c0.5,0.3,1.3,0.7,2.4,1.1c2,0.7,3.5,1.4,4.4,2c2.6,1.5,5.7,2.7,9.2,3.5
				c1.6,0.4,3.4,1.5,5.4,3.3c2.3,2.1,3.2,3.8,2.7,5.1c-0.5,1.1-2,0.9-4.5-0.6c-2.8-1.7-4.4-2.4-4.7-2.3c-0.5,0.2-0.5,0.9,0,2.1
				c0.8,1.8,1.2,2.9,1.3,3.4c0.1,0.9-0.5,0.4-2-1.5c-2.2-3-3.4-4.5-3.5-4.6c-0.7-0.7-1.2-1.5-1.6-2.5c-0.4-1.1-0.7-1.7-0.8-1.8
				c-0.3-0.4-0.9,0.1-1.9,1.5c-0.9,1.3-1.5,2.3-1.6,3.2c-0.3,1.2,1.4,3.3,4.9,6.1c1.1,0.9,1.8,1.5,2,1.8s0.6,1,1.2,2
				c0.7,1.1,1.4,2,2.1,2.6s1.6,1.1,2.8,1.7c1.1,0.6,1.8,0.5,2.1-0.2c0.3-0.6,0.2-1.2-0.4-1.8c-0.3-0.4-0.6-1.3-0.8-2.6
				c-0.2-1.5-0.4-2.6-0.6-3.2c-0.4-0.9-0.2-1.3,0.6-1.4c0.1,0,1.1,0,3.2,0.2c0.9,0.1,1.3,0.2,1.1,0.3c-0.3,0.4-0.2,1,0.3,1.7
				c0.5,0.6,1.3,1.5,2.4,2.5c1.5,1.3,2.8,2.7,4,4c1.9,2.2,3.5,3.5,4.6,4c1.4,0.7,3.3,0.7,5.5,0c1.7-0.5,3.1-0.3,4.3,0.6
				c2.2,1.6,5,3,8.4,4c4.3,1.3,5.9,0.4,4.7-2.8c-2.6-4.6-4.3-8.1-5.3-10.5c-0.7-1.6-0.9-2.7-0.6-3.3c0.2-0.4,0.7-0.5,1.5-0.5
				c2.2-0.1,3.4-0.9,3.6-2.5c0.3-2.1,0.1-3.5-0.6-4.2c-1.3-1.4-2.2-2.6-2.6-3.6c-1.2-3.4,1.3-1.9,7.5,4.3c1.7,1.7,2.9,2.4,3.6,2.2
				c0.6-0.2,2.1-1.1,4.5-2.8c1.9-1.1,3.6-1.5,5.1-1c3.1,1,4.9,1.6,5.3,1.6c1.8,0.2,2.9-0.1,3.2-0.8v3.2c-0.1,1.3-0.5,1.8-1.1,1.7
				c-1.8-0.5-2.8-0.8-2.9-0.8c-1,0-1.9-0.2-2.8-0.5c-1.4-0.6-2.6-1-3.5-1.2c-1.4-0.4-2.8-0.2-4,0.5c-0.7,0.4-2,1.2-3.8,2.4
				c-0.7,0.4-1.4,1-2.2,2c-0.5,0.6-1.7,1.1-3.7,1.5c-2.1,0.4-3,0.9-2.8,1.6c0.1,0.4,0.4,1.2,0.8,2.4c-0.1,0.8,0.3,1.9,1.2,3.1
				c0.5,0.7,1.2,1.6,2,2.7c0.3,0.5,1.3,1.3,3.2,2.5c1.6,1.4,2.3,3.1,2,5c-0.2,1.7-0.8,2.3-1.6,1.6c-1.8-1.4-3.2-2.1-4.2-2.3
				s-1.7,0-1.9,0.6s0.1,1.5,1,2.6c0.8,1.1,1.7,2,2.7,2.6l2.8,1.8c0.6,0.5,0.9,1.4,1,2.5s0.5,2,1.2,2.6c0.4,0.4,1.2,1,2.3,1.7
				c0.8,0.7,1.6,0.4,2.4-0.9c0.7-1.2,1.1-2.4,1.1-3.7c0-1,0.6-1.5,1.9-1.4c0.9,0.1,1.8,0.3,2.7,0.8c0.4,0.2-0.2,1.2-1.8,3
				s-2.3,2.9-2,3.2s0.8,0.7,1.5,1.2c0,0.5-1.6,1.1-4.7,2c-2.9,0.8-4.3,1.4-4,1.7c0.2,0.3,0.9,0.9,2,1.8c0.3,0.7,1.3,1,3.2,1
				c1.8,0,2.8,0.3,3,1c0.2,0.8-0.1,1.2-1,1.4c-2.1,0.3-3.5,0.6-4.3,0.9c-1.3,0.5-1.5,2.5-0.6,6c1,3.8,1.1,6,0.3,6.7
				c-1.1,1-1.3,1.7-0.4,2.1c0.2,0.1,1.5,0.3,3.9,0.8c1.4,0.3,1.8,0.8,1.2,1.7c-0.3,0.5-1,1.3-2.1,2.3c-0.4,0.4,0.1,0.9,1.5,1.6
				c1.6,0.8,2.3,1.7,2.3,2.7c0,1.3,0.4,1.9,1.2,1.8c0.2,0,1.3-0.4,3.4-1.2c1.3-0.5,1.7-0.3,1.2,0.6c-0.2,0.4-0.9,1.5-2.1,3.2
				c-0.5,0.7-0.4,1.4,0.3,2.1c1.3,1.2,2.2,2.2,2.6,3.1c0.5,1.1,1.4,1.7,2.6,1.8c1.2,0,2,0.4,2.3,1.1c0.3,0.8,1.4,1.4,3.3,1.8
				c2.7,0.5,4.8,1.2,6.3,2c2.1,1.1,4.3,1.4,6.4,0.7c0.8-0.3,2.7-1.3,5.7-3c1.3-0.8,2-1,2.1-0.8c0.3,0.6,1.3,1,3,1.1
				c2.2,0.1,3.3-0.4,3.3-1.5c-0.6-1.6-1-2.8-1.3-3.7c-0.3-0.8-1.4-1.4-3.3-1.7c-2-0.3-3.1-1.1-3.5-2.3c-0.5-1.4,0.8-1.6,4-0.4
				c1.7,0.6,3.9,1.5,6.8,2.7c0.9,0.2,1.3,0.2,1.4-0.1c0.2-0.8,0.9-1.6,2.1-2.5c1.5-1.1,3.1-1.2,4.9-0.3c1,0.5,2,1.2,3.2,2.3
				c0.6,0.4,0.6,1,0,1.6c-0.6,0.5-1.4,0.9-2.6,1c-0.8,0.1-1.8,0.1-3.1,0c-1.2-0.1-2-0.1-2.4,0c-0.6,0.1-0.3,0.7,1,1.7
				c1,0.8,2.2,1.6,3.5,2.3c0.9,0.6,1.7,0.8,2.4,0.8c0.3,0,1.6-0.2,4-0.5c1.3-0.2,2-0.4,1.8-0.5c-0.4-0.3-0.1-0.7,0.8-1.3
				c1.1-0.7,2-0.8,2.9-0.3c0.5,0.3,1.5,0.9,2.9,1.8c1.6,0.7,2.9,1.3,4,1.5c1.6,0.4,3.9,0.8,6.8,1c3.1,0.3,4.6-0.3,4.8-2
				c0.1-1.5-1.1-2.9-3.5-4.1c-2.2-1.1-3.8-1.8-4.9-2.3c-0.9-0.4-2.2-0.8-3.8-1.3c-1.4-0.4-3.1-0.7-5.2-1c-2.5-0.3-4.5-0.5-5.8-0.7
				c-1.7-0.3-1.7-0.8,0-1.7c1.1-0.5,3.5-1.6,7.2-3.2c2.5-1.2,4.6-1.9,6.4-2.3c1-0.2,2.9-0.4,5.7-0.6c2.6-0.2,5.9,0.3,10,1.3
				c4.3,1,5.6,1.8,3.9,2.5c-2.4,1-5.1,2.3-8.1,3.8c-1.1,0.6-1.4,1.3-0.8,2c0.6,0.8,1.9,1.4,3.9,1.8c1.4,0.3,4.9,0.5,10.4,0.4
				c5.7,0,9.1,0,10.2,0.2c1.4,0.2,2.8,1.3,4.3,3.3c2.2,2.9,4,4.9,5.5,6.3c2.9,2.4,5,3.9,6.5,4.6c1.6,0.8,4.2,1.4,7.8,1.8
				c1.9,0.2,3.5,0.5,4.9,0.9l21.3-17.1l54.8-6.5c-5.3-4.9-8.9-7.7-11-8.2c-2.3-0.6-4.9-3.7-7.8-9.3c-2.9-5.6-5.4-8.5-7.5-8.9
				s-3.7-2.1-4.7-5.3c-1-3.1-2.6-4.9-4.8-5.4s-3.5-2.3-3.9-5.4c-0.4-3.1-1.7-5-3.9-5.6s-5.2-3.2-9-7.9c-3.6-4.5-6.4-6.9-8.3-7.1
				c-2.6-0.3-4.6-2-6-5.2c-1.2-2.7-1.5-5.1-1-7.3c0.5-1.9-0.6-4.4-3.3-7.6c-2.9-3.4-6.2-5.9-10-7.4c-2.8-1.1-5.7-4.5-8.7-10.3
				C661.4,738,659,735.1,657,735 M459.5,665.3l6,0.2c4.2,0.3,6.8,1,7.9,2.1c0.9,0.9,1.7,2.8,2.6,5.8c0.9,3.1,1.7,5.1,2.6,6
				c1.2,1.5,1.7,2.8,1.4,4c-0.4,1.2-1.4,2-3.2,2.3c-1.4,0.4-2.2-0.7-2.3-3.2c0.2-3.1,0.2-5.1,0-6.1c-0.3-1.5-0.9-2.5-1.9-3
				s-2.9-0.8-5.6-0.8c-0.9,0-2.8,0-5.5,0.1c-1.5,0.1-3.3,0-5.4-0.1c-2.3-0.1-3.6-0.9-3.8-2.3c0.2-2.1,0.4-3.8,0.5-5.2
				c0.1-1.6,1.1-2.1,2.8-1.5C456.6,664.2,457.9,664.7,459.5,665.3 M547.3,757.2c0.3,0.8,0.8,1.9,1.5,3.5c0.6,1.4,0.7,2.5,0.5,3.3
				c-0.1,0.5-0.2,0.9-0.2,1c-0.3-1.3-1.3-2.9-3-4.8c-1.1-1.3-1.8-2.3-2.3-3.1c-0.3-0.6-0.9-1.3-1.7-2.1c-0.9-0.9-1-1.6-0.3-2.3
				c1.2-1.2,1.9-1.8,1.9-1.9c0.2-0.4,0.4-1.5,0.8-3.3c0.3-1.5,0.6-2.5,1-2.8c0.4-0.5,0.7,0.2,0.8,2s0.1,3.4-0.3,4.9
				c-0.3,1.2-0.3,2.2,0,3C546.3,755.2,546.6,756,547.3,757.2 M498.1,815.8c-2.5-0.6-4.1-1.3-4.7-2.2c-4.2-6.2-7.1-9-8.8-8.4
				c-0.9,0.4-2.6,0.5-5,0.4l-3.3-0.3l-0.5,2c0.1,1.5,1.2,2.7,3.4,3.5c1.4,0.5,3.4,1.7,6,3.5c2.2,1.5,4.4,2.5,6.7,3
				c3.2,0.8,5.6,1.2,7.1,1.2c1.6,0,2.4-0.4,2.4-1.2C501.5,816.8,500.4,816.3,498.1,815.8 M493.9,799c-0.1,0-0.5,0.2-1.4,0.4
				c-1.3,0.3-3.5,0-6.7-0.9c-1.3-0.4-2-0.6-2.3-0.6c-0.4,0-0.2,0.2,0.4,0.7c0.4,0.3,1.2,1,2.4,2.1c1.3,1,2.7,1.7,4,2.1
				c1,0.3,1.9,1,2.6,2c0.5,0.7,1.2,0.8,2,0.5c0.8-0.4,2.2-0.5,4.2-0.5c1.2-0.2,1-1.1-0.7-2.7c-1.5-1.4-2.8-3.1-4.1-5.2
				c-0.9-1.5-1.7-2.2-2.3-2.3c-4.7-0.7-5.7,0-3.2,2c1.2,1,2.7,1.7,4.4,2.2C493.7,798.8,493.9,798.9,493.9,799 M505.7,796.9
				c-1.2,0.1-2,0-2.5-0.3c-0.6-0.4-1,0.2-1.4,1.9c-0.2,0.9-0.3,1.8-0.4,2.7c1.6,0.9,2.7,1.4,3.2,1.5c1.1,0.1,1.8-0.8,2-2.8
				C506.9,798,506.6,797,505.7,796.9 M517.1,799.8c1,1.7,2.5,3.8,4.6,6.3c2.6,3.2,4.2,4.2,4.7,3.1c0.7-1.5,0-4.3-1.9-8.6
				s-3.5-5.7-4.8-4.2L517.1,799.8 M506.9,790.8c-1.5-1.7-2.4-2.2-2.7-1.4c-0.9,2.4-0.3,4.1,1.7,5.1c0.7,0.3,1.4,0.5,2.1,0.4
				c0.7,0,1.1-0.2,1.1-0.5C509.1,793.6,508.4,792.5,506.9,790.8 M514.8,791.8l-4.9-4l-0.9,3.5C509.2,793.3,511.1,793.5,514.8,791.8
				 M458.2,766.2c1.5,0.5,2.4,0.3,2.9-0.6l0.3-1.4c-1.1,0.2-2.1,0.4-2.9,0.6C456.9,765.3,456.8,765.7,458.2,766.2 M454.5,756.7
				c-0.8,0.9-0.8,2,0,3.3c0.8,1.4,2.1,1.9,3.7,1.6c0.8-0.1,1.3-0.6,1.4-1.5c0.1-0.8-0.1-1.7-0.6-2.6
				C457.6,755,456.1,754.8,454.5,756.7 M412.2,770.6c-0.8,0.3-1,0.9-0.5,1.9s1.4,1.6,2.5,1.8c1.3,0.3,1.7-0.5,1.1-2.1
				C414.8,770.6,413.7,770,412.2,770.6 M420.4,776.7c-1.4-0.1-1.8,0.3-1.1,1.1l3.3,2.2c2.5,1.7,4.7,3.3,6.5,4.7
				c2.4,1.9,4.2,3,5.6,3.1c1.5,0.2,1.8-0.8,0.8-3.1s-4.3-4.5-9.9-6.7C423.3,777.2,421.6,776.7,420.4,776.7 M413.7,739.5
				c-1,0.5-1.1,1-0.2,1.5c0.8,0.4,1.7,0.1,2.7-1c0.9-1,1.9-1.2,2.8-0.4s1.9,1.9,3,3.4c0.7,0.5,1.1-0.6,1-3.4
				c-0.1-0.7-0.5-1.5-1.3-2.4c-0.9-1-1.8-1.5-2.7-1.5c-1.2,0-2.1,0.1-2.6,0.3c-0.7,0.3-1,0.8-0.8,1.6
				C415.6,738.3,415,738.9,413.7,739.5 M393.3,715.4c-1.8-1.3-3.3-2.3-4.3-3.1c-1.5-1.1-2.8-2.7-3.9-4.7c-0.9-1.9-1.4-3.6-1.4-5.1
				c0-1.1-0.6-1.9-1.7-2.3c-1.5-0.3-2.6-0.6-3.3-1c-0.9-0.5-1.4,0.5-1.6,2.9c-0.1,1.2,0,2.4,0.1,3.7c2.1,3,5.5,6.2,10.1,9.6
				c4.6,3.4,7.1,4.4,7.4,3.2C395,717.5,394.6,716.5,393.3,715.4 M346.1,676.6c-2.3,0.3-2,1.4,0.8,3.3c2.8,2,5,2.8,6.6,2.4
				c1.3-0.2,0.5-1.3-2.5-3.1L346.1,676.6 M338.7,688.7c0.1,0,1.7,0.7,4.8,1.8c2.7,1,4.3,2,4.9,2.8c0.8,1.1,2.6,3.2,5.6,6.2
				c3.1,3.2,5.3,5.2,6.5,6c1.3,0.9,3.6,4,6.9,9.3s5.6,9.8,7,13.5c1.2,3,5.2,7.9,12,14.9c6.5,6.7,9.8,10.1,9.8,10.2l1.8,1.9
				c1.4,1.2,2.6,1.8,3.7,1.8c0.9-0.2,0.4-1.8-1.6-4.8c-1.9-2.9-2.4-4.3-1.6-4.2c1.1,0.1,2.4,1.4,3.9,3.8c1,1.7,1.9,3.7,2.8,6
				c0.5,1.3,1.3,2.1,2.4,2.4c1.7,0.5,2.6,0.7,2.8,0.8c0.7,0.5,0.5,1.1-0.5,2c-0.6,0.5-1.6,1.3-3,2.3c-1,1-0.5,1.8,1.6,2.5
				s4.1,0.3,5.9-1.1c1.6-1.3,2.7-1.3,3.1,0c0.3,0.7,0.6,2,1.1,3.8c1.9,2.6,4.6,4.7,8.1,6.4c1.6,0.8,3.5,1.7,5.5,2.8s3.3,1.8,3.8,2
				c1.3,0.6,3.1,1.7,5.4,3.3c2.7,1.9,4.6,3.5,5.6,4.8c0.9,1.1,1.1,1.9,0.8,2.4c-0.6,0.8-0.8,1.3-0.8,1.6c0.1,0.5,0.6,0.9,1.8,1.4
				c1.2,0.5,2.1,1.4,2.5,2.6c0.3,0.9,0.5,2.1,0.4,3.4c0,0.4,0.3,0.4,1-0.3c0.9-0.8,1.6-0.9,2.3-0.3c0.4,0.3,0.9,1,1.5,2
				c0.7,0.8,1.6,0.8,2.7-0.3c1.1-1,1-2-0.4-3.3c-0.8-0.7-2.2-1.5-4.4-2.5c-1.6-0.7-2.4-1.5-2.5-2.4c0.1-1.5,0.1-2.5,0.1-3.1
				c0-1-0.7-1.9-1.9-2.7c-2.5-2.1-4.8-4-6.9-5.5c-3.8-2.9-7.3-4.9-10.6-6.1c-3.2-1.2-5.5-3.2-7-6.1c-1.2-3.1-2.3-5.2-3.3-6.3
				c-2.6-1.9-4.5-3.3-5.8-4.3c-2.3-1.7-3.2-3.3-2.6-4.9c0.6-1.7,1.8-1.8,3.8-0.2c1.3,1,4.2,3.5,8.6,7.4c3.4,2.7,5.4,4,6,4
				c0.4,0,0.2-0.5-0.5-1.6c-0.7-1.2-1.6-2.7-2.6-4.7c-1.4-2.8-2.6-5.4-3.4-7.8c-0.5-1.3-0.8-2-1.1-2c-0.2-0.1-0.5,0.2-0.8,0.8
				c-0.9,1.8-1.9,2.6-3,2.5c-1.1-0.2-2.3-1.1-3.6-2.8c-1.1-1.4-2.1-2-3-1.7c-0.7,0.2-1.6,1-2.9,2.5c-1.1,1.3-2.3,1.9-3.6,1.8
				c-1.3-0.1-1.9-1.4-1.8-3.9c0.2-3.5,0.1-5.8-0.3-6.8c-0.5-1.5-0.8-2.8-0.9-4c-0.1-1-0.2-1.8-0.5-2.4c-0.5-1-1.3-1.5-2.4-1.4
				c-1.2,0.1-1.5,0.7-1.1,2c0.5,1.3,0.7,2.6,0.7,3.9c0,1.3-0.2,1.8-0.7,1.6s-2.1-1.5-4.8-3.9c-2.8-2.6-5-4.7-6.5-6.5
				c-1.7-2.3-2.8-3.9-3.5-4.8c-1.1-1.4-2.5-2.3-4-2.7c-1.9-0.4-3.3-1-4.1-1.9c-0.9-0.9-2-2.7-3.1-5.3c-0.9-2-0.7-2.7,0.5-2
				c1.8,1.1,2.9,1.5,3.3,1.1c0.6-0.7,0.5-1.7-0.4-2.9c-0.8-1.2-1.9-2.2-3.3-3.2c-1-0.6-1.6,0.1-1.9,2.2c-0.2,1-0.3,1.5-0.4,1.6
				c-0.1,0.3-0.3,0.1-0.6-0.6c-2.7-7.3-4.7-11.9-5.8-13.9c-0.8-1.3-1.7-2.3-2.9-2.8c-3.1-1.4-5.4-2.5-7-3.3
				c-2.8-1.6-4.2-2.9-4.2-3.9c0-0.7-0.7-1.2-1.9-1.6c-1.7-0.6-3-1.7-3.9-3.4c-0.7-1.7-1.2-2.7-1.5-3c-2.6-2.9-4.6-4.5-6.2-4.9
				c-0.8-0.2-0.8,0.7,0,2.8c0.9,2.3,0.9,3.5,0,3.8s-2.2-0.2-4-1.3c-2-1.3-3.5-1.9-4.5-1.9c-1.4,0-0.5,1.3,2.5,3.9
				C334.7,685.8,336.7,687.3,338.7,688.7 M337.2,622.6c0.2,1.1,0.7,1.5,1.5,1.4s1.3-0.6,1.4-1.4c0.2-0.9-0.4-1.6-1.6-2.1
				S336.9,620.7,337.2,622.6 M334.5,596.7c2,3,3.6,3.8,4.9,2.6c1.2-1.2,1.3-2.8,0.2-5c-0.9-1.7-2.1-1.9-3.6-0.8
				C334.3,594.7,333.8,595.7,334.5,596.7 M352.1,610.5c-0.7-0.6-1.8-1.7-3.1-3.5c-1.1-1.4-2.1-2.3-2.9-2.6c-2.8-1-4.2-1-4,0.2
				c0.1,0.9,1.3,2.5,3.5,4.5c2,2,4.2,3.8,6.6,5.4c2.5,1.7,4.2,2.5,5.1,2.4c1.7-0.1,1.6-1-0.1-2.5C354.7,612.4,353,611.1,352.1,610.5
				 M311.9,647.1c-0.8-0.7-1.8-1-3-1c-1.1,0-1.8,0.2-2.1,0.5c-0.2,0.2-0.4,0.5-0.6,1c-0.5,0.7,0.3,1.3,2.6,2
				c2.2,0.6,3.5,0.5,3.9-0.2C312.9,648.5,312.7,647.8,311.9,647.1 M315.1,653.8c-0.3,0.7,0.6,0.8,2.7,0.3c2.2-0.5,3.8-1.2,4.9-2.3
				s2.1,0,3.1,3s1.3,5.6,0.9,7.7c-0.2,1.6,0.3,3,1.5,4.3c0.7,0.7,1.7,1.4,3.1,2.1c1.6,1.2,2.1,1,1.8-0.5c-0.8-2.4-1.4-4.3-1.6-5.6
				c-0.3-1.6,0.3-1.8,1.8-0.8c0.8,0.6,2.1,1.8,3.9,3.7c1.1,1.2,2.6,2,4.4,2.3c1.8,0.4,2.9,0.1,3.3-0.9c1.1-2.5,0.2-4.1-2.8-4.9
				c-1.6-0.4-4.1-2-7.5-4.6c-3.2-2.5-5.4-4.6-6.4-6.1c-0.8-1.2-2.6-2.3-5.4-3.5c-2.8-1-4.4-1.6-4.9-1.9c-0.5-0.3-1,0.7-1.6,3.1
				C315.6,652,315.2,653.6,315.1,653.8 M296,636.2c-3.5-3.1-6.2-5.2-8-6.3l-1.5,0.2c-0.5,0.6,0.6,1.9,3.2,4.1
				c2.1,1.7,4.6,3.9,7.3,6.4c1.8,1.6,3.1,2.1,3.9,1.7C301.7,641.8,300.1,639.7,296,636.2 M323.2,613.7c-3.5-1.2-5,0-4.4,3.4
				c0.2,1,0.5,2.5,0.9,4.6c0.2,1.7,0,2.9-0.8,3.5c-1.3,1.3-1.2,2.2,0.3,2.7c3,1.1,4.8,1.9,5.3,2.2c1.5,1.1,2.8,1.4,4.1,1
				c0.6-0.2,1.1-0.6,1.4-1c0.1-0.7,0-1.5-0.4-2.5c-0.6-2-1.9-3.6-3.8-5c-1.8-1.2-2-2.1-0.8-2.8c2-1.1,3-2.1,3.2-3
				c0.3-1.5-0.5-2.4-2.2-2.8L323.2,613.7 M309.4,615.7c-0.1-1.7-0.9-2.2-2.5-1.6c-2.7,1.1-4,1.6-4.1,1.6c-2.6,0-3.1,0.9-1.5,2.6
				c2.4,2.6,3.6,4.1,3.6,4.3c0.2,1.4,0.9,3,2.2,4.7c1.6,2.1,3.4,3.4,5.6,4c2.2,0.7,2.8-0.1,1.8-2.3s-2.3-3.7-3.8-4.6
				c-1-0.6-1.5-1.7-1.5-3.3C309.4,618.9,309.4,617.1,309.4,615.7 M315.9,539c-1.8-0.2,0.4,4.7,6.6,14.7c1,1.5,4.7,6.2,11,13.9
				c2.6,3.2,4,5,4.3,5.5c1.4,2,2,3.7,1.8,5s0.5,2.3,2,3.1c1.2,0.6,2.3,0.9,3.1,0.8c0.1,0,0.4-0.1,0.9-0.2c-0.2,0.2-0.4,0.4-0.5,0.7
				c-0.5,1-0.2,2.1,0.8,3.2c1.4,1.9,1.5,4.6,0.3,8.1c-0.5,1.8-0.2,3,1,3.8c0.8,0.6,2.9,1.5,6.3,2.8c2.4,1.1,3.9,1.8,4.3,2
				c0.4,0.3,1.5,0.9,3.2,2c2.1,1.2,3.6,2.6,4.7,4c0.9,1.3,1.8,3,2.5,5.3c0.7,2.1,1.4,3.5,2.1,4c0.5,0.4,2,1,4.4,1.8
				c1.6,0.5,2.7,0.6,3.3,0.3c0.8-0.4,2-0.5,3.5-0.3c2.4,0.3,3.6,1.4,3.8,3.2s-0.8,3.1-2.8,4c-1.7,0.7-2.2,2.3-1.6,4.8
				c0.3,1.3,0.8,2.8,1.6,4.4c0.6,3.3,2.5,5.8,5.5,7.4c1.6,0.9,3.6,1.7,6,2.4c1,0.7,1.9,0.5,2.5-0.5c0.7-1.1,0.3-1.8-1.1-2
				c-1.2-0.2-2.4-1-3.6-2.5c-2.2-2.4-3.4-3.8-3.6-4c-1.5-1.3-1.4-1.5,0.3-0.6c1.7,0.9,3.3,2,4.6,3.3c1.2,1.2,3.2,1.8,6,1.8
				c2.5-0.1,4.9-0.7,7-1.8c1.5-0.8,1.3-1.8-0.6-3.3c-2.6-1.9-3.9-3.3-4.1-4c-0.2-1,0.6-0.9,2.5,0.4c2.8,1.9,4.7,3.1,5.9,3.4
				c1.7,0.5,2.6,0.5,2.7,0.1c-0.1-0.7-0.2-1.2-0.1-1.5c0.2-0.4-0.5-1.4-2-3.2c-1.1-1.3-2.4-2.6-3.8-4c-1-1-2.4-1.9-4.1-2.7
				s-3.5-1.2-5.2-1.3c-1.3-0.1-2.2-0.8-2.8-2c-0.4-1.5-0.8-2.6-1.3-3.3c-0.4-0.6-1.2-2-2.3-4.2c-1.1-2.2-2.1-4-3-5.3
				c-0.9-1.5-3.1-3.3-6.4-5.5c-3.5-2.2-5.6-3.6-6.4-4.1c-1-0.7-1.8-0.4-2.3,0.9c-0.3,0.8-0.9,2.3-1.5,4.6c-0.6,1.4-1.9,0.8-3.6-1.7
				c-2.2-3.5-3.8-6-4.8-7.5c-1.8-3.3-3.3-5.8-4.6-7.4c-2.1-2.8-4.7-4.7-7.8-5.8c-1.3-0.4-2.3-0.6-3.2-0.6c0.1,0,0.3-0.1,0.4-0.1
				c1.9-0.4,3.3-0.6,4.3-0.6c0.8,0,2.1,0.7,3.7,2c2,1.6,3.4,2.5,4.4,2.9c1.3,0.5,2.4,1.4,3.5,2.7c0.6,0.8,1.7,2.1,3.1,4
				c0.9,1,2.5,1.9,4.8,2.5c2.2,0.7,3.7,1.3,4.3,2c0.9,1,1.3,0.5,1.4-1.4l-0.2-3.1l-6.1-6.7c-4.1-1.5-6.7-2.7-7.8-3.6
				c-0.8-0.6-1.5-1.3-2.2-2.1c-0.4-0.4-1.3-1.5-2.7-3.3c-0.8-1-1.2-2.3-1.3-3.7c-0.1-1.2-0.4-2-1-2.4c-0.4-0.2-1.1-1.1-2.4-2.5
				c-1.1-1.3-2.2-2.2-3.4-2.8c-0.8-0.4-1.3-1.1-1.5-2.3c-0.1-1-1.3-2-3.4-2.8c-2.6-1-4.1-1-4.4,0c-0.2,0.5,0,2.2,0.6,5.1
				c0.4,2-0.1,2.8-1.3,2.3c-1.2-0.5-2-1.3-2.2-2.3c-0.1-0.6-0.9-1.6-2.3-3.2c-1.4-1.6-2.2-2.7-2.3-3.1c-0.2-0.9-2.8-4.4-7.9-10.4
				C320.4,542.4,317.1,539.2,315.9,539z"/>
		</g>
	</g>
</g>
<g transform="matrix( 1, 0, 0, 1, 0,0) ">
	<g>
		<g id="izborna_x5F_8">
			<path class="st0" d="M331.3,497.5c-1.4-0.3-2.6,0.9-3.6,3.5c-0.2,0.6,0.1,1.6,0.9,3.3c0.8,1.6,1.6,2.3,2.3,2.1
				c0.7-0.2,1.4-1.6,2.3-4c0.9-2.5,1.1-3.7,0.6-3.6C332.8,498.1,332,497.7,331.3,497.5 M284.5,606.1c1.5-0.4,1.2-1.3-0.7-2.7
				c-2-1.4-3.4-2-4.2-1.6c-1.2,0.5-2,1.1-2.4,2s-0.2,1.7,0.7,2.3c0.8,0.6,1.7,0.9,2.8,0.9C281.4,606.9,282.7,606.6,284.5,606.1
				 M138.2,481.9c-0.2-0.4-1.4-1.2-3.6-2.5c-1.3-0.8-2.4-1.7-3.4-2.7c-0.6-0.6-1.2-1-1.8-1.1c-0.9-0.1-1,0.7-0.4,2.6
				c0.6,1.8,1.4,3.2,2.4,4c0.8,0.7,1.1,1.8,0.8,3.3c-0.2,0.7-0.4,1.4-0.8,2c0,2.2,0.6,2.8,1.7,1.8c1.6-1.9,2.9-3.3,3.8-4.3
				C138.2,483.5,138.6,482.5,138.2,481.9 M283,545.8v1.8c0.3,1.2,1.1,1.8,2.4,1.7c1.5-0.2,1.9-0.8,1.1-1.8S284.5,546,283,545.8
				 M317.1,499.1c-0.6-0.6-1.5-0.7-2.6-0.3c-1.3,0.4-2.3,1.5-2.9,3.2c-0.5,1.3-0.8,1.8-1.1,1.5c-0.8-1-1.9-1.5-3.4-1.5
				c-1.6,0-1.5,1,0.3,2.9c2.6,2.8,4,4.8,4.2,6.1c0.2,1.4,0.2,2,0,1.6c-0.6-1.1-1.1-1.6-1.7-1.6s-0.9,0.3-1.1,1
				c-0.2,1.1-0.6,2-1.3,2.8c-0.8,1.1-2,1.1-3.4,0.1l-1.8-1.8c-2.7,3-2,5.6,2.1,7.7c3.2,1.6,6.5,2.4,9.7,2.3c0.9,0,2.2-0.1,4-0.2
				c0.9-0.1,1.9,0,2.8,0.2s1.5,1.2,2,2.9c0.6,2.2,1.3,3.8,2,4.6c0.8,1,2,2.7,3.7,5.3c1.7,2.3,3.4,4,5.3,5.1s3,1.3,3.4,0.8
				c0.4-1,1-1.7,1.8-2.2c1.1-0.7,0.2-3.5-2.5-8.3c-2.6-4.6-4.7-7.5-6.2-8.8c-1.7-1.3-4.1-3.8-7.3-7.5c-3.6-4.1-5.4-6.8-5.4-8
				c0-1,0.2-1.8,0.7-2.3s0.7-0.9,0.7-1.3c0-0.6-0.2-1.4-0.7-2.4C318.1,500.3,317.6,499.6,317.1,499.1 M229.9,587.3l1.6,3.4
				c1.3,1.9,2.5,2.1,3.5,0.4c1.2-1.9,0.6-3.6-1.6-5c-0.9-0.5-1.6-0.7-2.3-0.5C230.3,585.8,229.9,586.4,229.9,587.3 M234.6,565.8
				c-1.3-1-1.9-0.5-1.8,1.4c0.2,2.3,1.1,4.1,2.8,5.2c1.6,1.1,2-0.2,1.2-3.8C236.6,567.6,235.8,566.7,234.6,565.8 M235.1,516.8
				c-0.8-0.1-1.4,0.7-2,2.5s-0.4,2.8,0.6,3c1.1,0.3,2.1-0.5,2.9-2.3S236.9,517.1,235.1,516.8 M231,542.2c-0.2-0.9-1.1-0.8-2.4,0.3
				c-0.9,0.6-2.4,1.9-4.7,3.8c-1.3,1-1.9,2.1-1.9,3.4c0.1,1.7-0.1,3-0.5,3.8c-0.7,1.4-1.1,2.6-1,3.5c0.1,0.6,0.4,1.4,1,2.2
				c1.5,2.2,3.4,3.5,5.8,3.8c2.3,0.3,3.2-0.3,2.6-1.9c-0.1-0.2-0.8-1.6-2.2-4.1c-1-1.8-1.5-3.5-1.6-5.1s0.3-2.7,1.1-3
				c1.1-0.2,2-0.5,2.6-1c0.9-0.5,1.4-1.3,1.5-2.5C231.5,544.5,231.4,543.4,231,542.2 M319.1,492l-2.1-1.4c-2.9,1.6-3.2,3.5-0.7,5.6
				c2.3,2,4.3,2.9,5.9,2.6c0.9-0.2,1.3-0.6,1.2-1.1c0-0.2-0.4-1-1.2-2.5C321.6,494.2,320.6,493.2,319.1,492 M270.4,545.7
				c-0.1-0.3-0.3-0.4-0.5-0.2c-0.3,0.2-0.3,0.6,0,1.3C270.3,546.4,270.4,546,270.4,545.7 M246.7,442.3c-1.2-2.3-1.7-4.8-1.5-7.6
				c0.5-3.2,0.8-5.6,0.9-7.4c0.3-2.9,0.5-4.9,0.5-5.8c0.1-1.4,0-2.5-0.5-3.2c-0.6-0.8-1.8-1.4-3.8-1.9c-1.8-0.4-3.3-0.6-4.6-0.4
				c-1,0.1-2.1,1.7-3.6,4.7c-0.7,1.6-1.7,3.8-2.8,6.5c-1.3,2.7-1.7,4.5-1.2,5.3c0.4,0.6,1.6,1.8,3.7,3.5c1.6,1.9,2.9,3.4,3.9,4.4
				c1.1,1,2.4,2.2,4.1,3.5c2,1.5,3.3,2.8,3.7,3.8c0.6,1.5,0.3,3.7-0.8,6.6c-1,2.7-1.4,4.4-1.3,5c0.1,0.5,0.6,1.3,1.5,2.5
				c0.1,0.2,1.4,1.7,4,4.5c1.8,2,2.5,3.9,2.1,5.6c-0.3,1.6-0.1,3.3,0.6,5c0.9,2,1.4,3.5,1.4,4.5c0,3.2-2.2,4.5-6.6,3.8
				c-1.4-0.2-3.3-1.9-5.8-5.1c-2.6-3.4-4.4-5.3-5.2-5.6c-1.2-0.5-1.8,0-1.9,1.5c-0.1,0.9-0.1,2.7-0.1,5.4c-0.1,1.6,0.3,3.3,1.4,5.1
				c0.6,1,1.7,2.8,3.3,5.3c0.7,1.4,1.4,3.6,1.9,6.8c0.6,3.2,1.4,5.9,2.4,8c1.1,2.2,1.8,3.4,2.2,3.5c0.2,0.1,0.5,0.6,0.7,1.5
				c0.5,1.7,1.3,4.6,2.3,8.7c0.3,1.3,0.9,3.2,1.8,5.8c1.1,3.1,1.8,5.4,2.2,6.8c0.6,2.1,0.5,3.5-0.3,4.3c-0.5,0.5-1.7,1.1-3.5,1.9
				c-1.1,0.7-2.4,0.3-3.8-1.3c-1.7-1.7-2.6-2.5-2.8-2.5c-0.6,0-0.9,0.8-0.8,2.4c0,0.9,0.2,2.5,0.5,4.8c0.3,4.7,1.6,8.5,4,11.3
				c1.7,2,2.8,3.5,3.3,4.7c0.6,1.4,0.8,3,0.5,4.8c-0.2,1.4-0.7,2.6-1.3,3.8c-0.9,1.6-1.5,3-1.9,4.3c-0.6,1.8-0.6,2.9,0.2,3.3
				c0.5,0.3,1.8,0.8,3.8,1.6c1.2,0.7,2.4,0.5,3.6-0.6c1.3-1.3,2.3-1.9,3-1.7c0.9,0.2,1.2,0.5,1.1,0.9c-0.4,1.1-0.4,2.4-0.1,4
				c0.4,1.9,1.2,3.3,2.3,4c2.6,1.7,4.1,2.8,4.5,3.2c1.3,1.3,2.7,2.5,4.1,3.6c0.7,0.7,1.1,1.5,1.1,2.5c0,1.9,1.6,3.4,4.9,4.7
				c1,0.4,1.9,0.1,2.9-0.9c0.9-1.2,1.4-2,1.8-2.3c1.1-0.8,1.9-1.4,2.3-1.8c0.9-0.9,0.6-1.4-0.9-1.7c-1.4-0.1-2.3-0.2-2.6-0.3
				c-0.2,0-1.1-0.4-2.6-1.1c-1.2-0.6-2.5-1.7-4-3.2c-2.1-2.2-4.1-4.1-6.1-5.8c-2.5-2-4.3-4.1-5.4-6.3c-1.3-2.5-2.1-3.8-2.3-4.1
				c-1.1-1.2-2.3-4-3.8-8.5c-1.4-4.5-2-7.9-1.8-10c0.1-1.8,0.5-3.4,1.1-4.5l0.9-1.3l1.3,2.6c1.2,2.2,2.6,4.4,4.1,6.6
				c2.7,3.7,4.5,6,5.4,6.9c1.9,1.9,3.7,2.7,5.4,2.3c2.6-0.6,5.9-2.6,9.8-5.8c0.7-0.5,0.4-1.3-0.8-2.3c-3.2-2.6-5.4-4.5-6.4-5.5
				c-1.3-1.3-2.1-2.3-2.5-3c-0.1,0-0.1,0.1-0.1,0.1c-0.7,0.7-1.5-0.5-2.5-3.6c-1.3-4.1-2.9-7-4.7-8.5c-2-1.6-2-2.9-0.1-3.8
				c2.7-1.3,4-2.2,4.1-2.7c0.2-1.1-0.1-2.7-1-4.8c-1.3-2.5-2.2-4.4-2.8-5.7c-0.6-1.4-0.3-2,1-2c1.5-0.1,2.3-0.7,2.3-2
				c0-0.9-0.8-4-2.5-9.5c-1.6-5.2-2.3-9.1-2.1-11.6c0.2-2.1,0.6-3.8,1.1-5.1c0.3-0.6,0.2-1.5-0.3-2.6c-0.5-1.3-0.4-2.8,0.4-4.3
				c1.1-2.1,2.1-4,2.9-5.8c1-2.2,1.7-3.6,2.3-4.3c0.6-0.6,1.2-1.2,1.8-1.9c0.7-0.8,1.6-0.9,2.8-0.2c0.7,0.4,1.9,1.1,3.6,2.2
				c1.6,0.8,2.6,1.2,2.8,1.2c0.8,0.1,2-0.3,3.6-1.2c1.7-1,1.1-2.5-1.6-4.4s-4.8-2.5-6.2-1.8c-1.7,1.2-3,1.9-3.8,2.3
				c-1.4,0.6-2.4,0.4-3.1-0.5c-0.6-0.8-1.4-1.1-2.4-0.9c-2.1,0.6-4,0.9-5.7,0.9c-2.5,0-5-3.3-7.5-10
				C249.4,448.8,247.7,444.1,246.7,442.3 M144.1,343.5c-0.2-1.6-0.8-2.6-1.8-3.1c-1.8-0.9-4.4-1.3-7.8-1.1c-3.5,0.1-6.6,0.8-9.1,2
				c-2.9,1.5-4.4,2.2-4.5,2.2c-0.5,0.1-1.8-0.2-3.7-1c-3.4-2.1-6.2-3.7-8.3-4.9c-3.8-2.1-6.5-2.6-7.9-1.5c-1.4,1.2-3.6,0.7-6.4-1.6
				c-3-2.8-4.8-4.5-5.7-5c-1.4-0.9-2.4-0.6-3.1,0.8c-0.3,0.7-0.6,1.7-0.9,3c-0.1,0.1-0.5,0.4-1.2,0.9c-0.5,0.3-0.8,0.8-0.8,1.4
				c0,0.1,1,1.8,2.9,5c1.8,3,2.5,5.6,2,7.8c-0.4,1.8-0.5,2.7-0.3,2.6c0.6-0.3,1.1,0.3,1.5,1.7c0.3,1.2,0.8,2.5,1.5,3.7
				c0.4,0.8,0.7,1.9,0.8,3.2c0.1,1.3,0.3,2,0.5,2.3c0.7,0.6,1.6,2,2.7,4.1c1.3,2.6,1.8,4.4,1.5,5.5c-0.2,0.6-0.5,1.6-0.9,2.9
				c0,1.3,0.2,2.3,0.6,3c0.1,0.2,0.6,0.8,1.4,1.9c0.4,0.4,1.8,0.6,4.4,0.5c2.4-0.1,3.6,0.1,3.7,0.8c0.1,0.7-0.5,1.4-2,2.1
				c-1.2,0.5-2.3,0.8-3.2,0.8c-0.2,0,0.2,0.7,1.4,2.1c1.3,1.5,1.5,2.5,0.6,2.8c-1,0.4-1.5,1.3-1.7,2.8c-0.1,0.7-0.1,1.4,0,2.1
				l1.9,2.4c1.3,1.8,2,3.1,2.1,4c0.1,1.1,0.1,2-0.1,2.7s-0.6,1.4-1.2,1.9c-0.6,0.6-1,1.1-1.3,1.6c-0.2,0.4-0.5,1.1-1,2.3
				c-0.3,0.7,0.2,2,1.4,4c1.4,2.3,2.1,3.9,2.1,5c0,3.3,0.1,5.2,0.3,5.8c0.1,0.4,1.6,0.9,4.5,1.5c2.8,0.5,5.2,0.8,7.1,0.8
				c2.5,0,6-0.1,10.4-0.3c0.8,0,1.6,0.4,2.2,1.1c0.3,0.4,0.6,0.8,0.7,1.2h-6.9c-0.9,0.2-2.1,0.3-3.5,0.3c-0.9,0-1.9,0.1-3,0.4
				c-1.4,0.3-2.6,0.6-3.6,0.8c-1.2,0.3-2.6,1-4.3,2.1c-0.8,0.6-1.5,1.1-2.1,1.6l0.9,1.2c0.1,0.1,0.6,0.6,1.6,1.5
				c0.8,0.7,1.6,1.8,2.4,3.1c0.8,1.4,0.8,2.2,0.2,2.6c-0.4,0.2-0.9,0.4-1.6,0.6c-0.2,0.6-0.1,1.3,0.3,2c0.5,0.9,1.5,1.4,2.9,1.5
				c1.1,0.1,2.3,0.4,3.6,0.8c1.3,0.4,2.3,0.6,3,0.6c0.9,0.1,1.2,0.7,0.8,1.6c-0.3,0.6-0.8,1.9-1.7,3.9c-0.4,1.3,0,2,1,2.3
				c2.5,0.7,4,1.2,4.5,1.5c1.3,0.7,1.8,1,1.7,1c-0.5,0-0.4,0.3,0.3,1c0.7,0.7,1.5,1.7,2.6,3.2c1.4,1.6,3.4,3.6,6.1,5.8
				c2.7,2.2,4.1,4.1,4.2,5.6c0,0.3,0,0.8-0.1,1.4c-0.1,0.4,0,0.8,0.2,1c0.8,0.8,1.7,2.4,2.4,4.6c0.9,2.6,1.1,4.5,0.4,5.9
				c-0.6,1.1-1,1.7-1.3,1.8c-0.4,0.1-0.6,0.1-0.7,0.2c-0.3,0.4-0.1,0.9,0.5,1.5s1.8,1.4,3.5,2.3c1.2,0.6,2.2,1.1,3,1.5
				c0.3,0.2,0.6,0.4,1,0.8s0.4,1.1-0.3,2c-0.6,0.8-1.1,1.3-1.8,1.3c-0.3,0-1.2-0.4-2.9-1.1c-1.4-0.6-2.1-0.7-2.3-0.3
				c-0.1,0.4,0.9,1.3,2.9,2.8c2.1,1.5,3.2,2.4,3.2,2.8s0.4,0.8,1.1,1.3c0.8,0.5,1.2,1,1.2,1.6s0.4,1.2,1.1,1.9
				c1,0.9,1.8,1.8,2.4,2.8c0.7,1.2,1.5,2.1,2.4,2.7c0.5,0.4,1.4,0.9,2.4,1.6c0.7,0.6,1.1,1.3,1.4,2.3c0.4,1.9,0.6,2.9,0.6,2.9
				c0.4,1.1,1.2,2,2.4,2.9c1.1,0.8,1.9,1.1,2.4,1c0.6-0.2,0.7-1.4,0.3-3.7c-0.4-2.4-1.3-4.3-2.6-5.5c-1.4-1.4-2.1-2.6-2.2-3.6
				c-0.1-1,0.3-1.3,1.3-0.8c0.6,0.3,1.8,1.1,3.8,2.3c1.8,1.1,3.1,1.6,3.8,1.5c0.9-0.1,1.7-0.1,2.6,0.1c0.9,0.2,2.2,0.8,4.1,1.6
				c1.8,0.8,3,0.9,3.8,0.3c0.7-0.5,0.8-1.4,0.5-2.6c-0.2-0.8-0.9-2-2.2-3.6c-1.2-1.5-1.8-2.5-1.8-3c0-0.2,0.4-1.3,1.1-3.3
				c0.7-1.9,1-3.6,0.9-5.1c-0.1-1.4-0.6-2.7-1.6-3.9c-0.9-1.1-1.4-1.9-1.4-2.2c0-0.7,0.6-1.3,1.9-1.9c1.2-0.5,2.6-0.9,4.3-1
				c1.4-0.1,2.5-0.9,3.1-2.3c0.5-1,0.7-2.2,0.7-3.6c0-1,0.6-2.7,1.6-5c1.1-2.3,2.1-3.9,2.9-4.8c0.6-0.6,1.5-0.4,2.5,0.8
				c1.2,1.4,2.1,2.1,2.7,2.1c1,0,1.5-0.7,1.6-2s-0.3-2.2-1-2.6c-2.3-1.5-3.5-2.7-3.8-3.8c-0.1-0.4-0.7-1.2-1.8-2.5
				c-1.3-1.5-2.3-2.8-2.8-3.9c-0.7-1.3-1.1-2.2-1.1-2.6c0.1-0.6,0.2-1.4,0.2-2.3c0-1.2,0.4-2,1.3-2.3c0.4-0.1,0.9-0.1,1.3-0.1l0.9,2
				c0.8,1.5,1.6,2.7,2.6,3.5c0.8,0.7,1.3,2,1.4,4c0.2,2,0.7,3.4,1.4,4.1c1.2,1.2,2.5,2.3,3.8,3.2c1.5,1,3.5,2.2,6,3.4
				c2,1,3.2,1,3.5,0c0.8-2.8,1.5-4.5,2-5.2c2.3-3.1,1.7-8.5-1.7-16.2c-0.7-1.6-0.9-3.2-0.6-4.7c0.6-1.6,0.9-2.9,1.1-3.8
				c0.2-1,1-2.4,2.4-3.9c1.5-1.6,2.4-2.7,2.8-3.3c1-1.2,1.8-2.2,2.4-3.1c1.2-1.6,2.1-3.3,2.8-5c2.9-7.4,4.8-14.2,5.5-20.2
				c0.4-3.1,1.6-7.8,3.6-14.1c2.3-6.7,3.8-11.1,4.4-13.1c1-2.9,2.4-5.3,4.3-7.1c1.8-1.7,3.3-2.3,4.7-1.9c0.3,0.1,2.6,1,7,2.6
				c4.1,1.6,7.5,2.8,10.4,3.8c2.3,0.7,4.6,1.2,6.9,1.4c1.2,0.1,1.9,0.5,2.3,1.2c0.6,1,1.7,2.3,3.3,3.9c1.5,1.6,2.9,2.9,4.3,3.9
				c1.2,0.9,2,1.1,2.5,0.6c0.2-0.3,0.8-2,1.8-4.9c0.7-2.2,1.6-1.7,2.6,1.5c1,3.1,1.4,5.2,1.2,6.3c-0.1,0.5,0,1.1,0.3,2
				c0.4,1.3,0.6,2.1,0.6,2.6c0.1,0.9-0.2,1.6-1,2.2c-0.6,0.5-1.3,0.7-1.9,0.7c-0.5,0-1,0.9-1.5,2.6c-0.6,1.9-1,4.3-1.1,7.3
				c-0.2,4.5-0.8,8.4-1.7,11.8c-0.1,0.4-0.3,1.5-0.5,3.2c-0.4,2-1.3,4-2.5,6c-1.1,1.8-2.2,2.3-3.5,1.3c-1.8-1.4-3.3-2.1-4.3-1.9
				c-1.3,0.2-2.1,0.6-2.3,1.2c-0.5,1.8-1.8,4-3.9,6.6c-2.4,3.1-3.3,4.9-2.4,5.4c0.2,0.1,0.7,0.3,1.3,0.4c0.5,0.1,0.8,0.4,0.8,0.9
				c0,1.1,1.9,3.3,5.8,6.5c3.8,3.1,7,5.2,9.5,6.3c2.5,1,4.4,1.5,5.8,1.4s2.8-0.8,4.1-2c1.3-1.3,2.6-1.7,4-1.2
				c1.3,0.4,2.7,1.6,4.4,3.5c1.2,1.4,1.4,2.9,0.7,4.3c-0.9,1.7-1.2,2.9-1,3.6c0.4,1.2,1,2,1.9,2.4c3,1.6,4.6,2.4,4.7,2.5
				c1.5,0.9,2.8,1.6,4,2c0.7,0.2,1.4,0.7,2.1,1.5c1.3,1.5,2.7,2.5,4.4,3.3c2.2,0.9,4.4,1,6.6,0.3c1.9-0.7,3-0.2,3.2,1.5
				c0.3,2.7,0.5,4.1,0.6,4.3c0.6,0.8,1.1,1.3,1.6,1.5c0.3,0.1,0.8,0.3,1.6,0.5c0.5,0.3,1.6,1,3.5,2.2c2,1.3,3.9,2.6,5.7,3.9
				c1.7,1.3,2.2,0.9,1.6-1c-1.1-3.4-1.6-5.3-1.6-5.6c0-1.2-1.1-2.3-3.2-3.3c-2.6-0.9-4.5-1.5-5.5-1.9c-1.6-0.6-3-1.6-4.3-3.1
				c-1.2-1.5-1.9-2.9-2.1-4.4c-0.1-1.2,0.4-1.9,1.5-2c0.7,0,1.9,0.1,3.7,0.3c1.5,0,2.5-0.1,3.2-0.2c0.9-0.2,2.2-0.7,3.8-1.5
				c1.4-0.7,1.6-1.7,0.6-3.1c-1.4-1.6-2.2-2.6-2.4-3.3c-0.5-1.3-2.6-3.4-6.4-6.1c-1.3-1-2.3-2.5-2.8-4.6c-0.4-2.7-0.8-4.7-1.1-6
				c-0.4-1.7-1.5-2.7-3.3-3c-2.7,0-5-0.1-6.8-0.2c-2.4-0.1-4.1-1.3-5.1-3.4c-0.7-1.5-1-3.5-1-6.1c0-1.3,0.5-2.9,1.5-4.8
				c1-1.8,1.5-3.3,1.4-4.4c-0.1-1.5-1.2-2.6-3.3-3.2c-2.8-0.6-5-1-6.5-1.4c-2-0.5-3.3-1.1-3.7-1.8c-0.1-0.1-0.3-1.1-0.6-2.9
				c-0.1-0.4-0.8-2.3-2.2-5.6c-1.2-3-1.9-5.4-2.1-7.4c-0.2-1.8,0.6-1.8,2.4,0c2.7,2.7,4.4,4.1,5.1,4.3c0.9,0.3,4.6,3.2,11.1,8.9
				c6.9,5.9,11.4,9.4,13.8,10.6c1.8,0.9,4.3,2.3,7.4,4.1c2.5,1.5,4.9,2.7,7,3.6c2.7,1.1,4.7,3.8,6.1,8c0.9,2.7,1.6,6.3,2,10.8
				c0.3,2.7,1,6,2.3,9.7c0.8,2.2,2,5.5,3.8,10c1.4,3.6,1.9,6.9,1.5,9.9c-0.4,3.4-2,7.9-4.8,13.5c-2.3,4.6-3.1,10.5-2.6,17.7
				c0.1,2,0.4,5,0.8,9c0.2,3.5,0.2,6.6-0.1,9.2c-0.2,2-0.3,3.8-0.3,5.4l20.1-7.4l-9.7-90.4l-71.8-71l-44.4-8.9l-3.7-22.8
				c-3.1,0.3-4.9,0.4-5.4,0.3c-0.4-0.1-0.6-1.1-0.6-2.9c0-1.9-0.4-2.9-1.2-3.1c-0.5-0.1-2.2,0.1-4.9,0.8c-1.9,0.5-2.9,1.8-3.3,3.9
				c-0.1,0.5-0.1,1.1-0.2,1.9c-0.1,0.5-0.4,0.6-0.9,0.4c-0.8-0.4-2-0.5-3.5-0.4c-4.6,0.3-7,0.4-7.2,0.4c-3.6,0.1-7.2-0.7-11-2.5
				c-3.9-1.9-7.1-4.4-9.5-7.5c-2.1-2.8-3.5-4-4.1-3.7c-0.5,0.2-1.6,1.5-3.4,3.7c-0.9,0.8-2,1.6-3.2,2.5c-0.2,0.2-0.5,0.7-0.8,1.5
				c-0.4,0.9-0.2,1.6,0.4,2.2c2.7,2.3,4.3,3.7,4.8,4.2c2.1,2.1,2.3,3.5,0.7,4.3c-2.7,0.6-4.8,1.1-6.2,1.5c-1.3,0.4-2.8,0.6-4.4,0.6
				c-1.7,0-3.2,0.2-4.6,0.6c-1.8,0.5-3.1,1.3-4.1,2.4c-0.4,0.4-1.1,1.5-2.3,3.1c-0.6,1-2,1.1-4.2,0.5c-0.6-0.2-3-1.2-7.1-3
				C145.4,346.1,144.3,345,144.1,343.5z"/>
		</g>
	</g>
</g>
<g transform="matrix( 1, 0, 0, 1, 0,0) ">
	<g>
		<g id="izborna_x5F_7">
			<path class="st0" d="M482.5,246.3c-0.8-0.5-2-1.5-3.8-3c-0.9-0.8-1.6-1.3-2.3-1.3c-0.8,0-2,0.5-3.9,1.5c-1.5,0.8-2.6,0.9-3.3,0.4
				c-0.7-0.5-1.3-0.6-1.6-0.4c-0.5,0.3-0.7,0.7-0.8,1.1c-0.2,1.2-0.7,2.8-1.5,4.8c-0.9,2.2-1.7,2.5-2.5,1.1c-1.3-2.2-2.3-3.4-3-3.4
				c-1.2,0-2.2,1.1-3,3.4c-0.4,1.2-0.9,3-1.4,5.3c-0.3,0.9-2.8,1.9-7.4,3.1c-5,1.3-8.1,2.4-9.1,3.3c-1.3,1.2-3,2.2-4.9,3
				c-2.7,0.9-5,1.7-6.9,2.5c-3.2,1.3-5.3,2.5-6.5,3.7c-1.5,1.5-2.5,3.8-3,7c-0.5,2.7,0.1,4.1,1.8,4c0.9-0.1,2-0.4,3.4-1.1
				c0.3,0,0.5,0.3,0.7,1c0.3,1,0.7,2,1.3,2.8c1.4,1.9,2.2,3,2.4,3.1c0.9,0.8,1.6,0.6,2.2-0.6c0.3-0.6,0.5-1.8,0.7-3.6
				c0.1-1.5,0.7-3,1.9-4.5c1.4-1.6,2.5-1.6,3.3,0.1c0.3,0.7,0.8,2.5,1.3,5.4c0.1,0.7,1.3,2.7,3.5,5.9c1.8,2.7,2.4,4.6,1.8,5.7
				c-0.7,1.1-1.5,1.5-2.4,1c-1.9-1-3-1.5-3.5-1.6c-1.1-0.2-1.7-0.2-1.8,0c-0.4,0.7-1.5,1.5-3.1,2.3c-1.9,0.9-3.1,1.2-3.5,1
				c-0.6-0.3-1-0.5-1.4-0.4c-0.8,0.3-1.3,0.8-1.5,1.6c-0.1,0.6-0.4,2-0.8,4.3c-0.5,1.5-1.2,2.2-2.2,2c-0.9-0.2-1.3-0.1-1.3,0.3
				c0,0.7,0.4,1.8,1.2,3.1c0.5,0.8,1.2,1.9,2.3,3.5c0.6,0.9,1,2.6,1.2,5.1c0.1,1.4,0.3,3.4,0.5,6.1c0.2,1.4,1.3,2.9,3.2,4.4
				c1.1,0.8,2.8,2.1,5.2,3.8c1.4,1.1,2,2.1,1.8,2.8c0,0-0.6,0.7-1.8,2.1c-0.7,0.9-1.8,1.8-3,2.7c-1.4,0.9-2.9,1.7-4.5,2.2
				c-1.5,0.6-3,0.6-4.4,0.1c-1.3-0.4-2.6-1.3-4-2.8c-1.1-1.1-2.2-1.3-3.4-0.6c-1.3,1.2-2.3,2-3,2.6c-1.2,0.8-2.1,1.4-2.6,1.8
				c-1,0.7-1.9,1.7-2.9,3.1c-1.1,1.6-1.6,2.5-1.7,2.5c-0.5-0.3-1.3-0.6-2.3-1c-1.2-0.5-2.1-0.3-2.6,0.4c-1.2,1.7-2.3,2.9-3.3,3.6
				c-1.7,1.4-3.4,1.1-5.2-0.7c-2.1-2.8-3.9-5-5.2-6.5c-2.1-2.6-3.6-4.4-4.4-5.4c-1.3-1.5-2.9-2.9-4.6-4.1s-2.9-1.8-3.8-1.7
				c-1.3,0.4-2.8,0.6-4.3,0.8c-1.8,0.2-3.2,0-4.3-0.6c-1.5-0.8-2.6-1.3-3.3-1.4c-1-0.2-2.6-1.6-4.8-4.2c-2.3-2.8-4.1-4.4-5.6-5
				c-1.8-0.7-2.7-0.3-2.8,1.1c0,0.9,0.1,2.4,0.5,4.8c0,2-0.4,4-1.1,5.9c-0.9,2.4-2.2,3.9-3.8,4.5c-3,1.1-5.3,1.7-6.9,1.9
				c-2.8,0.3-4.7-0.6-5.6-2.5c-1.5-3.4-2.4-5.2-2.5-5.5c-0.9-1.6-2.2-3.1-3.9-4.3c-2-1.5-4.3-3.1-7.1-4.7c-2.9-1.7-4.6-2.5-5.3-2.5
				c-0.6,0-1.4,0.5-2.5,1.6c-0.6,0.5-1.1,1.1-1.5,1.6c-1.2,0-1.6-1.5-1.2-4.4c0.7-3.6,1.1-6.1,1.2-7.4c0.1-1.7-1.3-3.5-4.3-5.6
				c-3.8-2.2-6.4-3.8-7.8-4.8c-2.2-1.5-3.5-2.8-3.9-3.9c-0.5-1.2-0.4-3.3,0.1-6.3c0.6-3,0-4.9-1.9-5.8c-1.8-0.9-3.5-0.2-5,2
				c-1,1.4-2.6,4-5.1,7.5c-2.3,3.1-4.5,5.1-6.8,6.1c-2,0.9-2.7,1.6-2,2.2c1.3,1.2,2,2,2,2.4c0.2,1.4-0.6,4-2.4,7.8
				c-1.9,4-3.9,7-6,9.1c-2,1.9-3.8,3-5.4,3.4c-0.6,0.1-1.9,0.1-3.9-0.2c-1.1-0.1-1.9,0.4-2.5,1.5c-0.3,0.6-0.8,1.8-1.3,3.4
				c-0.4,1.1-1.1,1.8-1.9,2.1c-0.6,0.2-2.4,0.5-5.3,0.8c-1.9,0.2-3.1,0.8-3.8,1.9c-0.6,0.9-1.6,1.3-3.1,1.3c-1.4,0-2-0.6-1.9-1.7
				s-1-1.6-3.3-1.5l3.7,22.8l44.4,8.9l71.8,71l25.1-21.8l45.1,25.8l21,33.9l21.8,16.1l23.4-14.6l17.3,15.2c-1.2-3.9-2.1-6.4-2.8-7.7
				c-1.3-2.2-1.7-4-1.2-5.3c0.9-1.5,1.5-3,1.8-4.5c0.4-1.8,1-3.1,1.9-3.9c0.6-0.5,1.8-1.3,3.6-2.5c1.5-1.2,2.2-2.6,2.2-4.3
				c0-1.5-0.4-2.5-1.3-3c-0.5-0.3-1.2-1.9-2.3-4.9c-1.2-3.4-2.2-5.7-2.9-6.9c-1-1.6-1.5-2.8-1.4-3.5c0.1-0.5,0.6-1,1.6-1.8
				c0.8-0.6,1.3-1,1.5-1.4c0.1-0.2,0.4-1.5,0.8-3.8c0.3-1.6,1.2-2.7,2.7-3.2c1.9-0.6,3-1.2,3.4-1.7c0.7-0.9,0.4-2.6-1-5
				c-1.9-3.1-3.2-5.4-4-7c-1-2.1-1.1-4-0.3-5.7c0.1-0.3,1.4-2,3.8-5c1.3-1.6,2.5-2.6,3.8-2.9c0.7-0.2,1.6-0.4,2.8-0.6
				c0.7-0.3,1-0.5,0.9-0.6c-0.3-0.4-0.3-0.9,0-1.7c0.4-1,1-1.3,2-1.1c0.5,0.1,1.3,0.4,2.3,0.8l-8-37l23.1-37.6l-6-23.5l7.3-43.5
				l-53.6-16.8c-0.3,0.1-0.5,0.2-0.9,0.3C485.8,247.9,484.3,247.5,482.5,246.3z"/>
		</g>
	</g>
</g>
<g transform="matrix( 1, 0, 0, 1, 0,0) ">
	<g>
		<g id="izborna_x5F_6">
			<path class="st0" d="M651.8,279.9v-5l-28-24.7l-20,12.6l-38.9-12.6v-7.3h-8.6L541.5,264l-7.3,43.5l6,23.5L517,368.6l8,37
				c1.9,0.4,3.8,0.6,5.8,0.6c0.9,0,1.5-0.4,1.8-1.1c0.4-0.9,1-1.5,2-1.8s2.2,0.2,3.5,1.5c1.5,1.5,2.6,2.3,3.3,2.3
				c0.9,0,2.2-0.5,3.8-1.6c1.9-1.3,3.5-2.1,4.7-2.4c1.9-0.6,3.5,0.5,5,3.3c1.4,2.8,1.7,5.7,0.8,8.5c-0.4,1.5-0.7,2.3-0.7,2.5
				s0.2,0.3,0.5,0.1c1.4-0.5,2.8-0.1,4.2,1.1s2.2,2.3,2.5,3.1c0.2,0.6,0.9,1.3,2,2.1c1.5,1,2.2,2.5,2.2,4.6c0,1.2-0.1,3-0.5,5.5
				c0,1.5,0.9,2.6,2.7,3.6c1.1,0.5,3,1.3,5.8,2.3c2.5,1.1,4.3,2.1,5.3,3.1c1.6,1.5,2.3,3.2,2.2,5.3c-0.3,4.5,2.1,6.9,7.2,7.2
				c1.4,0.1,3,0.8,4.6,2.1c1.5,1.2,3.5,1.8,5.8,1.7c1.4-0.1,2.3,0.1,2.5,0.4c0.1,0.2,0.1,0.6-0.2,1.3c-0.5,1.5,0.7,2.6,3.5,3.2
				c3.7,0.8,6.6,0.3,8.8-1.4c1.9-1.5,2.6-3.1,2.3-5c-0.3-1.4,0-2.6,0.9-3.7c0.7-0.9,2-2.1,4-3.5c1.6-1.1,2.3-2.4,2.1-4.1
				c-0.5-2-0.8-3.5-0.9-4.6c-0.1-0.8,0.4-1.8,1.5-2.8c0.9-0.9,0.9-2.2,0.2-3.9c-0.9-2.1-0.7-3.4,0.6-3.9c0.7-0.3,2.7-0.4,6-0.4
				c2.4,0,4.3-1.5,5.9-4.4c1-2,2.3-5.7,3.9-11.3c1.1-4,2.3-6.7,3.7-8.1c0.8-0.8,2.1-1.7,3.8-2.6c1.1-0.8,2.5-0.7,4,0.1
				c1.9,1.1,3.1,1.6,3.5,1.6c0.7,0,1.7-0.5,2.9-1.4s2.3-1.4,3.3-1.5c1.3-0.1,3,0.6,5.3,2.3c1.7,1.2,3.2,2.5,4.5,3.8
				c1,1,2.7,1.8,5,2.2c2.7,0.5,5.3,0.2,7.8-0.8c2.5-0.9,4.1-1.3,4.8-1.3c0.2,0,1,0.3,2.4,1c0.8,0.4,2.5,1.5,5.4,3.3
				c3,1.3,5.9,1.4,8.8,0.2c2.7-1.1,3.7-2.5,3-4.2c-0.5-0.8-0.8-1.4-1-1.8c-0.3-0.6-0.3-1.1,0-1.5c0.3-0.3,0.8-0.3,1.6-0.1
				c0.6,0.2,1.7-0.7,3.3-2.8c1.4-1.9,2.3-2.9,2.5-3.1s0.7-0.8,1.5-1.8c0.9-1.2,1.6-1.9,2-2c0.3,0,0.7-0.5,1.2-1.3
				c0.7-1.3,1.1-2,1.2-2.1c0.2-0.1,1.3-0.8,3.4-1.9c2-1,2.9-0.5,2.8,1.6c-0.1,2.2-0.7,3.5-1.9,3.9c-1,0.3-1.1,1.1-0.4,2.3
				c0.7,1.2,2,2.5,3.9,3.8c1.4,0.9,2.3,0.6,2.7-0.9c0.5-2.1,1.3-3.2,2.2-3.4c1.2-0.3,1.6,0.9,1.1,3.8c-0.4,2.3-0.5,3.2-0.2,2.8
				c0.8-1.3,2.1-2.4,3.9-3.1c1.9-0.8,2.7-0.5,2.5,1.1c-0.2,1.4,1.1,3.4,4,6c1.5,1.3,3.2,2.8,5,4.4c0.4,0.6,1.2,1.1,2.6,1.6
				c2.2,0.9,3.8,1.5,4.8,1.9l6.6-57.1l-30.7-13.8l-30.7-39.8l-30.3-27h-20.6L651.8,279.9L651.8,279.9z"/>
		</g>
	</g>
</g>
<g transform="matrix( 1, 0, 0, 1, 0,0) ">
	<g>
		<g id="izborna_x5F_5">
			<path class="st0" d="M1015,359.5v31.6h-63.3l-18.4-23.5v-20.4L815,299.7l-8.8,14l-64-4.3l-24.5,17.3l15.4,19.9l30.7,13.8
				l-6.6,57.1l1,0.5c1.3,0.6,2.9,1.3,4.9,2.3c1.5,0.7,3.4,1.6,5.8,2.6c2.9,1.2,4.9,1.7,6,1.6c0.9,0,3-0.5,6.1-1.4
				c2.5-0.5,3.7-1.8,3.8-3.9c0.1-2.6,0.6-4.3,1.5-5.1c1.3-1.1,2.1-1.1,2.4-0.3c0.6,1.6,1.3,2.5,2.2,2.9c1.1,0.4,2.5,0.9,4.3,1.6
				c1.2,0.6,1.6,1.4,1.2,2.4c-0.5,1.2,0.6,2.4,3.2,3.6c2.9,1.2,6.9,2.1,12.1,2.5c4.2,0.3,6.2-0.3,6.2-2c-0.2-0.9-0.2-1.5-0.1-1.8
				c0.1-0.6,0.7-0.9,1.8-0.9c1.8,0,2.6,1.2,2.5,3.6c0,2.5,0.5,3.8,1.5,3.9c1.4,0.1,2.2,0.5,2.3,1.1c0,0.4,0,1.1,0,2.1
				c0.3,0.6,1.6,1,4.1,1.1c0.8,0,2.6,0,5.4,0c0.8,0,1.5-0.7,2.1-2.1c0.6-1.7,1.2-2.7,1.7-3c0.6-0.5,1.2,0.2,1.8,1.9
				c0.5,1.8,0.9,2.7,1.2,2.6c0.2-0.1,0.7-0.4,1.3-1c0.5-0.6,1.1-0.9,1.6-1s1,0.1,1.5,0.8c0.7,0.9,1.3,1.5,1.8,1.9
				c0.8,0.6,1.4,0.8,1.7,0.6c0.2-0.1,1-1,2.3-2.6c1.4-1.7,2.5-2.8,3.5-3.5c1.2-0.8,2.6-1.4,4.3-1.6c1.4-0.2,4,1.5,7.8,5.1l7.3,7
				c1.2,0.9,2.3,1.4,3.1,1.5c0.5,0.1,1.5,0.2,3,0.2c1.4,0.1,2.4,0.6,3.1,1.3c0.5,0.5,1.3,1.8,2.4,3.9c1.6,3.1,4.7,4.2,9.2,3.5
				c1.2-0.2,3.1-1.3,5.6-3.3c2.9-2.3,4.7-3.6,5.4-3.9c1.4-0.7,2.2-1.6,2.4-2.7c0.2-1-0.1-2.4-0.7-4.2c-0.5-1.5-0.3-2.5,0.7-2.8
				c0.3-0.1,1.7-0.1,4.2-0.1c1.3,0,2-0.4,2.2-1.3c0.3-2.5,0.6-4.3,1-5.4c0.9-2.4,1.6-3.8,2.3-4.2c0.5-0.3,1.7-0.6,3.5-1
				c1.4-0.4,2.5,0.5,3.3,2.7s1.7,3.3,2.5,3.1c0.9-0.2,1.3-0.4,1.4-0.6c0.1-0.5,0.6-1.2,1.5-2c1.2-1.1,2.1-1.2,2.5-0.2
				c0.3,0.6,0.6,1.8,1,3.7c0.2,0.6,0.2,1.9,0,4c-0.2,1.5,0.3,2.5,1.3,2.9c0.8,0.4,1.8,1.5,2.9,3.5c1,1.7,2,2.6,2.9,2.6
				c1,0,2-0.5,3-1.4c1.2-1.1,2-1.7,2.5-1.9c0.8-0.2,1.7,0,2.5,0.7c0.5,0.4,1.5,1.3,3,2.5c1.2,0.8,2.5,0.8,4,0.1
				c0.9-0.4,2.5-1.4,4.7-3c1.4-1.1,2.1-2.3,1.9-3.7c-0.6-2.1-0.9-4-1-5.8c-0.1-2.2,0.4-3.3,1.6-3.5c3.1-0.4,4.8-0.6,5.3-0.9
				c1.8-0.8,3.1,0.2,4.1,3c1.1,3,1.8,4.5,2.3,4.5s1.5,0.6,3,1.9c1.5,1.2,3,1.8,4.5,1.6c2.1-0.2,5.3-0.2,9.7,0
				c4.5,0.1,7.5,0.3,9.1,0.6c1.3,0.2,2.3,1,3,2.2c0.5,0.8,1.4,2.3,2.8,4.7c1.2,1.7,2.7,2.9,4.4,3.6c1,0.4,2.5,0.8,4.6,1.3
				c1.4,0.5,2.8,0.4,4-0.4c0.7-0.5,1.8-1.5,3.2-3.1c0.7-0.8,0.8-1.9,0.4-3.3c-0.4-1.2-0.4-2,0.2-2.3s1.6,0.3,2.9,2
				c1.4,1.8,2.3,2.6,2.6,2.6c0.4,0,0.7-0.9,0.7-2.6c0.1-1.7,0.2-2.6,0.5-2.6c0.6,0,1.7,0.7,3.2,2l2-1.4c1.5-1,2.7-1.7,3.5-2.1
				c1-0.5,1.4,0.1,1,1.8c-0.3,1.6-1.1,2.5-2.3,2.8c-1,0.3-1.5,0.9-1.5,1.8c0,0.2,0.1,0.8,0.3,2c0.2,0.5,1.2,0.8,3,0.9
				c1.9,0.1,3.1-0.2,3.6-0.9c0.1-0.2,0.4-1.5,0.8-4.1c0.3-2.1,1.2-3.3,2.7-3.7c1.7-0.4,2.3,0.3,1.9,2.2c-0.3,1.5-1,2.8-1.9,3.9
				c-0.5,0.6-0.6,1.6-0.3,2.9c0.3,1,1,2.3,2,4c0.5,0.9,1.8,1.9,4,3c2.3,1.2,4.2,2.7,5.5,4.5c1.5,1.9,1.9,3,1.4,3.5
				c-0.7,0.6-1,1.2-0.8,1.8c0.4,1,1,1.3,1.8,0.8c2.3-1.3,3.8-2,4.3-2.2c2-0.7,3.5-0.1,4.5,1.8s0.5,3.3-1.3,4.4
				c-1.4,0.7-1.6,1.7-0.5,2.8c2,2.1,3.2,3.9,3.7,5.3c0.6,1.9-0.5,2.6-3.2,2.4c-3.6-0.4-5.9-0.1-6.9,0.9c-1.5,1.5,0.9,5.3,7,11.4
				c5.8,5.8,10.1,9.1,12.7,10c2,0.7,6.7,1,14.2,0.9c7-0.1,12.1-0.4,15.3-0.9c2.4-0.4,2.8-1.9,1.3-4.5c-2.4-3.4-4-5.9-4.8-7.6
				c-1-2-1-3.2,0-3.5c0.6-0.2,1.6-0.3,3.2-0.3c0.7-0.2,2.3,0.5,4.8,2.1c3,2,5.2,3.2,6.6,3.7c1.8,0.6,3,0.4,3.5-0.6
				c0.4-1.8,0.7-3.3,1.1-4.5c0.6-1.8,1.4-3.1,2.4-4.1c0.9-0.8,2.1-1.6,3.7-2.3c1.4-0.6,2.4-1.5,3.1-2.7c0.6-1.1,0.8-2.2,0.8-3.4
				c-0.3-2-0.7-3.3-1.2-4.1c-1-1.3-2.5-1.3-4.7,0.1s-4.2,1.6-6,0.8c-1.3-0.6-2.5-1.8-3.5-3.4c-0.5-0.8,0.2-2.2,2.1-4.1
				c2.3-2.4,3.6-4.2,4-5.4c0.6-2,0.9-3.5,0.9-4.5s-0.2-2-0.7-3s-0.7-2.4-0.7-4.3c0.1-1.8,0.4-3.1,1-3.9c0.6-0.6,0.4-1.8-0.5-3.6
				c-0.8-1.6-1.8-3-3-4.1c-1-1-1.2-2.3-0.7-4.1c0.4-1.7,1.3-3,2.7-4c1.1-0.8,2.3-0.6,3.8,0.6c0.8,0.7,1.8,1.7,3.1,2.9
				c0.8,0.4,2.1-0.1,4-1.6c1.5-1.2,3.1-2.7,4.7-4.5c1.2-1.3,1.8-2.7,2.1-4.1c0.1-1,0-2.1-0.4-3.4c-0.6-1.1-1-1.9-1.3-2.3
				c-0.3-0.6,0-1,1-1.3c0.8-0.2,2.4,0.6,4.9,2.3c2.8,1.9,4.8,3,6.1,3.2c1.7,0.3,2.7,0.5,3.2,0.7c0.4,0.2,1.2,0.6,2.3,1.3
				c2.4,1.3,2.8-0.5,1.4-5.2c-0.6-1.8-0.5-2.9,0.1-3.3c0.3-0.2,1.9-0.2,4.8-0.3c1.9,0,2.9,0.2,2.9,0.6c0.1,1.3,0.3,2.1,0.6,2.5
				c0.3,0.5,0.7,1.5,1.1,3c0.2,0.8,0.9,1.5,2.2,1.9c1.3,0.5,2,0.9,2.2,1.2c0.2,0.4,0.4,0.7,0.4,0.7c1.4,0.8,2.9,0.4,4.6-1.3
				c0.8-0.8,1.8-1.1,2.8-0.8c0.7,0.2,1.8,0.8,3.6,1.6c1.3,0.5,2.2,0.6,2.8,0.2c0.4-0.3,1.1-1.1,2.1-2.5c0.3-1.2-0.1-3.4-1.2-6.4
				c-1.3-3.4-2.2-5.8-2.6-7.1c-0.5-1.8-2.1-2.8-4.8-3c-0.9-0.1-5.1-0.1-12.6,0.1c-4.5,0.1-9.3-0.8-14.2-2.8c-9.2-3.7-15-6-17.3-6.7
				c-6.6-2-10.5-4.7-11.9-8.1c-0.4-0.9-0.7-2.3-1-4.3c-0.3-1.8-0.7-3.2-1.2-4.1c-1.3-2.2-2.5-3.4-3.7-3.6c-2.5,0.2-5.2,0.4-8.2,0.4
				c-3.7,0-6.3-1.1-7.7-3.4c-1-2.8-1.8-4.6-2.4-5.6c-0.9-1.3-0.4-2.2,1.4-2.9c1-0.3,2.9-0.7,5.8-1.1c1.6-0.3,2.7-0.7,3.1-1.3
				c0.3-0.5,0.8-1.6,1.5-3.3c0.7-1.2-0.3-2.8-2.9-4.8c-3.6-2.7-5.6-4.4-6.1-5.1c-1.7-2.6-1-6.3,2.3-11c0.7-1,1.8-1,3.3,0.3
				c2.1,1.7,3.9,2.5,5.3,2.6c2.5,0.2,4.3,0,5.5-0.5l-47.4-21.5L1015,359.5z"/>
		</g>
	</g>
</g>
<g transform="matrix( 1, 0, 0, 1, 0,0) ">
	<g>
		<g id="izborna_x5F_4">
			<path class="st0" d="M1088.1,222.3c0.2-1.1-0.1-1.5-1.1-1.4c-0.5,0.1-1.5,0.9-3.1,2.4c-1.5,1.4-3.2,2-5,1.9
				c-2.6-0.6-4.4-0.8-5.2-0.8c-1.1,0-2.1,1.3-2.9,3.8c-0.9,2.6-1.7,4-2.5,4.1c-0.5,0.1-1.1-0.4-1.8-1.5c-0.4-0.6-1.1-1-2.1-1.3
				c-1.6-0.5-3.2-1.1-4.8-1.9c-2.7-1.4-5.6-2.5-8.8-3.2c-3.5-0.8-5.8-0.8-6.8,0c-0.6,0.4-1.2,1.4-1.8,2.9c-0.7,1.7-2.1,3.6-4,5.5
				c-1.7,1.7-2.5,2.8-2.2,3.1c0.8,0.9,0.9,2.8,0.2,5.7c-0.8,3.3-2.7,5.8-5.8,7.3c-4.8,2.4-7.9,4.3-9.2,5.7c-2.6,2.6-4.3,3.5-5,2.7
				c-0.3-0.6-0.5-1-0.7-1.3c-0.3-0.5-0.7-0.8-1.3-0.8c-1.3,0-2.1,0.2-2.4,0.7c-0.3,0.4-0.5,1.5-0.5,3.1c0,1.2-0.6,2.1-1.8,2.5
				c-1.8,0.7-2.8,1.2-3.1,1.5c-1,1.3-2,2.3-2.8,3c-1.5,1.1-3.4,1.6-5.9,1.6c-2,0-3.6-0.8-4.6-2.5c-1.1-1.6-2.3-2.4-3.8-2.4
				c-1.8,0-3,0.3-3.8,0.9c-1,0.8-1.7,1.3-2.1,1.4c-0.9,0.2-2.5,0.2-4.8-0.1c-4.4-0.7-6.8-1-7-1.1c-1.8-0.2-4.4-1.3-7.8-3.3
				c-3.2-1.9-5.6-2.8-7.2-2.8s-2.5,0.4-3,1.3c-0.4,0.8-1.4,1.1-2.8,1c-1.4-0.1-2.2-0.9-2.3-2.3c-0.1-1.1-1-1.4-2.6-1
				c-0.5,0.2-2.2,0.9-5,2.3c-1.8,0.9-4,1.4-6.8,1.5c-2.6,0.1-5.3-0.7-7.9-2.5c-2.8-1.9-4.6-2.9-5.4-3c-1.1-0.1-2.8,0.1-5.1,0.6
				c-2.6,0.5-4.9,0.8-7,0.8c-1.3,0-3.2-0.5-5.8-1.6c-1.1-0.4-2.2,0.3-3.2,2.2c-1.1,2.2-2.5,2.8-4.2,2c-1-0.5-2.4-1.8-4.2-4
				c-1.1-1.9-1.9-3.2-2.4-3.8c-0.8-0.9-2.4-1.3-4.8-1.2c-1.2,0.1-2.3-0.2-3.2-0.9c-1-1-1.8-1.7-2.4-2.3c-2.6-2.5-6.4-3.9-11.5-4.3
				c-5.6-0.5-8.7-1.6-9.2-3.4c-0.1-0.5-0.1-1.3,0.2-2.4c0.2-1.1,0.2-1.9,0-2.5c-0.6-1.7-2.6-4.8-6-9.3c-3.5-4.6-5.8-7.2-7-7.8
				c-1-0.4-4.8-1.1-11.6-2.1c-7.4-1-11.8-1.6-13-1.9c-1.9-0.5-3.1-0.4-3.8,0.3c-0.8,1.3-1.5,2.6-2.3,3.7c-1,1.5-1.9,1.9-2.8,1.2
				l-1-1.5l-3.5,1.7c-1.4,0.7-1.8,0.1-1.3-1.6c0.9-3,1.3-4.7,1.3-5c0-1.2-0.4-1.4-1.2-0.7c-1.1,1.3-2.1,2.3-2.8,3
				c-1.3,1.1-2.2,1.6-2.8,1.6c-0.7-0.1-0.9-1.1-0.7-3c0.3-1.7,0.9-2.5,2-2.5c0.5,0,1,0.2,1.5,0.5c0-1.1-0.1-2.2-0.2-3.2
				c-0.3-2.1-0.8-2.9-1.5-2.6c-0.6,0.3-0.9,0.4-0.9,0.4c-0.2-0.1-0.6,0-1.4,0.3c-0.7,0.2-1.2,0.5-1.6,0.9c-0.5,0.5-1.4,1-2.7,1.6
				c-1.4,0.5-1.9,0.5-1.4-0.1c0.9-1.2,1.4-2,1.4-2.4c0-0.9-0.4-1.8-1.2-2.6c-0.9-0.9-1.9-1.4-3.2-1.4c-3,0-5.2-0.6-6.6-1.7
				c-0.7-0.6-0.4-1.4,1-2.2c1.2-0.7,2.6-1.2,4.2-1.6c1.5-0.4,1.9-1.2,1.1-2.4c0-0.1-0.1-0.1-0.2-0.2l-38.3,9.5l-4,16.7l14,24.4
				l45.2,14.7l8.1,40.9l118.3,47.5v20.4l18.4,23.5h63.3v-31.6l59.3-46l47.4,21.5c1.4-0.6,2.8-2.2,4.3-4.6c1.4-2.3,0.7-4.1-2.3-5.4
				c-1.4-0.6-4.5-1.4-9.1-2.4c-1.2-0.3-2-0.9-2.5-2c-0.3-1.3-0.6-2.1-0.8-2.6c-0.6-1.6-3.2-0.8-7.7,2.4c-4.9,3.4-7.9,3.7-8.9,0.9
				c-0.4-0.9-0.5-2.2-0.4-3.9c0.1-1.7,0.2-2.7,0.2-3.1c0-0.5-1.2-1.3-3.6-2.1c-2.3-0.9-3.2-2.2-2.8-4c0.5-2,1.6-3.6,3.2-4.6
				c0.8-0.5,2.3-1.2,4.7-2c1.3-0.5,1.8-1.1,1.5-1.9c-0.8-1.2-1.4-2.3-1.8-3.4c-0.5-1.3,0-2,1.3-2.1c0.8-0.1,2.3-0.3,4.5-0.5
				c1.2-0.4,1.5-2,0.8-4.8c-0.5-2.3-1.1-3.9-1.8-4.7c-1.2-0.7-2.2-1.4-3.1-1.9c-1.6-1-2-1.8-1.3-2.4c0.4-0.4,1.6-0.6,3.5-0.6
				c1.9-0.1,3.7-0.8,5.3-2.3c1.8-1.6,1-2.4-2.3-2.2c-2.4,0.1-5.1,0.6-8,1.3c-1.5,0.4-2.7,0.5-3.5,0.2c-0.7-0.3-1.6-1.1-2.9-2.5
				c-1-1.1-1-1.7,0.1-1.6c0.1,0,1.4,0.2,3.9,0.7c1.3,0.3,3,0.4,5,0.3s3.8-0.4,5.4-0.9c1.5-0.4,2.3-1.3,2.2-2.5
				c-0.1-1.2-0.8-1.9-2.2-2.1c-1.2-0.1-3.5-0.5-6.7-1c-3.1-0.5-5.4-0.9-6.9-1.3c-2-0.4-3.6-0.9-4.6-1.5c-1.7-0.9-3-2.3-3.8-4
				c-0.8-1.8-0.1-2.6,2-2.4c2,0.2,3.5,0.9,4.4,2.1c0.6,0.9,1.4,0.5,2.6-1c0.8-1.1,1.6-2.6,2.3-4.5c0.5-1,0.4-2.2-0.2-3.5
				c-1.1-2.5-1.7-4.1-1.8-4.6c-0.6-1.9-1.6-2.3-3.1-1.3c-1.3,0.9-2.6,2.6-3.8,5.1c-1,2.1-1.9,2.2-2.6,0.5c-0.6-1.4-0.9-3.4-0.9-6
				c0-1.8,0.3-3,1-3.7c0.3-0.3,1.4-0.9,3.3-1.8c1.1-0.5,2.1-0.9,3-1.3c0.5-0.4,0.9-1.5,1.3-3.3c0.4-1.6,0-2.6-1-3.3
				c-1.7-1.1-2.8-1.8-3.1-2.3c-0.6-1-0.4-1.6,0.6-2c1.4-0.5,2.2-1,2.3-1.5C1087.6,223.8,1088,222.8,1088.1,222.3z"/>
		</g>
	</g>
</g>
<g transform="matrix( 1, 0, 0, 1, 0,0) ">
	<g>
		<g id="izborna_x5F_3">
			<path class="st0" d="M664.8,78.8c-3-0.4-6.4-1.5-10.2-3.1c-3.7-1.6-6.7-3.3-8.9-5c-2-1.7-3.7-2.8-5-3.3c-1-0.4-2.5-0.7-4.5-0.8
				c-1.2-0.1-2.5-0.8-4-2.1c-1.4-1.3-2.8-1.9-4.3-1.9c-1.6,0-3.1-0.6-4.3-1.9c-1.6-1.6-2.5-2.5-2.9-2.7c-1.2-0.6-2.4-0.5-3.5,0.5
				c-1.3,1-2.4,2.8-3.3,5.3s-1.7,3.9-2.2,4.3c-0.4,0.2-1.6,0-3.5-0.8c-1.6-0.6-3.7,0.1-6.2,2.1c-2.1,1.7-3.5,3.2-4,4.5
				c-0.4,0.8-0.2,2,0.5,3.4c0.4,0.9,1.2,2.2,2.4,4.1c0.5,1.1,1,2.9,1.5,5.5c0.5,2.7,0.9,4.3,1.1,4.9c0.3,0.8,1.1,1.7,2.4,2.6
				c1.2,0.9,2,1.7,2.3,2.3c0.4,1-0.2,2.2-1.7,3.5c-1.6,1.3-3.2,2-4.9,2c-1.3,0-2.2-0.1-2.8-0.3c-0.8-0.3-1.7-0.4-2.7-0.6
				c-1.3-0.1-2.7,0-4.4,0.3c-1.8,0.4-2.7,0.6-2.8,0.6c-1.3,0-3.5-1.4-6.6-4.3c-1.3-1.2-3.2-1.4-5.6-0.8c-2,0.6-4.1,1.7-6.2,3.4
				c-1.4,1.1-3.3,1.7-5.5,1.7c-1.6,0.1-2.4,0.3-2.3,0.6c0.1,0.3,1.1,1.9,3,4.6c1.9,2.5,2.8,4.2,2.8,4.9c0,0.7-1.3,1.3-4,1.8
				c-3.2,0.6-5.1,1.1-5.8,1.7c-0.7,0.5-1.3,1.4-1.8,2.7c-0.5,1.1-1.2,1.8-2.2,2.2c-0.9,0.4-1.6,0.3-2-0.1c-0.4-0.5-1.3-0.4-2.6,0.1
				c-1.1,0.4-3.2,1.5-6.1,3.3c-2.5,1.5-4.2,2.2-4.9,2.2c-0.9,0-2.9,0.8-5.8,2.3c-2.7,1.4-5.1,2.8-7.2,4.1c-1.4,1-3.3,1.5-5.8,1.5
				c-2,0-3,0.2-3,0.5c0,1.5-0.2,3.4-0.6,5.6c-0.6,3.2-1.5,5.3-2.6,6.3c-1,0.9-2.4,0.8-4.1-0.4c-2.1-1.5-3.2-2.2-3.4-2.2
				c-2.8-0.2-5.3-0.4-7.6-0.5c-4.5-0.2-7.2-0.1-8.3,0.5c-1,0.6-1.7,2-2,4.3c-0.5,3.6-0.8,5.6-0.9,6.1c-0.4,1.4-1.4,2.4-2.8,3
				c-1.3,0.6-2,1.2-2.1,1.9c-0.1,0.9-0.5,1.9-1.2,2.9c-0.7,1.1-1.1,1.9-1.1,2.2c0,0.2,0.6,1.2,1.8,3c1,1.5,0.9,2.7-0.4,3.6
				c-1.4,1-0.4,3,2.9,6c1.6,1.5,4.4,3.6,8.4,6.4c1.3,1,3.8,2.6,7.3,4.9c2.5,2.2,3,4.6,1.4,6.9c-1.7,2.5-2.8,5.1-3.4,7.7
				c-0.3,1.3-0.6,3.3-0.9,5.9c-0.1,1.2-0.3,4.4-0.5,9.8l59-0.9l15.5-8.9v-30.9l18.8-9l25.3,8.1l13.9-23.6l76.6-48.2
				c-2.8-1.2-4.8-2.2-6-2.9c-2.9-1.7-4.5-2.5-4.7-2.3c-0.1,0.9-0.8,1.7-1.9,2.3c-1.3,0.6-2.3,0-3-1.9c-0.9-2.3-1.7-3.6-2.5-3.9
				c-0.9-0.3-1.3-0.1-1,0.6c0.3,0.9-0.1,1.3-1.3,1.4s-2.3-0.9-3.3-3.1c-1.6-3.5-2.9-6-3.9-7.3c-1.6-2.1-2.5-3.4-2.8-4.1
				c-0.2-0.6-0.6-1.4-1.2-2.3c-0.7-1.2-1.8-2-3.3-2.2C668.9,79.3,666.8,79,664.8,78.8z"/>
		</g>
	</g>
</g>
<g transform="matrix( 1, 0, 0, 1, 0,0) ">
	<g>
		<g id="izborna_x5F_2">
			<path class="st0" d="M713.3,114.7c1.4-1.4,1.4-3,0.1-4.6c-1.5-1.9-3.3-3.2-5.5-4.1c-0.6-0.3-1.2-0.5-1.8-0.8l-76.6,48.2
				L615.7,177l-25.3-8.1l-18.8,9v30.9l-15.5,8.9v25.2h8.6v7.3l38.9,12.6l20-12.6l28,24.7v5h20.5l30.3,27l15.3,19.9l24.5-17.3l64,4.3
				l8.8-14l-8.1-40.9l-45.2-14.7l-14-24.4l4-16.7l38.3-9.5c-1-1.3-3-2.4-6.1-3.1c-2.6-0.6-3.9-2.6-3.9-5.8c0.1-2,0.1-3.2,0-3.5
				c-0.2-1.2-0.7-1.9-1.6-2.4c-1.5-0.6-2.5-2.1-3.3-4.6c-0.5-2-1.3-2.7-2.3-2.3c-1.4,0.7-2.6,0.1-3.5-1.7c-0.9-1.7-1.7-4.8-2.3-9.3
				c-0.5-3.6-1.2-5.3-2.1-5.2c-1.4,0.9-2.6,1.3-3.7,1.2c-1-0.1-2.2-0.9-3.8-2.5c-1.8-1.8-3.8-3-6-3.6c-1.3-0.4-4.4-1.9-9.3-4.4
				c-4-2.1-7.1-3.1-9.5-3.1c-2.1,0-2.9-0.7-2.5-2.2s-0.3-2.3-2.1-2.4c-1.9-0.1-2.6-0.8-2.3-2.1c0.2-0.6,0.2-1,0-1.2
				c-0.2-0.3-0.9-0.3-2.1-0.2c-2,0.3-3.8-1.6-5.5-5.8c-2.3-5.7-3.9-9.1-4.8-10.1C712,117.6,712,116.1,713.3,114.7z"/>
		</g>
	</g>
</g>
<g id="_x3C_Group_x3E_" transform="matrix( 1, 0, 0, 1, 0,0) ">
	<g>
		<g id="izborna_x5F_1">
			<path class="st0" d="M556.2,242.9v-25.2l-59,0.9c-0.4,4.9-1.1,7.6-2.1,8.1c-2,1.2-2.7,3.7-2,7.5c0.1,0.6,0.9,2.4,2.5,5.3
				c1.1,2,1.1,3.4,0.1,4.2c-1.1,0.9-2.6,1.6-4.3,2.3c-0.4,0.1-1.6,0.5-3.6,1.2l53.6,16.8L556.2,242.9z"/>
		</g>
	</g>
</g>
<g transform="matrix( 1, 0, 0, 1, 0,0) ">
	<g>
		<path id="izborna_x5F_crte" class="st1" d="M790.1,193.5l-38.4,9.5l-4,16.7l14,24.4l45.2,14.7l8.1,40.9l118.3,47.5v20.4l18.4,23.5
			h63.3v-31.6l59.3-46l47.4,21.5 M706.2,105.2l-76.6,48.2L615.7,177l-25.3-8.1l-18.8,9v30.9l-15.5,8.9v25.2h8.6v7.3l38.9,12.6
			l20-12.6l28,24.7v5h20.5l30.3,27l15.3,19.9l24.5-17.3l64,4.3l8.8-14 M717.8,326.8l15.4,19.9l30.7,13.8l-6.6,57.1 M556.2,217.7
			l-59,0.9 M487.9,247.2l53.6,16.8l14.7-21.1 M541.5,264l-7.3,43.5l6,23.5L517,368.6l8,37 M342.9,535.8l20.1-7.4l-9.7-90.4l-71.8-71
			l-44.4-8.9l-3.7-22.8 M507,492.7l-17.3-15.2l-23.4,14.6L444.5,476l-21-33.9l-45.1-25.8L353.3,438 M754,844.2l-54.8,6.5l-21.3,17.1
			"/>
	</g>
</g>
</svg>
