<?xml version="1.0" encoding="utf-8"?>
<!-- Generator: Adobe Illustrator 25.4.1, SVG Export Plug-In . SVG Version: 6.00 Build 0)  -->
<svg version="1.1" id="Layer_1" xmlns="http://www.w3.org/2000/svg" xmlns:xlink="http://www.w3.org/1999/xlink" x="0px" y="0px"
	 viewBox="0 0 303.8 50" enable-background="new 0 0 303.8 50" xml:space="preserve">
<g>
	<path d="M13,36.7c-2.4-1.8-4-4.2-4.9-7.2c-0.6-1.9-0.8-3.9-0.8-6.1c0-2.4,0.3-4.5,0.8-6.4c0.9-3,2.6-5.3,5-7
		c2.4-1.7,5.3-2.5,8.6-2.5c3.3,0,6.1,0.8,8.4,2.5c2.3,1.7,4,4,4.9,6.9c0.6,2,1,4.1,1,6.3c0,2.2-0.3,4.2-0.8,6.1
		c-0.9,3.1-2.5,5.6-4.9,7.4c-2.4,1.8-5.2,2.7-8.6,2.7C18.3,39.4,15.4,38.5,13,36.7z M25,30.9c0.9-0.8,1.6-1.9,2-3.3
		c0.3-1.3,0.5-2.7,0.5-4.2c0-1.7-0.2-3.1-0.5-4.3c-0.4-1.4-1.1-2.4-2-3.2c-0.9-0.8-2-1.1-3.4-1.1c-1.4,0-2.5,0.4-3.4,1.1
		c-0.9,0.8-1.6,1.8-2,3.2c-0.3,1-0.5,2.4-0.5,4.3c0,1.8,0.1,3.2,0.4,4.2c0.4,1.4,1.1,2.5,2,3.3c0.9,0.8,2.1,1.2,3.5,1.2
		C23,32.1,24.1,31.7,25,30.9z"/>
	<path d="M70.1,23.5c0,2.8-0.4,5.3-1.1,7.5c-0.9,2.6-2.4,4.6-4.4,6.1s-4.4,2.2-7.4,2.2c-2.9,0-5.1-1-6.7-3c-0.1-0.1-0.2-0.2-0.2-0.1
		c-0.1,0-0.1,0.1-0.1,0.2v12.8c0,0.2-0.1,0.4-0.2,0.5C49.8,50,49.6,50,49.4,50h-7c-0.2,0-0.4-0.1-0.5-0.2c-0.1-0.1-0.2-0.3-0.2-0.5
		V8.7c0-0.2,0.1-0.4,0.2-0.5C42,8.1,42.2,8,42.4,8h7c0.2,0,0.4,0.1,0.5,0.2c0.1,0.1,0.2,0.3,0.2,0.5v2c0,0.1,0,0.2,0.1,0.2
		c0.1,0,0.2,0,0.2-0.1c1.7-2.2,4-3.3,7-3.3c2.8,0,5.1,0.8,7.2,2.3c2,1.5,3.5,3.7,4.4,6.4C69.7,18.3,70.1,20.7,70.1,23.5z M61.3,23.4
		c0-2.5-0.4-4.5-1.3-6c-0.9-1.7-2.4-2.6-4.4-2.6c-1.8,0-3.2,0.9-4.1,2.6c-0.8,1.4-1.3,3.5-1.3,6.1c0,2.7,0.4,4.8,1.3,6.2
		c0.9,1.6,2.3,2.4,4.1,2.4c1.8,0,3.2-0.8,4.2-2.3C60.8,28.2,61.3,26.1,61.3,23.4z"/>
	<path d="M102.9,25.4c0,0.5-0.3,0.7-0.8,0.7H83.6c-0.2,0-0.3,0.1-0.2,0.3c0.1,0.8,0.3,1.6,0.7,2.4c1,2.2,3.2,3.4,6.4,3.4
		c2.6,0,4.6-1.1,6.1-3.1c0.2-0.2,0.3-0.4,0.5-0.4c0.1,0,0.3,0.1,0.4,0.2l4.3,4.3c0.2,0.2,0.3,0.4,0.3,0.5c0,0.1-0.1,0.2-0.2,0.5
		c-1.3,1.6-3,2.9-5.1,3.8c-2.1,0.9-4.4,1.4-6.8,1.4c-3.4,0-6.4-0.8-8.7-2.3c-2.4-1.6-4.1-3.7-5.1-6.5c-0.8-2-1.3-4.6-1.3-7.9
		c0-2.2,0.3-4.1,0.9-5.8c0.9-2.8,2.5-5.1,4.8-6.8c2.3-1.7,5-2.5,8.2-2.5c4,0,7.2,1.2,9.6,3.5c2.4,2.3,3.9,5.4,4.4,9.3
		C102.9,21.8,102.9,23.5,102.9,25.4z M83.7,18.3c-0.2,0.5-0.3,1.2-0.4,1.9c0,0.2,0.1,0.3,0.3,0.3h10.4c0.2,0,0.3-0.1,0.2-0.3
		c-0.2-1.2-0.3-1.7-0.3-1.7c-0.4-1.2-1-2.1-1.9-2.8c-0.9-0.7-2-1-3.3-1C86.1,14.8,84.5,16,83.7,18.3z"/>
	<path d="M131.9,10.5c2,2,2.9,4.6,2.9,8v19.7c0,0.2-0.1,0.4-0.2,0.5c-0.1,0.1-0.3,0.2-0.5,0.2h-7c-0.2,0-0.4-0.1-0.5-0.2
		c-0.1-0.1-0.2-0.3-0.2-0.5V20.2c0-1.6-0.5-2.9-1.3-3.9c-0.9-1-2.1-1.5-3.6-1.5c-1.5,0-2.7,0.5-3.6,1.5c-0.9,1-1.3,2.3-1.3,3.9v17.9
		c0,0.2-0.1,0.4-0.2,0.5c-0.1,0.1-0.3,0.2-0.5,0.2h-7c-0.2,0-0.4-0.1-0.5-0.2c-0.1-0.1-0.2-0.3-0.2-0.5V8.7c0-0.2,0.1-0.4,0.2-0.5
		c0.1-0.1,0.3-0.2,0.5-0.2h7c0.2,0,0.4,0.1,0.5,0.2c0.1,0.1,0.2,0.3,0.2,0.5v2.1c0,0.1,0,0.2,0.1,0.2c0.1,0,0.1,0,0.2-0.1
		c1.6-2.3,4.1-3.5,7.3-3.5C127.4,7.5,129.9,8.5,131.9,10.5z"/>
	<path d="M146.2,38.1c-2-0.8-3.6-1.8-4.7-3.2c-1.1-1.4-1.7-2.9-1.7-4.6v-0.6c0-0.2,0.1-0.4,0.2-0.5c0.1-0.1,0.3-0.2,0.5-0.2h6.7
		c0.2,0,0.4,0.1,0.5,0.2c0.1,0.1,0.2,0.3,0.2,0.5v0.1c0,0.9,0.5,1.6,1.5,2.3c1,0.6,2.2,0.9,3.7,0.9c1.4,0,2.5-0.3,3.3-0.8
		s1.3-1.2,1.3-2c0-0.7-0.4-1.3-1.1-1.6c-0.7-0.4-1.9-0.7-3.5-1.1c-1.9-0.5-3.4-0.9-4.4-1.4c-2.6-0.9-4.6-2-6.1-3.2
		c-1.5-1.3-2.3-3.1-2.3-5.5c0-3,1.1-5.3,3.5-7c2.3-1.7,5.4-2.6,9.1-2.6c2.6,0,4.8,0.4,6.7,1.2c1.9,0.8,3.4,2,4.5,3.4
		c1.1,1.5,1.6,3.2,1.6,5c0,0.2-0.1,0.4-0.2,0.5c-0.1,0.1-0.3,0.2-0.5,0.2h-6.4c-0.2,0-0.4-0.1-0.5-0.2c-0.1-0.1-0.2-0.3-0.2-0.5
		c0-0.9-0.5-1.6-1.4-2.2c-0.9-0.6-2.1-0.9-3.6-0.9c-1.3,0-2.4,0.2-3.2,0.7c-0.8,0.5-1.3,1.1-1.3,2c0,0.8,0.4,1.4,1.2,1.8
		c0.8,0.4,2.2,0.8,4.1,1.3c0.4,0.1,0.9,0.2,1.5,0.4c0.6,0.1,1.2,0.3,1.8,0.5c2.8,0.8,5.1,1.9,6.7,3.2c1.6,1.3,2.5,3.2,2.5,5.8
		c0,3-1.2,5.3-3.5,6.9s-5.5,2.5-9.5,2.5C150.5,39.3,148.2,38.9,146.2,38.1z"/>
	<path d="M199.7,23.5c0,2.8-0.4,5.3-1.1,7.5c-0.9,2.6-2.4,4.6-4.3,6.1s-4.4,2.2-7.3,2.2c-2.9,0-5.1-1-6.7-3
		c-0.1-0.1-0.2-0.2-0.2-0.1c-0.1,0-0.1,0.1-0.1,0.2v12.8c0,0.2-0.1,0.4-0.2,0.5c-0.1,0.1-0.3,0.2-0.5,0.2h-7c-0.2,0-0.4-0.1-0.5-0.2
		c-0.1-0.1-0.2-0.3-0.2-0.5V8.7c0-0.2,0.1-0.4,0.2-0.5c0.1-0.1,0.3-0.2,0.5-0.2h7c0.2,0,0.4,0.1,0.5,0.2c0.1,0.1,0.2,0.3,0.2,0.5v2
		c0,0.1,0,0.2,0.1,0.2c0.1,0,0.2,0,0.2-0.1c1.7-2.2,4-3.3,7-3.3c2.8,0,5.2,0.8,7.2,2.3c2,1.5,3.5,3.7,4.4,6.4
		C199.3,18.3,199.7,20.7,199.7,23.5z M190.9,23.4c0-2.5-0.4-4.5-1.3-6c-0.9-1.7-2.4-2.6-4.4-2.6c-1.8,0-3.2,0.9-4.1,2.6
		c-0.8,1.4-1.3,3.5-1.3,6.1c0,2.7,0.4,4.8,1.3,6.2c0.9,1.6,2.3,2.4,4.1,2.4s3.2-0.8,4.2-2.3C190.4,28.2,190.9,26.1,190.9,23.4z"/>
	<path d="M224.4,8.9c2,0.9,3.6,2.1,4.8,3.7c1.1,1.6,1.7,3.3,1.7,5.2v20.3c0,0.2-0.1,0.4-0.2,0.5c-0.1,0.1-0.3,0.2-0.5,0.2h-7
		c-0.2,0-0.4-0.1-0.5-0.2c-0.1-0.1-0.2-0.3-0.2-0.5v-2c0-0.1,0-0.2-0.1-0.2c-0.1,0-0.2,0-0.2,0.1c-1.7,2.2-4.4,3.3-8.1,3.3
		c-3.1,0-5.6-0.8-7.6-2.3c-1.9-1.5-2.9-3.8-2.9-6.7c0-3.1,1.1-5.5,3.2-7.2c2.2-1.7,5.2-2.6,9.2-2.6h6.1c0.2,0,0.3-0.1,0.3-0.3V19
		c0-1.3-0.4-2.3-1.2-3.1c-0.8-0.7-2-1.1-3.6-1.1c-1.2,0-2.3,0.2-3.1,0.7c-0.8,0.4-1.3,1.1-1.6,1.9c-0.1,0.4-0.4,0.6-0.8,0.6l-7.3-1
		c-0.5-0.1-0.7-0.3-0.7-0.5c0.2-1.7,0.8-3.2,2-4.6c1.2-1.4,2.7-2.4,4.7-3.2c1.9-0.8,4.1-1.1,6.5-1.1C220,7.5,222.3,8,224.4,8.9z
		 M220.6,31.7c1.2-0.9,1.8-2.1,1.8-3.5V26c0-0.2-0.1-0.3-0.3-0.3h-4.3c-1.8,0-3.2,0.3-4.2,1c-1,0.7-1.5,1.6-1.5,2.9
		c0,1.1,0.4,1.9,1.1,2.5c0.8,0.6,1.8,0.9,3.1,0.9C217.9,33.1,219.4,32.6,220.6,31.7z"/>
	<path d="M242,36.9c-2.3-1.6-4-3.8-5-6.6c-0.7-2-1-4.4-1-7.1c0-2.7,0.3-5,1-7c1-2.7,2.6-4.9,5-6.4c2.4-1.6,5.1-2.3,8.3-2.3
		s6,0.8,8.4,2.4c2.4,1.6,4,3.6,4.8,6.1c0.3,1,0.5,1.7,0.5,2.2v0.1c0,0.4-0.2,0.6-0.6,0.7l-6.9,1h-0.1c-0.4,0-0.6-0.2-0.7-0.6l-0.2-1
		c-0.3-1-0.9-1.9-1.9-2.6c-1-0.7-2.1-1-3.4-1c-1.3,0-2.4,0.3-3.2,1c-0.9,0.6-1.5,1.5-1.9,2.6c-0.4,1.2-0.7,2.8-0.7,4.9
		c0,2.1,0.2,3.7,0.6,4.9c0.4,1.2,1,2.1,1.9,2.8c0.9,0.7,2,1,3.3,1c1.2,0,2.3-0.3,3.3-1c0.9-0.7,1.6-1.6,2-2.7c0-0.1,0.1-0.2,0.1-0.4
		c0,0,0.1-0.1,0.1-0.2c0-0.5,0.3-0.7,0.8-0.6l6.9,1.1c0.4,0.1,0.6,0.3,0.6,0.7c0,0.3-0.1,0.9-0.4,1.8c-0.8,2.7-2.5,4.8-4.9,6.3
		c-2.4,1.5-5.2,2.3-8.4,2.3C247.1,39.4,244.4,38.6,242,36.9z"/>
	<path d="M296.2,25.4c0,0.5-0.3,0.7-0.8,0.7h-18.5c-0.2,0-0.3,0.1-0.2,0.3c0.1,0.8,0.3,1.6,0.7,2.4c1,2.2,3.2,3.4,6.4,3.4
		c2.6,0,4.6-1.1,6.1-3.1c0.2-0.2,0.3-0.4,0.5-0.4c0.1,0,0.3,0.1,0.4,0.2l4.3,4.3c0.2,0.2,0.3,0.4,0.3,0.5c0,0.1-0.1,0.2-0.2,0.5
		c-1.3,1.6-3,2.9-5.1,3.8c-2.1,0.9-4.4,1.4-6.8,1.4c-3.4,0-6.4-0.8-8.7-2.3c-2.4-1.6-4.1-3.7-5.1-6.5c-0.8-2-1.3-4.6-1.3-7.9
		c0-2.2,0.3-4.1,0.9-5.8c0.9-2.8,2.5-5.1,4.8-6.8c2.3-1.7,5-2.5,8.2-2.5c4,0,7.2,1.2,9.6,3.5c2.4,2.3,3.9,5.4,4.4,9.3
		C296.2,21.8,296.3,23.5,296.2,25.4z M277,18.3c-0.2,0.5-0.3,1.2-0.4,1.9c0,0.2,0.1,0.3,0.3,0.3h10.4c0.2,0,0.3-0.1,0.2-0.3
		c-0.2-1.2-0.3-1.7-0.3-1.7c-0.4-1.2-1-2.1-1.9-2.8c-0.9-0.7-2-1-3.3-1C279.4,14.8,277.8,16,277,18.3z"/>
</g>
<g>
	<defs>
		<polygon id="SVGID_1_" points="190,-0.7 185.9,-0.7 35.9,-0.7 29.9,-0.7 -0.6,-0.7 -0.6,51.8 35.9,51.8 35.9,42.1 185.9,42.1 
			185.9,51.8 305.4,51.8 305.4,-0.7 		"/>
	</defs>
	<clipPath id="SVGID_00000171704914438561390140000017622708474411369110_">
		<use xlink:href="#SVGID_1_"  overflow="visible"/>
	</clipPath>
	
		<path clip-path="url(#SVGID_00000171704914438561390140000017622708474411369110_)" fill="none" stroke="#DEE348" stroke-width="2.5" stroke-miterlimit="10" d="
		M302.3,45.7H1.6V1.4h300.7V45.7z"/>
</g>
<g>
</g>
<g>
</g>
<g>
</g>
<g>
</g>
<g>
</g>
<g>
</g>
</svg>
