<?xml version="1.0" encoding="utf-8"?>
<!-- Generator: Adobe Illustrator 25.4.1, SVG Export Plug-In . SVG Version: 6.00 Build 0)  -->
<svg version="1.1" id="Layer_1" xmlns="http://www.w3.org/2000/svg" xmlns:xlink="http://www.w3.org/1999/xlink" x="0px" y="0px"
	 viewBox="0 0 291.1 53.6" style="enable-background:new 0 0 291.1 53.6;" xml:space="preserve">
<style type="text/css">
	.st0{fill:#FFFFFF;}
</style>
<g>
	<path class="st0" d="M7.6,41.2c-2.4-1.3-4.2-3.1-5.6-5.4c-1.3-2.3-2-5-2-8V15.1c0-3,0.7-5.6,2-7.9s3.2-4.1,5.6-5.3
		C10,0.6,12.8,0,15.9,0c3.2,0,5.9,0.6,8.3,1.9s4.2,3,5.5,5.3s2,4.9,2,7.9v12.8c0,3-0.7,5.7-2,8s-3.2,4.1-5.5,5.4
		c-2.4,1.3-5.2,1.9-8.3,1.9C12.8,43.1,10,42.5,7.6,41.2z M21.2,33.8c1.4-1.4,2-3.3,2-5.6V15c0-2.3-0.7-4.2-2-5.6s-3.1-2.1-5.4-2.1
		c-2.2,0-4,0.7-5.3,2.1c-1.3,1.4-2,3.3-2,5.6v13.2c0,2.3,0.7,4.2,2,5.6c1.3,1.4,3.1,2.1,5.3,2.1C18.1,35.9,19.9,35.2,21.2,33.8z"/>
	<path class="st0" d="M64.2,27.1c0,2.8-0.4,5.3-1.1,7.5c-0.9,2.6-2.4,4.6-4.4,6.1S54.3,43,51.3,43c-2.9,0-5.1-1-6.7-3
		c-0.1-0.1-0.2-0.2-0.2-0.1c-0.1,0-0.1,0.1-0.1,0.2v12.8c0,0.2-0.1,0.4-0.2,0.5c-0.1,0.1-0.3,0.2-0.5,0.2h-7c-0.2,0-0.4-0.1-0.5-0.2
		c-0.1-0.1-0.2-0.3-0.2-0.5V12.4c0-0.2,0.1-0.4,0.2-0.5c0.1-0.1,0.3-0.2,0.5-0.2h7c0.2,0,0.4,0.1,0.5,0.2c0.1,0.1,0.2,0.3,0.2,0.5v2
		c0,0.1,0,0.2,0.1,0.2s0.2,0,0.2-0.1c1.7-2.2,4-3.3,7-3.3c2.8,0,5.1,0.8,7.2,2.3c2,1.5,3.5,3.7,4.4,6.4C63.8,22,64.2,24.4,64.2,27.1
		z M55.4,27c0-2.5-0.4-4.5-1.3-6c-0.9-1.7-2.4-2.6-4.4-2.6c-1.8,0-3.2,0.9-4.1,2.6c-0.8,1.4-1.3,3.5-1.3,6.1c0,2.7,0.4,4.8,1.3,6.2
		c0.9,1.6,2.3,2.4,4.1,2.4s3.2-0.8,4.2-2.3C54.9,31.8,55.4,29.7,55.4,27z"/>
	<path class="st0" d="M94.9,29c0,0.5-0.3,0.7-0.8,0.7H75.6c-0.2,0-0.3,0.1-0.2,0.3c0.1,0.8,0.3,1.6,0.7,2.4c1,2.2,3.2,3.4,6.4,3.4
		c2.6,0,4.6-1.1,6.1-3.1c0.2-0.2,0.3-0.4,0.5-0.4c0.1,0,0.3,0.1,0.4,0.2l4.3,4.3c0.2,0.2,0.3,0.4,0.3,0.5s-0.1,0.2-0.2,0.5
		c-1.3,1.6-3,2.9-5.1,3.8C86.7,42.5,84.4,43,82,43c-3.4,0-6.4-0.8-8.7-2.3c-2.4-1.6-4.1-3.7-5.1-6.5c-0.8-2-1.3-4.6-1.3-7.9
		c0-2.2,0.3-4.1,0.9-5.8c0.9-2.8,2.5-5.1,4.8-6.8s5-2.5,8.2-2.5c4,0,7.2,1.2,9.6,3.5s3.9,5.4,4.4,9.3C94.9,25.4,95,27.1,94.9,29z
		 M75.7,22c-0.2,0.5-0.3,1.2-0.4,1.9c0,0.2,0.1,0.3,0.3,0.3H86c0.2,0,0.3-0.1,0.2-0.3c-0.2-1.2-0.3-1.7-0.3-1.7
		c-0.4-1.2-1-2.1-1.9-2.8c-0.9-0.7-2-1-3.3-1C78.2,18.4,76.5,19.6,75.7,22z"/>
	<path class="st0" d="M121.8,14.1c2,2,2.9,4.6,2.9,8v19.7c0,0.2-0.1,0.4-0.2,0.5s-0.3,0.2-0.5,0.2h-7c-0.2,0-0.4-0.1-0.5-0.2
		c-0.1-0.1-0.2-0.3-0.2-0.5v-18c0-1.6-0.4-2.9-1.4-3.9c-0.9-1-2.1-1.5-3.6-1.5s-2.7,0.5-3.6,1.5s-1.4,2.3-1.4,3.9v17.9
		c0,0.2-0.1,0.4-0.2,0.5s-0.3,0.2-0.5,0.2h-7c-0.2,0-0.4-0.1-0.5-0.2c-0.1-0.1-0.2-0.3-0.2-0.5V12.4c0-0.2,0.1-0.4,0.2-0.5
		s0.3-0.2,0.5-0.2h7c0.2,0,0.4,0.1,0.5,0.2c0.1,0.1,0.2,0.3,0.2,0.5v2.1c0,0.1,0,0.2,0.1,0.2s0.1,0,0.2-0.1c1.6-2.3,4.1-3.5,7.3-3.5
		C117.3,11.2,119.9,12.1,121.8,14.1z"/>
	<path class="st0" d="M145.2,41.4c-2.4-1-4.3-2.5-5.6-4.4s-1.9-4.1-1.9-6.6v-1.3c0-0.2,0.1-0.4,0.2-0.5c0.1-0.1,0.3-0.2,0.5-0.2h6.8
		c0.2,0,0.4,0.1,0.5,0.2s0.2,0.3,0.2,0.5V30c0,1.6,0.7,3,2.2,4c1.5,1.1,3.5,1.7,6,1.7c2.1,0,3.7-0.5,4.7-1.4s1.6-2,1.6-3.3
		c0-1-0.3-1.8-1-2.4c-0.6-0.7-1.5-1.2-2.6-1.7s-2.9-1.2-5.2-2.1c-2.7-0.9-5-1.9-6.8-2.8s-3.4-2.3-4.7-3.9c-1.3-1.7-1.9-3.7-1.9-6.1
		s0.6-4.5,1.9-6.3c1.2-1.8,3-3.2,5.2-4.1c2.2-1,4.7-1.4,7.6-1.4c3,0,5.8,0.5,8.1,1.6s4.2,2.6,5.6,4.5c1.3,1.9,2,4.2,2,6.8V14
		c0,0.2-0.1,0.4-0.2,0.5c-0.1,0.1-0.3,0.2-0.5,0.2H161c-0.2,0-0.4-0.1-0.5-0.2s-0.2-0.3-0.2-0.5v-0.5c0-1.7-0.7-3.1-2.1-4.3
		c-1.4-1.2-3.3-1.8-5.7-1.8c-1.9,0-3.4,0.4-4.4,1.2c-1.1,0.8-1.6,1.9-1.6,3.3c0,1,0.3,1.8,0.9,2.5c0.6,0.7,1.5,1.3,2.8,1.8
		c1.2,0.5,3.1,1.3,5.7,2.2c2.8,1,5.1,2,6.7,2.8c1.6,0.8,3.1,2,4.4,3.6c1.3,1.6,2,3.6,2,6.1c0,3.8-1.4,6.7-4.1,8.9
		c-2.8,2.2-6.5,3.3-11.2,3.3C150.4,43,147.6,42.5,145.2,41.4z"/>
	<path class="st0" d="M200.9,27.1c0,2.8-0.4,5.3-1.1,7.5c-0.9,2.6-2.4,4.6-4.3,6.1s-4.4,2.2-7.3,2.2c-2.9,0-5.1-1-6.7-3
		c-0.1-0.1-0.2-0.2-0.2-0.1c-0.1,0-0.1,0.1-0.1,0.2v12.8c0,0.2-0.1,0.4-0.2,0.5c-0.1,0.1-0.3,0.2-0.5,0.2h-7c-0.2,0-0.4-0.1-0.5-0.2
		c-0.1-0.1-0.2-0.3-0.2-0.5V12.4c0-0.2,0.1-0.4,0.2-0.5c0.1-0.1,0.3-0.2,0.5-0.2h7c0.2,0,0.4,0.1,0.5,0.2c0.1,0.1,0.2,0.3,0.2,0.5v2
		c0,0.1,0,0.2,0.1,0.2s0.2,0,0.2-0.1c1.7-2.2,4-3.3,7-3.3c2.8,0,5.2,0.8,7.2,2.3s3.5,3.7,4.4,6.4C200.5,22,200.9,24.4,200.9,27.1z
		 M192.1,27c0-2.5-0.4-4.5-1.3-6c-0.9-1.7-2.4-2.6-4.4-2.6c-1.8,0-3.2,0.9-4.1,2.6c-0.8,1.4-1.3,3.5-1.3,6.1c0,2.7,0.4,4.8,1.3,6.2
		c0.9,1.6,2.3,2.4,4.1,2.4s3.2-0.8,4.2-2.3C191.6,31.8,192.1,29.7,192.1,27z"/>
	<path class="st0" d="M223.5,12.5c2,0.9,3.6,2.1,4.8,3.7c1.1,1.6,1.7,3.3,1.7,5.2v20.3c0,0.2-0.1,0.4-0.2,0.5
		c-0.1,0.1-0.3,0.2-0.5,0.2h-7c-0.2,0-0.4-0.1-0.5-0.2c-0.1-0.1-0.2-0.3-0.2-0.5v-2c0-0.1,0-0.2-0.1-0.2s-0.2,0-0.2,0.1
		c-1.7,2.2-4.4,3.3-8.1,3.3c-3.1,0-5.6-0.8-7.6-2.3c-1.9-1.5-2.9-3.8-2.9-6.7c0-3.1,1.1-5.5,3.2-7.2c2.2-1.7,5.2-2.6,9.2-2.6h6.1
		c0.2,0,0.3-0.1,0.3-0.3v-1.3c0-1.3-0.4-2.3-1.2-3.1c-0.8-0.7-2-1.1-3.6-1.1c-1.2,0-2.3,0.2-3.1,0.7c-0.8,0.4-1.3,1.1-1.6,1.9
		c-0.1,0.4-0.4,0.6-0.8,0.6l-7.3-1c-0.5-0.1-0.7-0.3-0.7-0.5c0.2-1.7,0.8-3.2,2-4.6s2.7-2.4,4.7-3.2c1.9-0.8,4.1-1.1,6.5-1.1
		C219.1,11.2,221.4,11.6,223.5,12.5z M219.7,35.3c1.2-0.9,1.8-2.1,1.8-3.5v-2.2c0-0.2-0.1-0.3-0.3-0.3h-4.3c-1.8,0-3.2,0.3-4.2,1
		s-1.5,1.6-1.5,2.9c0,1.1,0.4,1.9,1.1,2.5c0.8,0.6,1.8,0.9,3.1,0.9C217,36.7,218.5,36.2,219.7,35.3z"/>
	<path class="st0" d="M239,40.6c-2.3-1.6-4-3.8-5-6.6c-0.7-2-1-4.4-1-7.1s0.3-5,1-7c1-2.7,2.6-4.9,5-6.4c2.4-1.6,5.1-2.3,8.3-2.3
		s6,0.8,8.4,2.4s4,3.6,4.8,6.1c0.3,1,0.5,1.7,0.5,2.2V22c0,0.4-0.2,0.6-0.6,0.7l-6.9,1h-0.1c-0.4,0-0.6-0.2-0.7-0.6l-0.2-1
		c-0.3-1-0.9-1.9-1.9-2.6s-2.1-1-3.4-1c-1.3,0-2.4,0.3-3.2,1c-0.9,0.6-1.5,1.5-1.9,2.6c-0.4,1.2-0.7,2.8-0.7,4.9s0.2,3.7,0.6,4.9
		c0.4,1.2,1,2.1,1.9,2.8s2,1,3.3,1c1.2,0,2.3-0.3,3.3-1c0.9-0.7,1.6-1.6,2-2.7c0-0.1,0.1-0.2,0.1-0.4c0,0,0.1-0.1,0.1-0.2
		c0-0.5,0.3-0.7,0.8-0.6l6.9,1.1c0.4,0.1,0.6,0.3,0.6,0.7c0,0.3-0.1,0.9-0.4,1.8c-0.8,2.7-2.5,4.8-4.9,6.3s-5.2,2.3-8.4,2.3
		C244.2,43,241.4,42.2,239,40.6z"/>
	<path class="st0" d="M291.1,29c0,0.5-0.3,0.7-0.8,0.7h-18.5c-0.2,0-0.3,0.1-0.2,0.3c0.1,0.8,0.3,1.6,0.7,2.4c1,2.2,3.2,3.4,6.4,3.4
		c2.6,0,4.6-1.1,6.1-3.1c0.2-0.2,0.3-0.4,0.5-0.4c0.1,0,0.3,0.1,0.4,0.2l4.3,4.3c0.2,0.2,0.3,0.4,0.3,0.5s-0.1,0.2-0.2,0.5
		c-1.3,1.6-3,2.9-5.1,3.8c-2.1,0.9-4.4,1.4-6.8,1.4c-3.4,0-6.4-0.8-8.7-2.3s-4.1-3.7-5.1-6.5c-0.8-2-1.3-4.6-1.3-7.9
		c0-2.2,0.3-4.1,0.9-5.8c0.9-2.8,2.5-5.1,4.8-6.8s5-2.5,8.2-2.5c4,0,7.2,1.2,9.6,3.5s3.9,5.4,4.4,9.3
		C291.1,25.4,291.2,27.1,291.1,29z M271.9,22c-0.2,0.5-0.3,1.2-0.4,1.9c0,0.2,0.1,0.3,0.3,0.3h10.4c0.2,0,0.3-0.1,0.2-0.3
		c-0.2-1.2-0.3-1.7-0.3-1.7c-0.4-1.2-1-2.1-1.9-2.8c-0.9-0.7-2-1-3.3-1C274.4,18.4,272.7,19.6,271.9,22z"/>
</g>
<g>
</g>
<g>
</g>
<g>
</g>
<g>
</g>
<g>
</g>
<g>
</g>
</svg>
