<?xml version="1.0" encoding="utf-8"?>
<!-- Generator: Adobe Illustrator 26.0.1, SVG Export Plug-In . SVG Version: 6.00 Build 0)  -->
<svg version="1.1" id="Layer_1" xmlns="http://www.w3.org/2000/svg" xmlns:xlink="http://www.w3.org/1999/xlink" x="0px" y="0px"
	 viewBox="0 0 306 52.5" style="enable-background:new 0 0 306 52.5;" xml:space="preserve">
<style type="text/css">
	
		.st0{opacity:0.25;clip-path:url(#SVGID_00000110430841323004938970000009841126208728970651_);fill:none;stroke:#000000;stroke-width:2.5;stroke-miterlimit:10;enable-background:new    ;}
</style>
<g>
	<path d="M13.6,37.4c-2.4-1.8-4-4.2-4.9-7.2c-0.6-1.9-0.8-3.9-0.8-6.1c0-2.4,0.3-4.5,0.8-6.4c0.9-3,2.6-5.3,5-7s5.3-2.5,8.6-2.5
		s6.1,0.8,8.4,2.5s4,4,4.9,6.9c0.6,2,1,4.1,1,6.3s-0.3,4.2-0.8,6.1c-0.9,3.1-2.5,5.6-4.9,7.4s-5.2,2.7-8.6,2.7S16,39.2,13.6,37.4z
		 M25.6,31.6c0.9-0.8,1.6-1.9,2-3.3c0.3-1.3,0.5-2.7,0.5-4.2c0-1.7-0.2-3.1-0.5-4.3c-0.4-1.4-1.1-2.4-2-3.2c-0.9-0.8-2-1.1-3.4-1.1
		s-2.5,0.4-3.4,1.1c-0.9,0.8-1.6,1.8-2,3.2c-0.3,1-0.5,2.4-0.5,4.3c0,1.8,0.1,3.2,0.4,4.2c0.4,1.4,1.1,2.5,2,3.3s2.1,1.2,3.5,1.2
		C23.6,32.8,24.7,32.4,25.6,31.6z"/>
	<path d="M70.7,24.2c0,2.8-0.4,5.3-1.1,7.5c-0.9,2.6-2.4,4.6-4.4,6.1S60.8,40,57.8,40c-2.9,0-5.1-1-6.7-3c-0.1-0.1-0.2-0.2-0.2-0.1
		c-0.1,0-0.1,0.1-0.1,0.2v12.8c0,0.2-0.1,0.4-0.2,0.5c-0.2,0.3-0.4,0.3-0.6,0.3h-7c-0.2,0-0.4-0.1-0.5-0.2c-0.1-0.1-0.2-0.3-0.2-0.5
		V9.4c0-0.2,0.1-0.4,0.2-0.5c0.1-0.1,0.3-0.2,0.5-0.2h7c0.2,0,0.4,0.1,0.5,0.2c0.1,0.1,0.2,0.3,0.2,0.5v2c0,0.1,0,0.2,0.1,0.2
		s0.2,0,0.2-0.1c1.7-2.2,4-3.3,7-3.3c2.8,0,5.1,0.8,7.2,2.3c2,1.5,3.5,3.7,4.4,6.4C70.3,19,70.7,21.4,70.7,24.2z M61.9,24.1
		c0-2.5-0.4-4.5-1.3-6c-0.9-1.7-2.4-2.6-4.4-2.6c-1.8,0-3.2,0.9-4.1,2.6c-0.8,1.4-1.3,3.5-1.3,6.1c0,2.7,0.4,4.8,1.3,6.2
		c0.9,1.6,2.3,2.4,4.1,2.4s3.2-0.8,4.2-2.3C61.4,28.9,61.9,26.8,61.9,24.1z"/>
	<path d="M103.5,26.1c0,0.5-0.3,0.7-0.8,0.7H84.2c-0.2,0-0.3,0.1-0.2,0.3c0.1,0.8,0.3,1.6,0.7,2.4c1,2.2,3.2,3.4,6.4,3.4
		c2.6,0,4.6-1.1,6.1-3.1c0.2-0.2,0.3-0.4,0.5-0.4c0.1,0,0.3,0.1,0.4,0.2l4.3,4.3c0.2,0.2,0.3,0.4,0.3,0.5s-0.1,0.2-0.2,0.5
		c-1.3,1.6-3,2.9-5.1,3.8c-2.1,0.9-4.4,1.4-6.8,1.4c-3.4,0-6.4-0.8-8.7-2.3c-2.4-1.6-4.1-3.7-5.1-6.5c-0.8-2-1.3-4.6-1.3-7.9
		c0-2.2,0.3-4.1,0.9-5.8c0.9-2.8,2.5-5.1,4.8-6.8s5-2.5,8.2-2.5c4,0,7.2,1.2,9.6,3.5s3.9,5.4,4.4,9.3
		C103.5,22.5,103.5,24.2,103.5,26.1z M84.3,19c-0.2,0.5-0.3,1.2-0.4,1.9c0,0.2,0.1,0.3,0.3,0.3h10.4c0.2,0,0.3-0.1,0.2-0.3
		c-0.2-1.2-0.3-1.7-0.3-1.7c-0.4-1.2-1-2.1-1.9-2.8c-0.9-0.7-2-1-3.3-1C86.7,15.5,85.1,16.7,84.3,19z"/>
	<path d="M132.5,11.2c2,2,2.9,4.6,2.9,8v19.7c0,0.2-0.1,0.4-0.2,0.5c-0.1,0.1-0.3,0.2-0.5,0.2h-7c-0.2,0-0.4-0.1-0.5-0.2
		c-0.1-0.1-0.2-0.3-0.2-0.5v-18c0-1.6-0.5-2.9-1.3-3.9c-0.9-1-2.1-1.5-3.6-1.5s-2.7,0.5-3.6,1.5s-1.3,2.3-1.3,3.9v17.9
		c0,0.2-0.1,0.4-0.2,0.5s-0.3,0.2-0.5,0.2h-7c-0.2,0-0.4-0.1-0.5-0.2c-0.1-0.1-0.2-0.3-0.2-0.5V9.4c0-0.2,0.1-0.4,0.2-0.5
		s0.3-0.2,0.5-0.2h7c0.2,0,0.4,0.1,0.5,0.2c0.1,0.1,0.2,0.3,0.2,0.5v2.1c0,0.1,0,0.2,0.1,0.2s0.1,0,0.2-0.1c1.6-2.3,4.1-3.5,7.3-3.5
		C128,8.2,130.5,9.2,132.5,11.2z"/>
	<path d="M146.8,38.8c-2-0.8-3.6-1.8-4.7-3.2c-1.1-1.4-1.7-2.9-1.7-4.6v-0.6c0-0.2,0.1-0.4,0.2-0.5c0.1-0.1,0.3-0.2,0.5-0.2h6.7
		c0.2,0,0.4,0.1,0.5,0.2s0.2,0.3,0.2,0.5v0.1c0,0.9,0.5,1.6,1.5,2.3c1,0.6,2.2,0.9,3.7,0.9c1.4,0,2.5-0.3,3.3-0.8s1.3-1.2,1.3-2
		c0-0.7-0.4-1.3-1.1-1.6c-0.7-0.4-1.9-0.7-3.5-1.1c-1.9-0.5-3.4-0.9-4.4-1.4c-2.6-0.9-4.6-2-6.1-3.2c-1.5-1.3-2.3-3.1-2.3-5.5
		c0-3,1.1-5.3,3.5-7c2.3-1.7,5.4-2.6,9.1-2.6c2.6,0,4.8,0.4,6.7,1.2s3.4,2,4.5,3.4c1.1,1.5,1.6,3.2,1.6,5c0,0.2-0.1,0.4-0.2,0.5
		c-0.1,0.1-0.3,0.2-0.5,0.2h-6.4c-0.2,0-0.4-0.1-0.5-0.2s-0.2-0.3-0.2-0.5c0-0.9-0.5-1.6-1.4-2.2S155,15,153.5,15
		c-1.3,0-2.4,0.2-3.2,0.7c-0.8,0.5-1.3,1.1-1.3,2c0,0.8,0.4,1.4,1.2,1.8s2.2,0.8,4.1,1.3c0.4,0.1,0.9,0.2,1.5,0.4
		c0.6,0.1,1.2,0.3,1.8,0.5c2.8,0.8,5.1,1.9,6.7,3.2c1.6,1.3,2.5,3.2,2.5,5.8c0,3-1.2,5.3-3.5,6.9s-5.5,2.5-9.5,2.5
		C151.1,40,148.8,39.6,146.8,38.8z"/>
	<path d="M200.3,24.2c0,2.8-0.4,5.3-1.1,7.5c-0.9,2.6-2.4,4.6-4.3,6.1s-4.4,2.2-7.3,2.2c-2.9,0-5.1-1-6.7-3
		c-0.1-0.1-0.2-0.2-0.2-0.1c-0.1,0-0.1,0.1-0.1,0.2v12.8c0,0.2-0.1,0.4-0.2,0.5c-0.1,0.1-0.3,0.2-0.5,0.2h-7c-0.2,0-0.4-0.1-0.5-0.2
		c-0.1-0.1-0.2-0.3-0.2-0.5V9.4c0-0.2,0.1-0.4,0.2-0.5c0.1-0.1,0.3-0.2,0.5-0.2h7c0.2,0,0.4,0.1,0.5,0.2c0.1,0.1,0.2,0.3,0.2,0.5v2
		c0,0.1,0,0.2,0.1,0.2s0.2,0,0.2-0.1c1.7-2.2,4-3.3,7-3.3c2.8,0,5.2,0.8,7.2,2.3s3.5,3.7,4.4,6.4C199.9,19,200.3,21.4,200.3,24.2z
		 M191.5,24.1c0-2.5-0.4-4.5-1.3-6c-0.9-1.7-2.4-2.6-4.4-2.6c-1.8,0-3.2,0.9-4.1,2.6c-0.8,1.4-1.3,3.5-1.3,6.1
		c0,2.7,0.4,4.8,1.3,6.2c0.9,1.6,2.3,2.4,4.1,2.4s3.2-0.8,4.2-2.3C191,28.9,191.5,26.8,191.5,24.1z"/>
	<path d="M225,9.6c2,0.9,3.6,2.1,4.8,3.7c1.1,1.6,1.7,3.3,1.7,5.2v20.3c0,0.2-0.1,0.4-0.2,0.5c-0.1,0.1-0.3,0.2-0.5,0.2h-7
		c-0.2,0-0.4-0.1-0.5-0.2c-0.1-0.1-0.2-0.3-0.2-0.5v-2c0-0.1,0-0.2-0.1-0.2s-0.2,0-0.2,0.1c-1.7,2.2-4.4,3.3-8.1,3.3
		c-3.1,0-5.6-0.8-7.6-2.3c-1.9-1.5-2.9-3.8-2.9-6.7c0-3.1,1.1-5.5,3.2-7.2c2.2-1.7,5.2-2.6,9.2-2.6h6.1c0.2,0,0.3-0.1,0.3-0.3v-1.2
		c0-1.3-0.4-2.3-1.2-3.1c-0.8-0.7-2-1.1-3.6-1.1c-1.2,0-2.3,0.2-3.1,0.7c-0.8,0.4-1.3,1.1-1.6,1.9c-0.1,0.4-0.4,0.6-0.8,0.6l-7.3-1
		c-0.5-0.1-0.7-0.3-0.7-0.5c0.2-1.7,0.8-3.2,2-4.6s2.7-2.4,4.7-3.2c1.9-0.8,4.1-1.1,6.5-1.1C220.6,8.2,222.9,8.7,225,9.6z
		 M221.2,32.4c1.2-0.9,1.8-2.1,1.8-3.5v-2.2c0-0.2-0.1-0.3-0.3-0.3h-4.3c-1.8,0-3.2,0.3-4.2,1s-1.5,1.6-1.5,2.9
		c0,1.1,0.4,1.9,1.1,2.5c0.8,0.6,1.8,0.9,3.1,0.9C218.5,33.8,220,33.3,221.2,32.4z"/>
	<path d="M242.6,37.6c-2.3-1.6-4-3.8-5-6.6c-0.7-2-1-4.4-1-7.1s0.3-5,1-7c1-2.7,2.6-4.9,5-6.4c2.4-1.6,5.1-2.3,8.3-2.3
		s6,0.8,8.4,2.4c2.4,1.6,4,3.6,4.8,6.1c0.3,1,0.5,1.7,0.5,2.2V19c0,0.4-0.2,0.6-0.6,0.7l-6.9,1H257c-0.4,0-0.6-0.2-0.7-0.6l-0.2-1
		c-0.3-1-0.9-1.9-1.9-2.6s-2.1-1-3.4-1c-1.3,0-2.4,0.3-3.2,1c-0.9,0.6-1.5,1.5-1.9,2.6c-0.4,1.2-0.7,2.8-0.7,4.9s0.2,3.7,0.6,4.9
		c0.4,1.2,1,2.1,1.9,2.8s2,1,3.3,1c1.2,0,2.3-0.3,3.3-1c0.9-0.7,1.6-1.6,2-2.7c0-0.1,0.1-0.2,0.1-0.4c0,0,0.1-0.1,0.1-0.2
		c0-0.5,0.3-0.7,0.8-0.6l6.9,1.1c0.4,0.1,0.6,0.3,0.6,0.7c0,0.3-0.1,0.9-0.4,1.8c-0.8,2.7-2.5,4.8-4.9,6.3s-5.2,2.3-8.4,2.3
		C247.7,40.1,245,39.3,242.6,37.6z"/>
	<path d="M296.8,26.1c0,0.5-0.3,0.7-0.8,0.7h-18.5c-0.2,0-0.3,0.1-0.2,0.3c0.1,0.8,0.3,1.6,0.7,2.4c1,2.2,3.2,3.4,6.4,3.4
		c2.6,0,4.6-1.1,6.1-3.1c0.2-0.2,0.3-0.4,0.5-0.4c0.1,0,0.3,0.1,0.4,0.2l4.3,4.3c0.2,0.2,0.3,0.4,0.3,0.5s-0.1,0.2-0.2,0.5
		c-1.3,1.6-3,2.9-5.1,3.8c-2.1,0.9-4.4,1.4-6.8,1.4c-3.4,0-6.4-0.8-8.7-2.3c-2.4-1.6-4.1-3.7-5.1-6.5c-0.8-2-1.3-4.6-1.3-7.9
		c0-2.2,0.3-4.1,0.9-5.8c0.9-2.8,2.5-5.1,4.8-6.8s5-2.5,8.2-2.5c4,0,7.2,1.2,9.6,3.5s3.9,5.4,4.4,9.3
		C296.8,22.5,296.9,24.2,296.8,26.1z M277.6,19c-0.2,0.5-0.3,1.2-0.4,1.9c0,0.2,0.1,0.3,0.3,0.3h10.4c0.2,0,0.3-0.1,0.2-0.3
		c-0.2-1.2-0.3-1.7-0.3-1.7c-0.4-1.2-1-2.1-1.9-2.8c-0.9-0.7-2-1-3.3-1C280,15.5,278.4,16.7,277.6,19z"/>
</g>
<g>
	<g>
		<defs>
			<polygon id="SVGID_1_" points="190.6,0 186.5,0 36.5,0 30.5,0 0,0 0,52.5 36.5,52.5 36.5,42.8 186.5,42.8 186.5,52.5 306,52.5 
				306,0 			"/>
		</defs>
		<clipPath id="SVGID_00000009590720925113604210000009357989575706308511_">
			<use xlink:href="#SVGID_1_"  style="overflow:visible;"/>
		</clipPath>
		
			<path style="opacity:0.25;clip-path:url(#SVGID_00000009590720925113604210000009357989575706308511_);fill:none;stroke:#000000;stroke-width:2.5;stroke-miterlimit:10;enable-background:new    ;" d="
			M302.9,46.4H2.2V2.1h300.7L302.9,46.4L302.9,46.4z"/>
	</g>
</g>
</svg>
