<?xml version="1.0" encoding="utf-8"?>
<!-- Generator: Adobe Illustrator 26.0.1, SVG Export Plug-In . SVG Version: 6.00 Build 0)  -->
<svg version="1.1" id="Layer_1" xmlns="http://www.w3.org/2000/svg" xmlns:xlink="http://www.w3.org/1999/xlink" x="0px" y="0px"
	 viewBox="0 0 507.46 36.72" style="enable-background:new 0 0 507.46 36.72;" xml:space="preserve">
<style type="text/css">
	.st0{fill:#29AAE2;}
</style>
<g>
	<path d="M8.75,36.02H0V0h12.37c8.53,0,13.39,4.32,13.39,11.83c0,7.56-5.02,12.47-12.85,12.47H8.75V36.02z M11.18,17.12
		c3.62,0,5.72-1.84,5.72-4.97c0-2.97-2.05-4.97-5.13-4.97H8.75v9.94H11.18z"/>
	<path d="M49.46,36.02h-8.75V0h8.75V36.02z"/>
	<path d="M80.3,36.02h-8.75V7.07h-8.32V0h25.33v7.07H80.3V36.02z"/>
	<path d="M107.78,30.83l-1.57,5.18h-9.34L108.75,0h11.12l11.83,36.02h-9.61l-1.57-5.18H107.78z M114.15,10.31l-4.21,13.45h8.42
		L114.15,10.31z"/>
	<path d="M154.11,36.02h-8.75V0h8.75l13.12,20.25V0h8.75v36.02h-8.75L154.11,15.5V36.02z"/>
	<path d="M207.79,22.46c0,7.24-1.46,10.21-6.32,12.8c-2.21,1.03-5.29,1.46-9.99,1.46v-7.78C192.07,29,192.4,29,192.72,29
		c1.84,0,3.51-0.43,4.48-1.19c1.4-1.08,1.84-2.65,1.84-6.86V7.07h-7.56V0h16.31V22.46z"/>
	<path d="M231.49,14.42h11.88v7.07h-11.88v7.45h11.88v7.07h-20.63V0h20.63v7.07h-11.88V14.42z"/>
</g>
<g>
	<path class="st0" d="M284.98,32.13v3.89h-25.76l20.36-32.13h-18.09V0h25.6l-20.36,32.13H284.98z"/>
	<path class="st0" d="M294.81,0h9.56c10.85,0,17.39,6.59,17.39,17.44c0,6.1-2,11.12-5.67,14.42c-3.13,2.81-7.29,4.16-12.53,4.16
		h-8.75V0z M299.34,32.13h1.62c6.1,0,8.69-0.65,11.29-2.7c3.24-2.59,4.86-6.59,4.86-11.93c0-8.69-4.64-13.66-12.91-13.66h-4.86
		V32.13z"/>
	<path class="st0" d="M335.85,36.02h-4.54V0h9.83c7.67,0,12.31,3.94,12.31,10.48c0,4.05-1.84,7.29-5.18,9.07
		c-1.73,0.92-3.35,1.3-6.64,1.51l13.99,14.96h-5.78L335.85,20.9V36.02z M340.38,17.82c5.45,0,8.42-2.48,8.42-7.02
		c0-4.48-2.7-6.91-7.67-6.91h-5.29v13.93H340.38z"/>
	<path class="st0" d="M369.38,27.7l-3.29,8.32h-4.7L374.94,0h5.4l13.23,36.02h-5.08l-2.97-8.32H369.38z M377.53,5.72l-6.8,18.09
		h13.39L377.53,5.72z"/>
	<path class="st0" d="M419.27,0h4.81l-12.53,36.02h-4.43L394.97,0h4.75l9.67,28.62L419.27,0z"/>
	<path class="st0" d="M448.76,31.91v4.1h-17.23V0h4.54v31.91H448.76z"/>
	<path class="st0" d="M469.17,24.89c0,5.08-1.89,8.42-5.72,10.15c-1.73,0.81-4.27,1.19-7.45,1.19c-0.38,0-1.03,0-1.78-0.05v-3.94
		c1.08,0.11,1.62,0.11,2.21,0.11c2.65,0,4.59-0.59,5.94-1.73c1.73-1.51,2.27-3.56,2.27-8.26V3.89h-10.42V0h14.96V24.89z"/>
	<path class="st0" d="M483.26,27.7l-3.29,8.32h-4.7L488.83,0h5.4l13.23,36.02h-5.08l-2.97-8.32H483.26z M491.42,5.72l-6.8,18.09H498
		L491.42,5.72z"/>
</g>
<g>
</g>
<g>
</g>
<g>
</g>
<g>
</g>
<g>
</g>
<g>
</g>
</svg>
