<?xml version="1.0" encoding="utf-8"?>
<!-- Generator: Adobe Illustrator 26.0.1, SVG Export Plug-In . SVG Version: 6.00 Build 0)  -->
<svg version="1.1" id="Layer_1" xmlns="http://www.w3.org/2000/svg" xmlns:xlink="http://www.w3.org/1999/xlink" x="0px" y="0px"
	 viewBox="0 0 507.5 36.7" style="enable-background:new 0 0 507.5 36.7;" xml:space="preserve">
<style type="text/css">
	.st0{opacity:0.7;}
</style>
<g>
	<path d="M8.8,36H0V0h12.4c8.5,0,13.4,4.3,13.4,11.8c0,7.6-5,12.5-12.9,12.5H8.8V36z M11.2,17.1c3.6,0,5.7-1.8,5.7-5
		c0-3-2.1-5-5.1-5h-3v9.9H11.2z"/>
	<path d="M49.5,36h-8.8V0h8.8V36z"/>
	<path d="M80.3,36h-8.8v-29h-8.3V0h25.3v7.1h-8.3V36z"/>
	<path d="M107.8,30.8l-1.6,5.2h-9.3l11.9-36h11.1l11.8,36h-9.6l-1.6-5.2L107.8,30.8L107.8,30.8z M114.2,10.3l-4.2,13.4h8.4
		L114.2,10.3z"/>
	<path d="M154.1,36h-8.8V0h8.8l13.1,20.2V0h8.8v36h-8.8l-13.1-20.5V36z"/>
	<path d="M207.8,22.5c0,7.2-1.5,10.2-6.3,12.8c-2.2,1-5.3,1.5-10,1.5v-7.8c0.6,0.1,0.9,0.1,1.2,0.1c1.8,0,3.5-0.4,4.5-1.2
		c1.4-1.1,1.8-2.6,1.8-6.9V7.1h-7.6V0h16.3V22.5z"/>
	<path d="M231.5,14.4h11.9v7.1h-11.9v7.4h11.9V36h-20.6V0h20.6v7.1h-11.9V14.4z"/>
</g>
<g class="st0">
	<path d="M285,32.1V36h-25.8l20.4-32.1h-18.1V0h25.6l-20.4,32.1H285z"/>
	<path d="M294.8,0h9.6c10.9,0,17.4,6.6,17.4,17.4c0,6.1-2,11.1-5.7,14.4c-3.1,2.8-7.3,4.2-12.5,4.2h-8.8V0z M299.3,32.1h1.6
		c6.1,0,8.7-0.6,11.3-2.7c3.2-2.6,4.9-6.6,4.9-11.9c0-8.7-4.6-13.7-12.9-13.7h-4.9V32.1z"/>
	<path d="M335.9,36h-4.5V0h9.8c7.7,0,12.3,3.9,12.3,10.5c0,4.1-1.8,7.3-5.2,9.1c-1.7,0.9-3.4,1.3-6.6,1.5l14,15h-5.8l-14-15.1V36z
		 M340.4,17.8c5.5,0,8.4-2.5,8.4-7c0-4.5-2.7-6.9-7.7-6.9h-5.3v13.9H340.4z"/>
	<path d="M369.4,27.7l-3.3,8.3h-4.7l13.6-36h5.4l13.2,36h-5.1l-3-8.3H369.4z M377.5,5.7l-6.8,18.1h13.4L377.5,5.7z"/>
	<path d="M419.3,0h4.8l-12.5,36h-4.4L395,0h4.8l9.7,28.6L419.3,0z"/>
	<path d="M448.8,31.9V36h-17.2V0h4.5v31.9H448.8z"/>
	<path d="M469.2,24.9c0,5.1-1.9,8.4-5.7,10.2c-1.7,0.8-4.3,1.2-7.5,1.2c-0.4,0-1,0-1.8,0v-3.9c1.1,0.1,1.6,0.1,2.2,0.1
		c2.6,0,4.6-0.6,5.9-1.7c1.7-1.5,2.3-3.6,2.3-8.3V3.9h-10.4V0h15L469.2,24.9L469.2,24.9z"/>
	<path d="M483.3,27.7L480,36h-4.7l13.6-36h5.4l13.2,36h-5.1l-3-8.3H483.3z M491.4,5.7l-6.8,18.1H498L491.4,5.7z"/>
</g>
</svg>
