<svg width="20" height="20" viewBox="0 0 20 20" fill="none" xmlns="http://www.w3.org/2000/svg">
<path d="M19.0616 5.96244C19.0616 5.73515 19.0616 5.50787 19.0616 5.28058C19.0616 5.09118 19.0616 4.8942 19.054 4.70479C19.0465 4.28811 19.0162 3.86384 18.9404 3.45473C18.8646 3.03804 18.7434 2.64408 18.5464 2.26527C18.357 1.89404 18.107 1.54554 17.8116 1.25007C17.5161 0.954596 17.1752 0.704583 16.7963 0.515179C16.4175 0.318199 16.0236 0.19698 15.6069 0.121219C15.1902 0.045457 14.7735 0.0227285 14.3568 0.00757616C14.1674 0.00757616 13.9704 0.00757616 13.781 0C13.5537 0 13.3265 0 13.0992 0H5.96244C5.73515 0 5.50787 0 5.28058 0C5.09118 0 4.8942 0 4.70479 0.00757616C4.28811 0.0151523 3.86384 0.045457 3.45473 0.121219C3.03804 0.19698 2.64408 0.318199 2.26527 0.515179C1.89404 0.704583 1.54554 0.954596 1.25007 1.25007C0.954596 1.54554 0.704583 1.88646 0.515179 2.26527C0.318199 2.64408 0.19698 3.03804 0.121219 3.45473C0.045457 3.86384 0.0227285 4.28811 0.00757616 4.70479C0.00757616 4.8942 0.00757616 5.09118 0 5.28058C0 5.50787 0 5.73515 0 5.96244V13.0992C0 13.3265 0 13.5537 0 13.781C0 13.9704 0 14.1674 0.00757616 14.3568C0.0151523 14.7735 0.045457 15.1978 0.121219 15.6069C0.19698 16.0236 0.318199 16.4175 0.515179 16.7963C0.704583 17.1676 0.954596 17.5161 1.25007 17.8116C1.54554 18.107 1.88646 18.357 2.26527 18.5464C2.64408 18.7434 3.03804 18.8646 3.45473 18.9404C3.87142 19.0162 4.28811 19.0389 4.70479 19.054C4.8942 19.054 5.09118 19.054 5.28058 19.0616C5.50787 19.0616 5.73515 19.0616 5.96244 19.0616H13.0992C13.3265 19.0616 13.5537 19.0616 13.781 19.0616C13.9704 19.0616 14.1674 19.0616 14.3568 19.054C14.7735 19.0465 15.1978 19.0162 15.6069 18.9404C16.0236 18.8646 16.4175 18.7434 16.7963 18.5464C17.1676 18.357 17.5161 18.107 17.8116 17.8116C18.107 17.5161 18.357 17.1752 18.5464 16.7963C18.7434 16.4175 18.8646 16.0236 18.9404 15.6069C19.0162 15.1902 19.0389 14.7735 19.054 14.3568C19.054 14.1674 19.054 13.9704 19.0616 13.781C19.0616 13.5537 19.0616 13.3265 19.0616 13.0992V5.96244Z" fill="url(#paint0_linear_378_15)"/>
<g clip-path="url(#clip0_378_15)">
<path d="M6.02344 8.4707C6.02344 9.39896 6.39219 10.2892 7.04856 10.9456C7.70494 11.602 8.59518 11.9707 9.52344 11.9707M9.52344 11.9707C10.4517 11.9707 11.3419 11.602 11.9983 10.9456C12.6547 10.2892 13.0234 9.39896 13.0234 8.4707M9.52344 11.9707V13.9707M7.52344 13.9707H11.5234M8.02344 5.9707C8.02344 5.57288 8.18147 5.19135 8.46278 4.91004C8.74408 4.62874 9.12561 4.4707 9.52344 4.4707C9.92126 4.4707 10.3028 4.62874 10.5841 4.91004C10.8654 5.19135 11.0234 5.57288 11.0234 5.9707V8.4707C11.0234 8.86853 10.8654 9.25006 10.5841 9.53136C10.3028 9.81267 9.92126 9.9707 9.52344 9.9707C9.12561 9.9707 8.74408 9.81267 8.46278 9.53136C8.18147 9.25006 8.02344 8.86853 8.02344 8.4707V5.9707Z" stroke="white" stroke-linecap="round" stroke-linejoin="round"/>
</g>
<defs>
<linearGradient id="paint0_linear_378_15" x1="9.53081" y1="0" x2="9.53081" y2="19.0616" gradientUnits="userSpaceOnUse">
<stop stop-color="#75A1DF"/>
<stop offset="1" stop-color="#3A6096"/>
</linearGradient>
<clipPath id="clip0_378_15">
<rect width="12" height="12" fill="white" transform="translate(3.52344 3.4707)"/>
</clipPath>
</defs>
</svg>
