<?xml version="1.0" encoding="utf-8"?>
<!-- Generator: Adobe Illustrator 27.0.0, SVG Export Plug-In . SVG Version: 6.00 Build 0)  -->
<svg version="1.1" id="Layer_1" xmlns="http://www.w3.org/2000/svg" xmlns:xlink="http://www.w3.org/1999/xlink" x="0px" y="0px"
	 viewBox="0 0 801 160.7" style="enable-background:new 0 0 801 160.7;" xml:space="preserve">
<rect y="150.9" width="801" height="9.8"/>
<path d="M22.9,124.1c-6.9-2.9-12.3-6.8-16.2-11.9c-3.9-5.1-6-10.8-6.3-17.1H15c0.7,6.1,3.6,11.4,8.8,15.9c5.2,4.6,12.9,6.9,23,6.9
	c9.3,0,16.7-2.2,22.1-6.5c5.4-4.3,8.2-9.8,8.2-16.5c0-5.3-1.5-9.6-4.5-12.9c-3-3.3-6.7-5.7-11.2-7.3c-4.5-1.6-10.6-3.4-18.5-5.3
	c-9.2-2.3-16.4-4.5-21.8-6.6c-5.4-2.1-10-5.5-13.8-10c-3.8-4.5-5.7-10.6-5.7-18.3c0-6.4,1.8-12.1,5.5-17.2c3.7-5,8.8-9,15.5-11.8
	c6.7-2.9,14.3-4.3,23-4.3c12.7,0,23,2.8,30.7,8.5c7.8,5.6,12.3,12.9,13.5,21.8H74.9c-0.9-5.1-4-9.6-9.2-13.6c-5.2-4-12.3-6-21.2-6
	c-8.3,0-15.1,2-20.6,6c-5.5,4-8.3,9.4-8.3,16.3c0,5.2,1.5,9.4,4.5,12.6c3,3.2,6.8,5.6,11.3,7.3c4.5,1.7,10.6,3.4,18.4,5.3
	c8.9,2.3,16.1,4.5,21.6,6.7c5.5,2.2,10.1,5.6,13.9,10.1c3.8,4.5,5.7,10.6,5.7,18.2c0,5.8-1.7,11.3-5.1,16.6
	c-3.4,5.2-8.4,9.4-15.1,12.6c-6.7,3.2-14.7,4.8-24,4.8C37.8,128.4,29.8,127,22.9,124.1z"/>
<path d="M170,2.6V81c0,12.4,3.2,21.5,9.7,27.4c6.5,5.9,15.4,8.9,26.6,8.9c11.3,0,20.1-2.9,26.4-8.8c6.4-5.9,9.5-15.1,9.5-27.5V2.6
	H256v78.2c0,15.8-4.6,27.7-13.8,35.6c-9.2,8-21.2,11.9-36,11.9c-14.8,0-26.8-4-36-11.9c-9.2-8-13.8-19.8-13.8-35.6V2.6H170z"/>
<path d="M402.2,64.3c-7.7,6.5-19.3,9.8-34.8,9.8h-27.7v53.1h-13.8V2.6h41.4c15.3,0,26.9,3.3,34.7,9.8c7.8,6.5,11.7,15.2,11.7,26
	C413.7,49.1,409.9,57.8,402.2,64.3z M399.6,38.5c0-8.3-2.6-14.6-7.7-18.9s-13.3-6.4-24.6-6.4h-27.7v50.2h27.7
	C388.9,63.4,399.6,55.1,399.6,38.5z"/>
<path d="M489.8,12.8v46.5h52.1v10.3h-52.1v47.2h58v10.3H476V2.5h71.7v10.3H489.8z"/>
<path d="M687.2,127.2l-34-52h-25.3v52h-13.8V2.6h41.3c15.3,0,26.9,3.3,34.9,10c7.9,6.7,11.9,15.4,11.9,26.2c0,9-2.8,16.7-8.5,23.1
	c-5.7,6.4-14.1,10.5-25.2,12.4l35.4,52.9H687.2z M627.9,65h27.7c10.7,0,18.8-2.4,24.3-7.1c5.4-4.7,8.2-11.1,8.2-19.1
	c0-8.2-2.6-14.5-7.9-19c-5.2-4.5-13.5-6.7-24.8-6.7h-27.5V65z"/>
<path d="M800.1,127.2h-12.5V34.1c0-3.4,0-6.4,0-8.9c0-2.5,0.1-4.8,0.1-6.9c0.1-2.1,0.2-4.1,0.4-6.1c-1.9,1.7-3.6,3.2-5.3,4.4
	c-1.7,1.2-3.8,2.8-6.3,4.6l-18.4,13l-6.8-8L789.5,0h10.6V127.2z"/>
<g>
</g>
<g>
</g>
<g>
</g>
<g>
</g>
<g>
</g>
<g>
</g>
<g>
</g>
<g>
</g>
<g>
</g>
<g>
</g>
<g>
</g>
<g>
</g>
<g>
</g>
<g>
</g>
<g>
</g>
</svg>
