<?xml version="1.0" encoding="utf-8"?>
<!-- Generator: Adobe Illustrator 26.3.1, SVG Export Plug-In . SVG Version: 6.00 Build 0)  -->
<svg version="1.1" id="Layer_1" xmlns="http://www.w3.org/2000/svg" xmlns:xlink="http://www.w3.org/1999/xlink" x="0px" y="0px"
	 viewBox="0 0 862 184.4" style="enable-background:new 0 0 862 184.4;" xml:space="preserve">
<path d="M25,128.2c-7.3-3-13.2-7.4-17.5-13.3c-4.4-5.9-6.7-13-6.9-21.2h32.8c0.5,4.7,2.1,8.3,4.9,10.7c2.8,2.5,6.4,3.7,10.8,3.7
	c4.6,0,8.2-1,10.8-3.1c2.6-2.1,4-5,4-8.7c0-3.1-1.1-5.7-3.2-7.7c-2.1-2-4.7-3.7-7.7-5c-3.1-1.3-7.4-2.8-13.1-4.5
	c-8.2-2.5-14.8-5-20-7.6c-5.2-2.5-9.6-6.2-13.3-11.2c-3.7-4.9-5.6-11.3-5.6-19.3c0-11.8,4.3-21,12.8-27.6c8.5-6.7,19.6-10,33.3-10
	c13.9,0,25.1,3.3,33.7,10c8.5,6.7,13.1,15.9,13.7,27.8H61c-0.2-4.1-1.7-7.3-4.5-9.6c-2.8-2.3-6.3-3.5-10.6-3.5c-3.7,0-6.7,1-9,3
	c-2.3,2-3.4,4.8-3.4,8.5c0,4.1,1.9,7.3,5.8,9.5c3.8,2.3,9.8,4.7,18,7.4c8.2,2.8,14.8,5.4,19.9,7.9c5.1,2.5,9.5,6.2,13.2,11
	c3.7,4.8,5.6,11,5.6,18.5c0,7.2-1.8,13.7-5.5,19.6c-3.7,5.9-9,10.6-15.9,14c-7,3.5-15.2,5.2-24.7,5.2
	C40.6,132.7,32.4,131.2,25,128.2z"/>
<path d="M190.1,5v75.6c0,7.6,1.9,13.4,5.6,17.5c3.7,4.1,9.2,6.1,16.4,6.1c7.2,0,12.7-2,16.6-6.1c3.8-4.1,5.8-9.9,5.8-17.5V5h30.8
	v75.4c0,11.3-2.4,20.8-7.2,28.6c-4.8,7.8-11.2,13.7-19.3,17.6c-8.1,4-17.1,5.9-27.1,5.9c-10,0-18.9-1.9-26.7-5.8
	c-7.9-3.9-14.1-9.8-18.6-17.6c-4.6-7.9-6.8-17.4-6.8-28.7V5H190.1z"/>
<path d="M423,65.8c-3.4,6.1-8.5,11-15.5,14.7c-7,3.7-15.6,5.6-25.9,5.6h-19.1v45.4h-30.8V5h49.9c10.1,0,18.6,1.7,25.6,5.2
	c7,3.5,12.2,8.3,15.7,14.4c3.5,6.1,5.2,13.1,5.2,21.1C428.1,53,426.4,59.7,423,65.8z M392.4,57.4c2.9-2.8,4.3-6.7,4.3-11.7
	s-1.4-8.9-4.3-11.7c-2.9-2.8-7.3-4.1-13.1-4.1h-16.7v31.7h16.7C385.2,61.6,389.5,60.2,392.4,57.4z"/>
<path d="M519.9,29.7v25.6h41.2V79h-41.2v27.7h46.6v24.7h-77.4V5h77.4v24.7H519.9z"/>
<path d="M695.9,131.4l-26.3-47.7h-7.4v47.7h-30.8V5h51.7c10,0,18.4,1.7,25.5,5.2c7,3.5,12.3,8.3,15.8,14.3
	c3.5,6.1,5.2,12.8,5.2,20.2c0,8.4-2.4,15.9-7.1,22.5c-4.7,6.6-11.7,11.3-21,14l29.2,50H695.9z M662.2,61.9h19.1
	c5.6,0,9.9-1.4,12.7-4.1c2.8-2.8,4.2-6.7,4.2-11.7c0-4.8-1.4-8.6-4.2-11.3c-2.8-2.8-7.1-4.1-12.7-4.1h-19.1V61.9z"/>
<path d="M810.5,28.6V0h49.9v131.4h-32V28.6H810.5z"/>
<rect y="160.4" width="862" height="24"/>
<g>
</g>
<g>
</g>
<g>
</g>
<g>
</g>
<g>
</g>
<g>
</g>
<g>
</g>
<g>
</g>
<g>
</g>
<g>
</g>
<g>
</g>
<g>
</g>
<g>
</g>
<g>
</g>
<g>
</g>
</svg>
