<?xml version="1.0" encoding="utf-8"?>
<!-- Generator: Adobe Illustrator 27.0.0, SVG Export Plug-In . SVG Version: 6.00 Build 0)  -->
<svg version="1.1" id="Layer_1" xmlns="http://www.w3.org/2000/svg" xmlns:xlink="http://www.w3.org/1999/xlink" x="0px" y="0px"
	 viewBox="0 0 830 178.2" style="enable-background:new 0 0 830 178.2;" xml:space="preserve">
<rect y="158.2" width="830" height="20"/>
<g>
	<path d="M24.9,132.2c-7.4-3.2-13.3-7.7-17.6-13.7c-4.3-6-6.5-13-6.6-21.1h28.5c0.4,5.4,2.3,9.8,5.8,12.9c3.5,3.2,8.3,4.8,14.3,4.8
		c6.2,0,11.1-1.5,14.6-4.5c3.5-3,5.3-6.9,5.3-11.7c0-3.9-1.2-7.2-3.6-9.7c-2.4-2.5-5.4-4.5-9-6c-3.6-1.5-8.6-3.1-14.9-4.8
		c-8.6-2.5-15.6-5-21-7.5c-5.4-2.5-10-6.2-13.9-11.2c-3.9-5-5.8-11.7-5.8-20C1.1,31.8,3,25,7,19.2c3.9-5.8,9.4-10.3,16.5-13.4
		c7.1-3.1,15.2-4.7,24.3-4.7c13.7,0,24.8,3.3,33.3,10c8.6,6.6,13.3,15.9,14.2,27.8H66c-0.3-4.6-2.2-8.3-5.8-11.3
		c-3.6-3-8.4-4.5-14.3-4.5c-5.2,0-9.3,1.3-12.4,4c-3.1,2.7-4.7,6.5-4.7,11.6c0,3.5,1.2,6.5,3.5,8.8c2.3,2.3,5.3,4.2,8.7,5.7
		c3.5,1.5,8.4,3.1,14.7,5c8.6,2.5,15.6,5.1,21.1,7.6c5.4,2.5,10.1,6.3,14.1,11.4c3.9,5.1,5.9,11.7,5.9,20c0,7.1-1.8,13.7-5.5,19.8
		c-3.7,6.1-9.1,10.9-16.1,14.5c-7.1,3.6-15.5,5.4-25.3,5.4C40.7,137,32.3,135.4,24.9,132.2z"/>
	<path d="M184,3v82.1c0,9,2.3,15.9,7,20.6c4.7,4.8,11.3,7.1,19.8,7.1c8.6,0,15.3-2.4,19.9-7.1c4.7-4.8,7-11.6,7-20.6V3h26.8v81.9
		c0,11.3-2.4,20.8-7.3,28.6c-4.9,7.8-11.4,13.6-19.6,17.6c-8.2,3.9-17.3,5.9-27.3,5.9c-9.9,0-18.8-2-26.9-5.9
		c-8-3.9-14.4-9.8-19.1-17.6c-4.7-7.8-7-17.3-7-28.6V3H184z"/>
	<path d="M419.9,64c-3.4,6.2-8.6,11.2-15.8,15c-7.2,3.8-16.2,5.7-27.1,5.7h-22.2v50.9h-26.6V3h48.8c10.3,0,19,1.8,26.2,5.3
		c7.2,3.5,12.6,8.4,16.2,14.6c3.6,6.2,5.4,13.2,5.4,21.1C425,51.1,423.3,57.8,419.9,64z M392.3,58.2c3.5-3.4,5.3-8.1,5.3-14.2
		c0-12.9-7.2-19.4-21.7-19.4h-21.1v38.6h21.1C383.3,63.2,388.7,61.6,392.3,58.2z"/>
	<path d="M508.4,24.5v33.2H553v21.1h-44.7V114h50.3v21.7h-76.9V2.8h76.9v21.7H508.4z"/>
	<path d="M689.2,135.6L660,84h-12.5v51.7h-26.6V3h49.8c10.3,0,19,1.8,26.2,5.4c7.2,3.6,12.6,8.5,16.2,14.6c3.6,6.1,5.4,13,5.4,20.6
		c0,8.7-2.5,16.6-7.6,23.7c-5.1,7-12.6,11.9-22.6,14.5l31.7,53.8H689.2z M647.4,64h22.2c7.2,0,12.6-1.7,16.1-5.2
		c3.5-3.5,5.3-8.3,5.3-14.5c0-6.1-1.8-10.8-5.3-14.2c-3.5-3.4-8.9-5-16.1-5h-22.2V64z"/>
	<path d="M828,135.6h-25.2V52.8c0-2.5,0-5.3,0.1-8.4c0.1-3.1,0.1-6.1,0.2-9.2c0.1-3.1,0.2-5.9,0.4-8.6c-1,1.1-2.5,2.6-4.5,4.4
		c-2,1.8-4,3.6-5.9,5.2l-15.6,12.4l-12.3-15.5L807.2,0H828V135.6z"/>
</g>
<g>
</g>
<g>
</g>
<g>
</g>
<g>
</g>
<g>
</g>
<g>
</g>
<g>
</g>
<g>
</g>
<g>
</g>
<g>
</g>
<g>
</g>
<g>
</g>
<g>
</g>
<g>
</g>
<g>
</g>
</svg>
