<?xml version="1.0" encoding="utf-8"?>
<!-- Generator: Adobe Illustrator 27.0.0, SVG Export Plug-In . SVG Version: 6.00 Build 0)  -->
<svg version="1.1" id="Layer_1" xmlns="http://www.w3.org/2000/svg" xmlns:xlink="http://www.w3.org/1999/xlink" x="0px" y="0px"
	 viewBox="0 0 857.7 137.6" style="enable-background:new 0 0 857.7 137.6;" xml:space="preserve">
<style type="text/css">
	.st0{fill:#FFFFFF;}
</style>
<g>
	<path class="st0" d="M74.6,35.3c-4.6-5.9-13.9-8.7-20.9-8.7c-8.1,0-19.4,3.7-19.4,13.5c0,23.9,60.3,8.5,60.3,54.4
		c0,29.2-23.5,43.1-50.5,43.1c-16.8,0-31.6-5-44-16.5l20.5-22.6c5.9,7.8,15.5,12.4,25.2,12.4c9.4,0,20-4.4,20-13.7
		c0-24-61.4-11.1-61.4-54.8C4.3,14.6,28.5,0,54.2,0c14.8,0,29,3.9,40.1,13.7L74.6,35.3z"/>
	<path class="st0" d="M263.4,83.8c0,30.9-18.9,53.8-55.1,53.8c-36.4,0-55.3-22.9-55.3-53.8V3.3h28.9v79.4
		c0,16.1,11.1,28.3,26.5,28.3c15.2,0,26.3-12.2,26.3-28.3V3.3h28.9v80.5H263.4z"/>
	<path class="st0" d="M327.1,3.3h48.7c27.2,0,49.8,8.7,49.8,39.8c0,30.7-20.9,40.1-48.5,40.1H356v51.1h-28.9V3.3z M355.9,58.8h19.2
		c10.2,0,20.4-3.5,20.4-15.7c0-13.5-13.7-15.4-24.8-15.4h-14.8L355.9,58.8L355.9,58.8z"/>
	<path class="st0" d="M481.7,3.3h89V30h-60.1v24.4h56.8V81h-56.8v26.6H574v26.6h-92.3V3.3z"/>
	<path class="st0" d="M634.2,3.3h50.7c26.8,0,49.4,9.2,49.4,39.8c0,18.3-9.8,32.6-28.3,35.9l33.3,55.3h-34.6L677.3,82H663v52.4
		h-28.9V3.3H634.2z M663,57.5h17c10.5,0,24.2-0.4,24.2-14.6c0-13.1-11.8-15.2-22.4-15.2H663V57.5z"/>
	<path class="st0" d="M831,34.4l-26.3,23.1L789,39.4l42.7-36.1h25.9v131H831V34.4z"/>
</g>
</svg>
