<?xml version="1.0" encoding="utf-8"?>
<!-- Generator: Adobe Illustrator 26.0.1, SVG Export Plug-In . SVG Version: 6.00 Build 0)  -->
<svg version="1.1" id="Layer_1" xmlns="http://www.w3.org/2000/svg" xmlns:xlink="http://www.w3.org/1999/xlink" x="0px" y="0px"
	 viewBox="0 0 279.3 53.8" style="enable-background:new 0 0 279.3 53.8;" xml:space="preserve">
<style type="text/css">
	.st0{fill:#CC3366;}
</style>
<g>
	<path class="st0" d="M23.5,11.9c-3.7,0-5.6,1.6-5.6,3.9c0,8.2,26,2.9,26,22.7c0,8-6,15.3-21.1,15.3c-12.3,0-20-5.9-22.8-8.3
		l8.5-10.3c2.6,2.5,9,7,15,7c4.1,0,5.6-1.1,5.6-3.2c0-7.4-25.9-2.9-25.9-22C3.1,7.9,10.8,0,23.1,0c13.8,0,19.2,7.2,20.4,14.6
		l-13,3.2C30.5,15,27.8,11.9,23.5,11.9z"/>
	<path class="st0" d="M95.9,0.6v31.4c0,13.4-9.2,21.7-22.8,21.7C59.3,53.8,50,45.4,50,32.1l0.1-31.4H65v31.4c0,5.6,3.3,8.9,8.1,8.9
		c4.7,0,8-3.3,8-8.9V0.6H95.9z"/>
	<path class="st0" d="M148.5,20c0,13.4-9.9,19.3-21.2,19.3h-8.1v13.8h-14.9V0.6h21C139.5,0.6,148.5,6.7,148.5,20z M133.5,20
		c0-4.6-3.1-8-9.9-8h-4.5v15.9h5C130.2,27.9,133.5,25.3,133.5,20z"/>
	<path class="st0" d="M169.1,12.7v8.6h18.5v11.2h-18.5v8.5h22v12.1h-36.8V0.6H191v12.1H169.1z"/>
	<path class="st0" d="M244.3,53.1c0,0-2.1,0.7-7.1,0.7c-17.2,0-12.8-16.6-23-16.6h-0.9v16h-14.9V0.6h19.7c15,0,22.5,5.9,22.5,19
		c0,7.3-3.2,12.2-9.5,14.9c4.7,1.6,4.8,7.3,10.7,7.3c0.9,0,1.7-0.2,1.7-0.2L244.3,53.1z M216.2,27.1c6.1,0,9.9-2.6,9.9-7.3
		c0-5.1-3.4-7.8-9-7.8h-3.8v15.1H216.2z"/>
</g>
<g>
	<path class="st0" d="M272.4,28.4c0.6-0.1,3,0,4-0.1v-2.9C275.3,26.2,273.3,27.7,272.4,28.4L272.4,28.4z"/>
	<path class="st0" d="M272.6,45.4c-5.3,0.3-5.3-8.2,0-7.9c2-0.1,3.2,1,3.7,2.4v-9.4h-7.7v-1.8c1-0.7,3.7-2.8,4.7-3.3l0-0.1
		c-0.7,0.1-3.7,0-4.6,0.1v-2.1h7.7v-7.3h-7.7v-5.6h1.8v3.3h1.3v-2.8h1.7v2.8h1.3v-3.3h1.6V0.7h-22.2v14.8h6.4c0.6,0,1,0.4,1,1v36.6
		h14.8V43C275.8,44.4,274.6,45.5,272.6,45.4z"/>
	<path class="st0" d="M272.6,43.1c2.8,0.1,2.8-3.5,0-3.4C269.8,39.6,269.8,43.2,272.6,43.1z"/>
</g>
<g>
</g>
<g>
</g>
<g>
</g>
<g>
</g>
<g>
</g>
<g>
</g>
</svg>
