<?xml version="1.0" encoding="utf-8"?>
<!-- Generator: Adobe Illustrator 22.1.0, SVG Export Plug-In . SVG Version: 6.00 Build 0)  -->
<svg version="1.1" id="Layer_1" xmlns="http://www.w3.org/2000/svg" xmlns:xlink="http://www.w3.org/1999/xlink" x="0px" y="0px"
	 width="321px" height="62.1px" viewBox="0 0 321 62.1" style="enable-background:new 0 0 321 62.1;" xml:space="preserve">
<style type="text/css">
	.st0{fill:#ffffff;}
	.st1{fill:none;}
</style>
<g>
	<path class="st0" d="M101.6,0c0,0,0.2,17.6,0,25.7c0,4.4,0,7.4,0,10.7c0.3,8.3-2.9,22.9-23,22.9c-14.8,0-23-11.1-23-22.9
		c0-4.2,0-7.4,0-11.6c0-6.8,0-21.5,0-22.1h8.3c0,1.3,0,24.9,0,33.7c0,5.7,2.8,14.7,14.8,14.7s14.8-5.6,14.8-14.7
		c0-6.9,0-14.7,0-22.7c0-3.8,0-7.6,0-11c1.3,0,1.5,0,2.8,0c0,2.1,0.2,24.9,0,33.7c0,5.1,0,17.4-17.5,17.4c-12,0-17.5-8.3-17.5-17.4
		c0-21,0.1-21.9,0-25.5c0-0.8,0-5.5,0-5.5h-2.8c0,0,0,23.5,0,30.9c0,9.1,5.5,20.2,20.3,20.2c17.5,0,20.6-12.1,20.4-20.2
		c0.2-8.8,0-16.8,0-26.3c0-2.8,0-10.1,0-10.1h-8.3c0,0,0,9.2,0,13.7c0,8,0,15.8,0,22.7c0,4.7,0,11.9-12,11.9c-3.8,0-12-2.8-12-11.9
		c0-8.8,0-36.4,0-36.4L52.8,0v1.6c0,0,0,1.6,0,3.7c0.1,6.9,0,14,0,20.8c0,4.2,0,6.1,0,10.3c0,11.9,8.3,25.7,25.8,25.7
		c19.5,0,25.9-12.5,25.9-25.7c0-3.4,0-8.5,0-11.6c0.1-8,0-24.9,0-24.9h-2.9V0z"/>
	<line class="st1" x1="122.4" y1="27.6" x2="122.4" y2="27.6"/>
	<path class="st0" d="M140,0h-14.9h-2.7v27.6c0,0,0.4,0,17.6,0c11,0,12.4-16.6,0-16.6c-4.6,0-9.1,0-9.4,0h-2.8v11.1h2.8
		c0,0,0-6.7,0-8.4c2.4,0,7.6,0,9.4,0c8.3,0,8.3,11.1,0,11.1c-7.7,0-14.8,0-14.9,0c0-5.7,0-17.9,0-22.1c3.7-0.1,11.2,0,14.9,0
		c22.8,0,22.9,33.2,0,33.2h-12.1v20.6v2.8h-8.2V0h-2.8v56.5v5.6h13.7V38.8c1.7,0,9.3,0,9.4,0C166.4,38.8,166.6,0,140,0z"/>
	<path class="st0" d="M210.5,48.3c0,0-19,0-26,0v-6.8h-2.8v9.6c0,0,21.3,0,26,0v2.3c0,0.1,0.1,3,0,6c0,0,0,0-34.3,0V0.1h-2.8v15.3
		c0,12.4,0,24.9,0,37.3v9.5h1.6h2.9c0,0,30.7,0,30.9,0h4.4v-1.5c0.1-2.3,0-9.4,0-9.9v-2.5H210.5z"/>
	<path class="st0" d="M263.7,38.2l-2.5,1.2c0,0,7.9,15.5,10.1,20h-8.8l-12-23.4h-11.7v20.6v2.8c-2.3,0-5.9,0-8.3,0
		c0-0.8,0-59.3,0-59.3h-2.8v62.1h1.5c1.6,0,12.3,0,12.3,0v-5.5V38.8h7.2L261,62.1h14.6l-1.4-2.8C274,58.7,263.7,38.2,263.7,38.2z"/>
	<path class="st0" d="M205,38.8V24.9c0,0-16.9,0-20.5,0c0,0,0-0.4,0-16.6c1.3,0,20.5,0,20.5,0V5.5h-23.3v22.1h20.5
		c0,2.5,0,8.3,0,8.3c-12.6,0-26,0-26,0v20.6c0,0,26.7,0,28.8,0v-2.8c-2,0-21.4,0-26,0c0-1.1,0-14.3,0-15.1h26V38.8z"/>
	<path class="st0" d="M236.1,2.8c0,0,8.9,0,14.4,0c16.9-0.1,21,19.6,12.9,27.8c-1.5,1.5-2.3,2.2-4.6,3.4c-2.2,1.1-5.1,2.1-5.1,2.1
		l10.5,20.6h3l-9.6-19.1c19.4-4.8,18.1-37.5-6.9-37.4L233.4,0v56.6h2.8L236.1,2.8L236.1,2.8z"/>
	<path class="st0" d="M176.2,29.1v4.1h23.3v-2.8c-20.7,0-16.3,0-20.5,0c0,0,0-27.2,0-27.6h28.8V11h-20.5v2.8c4.6,0,23.3,0,23.3,0V0
		h-34.3l0.1,2.5c0,0,0,0.3,0,3.1C176.1,14,176.1,21.7,176.2,29.1z"/>
	<path class="st0" d="M250.5,8.2c14.9,0,15.5,22.1,0,22.1h-11.7v2.8h11.7c19.3,0,18.5-27.6,0-27.6c-2.8-0.2-8.5,0-8.9,0h-2.8v8.2
		h11.7c8.2,0,8.2,11.1,0,11.1c-2.1,0-3.3,0-4,0s-0.9,0-0.9,0c-0.7,0-2,0-4,0v-5.6h-2.8v8.4h11.7c11.9,0,11.7-16.6,0-16.6
		c-0.6,0-8.4,0-8.9,0c0-1.1,0-1.9,0-2.8C244.1,8.2,250.5,8.2,250.5,8.2z"/>
	<path class="st0" d="M140,33.1c19.3,0,19.3-27.6,0-27.6c-2.1,0-12.1,0-12.1,0v2.7c0,0,10.1-0.1,12.1,0c15.6,0,15.4,22.1,0,22.1
		c-1.1,0-17.6,0-17.6,0v26.2h2.7c0,0,0-20.5,0-23.5C125.1,33.1,138.9,33.1,140,33.1z"/>
	<path class="st0" d="M14.1,4.7c4.2-1.7,8.7-1.9,13.1-0.6C33,5.6,40.9,9.5,40.9,9.5l1.4-2.7c0,0-8-4.1-14.2-5.7
		C23-0.4,17.9-0.2,13,1.8C7.3,4,3.5,8.4,1.8,14.8c-2,7.4,2.1,14.5,6.7,18C12,35.5,16,37,19,38c1.9,0.6,4,1.4,5.8,2.6
		c1.4,0.9,1.9,2.2,1.6,4.3c-0.1,0.8-1.8,2.1-3.6,2.1c-3.2,0-15.6-4.5-15.9-4.6l-1.5-0.6l-5,13.6L1.8,56c0.3,0.1,8.2,3.6,11.9,4.6
		c2.3,0.7,4.8,1.3,7.5,1.3h0.1c9.2-0.1,15.5-4,18.9-11.8c2.1-4.9,2.1-12.8-3.1-18.4c-2.4-2.7-5.6-4.7-9.8-6.4
		c-1.1-0.4-2.1-0.8-3.2-1.1c-1.6-0.5-3-1-4.5-1.7c-1.2-0.6-2.2-1.3-2.8-2.3c-0.6-0.8-0.7-1.9-0.3-2.9c0.4-1.1,1.4-1.8,2.5-2
		c3.3-0.6,6.5,0.2,10.2,1.6c1.5,0.6,5.7,2.2,5.7,2.2l1.3,0.5l3.7-7.9l-1.5-0.6C38.1,11,25.9,4.4,17.2,6.4
		c-5.5,0.8-16.8,10.9-5.1,21.8c2.8,2.1,5.8,3.2,8.8,4.3c0.7,0.2,1.4,0.5,2.1,0.7c2.5,0.9,4.3,1.8,5.9,2.9c3.4,2.3,3.8,5.7,3.7,7.5
		c-0.2,3.4-2,6.4-4.7,7.8c-2.6,1.6-5.9,2.4-11.1,0.8c-1.5-0.4-8.1-2.6-8.1-2.6l-1,2.8c0,0,6.3,2.3,8.4,2.8c4.8,1.2,8.4,1.5,13.3-1
		c3.6-1.9,6.1-6,6.3-10.4c0.2-4.2-1.6-7.9-5-10.2c-1.8-1.2-3.8-2.2-6.5-3.2c-0.7-0.3-1.4-0.5-2.1-0.8c-2.9-1-5.6-2-7.9-3.8
		C4.5,17.2,14.5,10,18.1,9.5C22.2,8.7,26,9.7,29,10.7c1.6,0.5,5,1.9,6.9,2.7l-1.1,2.4c-1.4-0.5-3.4-1.3-4.4-1.7
		c-3.6-1.4-7.6-2.5-11.8-1.8c-2.2,0.4-4,1.8-4.9,3.9c-0.8,2-0.6,4.2,0.6,5.9c1,1.4,2.3,2.4,4,3.3c1.6,0.8,3.2,1.3,4.8,1.8
		c1,0.4,2,0.7,3,1.1c3.8,1.5,6.6,3.3,8.7,5.6c4,4.4,4.3,11,2.5,15.1c-2.9,6.7-8.1,9.9-16.1,10c-5.9-0.3-14.5-4.1-16.9-5.1L7.2,46
		c1.8,0.7,11,4.5,15.5,4.3c3.2-0.1,6.3-2.3,6.7-4.8c0.5-3.3-0.5-5.8-3-7.3c-2.1-1.3-4.4-2.2-6.5-2.9c-4.2-1.4-7.1-2.8-9.6-4.7
		c-3.7-3.2-7.1-9-5.5-15C6.3,10.1,9.3,6.6,14.1,4.7z"/>
</g>
<g>
	<path class="st0" d="M301.3,62.2c-0.4,0-0.8,0-1,0l-1.6,0l0-5.7c0,0,0-24.9,0-36.1v-1.6l3.1,0v1.6c0,11.1,0,36.1,0,36.1l0,2.6
		c2.5,0,6.9,0,9.3,0c0-0.3,0-0.7,0-1.1c0-0.4,0-1.2,0-1.2c0-0.3,0-35.1,0-52.3l0-1.1h-6.3c-2.1,1.4-10,6.7-12.7,8.4v4.2
		c1.8-1.2,5-3.4,10.4-7.2l0.4-0.3h5.3l0,48.2H305l0-45.1h-1.1c-11.3,7.8-12.5,8.5-12.6,8.6l-2.4,1.5V9.8l0.8-0.5
		c0.9-0.5,8.7-5.7,13.7-9l0.4-0.3h10.5l0,4.3c-0.1,17.2,0,52,0,52.3c0,0,0,0.8,0,1.1c0,2.1,0,2.8,0,2.8v1.6l-1.6,0
		C312.8,62.2,304.5,62.2,301.3,62.2z"/>
	<polygon class="st0" points="295,21.5 301.1,21.5 301.1,18.9 298.8,18.9 	"/>
</g>
</svg>
