<?xml version="1.0" encoding="utf-8"?>
<!-- Generator: Adobe Illustrator 27.0.0, SVG Export Plug-In . SVG Version: 6.00 Build 0)  -->
<svg version="1.1" id="Layer_1" xmlns="http://www.w3.org/2000/svg" xmlns:xlink="http://www.w3.org/1999/xlink" x="0px" y="0px"
	 viewBox="0 0 167.8 61.6" style="enable-background:new 0 0 167.8 61.6;" xml:space="preserve">
<style type="text/css">
	.st0{fill:#AE3737;}
	.st1{fill:#FFFFFF;}
</style>
<g id="XMLID_10_">
	<g id="XMLID_11_">
		<path id="XMLID_17_" class="st0" d="M61.6,0H0v61.6h61.6V0L61.6,0z"/>
		<g id="XMLID_12_">
			<path id="XMLID_14_" class="st1" d="M14.4,28.4h6v-1c0-3.1,0.6-5.3,1.8-6.6C23,20,23.8,20,24,20h1v21.8h-5.3v6h22v-6h-6.6V20h0.6
				h1h0.2c1,0,1.9,0.4,2.5,1c1.2,1.2,1.8,3.3,1.9,6.4v0.8h5.8V13.7H14.4V28.4z"/>
		</g>
		<g>
			<path class="st1" d="M76,47.7c-0.1-0.1-0.2-0.3-0.2-0.4V13.9c0-0.2,0.1-0.3,0.2-0.4c0.1-0.1,0.3-0.2,0.4-0.2h7
				c0.2,0,0.3,0.1,0.4,0.2c0.1,0.1,0.2,0.3,0.2,0.4v33.3c0,0.2-0.1,0.3-0.2,0.4c-0.1,0.1-0.3,0.2-0.4,0.2h-7
				C76.3,47.9,76.1,47.8,76,47.7z"/>
			<path class="st1" d="M104.2,22.5c0.1-0.1,0.3-0.2,0.4-0.2h7c0.2,0,0.3,0.1,0.4,0.2s0.2,0.3,0.2,0.4v22c0,4.5-1.3,7.7-3.9,9.7
				c-2.6,1.9-5.9,2.9-9.9,2.9c-1.5,0-3-0.1-4.7-0.4c-0.3,0-0.5-0.2-0.5-0.6l0.2-6.1c0-0.2,0.1-0.4,0.2-0.5s0.3-0.1,0.5,0
				c1.3,0.3,2.6,0.4,3.7,0.4c1.9,0,3.4-0.4,4.4-1.3c1.1-0.9,1.6-2.2,1.6-4l-0.3,0.3c-1.2,1.2-2.9,1.8-5.1,1.8s-4.2-0.5-6-1.4
				c-1.8-1-3.1-2.6-3.9-5c-0.5-1.6-0.8-3.5-0.8-5.8c0-2.5,0.3-4.6,0.9-6.2c0.8-2,2-3.7,3.6-4.9c1.7-1.2,3.6-1.8,5.8-1.8
				c2.4,0,4.2,0.7,5.5,2.2c0.1,0.1,0.1,0.1,0.2,0.1s0.1-0.1,0.1-0.2V23C104.1,22.8,104.1,22.7,104.2,22.5z M104.1,34.8
				c0-0.9,0-1.6-0.1-2.1s-0.2-1-0.4-1.5c-0.3-0.7-0.7-1.3-1.3-1.7c-0.6-0.4-1.3-0.6-2.1-0.6c-1.5,0-2.6,0.8-3.3,2.3
				c-0.5,0.9-0.7,2.1-0.7,3.6c0,1.6,0.2,2.8,0.6,3.5c0.3,0.7,0.7,1.2,1.3,1.7c0.6,0.4,1.3,0.6,2.1,0.6c1.7,0,2.8-0.8,3.4-2.3
				C103.9,37.8,104.1,36.5,104.1,34.8z"/>
			<path class="st1" d="M132.6,22.7c0.3,0.2,0.4,0.4,0.3,0.7l-1.1,6.9c0,0.4-0.3,0.5-0.7,0.3c-0.6-0.1-1.2-0.2-1.7-0.2
				c-0.6,0-1,0-1.3,0.1c-1,0.1-1.9,0.5-2.6,1.2s-1.1,1.5-1.1,2.6v13c0,0.2-0.1,0.3-0.2,0.4c-0.1,0.1-0.3,0.2-0.4,0.2h-7
				c-0.2,0-0.3-0.1-0.4-0.2c-0.1-0.1-0.2-0.3-0.2-0.4V23c0-0.2,0.1-0.3,0.2-0.4s0.3-0.2,0.4-0.2h7c0.2,0,0.3,0.1,0.4,0.2
				s0.2,0.3,0.2,0.4v1.6c0,0.1,0,0.2,0.1,0.2s0.1,0,0.1-0.1c1.3-1.7,3-2.6,5.1-2.6C131.1,22,132,22.2,132.6,22.7z"/>
			<path class="st1" d="M158.5,36.8c0,0.4-0.2,0.6-0.6,0.6h-15c-0.1,0-0.1,0-0.2,0.1c-0.1,0-0.1,0.1,0,0.2c0.1,0.4,0.2,0.8,0.5,1.4
				c0.4,0.7,1,1.2,1.8,1.7c0.8,0.4,1.8,0.6,2.9,0.6c2.1,0,3.7-0.7,4.9-2c0.1-0.2,0.3-0.2,0.4-0.2s0.3,0.1,0.4,0.2l3.8,4.3
				c0.1,0.1,0.2,0.2,0.2,0.4c0,0.1-0.1,0.3-0.2,0.4c-1.2,1.2-2.6,2.2-4.3,2.9s-3.5,1-5.5,1c-3,0-5.5-0.6-7.6-1.9
				c-2.1-1.3-3.6-3.1-4.5-5.4c-0.7-1.6-1-3.7-1-6.2c0-1.7,0.3-3.4,0.8-4.9c0.9-2.4,2.3-4.3,4.2-5.7c2-1.4,4.3-2.1,7-2.1
				c2.2,0,4.1,0.5,5.8,1.4s3.1,2.2,4.2,3.9c1.1,1.7,1.8,3.5,2.1,5.6C158.6,33.9,158.6,35.2,158.5,36.8z M142.9,31.4
				c-0.1,0.4-0.2,0.7-0.2,1c-0.1,0.2,0,0.2,0.2,0.2h7c0.1,0,0.2-0.1,0.2-0.2c0-0.3-0.1-0.6-0.2-1c-0.2-0.8-0.6-1.4-1.3-1.9
				s-1.4-0.6-2.3-0.6C144.6,29,143.5,29.8,142.9,31.4z"/>
		</g>
	</g>
</g>
</svg>
