<?xml version="1.0" encoding="utf-8"?>
<!-- Generator: Adobe Illustrator 20.1.0, SVG Export Plug-In . SVG Version: 6.00 Build 0)  -->
<svg version="1.1" id="Layer_1" xmlns="http://www.w3.org/2000/svg" xmlns:xlink="http://www.w3.org/1999/xlink" x="0px" y="0px"
	 viewBox="0 0 440.6 218.6" style="enable-background:new 0 0 440.6 218.6;" xml:space="preserve">
<style type="text/css">
	.novi_st0{display:none;fill:#231F20;}
	.novi_st1{fill:#174F6B;}
	.st2{fill:url(#SVGID_1_);}
	.st3{fill:#5CC5FF;}
	.st4{fill:#126498;}
	.st5{fill:#FFFFFF;}
</style>
<rect class="novi_st0" width="1190.6" height="841.9"/>
<g id="Telesport_x5F_Logo">
	<g>
		<g>
			<polygon class="novi_st1" points="215.7,208.7 18.7,179.8 34.2,41.7 240.5,19.2 			"/>
			<path class="novi_st1" d="M207.6,201L28,174.7L42.2,47.9l188.2-20.5L207.6,201z M32.6,171.1L204,196.2l21.5-164.2L46,51.7L32.6,171.1z
				"/>
		</g>
		<g>
			<g>
				<linearGradient id="SVGID_1_" gradientUnits="userSpaceOnUse" x1="124.5877" y1="14.1681" x2="124.5877" y2="203.6695">
					<stop  offset="0" style="stop-color:#FFFFFF"/>
					<stop  offset="0" style="stop-color:#069EFF"/>
					<stop  offset="1" style="stop-color:#0682D1"/>
					<stop  offset="1" style="stop-color:#067BC6"/>
					<stop  offset="1" style="stop-color:#04629D"/>
					<stop  offset="1" style="stop-color:#034A77"/>
					<stop  offset="1" style="stop-color:#023657"/>
					<stop  offset="1" style="stop-color:#02253B"/>
					<stop  offset="1" style="stop-color:#011725"/>
					<stop  offset="1" style="stop-color:#010D14"/>
					<stop  offset="1" style="stop-color:#000509"/>
					<stop  offset="1" style="stop-color:#000102"/>
					<stop  offset="1" style="stop-color:#000000"/>
				</linearGradient>
				<polygon class="st2" points="210.7,203.7 13.7,174.8 29.2,36.7 235.5,14.2 				"/>
				<path class="st3" d="M202.6,196L23,169.7L37.2,42.9l188.2-20.5L202.6,196z M27.6,166.1L199,191.2l21.5-164.2L41,46.7L27.6,166.1
					z"/>
			</g>
		</g>
	</g>
	<g>
		<g>
			<path class="st4" d="M74,87h-9.7V73.9h33.3V87h-9.7v66.1H74V87z"/>
			<path class="st4" d="M104.4,73.9h30.3V87h-16.5v19.7h14.6v13.1h-14.6V140h16.9v13.1h-30.7V73.9z"/>
			<path class="st4" d="M142.9,73.9h13.8V140h14.6v13.1h-28.4V73.9z"/>
			<path class="st4" d="M178,73.9h30.3V87h-16.5v19.7h14.6v13.1h-14.6V140h16.9v13.1H178V73.9z"/>
			<path class="st4" d="M218.7,150.4V136c4.9,2.8,8.7,4.4,12.4,4.4c4,0,7.4-1.9,7.4-6.8v-0.2c0-3.6-1.1-6.3-7.7-13.8
				c-9.4-10.6-13.2-15.7-13.2-25.4V94c0-12.7,8.3-20.7,19.2-20.7c5.5,0,8.8,0.8,12.2,2.5v14.4c-4.3-2.5-6.9-3.6-10.5-3.6
				c-3.8,0-7.1,2.5-7.1,6.8v0.2c0,3.7,1.1,5.1,7.7,12.7c10.9,12.6,13.2,17.4,13.2,26.5v0.2c0,12.4-8.7,20.7-19.6,20.7
				C227.3,153.7,222.6,152.3,218.7,150.4z"/>
			<path class="st4" d="M258.3,73.9h12.3c15.1,0,25.6,8.1,25.6,26.7v0.2c0,17.9-10,26.4-24,27.4h-0.1v24.9h-13.8V73.9z M272.2,115.4
				c5.8-0.3,10.2-4.5,10.2-14.1v-0.2c0-10.1-3.8-14.4-9.8-14.4h-0.5v28.7H272.2z"/>
			<path class="st4" d="M301.6,115.5v-4.1c0-26.1,8.5-38.7,21.1-38.7c12.6,0,21.1,12.6,21.1,38.7v4.1c0,26.1-8.5,38.7-21.1,38.7
				C310.1,154.3,301.6,141.7,301.6,115.5z M329.7,115.5v-4.1c0-20.4-2.8-26-7-26c-4.2,0-7,5.7-7,26v4.1c0,20.4,2.8,26,7,26
				C326.9,141.6,329.7,135.9,329.7,115.5z"/>
			<path class="st4" d="M351.7,73.9h14.3c14.1,0,24.4,7.5,24.4,25.2v1c0,10.3-4.1,16.9-9.3,20.8l10.6,32.1H377l-8.9-27.6
				c-0.1,0-0.2,0-0.2,0h-2.4v27.6h-13.8V73.9z M366.1,113.1c6,0,10.4-3.5,10.4-12.8v-0.9c0-10-4.8-12.6-10.8-12.6h-0.3v26.3H366.1z"
				/>
			<path class="st4" d="M404.1,87h-9.7V73.9h33.3V87h-9.7v66.1h-13.8V87z"/>
		</g>
		<g>
			<g>
				<g>
					<path class="st5" d="M69,82h-9.7V68.9h33.3V82h-9.7v66.1H69V82z"/>
					<path class="st5" d="M99.4,68.9h30.3V82h-16.5v19.7h14.6v13.1h-14.6V135h16.9v13.1H99.4V68.9z"/>
					<path class="st5" d="M137.9,68.9h13.8V135h14.6v13.1h-28.4V68.9z"/>
					<path class="st5" d="M173,68.9h30.3V82h-16.5v19.7h14.6v13.1h-14.6V135h16.9v13.1H173V68.9z"/>
				</g>
				<g>
					<path class="st5" d="M213.7,145.4V131c4.9,2.8,8.7,4.4,12.4,4.4c4,0,7.4-1.9,7.4-6.8v-0.2c0-3.6-1.1-6.3-7.7-13.8
						c-9.4-10.6-13.2-15.7-13.2-25.4V89c0-12.7,8.3-20.7,19.2-20.7c5.5,0,8.8,0.8,12.2,2.5v14.4c-4.3-2.5-6.9-3.6-10.5-3.6
						c-3.8,0-7.1,2.5-7.1,6.8v0.2c0,3.7,1.1,5.1,7.7,12.7c10.9,12.6,13.2,17.4,13.2,26.5v0.2c0,12.4-8.7,20.7-19.6,20.7
						C222.3,148.7,217.6,147.3,213.7,145.4z"/>
					<path class="st5" d="M253.3,68.9h12.3c15.1,0,25.6,8.1,25.6,26.7v0.2c0,17.9-10,26.4-24,27.4h-0.1v24.9h-13.8V68.9z
						 M267.2,110.4c5.8-0.3,10.2-4.5,10.2-14.1v-0.2c0-10.1-3.8-14.4-9.8-14.4h-0.5v28.7H267.2z"/>
					<path class="st5" d="M296.6,110.5v-4.1c0-26.1,8.5-38.7,21.1-38.7c12.6,0,21.1,12.6,21.1,38.7v4.1c0,26.1-8.5,38.7-21.1,38.7
						C305.1,149.3,296.6,136.7,296.6,110.5z M324.7,110.5v-4.1c0-20.4-2.8-26-7-26c-4.2,0-7,5.7-7,26v4.1c0,20.4,2.8,26,7,26
						C321.9,136.6,324.7,130.9,324.7,110.5z"/>
					<path class="st5" d="M346.7,68.9h14.3c14.1,0,24.4,7.5,24.4,25.2v1c0,10.3-4.1,16.9-9.3,20.8l10.6,32.1H372l-8.9-27.6
						c-0.1,0-0.2,0-0.2,0h-2.4v27.6h-13.8V68.9z M361.1,108.1c6,0,10.4-3.5,10.4-12.8v-0.9c0-10-4.8-12.6-10.8-12.6h-0.3v26.3H361.1
						z"/>
					<path class="st5" d="M399.1,82h-9.7V68.9h33.3V82h-9.7v66.1h-13.8V82z"/>
				</g>
			</g>
		</g>
	</g>
</g>
</svg>
