<?xml version="1.0" encoding="utf-8"?>
<!-- Generator: Adobe Illustrator 24.0.0, SVG Export Plug-In . SVG Version: 6.00 Build 0)  -->
<svg version="1.1" id="Layer_1" xmlns="http://www.w3.org/2000/svg" xmlns:xlink="http://www.w3.org/1999/xlink" x="0px" y="0px"
	 viewBox="0 0 499.7 58.7" style="enable-background:new 0 0 499.7 58.7;" xml:space="preserve">
<style type="text/css">
	.st0{fill:#FFFFFF;}
</style>
<g>
	<path class="st0" d="M104.3,36.3c0,0.3-1.5,10.4-8.3,10.4H85.3V33.4h13.9V22.2H85.3v-10h13.5c1.5,0.2,2.7,0.8,3.6,1.7
		c1.4,1.4,1.8,3.3,1.9,4.3l0.2,2.3l9.7-0.1V0.1H98.5H64.6v12.1h5.7v34.4h-5.7v12h49.6V34.1h-9.7L104.3,36.3z"/>
	<path class="st0" d="M214.2,36.2c0,0.3-1.5,10.4-8.3,10.4h-10.7V33.3H209V22.2h-13.9v-10h13.5c1.5,0.2,2.7,0.8,3.6,1.7
		c1.4,1.4,1.8,3.3,1.9,4.3l0.2,2.3l9.7-0.1V0.1h-15.7h-33.9v12.1h5.7v34.4h-5.7v12H224V34h-9.7L214.2,36.2z"/>
	<path class="st0" d="M157.2,32.5c0,0.6-1.2,13.6-6.8,14h-8.7V12.1h5.4V0h-27.7v12.1h6.2v34.4h-4.5v12.1h47V30.2h-10.8L157.2,32.5z"
		/>
	<path class="st0" d="M260.7,36.6h8.4v1.3c-0.4,5.8-7.3,6.5-10.2,6.5h-0.1c-2.8,0-7-1.4-10.1-4.5c-2.6-2.6-4.1-6.2-4.1-10.2
		c0.2-7.8,4.6-15.6,13.9-15.6h0.4c2.9,0.1,6.8,1.2,8.8,3.1c0.4,0.4,0.8,0.9,1,1.4l0.7,1.4H282l0-18.8h-13.7v0.5
		c-3-1.1-5.9-1.7-8.8-1.7c-0.4,0-0.7,0-1,0c-0.2,0-0.2,0-0.3,0c-7.5,0-14.5,3-19.5,8.4S231,21.2,231,29.2c0,8.3,3.1,16,8.8,21.6
		c4.7,4.7,10.8,7.5,16.6,7.7c5.3,0.2,9-0.3,12.6-1.5v1.5h14.1v-22h5v-11h-27.4L260.7,36.6z"/>
	<path class="st0" d="M0,26.1h12.2v-2.5c-0.1-5,0.8-8.4,2.5-10.2c1-1.1,2-1.1,2.2-1.1h2.7v34.3h-8.7v12.1h38.8V46.8H38.6V12.4h1.6
		h0.4c1.5,0,2.6,0.4,3.6,1.4c1.8,1.8,2.7,5,2.9,10l0.1,2.4h11.7V0.3H0V26.1z"/>
	<path class="st0" d="M341.1,35.4c7.7-3.3,11.5-8.9,11.6-17.1c0-4.8-1.4-8.7-4.2-11.6c-6.1-6.1-17.1-6.6-29.9-6.6h-29v12.1h7.6v34.3
		h-7.5v12h31.2l0.1-12.1h-6.4v-7.9h11.7l10,19.9h17.1v-12l-6.2-0.1L341.1,35.4z M314.6,12.2h0.9c1.3,0,2.8,0,4.4,0h1.2
		c4.7,0,5.5,0,5.7,0h0.6c3,0.1,6.8,0.5,8.8,2.5c1,1,1.5,2.5,1.5,4.2c0,4.4-1.7,7.3-9.8,7.3c-1.2,0-2.3,0-3.3,0h-0.3
		c-0.5,0-1,0-1.4,0c-4,0-6.7,0-8.4,0L314.6,12.2z"/>
	<path class="st0" d="M402.6,12.2h6.2v-12h-37.5v12l7-0.1l-15.1,34.4h-4.3v12h28.7v-12h-7.5l1.8-3.9h17.3l1.8,3.9h-7v12.1h28.7v-12
		h-5.1L402.6,12.2z M395.6,34.1h-10.1l5.1-12.5L395.6,34.1z"/>
	<polygon class="st0" points="499.7,11 499.7,0.2 473.2,0.2 462,22.9 453.1,0.2 425.7,0.2 425.7,11.1 432,11.1 432,46.6 427,46.6 
		427,58.6 454,58.6 454,46.6 449.3,46.6 449.2,30.6 461.3,58.2 476.3,28.9 476.3,46.6 471.8,46.6 471.8,58.5 498.8,58.5 498.8,46.6 
		493.5,46.6 493.5,11 	"/>
</g>
</svg>
