<?xml version="1.0" encoding="utf-8"?>
<!-- Generator: Adobe Illustrator 26.0.1, SVG Export Plug-In . SVG Version: 6.00 Build 0)  -->
<svg version="1.1" id="Layer_1" xmlns="http://www.w3.org/2000/svg" xmlns:xlink="http://www.w3.org/1999/xlink" x="0px" y="0px"
	 viewBox="0 0 399.6 173.7" style="enable-background:new 0 0 399.6 173.7;" xml:space="preserve">
<path d="M179.7,173.7L0,147.3L14.2,20.5L202.4,0L179.7,173.7z M4.6,143.8l171.5,25.1L197.5,4.7L18,24.3L4.6,143.8z"/>
<g>
	<polygon points="46,59.7 36.3,59.7 36.3,46.6 69.6,46.6 69.6,59.7 59.8,59.7 59.8,125.8 46,125.8 	"/>
	<polygon points="76.5,46.6 106.8,46.6 106.8,59.7 90.3,59.7 90.3,79.4 104.9,79.4 104.9,92.5 90.3,92.5 90.3,112.7 107.1,112.7 
		107.1,125.8 76.5,125.8 	"/>
	<polygon points="114.9,46.6 128.7,46.6 128.7,112.7 143.3,112.7 143.3,125.8 114.9,125.8 	"/>
	<polygon points="150,46.6 180.4,46.6 180.4,59.7 163.8,59.7 163.8,79.4 178.4,79.4 178.4,92.5 163.8,92.5 163.8,112.7 180.7,112.7 
		180.7,125.8 150,125.8 	"/>
	<path d="M190.7,123.1v-14.4c4.9,2.8,8.7,4.4,12.4,4.4c4,0,7.4-1.9,7.4-6.8v-0.2c0-3.6-1.1-6.3-7.7-13.8
		c-9.4-10.6-13.2-15.7-13.2-25.4v-0.2c0-12.7,8.3-20.7,19.2-20.7c5.5,0,8.8,0.8,12.2,2.5v14.4c-4.3-2.5-6.9-3.6-10.5-3.6
		c-3.8,0-7.1,2.5-7.1,6.8v0.2c0,3.7,1.1,5.1,7.7,12.7c10.9,12.6,13.2,17.4,13.2,26.5v0.2c0,12.4-8.7,20.7-19.6,20.7
		C199.3,126.4,194.7,125,190.7,123.1"/>
	<path d="M230.3,46.6h12.3c15.1,0,25.6,8.1,25.6,26.7v0.2c0,17.9-10,26.4-24,27.4h-0.1v24.9h-13.8V46.6z M244.3,88.1
		c5.8-0.3,10.2-4.5,10.2-14.1v-0.2c0-10.1-3.8-14.4-9.8-14.4h-0.5v28.7C244.2,88.1,244.3,88.1,244.3,88.1z"/>
	<path d="M273.7,88.2v-4.1c0-26.1,8.5-38.7,21-38.7c12.6,0,21.1,12.6,21.1,38.7v4.1c0,26.1-8.5,38.7-21.1,38.7
		C282.2,126.9,273.7,114.4,273.7,88.2 M301.7,88.2v-4.1c0-20.4-2.8-26-7-26s-7,5.7-7,26v4.1c0,20.4,2.8,26,7,26
		C298.9,114.2,301.7,108.6,301.7,88.2"/>
	<path d="M323.7,46.6H338c14.1,0,24.4,7.5,24.4,25.2v1c0,10.3-4.1,16.9-9.3,20.8l10.6,32.1H349l-8.9-27.6h-0.2h-2.4v27.6h-13.8V46.6
		z M338.2,85.7c6,0,10.4-3.5,10.4-12.8V72c0-10-4.8-12.6-10.8-12.6h-0.3v26.3H338.2z"/>
	<polygon points="376.1,59.7 366.4,59.7 366.4,46.6 399.6,46.6 399.6,59.7 389.9,59.7 389.9,125.8 376.1,125.8 	"/>
</g>
</svg>
