<svg width="156" height="19" viewBox="0 0 156 19" fill="none" xmlns="http://www.w3.org/2000/svg">
<path d="M32.5627 11.3738C32.5627 11.4678 32.0944 14.6323 29.9715 14.6323H26.6312V10.4652H30.9705V6.95602H26.6312V3.82282H30.8456C31.3139 3.88549 31.6885 4.07348 31.9695 4.35546C32.4066 4.79411 32.5314 5.38942 32.5627 5.70274L32.6251 6.42337L35.6533 6.39204V0.0316544H30.752H20.1689V3.82282H21.9484V14.601H20.1689V18.3609H35.6533V10.6845H32.6251L32.5627 11.3738Z" fill="#343434"/>
<path d="M66.8683 11.3425C66.8683 11.4365 66.4 14.601 64.2772 14.601H60.9368V10.4339H65.2449V6.95602H60.9056V3.82282H65.1201C65.5883 3.88549 65.963 4.07348 66.2439 4.35546C66.681 4.79411 66.8059 5.38942 66.8371 5.70274L66.8995 6.42337L69.9277 6.39204V0.0316544H65.0264H54.4434V3.82282H56.2228V14.601H54.4434V18.3609H69.9277V10.6532H66.8995L66.8683 11.3425Z" fill="#343434"/>
<path d="M49.075 10.1829C49.075 10.3709 48.7004 14.444 46.9521 14.5694H44.2361V3.79117H45.9219V0H37.2744V3.79117H39.21V14.5694H37.8051V18.3605H52.4778V9.46225H49.1062L49.075 10.1829Z" fill="#343434"/>
<path d="M81.3871 11.4675H84.0095V11.8748C83.8846 13.6921 81.7305 13.9114 80.8252 13.9114H80.794C79.9198 13.9114 78.6087 13.4727 77.6409 12.5015C76.8292 11.6868 76.3609 10.5589 76.3609 9.30559C76.4234 6.8617 77.797 4.41781 80.7003 4.41781H80.8252C81.7305 4.44914 82.948 4.79379 83.5724 5.3891C83.6973 5.51443 83.8221 5.67108 83.8846 5.82774L84.1031 6.26639H88.0366V0.375984H83.7597V0.532643C82.8231 0.187992 81.9178 0 81.0125 0C80.8876 0 80.794 0 80.7003 0C80.6379 0 80.6379 0 80.6066 0C78.2653 0 76.08 0.939959 74.5191 2.63188C72.9581 4.32381 72.1152 6.64238 72.1152 9.14893C72.1152 11.7495 73.083 14.162 74.8625 15.9166C76.3297 17.3892 78.234 18.2665 80.0447 18.3292C81.6993 18.3919 82.8544 18.2352 83.9782 17.8592V18.3292H88.38V11.4362H89.941V7.98965H81.3871V11.4675Z" fill="#343434"/>
<path d="M0 8.17664H3.80865V7.39334C3.77743 5.82674 4.05839 4.76146 4.58911 4.19748C4.90129 3.85283 5.21348 3.85283 5.27591 3.85283H6.11881V14.5997H3.40281V18.3909H15.5156V14.6624H12.0503V3.88416H12.5498H12.6747C13.143 3.88416 13.4864 4.00949 13.7985 4.32281C14.3605 4.88679 14.6414 5.88941 14.7039 7.45601L14.7351 8.20797H18.3877V0.0929947H0V8.17664Z" fill="#343434"/>
<path d="M106.486 11.0918C108.89 10.0579 110.076 8.30329 110.107 5.73407C110.107 4.23014 109.67 3.00819 108.796 2.09956C106.892 0.188314 103.458 0.0316544 99.4615 0.0316544H90.4082V3.82282H92.7808V14.5697H90.4394V18.3295H100.18L100.211 14.5384H98.2128V12.0631H101.865L104.987 18.2982H110.326V14.5384L108.39 14.507L106.486 11.0918ZM98.2128 3.82282H98.4938C98.8996 3.82282 99.3679 3.82282 99.8674 3.82282H100.242C101.709 3.82282 101.959 3.82282 102.021 3.82282H102.209C103.145 3.85415 104.332 3.97948 104.956 4.60612C105.268 4.91944 105.424 5.38942 105.424 5.92206C105.424 7.30067 104.894 8.2093 102.365 8.2093C101.99 8.2093 101.647 8.2093 101.335 8.2093H101.241C101.085 8.2093 100.929 8.2093 100.804 8.2093C99.5552 8.2093 98.7123 8.2093 98.1816 8.2093L98.2128 3.82282Z" fill="#343434"/>
<path d="M125.683 3.82315H127.619V0.0633163H115.912V3.82315L118.097 3.79182L113.383 14.57H112.041V18.3298H121.001V14.57H118.659L119.221 13.3481H124.622L125.184 14.57H122.999V18.3612H131.958V14.6013H130.366L125.683 3.82315ZM123.498 10.6849H120.345L121.937 6.76836L123.498 10.6849Z" fill="#343434"/>
<path d="M156 3.44717V0.0633163H147.727L144.231 7.17567L141.452 0.0633163H132.898V3.4785H134.865V14.6013H133.304V18.3612H141.733V14.6013H140.266L140.235 9.58823L144.012 18.2359L148.695 9.05559V14.6013H147.29V18.3298H155.719V14.6013H154.065V3.44717H156Z" fill="#343434"/>
</svg>
