<?xml version="1.0" encoding="utf-8"?>
<!-- Generator: Adobe Illustrator 23.0.3, SVG Export Plug-In . SVG Version: 6.00 Build 0)  -->
<svg version="1.1" id="Layer_1" xmlns="http://www.w3.org/2000/svg" xmlns:xlink="http://www.w3.org/1999/xlink" x="0px" y="0px"
	 viewBox="0 0 499.7 58.7" style="enable-background:new 0 0 499.7 58.7;" xml:space="preserve">
<g>
	<path d="M104.3,36.3c0,0.3-1.5,10.4-8.3,10.4H85.3l0-13.3h13.9V22.2l-13.9,0l0-10l13.5,0c1.5,0.2,2.7,0.8,3.6,1.7
		c1.4,1.4,1.8,3.3,1.9,4.3l0.2,2.3l9.7-0.1V0.1l-15.7,0l-33.9,0v12.1h5.7v34.4h-5.7v12h49.6V34.1h-9.7L104.3,36.3z"/>
	<path d="M214.2,36.2c0,0.3-1.5,10.4-8.3,10.4h-10.7l0-13.3H209V22.2l-13.9,0l0-10l13.5,0c1.5,0.2,2.7,0.8,3.6,1.7
		c1.4,1.4,1.8,3.3,1.9,4.3l0.2,2.3l9.7-0.1V0.1l-15.7,0l-33.9,0v12.1h5.7v34.4h-5.7v12h49.6V34h-9.7L214.2,36.2z"/>
	<path d="M157.2,32.5c0,0.6-1.2,13.6-6.8,14l-8.7,0V12.1l5.4,0l0-12.1h-27.7l0,12.1l6.2,0l0,34.4l-4.5,0l0,12.1l47,0V30.2l-10.8,0
		L157.2,32.5z"/>
	<path d="M260.7,36.6l8.4,0l0,1.3c-0.4,5.8-7.3,6.5-10.2,6.5l-0.1,0c-2.8,0-7-1.4-10.1-4.5c-2.6-2.6-4.1-6.2-4.1-10.2
		c0.2-7.8,4.6-15.6,13.9-15.6l0.4,0c2.9,0.1,6.8,1.2,8.8,3.1c0.4,0.4,0.8,0.9,1,1.4l0.7,1.4l12.6,0L282,1.2l-13.7,0l0,0.5
		c-3-1.1-5.9-1.7-8.8-1.7c-0.4,0-0.7,0-1,0c-0.2,0-0.2,0-0.3,0c-7.5,0-14.5,3-19.5,8.4c-5,5.4-7.7,12.8-7.7,20.8
		c0,8.3,3.1,16,8.8,21.6c4.7,4.7,10.8,7.5,16.6,7.7c5.3,0.2,9-0.3,12.6-1.5v1.5l14.1,0l0-22h5V25.5l-27.4,0L260.7,36.6z"/>
	<path d="M0,26.1h12.2l0-2.5c-0.1-5,0.8-8.4,2.5-10.2c1-1.1,2-1.1,2.2-1.1l2.7,0l0,34.3l-8.7,0v12.1h38.8V46.8l-11.1,0l0-34.4l1.6,0
		l0.4,0c1.5,0,2.6,0.4,3.6,1.4c1.8,1.8,2.7,5,2.9,10l0.1,2.4l11.7,0l0-25.9H0L0,26.1z"/>
	<path d="M341.1,35.4c7.7-3.3,11.5-8.9,11.6-17.1c0-4.8-1.4-8.7-4.2-11.6c-6.1-6.1-17.1-6.6-29.9-6.6l-29,0v12.1h7.6v34.3l-7.5,0v12
		h31.2l0.1-12.1h-6.4v-7.9l11.7,0l10,19.9h17.1v-12l-6.2-0.1L341.1,35.4z M314.6,12.2l0.9,0c1.3,0,2.8,0,4.4,0l1.2,0
		c4.7,0,5.5,0,5.7,0l0.6,0c3,0.1,6.8,0.5,8.8,2.5c1,1,1.5,2.5,1.5,4.2c0,4.4-1.7,7.3-9.8,7.3c-1.2,0-2.3,0-3.3,0l-0.3,0
		c-0.5,0-1,0-1.4,0c-4,0-6.7,0-8.4,0L314.6,12.2z"/>
	<path d="M402.6,12.2h6.2v-12l-37.5,0v12l7-0.1l-15.1,34.4l-4.3,0v12h28.7v-12l-7.5,0l1.8-3.9h17.3l1.8,3.9l-7,0v12.1h28.7V46.6
		l-5.1,0L402.6,12.2z M395.6,34.1h-10.1l5.1-12.5L395.6,34.1z"/>
	<polygon points="499.7,11 499.7,0.2 473.2,0.2 462,22.9 453.1,0.2 425.7,0.2 425.7,11.1 432,11.1 432,46.6 427,46.6 427,58.6 
		454,58.6 454,46.6 449.3,46.6 449.2,30.6 461.3,58.2 476.3,28.9 476.3,46.6 471.8,46.6 471.8,58.5 498.8,58.5 498.8,46.6 
		493.5,46.6 493.5,11 	"/>
</g>
<g>
</g>
<g>
</g>
<g>
</g>
<g>
</g>
<g>
</g>
<g>
</g>
</svg>
