<?xml version="1.0" encoding="utf-8"?>
<!-- Generator: Adobe Illustrator 25.4.1, SVG Export Plug-In . SVG Version: 6.00 Build 0)  -->
<svg version="1.1" id="Layer_1" xmlns="http://www.w3.org/2000/svg" xmlns:xlink="http://www.w3.org/1999/xlink" x="0px" y="0px"
	 viewBox="0 0 42 19" style="enable-background:new 0 0 42 19;" xml:space="preserve">
<g>
	<path d="M4.5,18.7H0v-2.3h0c0.6,0,0.7-0.5,0.7-1.1v-12c0-0.6-0.2-1.1-0.7-1.1h0V0.1h4.6c2.4,0,4.6,1.4,4.6,4v1.2
		c0,1.8-1.2,3-2.4,3.5c1.5,0.6,2.7,1.9,2.7,3.8v1.5C9.4,16.9,7.6,18.7,4.5,18.7z M4.3,3v4.9h0.2c0.7,0,1-0.7,1-1.6V3.5
		c0-0.8-0.4-1.1-0.7-1.1h0C4.5,2.4,4.3,2.5,4.3,3z M4.9,16.5c0.4,0,0.8-0.4,0.8-1.3v-3.6c0-1.2-0.6-1.8-1.3-1.8H4.3v6
		C4.3,16.3,4.4,16.5,4.9,16.5L4.9,16.5z"/>
	<path d="M9.8,6.9L9.8,6.9l0-2.4h3.9v11.4c0,0.5,0.1,0.7,0.6,0.7h0v2.1H9.8v-2.1h0c0.6,0,0.7-0.2,0.7-0.7v-8
		C10.6,7.4,10.4,6.9,9.8,6.9z M10.1,1.9C10.1,0.9,11,0,12,0c1.1,0,1.9,0.9,1.9,1.9c0,1-0.9,1.9-1.9,1.9C11,3.9,10.1,3,10.1,1.9z"/>
	<path d="M21.3,18.7h-6.6v-1.7l3.6-10.5c-1,0.1-1.7,0.6-1.7,2.1V10h-1.9V4.5h6.5v1.9l-3.5,10.3c1-0.1,1.7-0.6,1.7-2.1v-1.3h1.9V18.7
		z"/>
	<path d="M21.7,16.6L21.7,16.6c0.6,0,0.7-0.2,0.7-0.7v-8c0-0.5-0.1-1-0.7-1h0V4.5h3.5v1.1c0.6-1,1.4-1.3,2.4-1.3
		c1.3,0,2.1,0.7,2.1,2.4v9.2c0,0.5,0.1,0.7,0.6,0.7h0v2.1h-4.1v-2h0c0.2,0,0.3-0.2,0.3-0.6V7.5c0-0.4-0.1-0.7-0.5-0.7
		S25.6,7,25.6,7.5v8.6c0,0.3,0.1,0.6,0.3,0.6h0v2h-4.2V16.6z"/>
	<path d="M30.7,6.9L30.7,6.9l0-2.4h3.9v11.4c0,0.5,0.1,0.7,0.6,0.7h0v2.1h-4.5v-2.1h0c0.6,0,0.7-0.2,0.7-0.7v-8
		C31.4,7.4,31.3,6.9,30.7,6.9z M30.9,1.9c0-1.1,0.9-1.9,1.9-1.9c1.1,0,1.9,0.9,1.9,1.9c0,1-0.9,1.9-1.9,1.9
		C31.8,3.9,30.9,3,30.9,1.9z"/>
	<path d="M41.9,9.7h-2.1V8.5c0-1.6-0.2-2-0.6-2c-0.3,0-0.5,0.4-0.5,1c0,2.1,3.3,4.3,3.3,8c0,1.7-0.7,3.5-2.6,3.5
		c-1.4,0-1.8-0.8-2.1-0.8c-0.2,0-0.3,0.1-0.3,0.4v0.1h-1.5v-5.4h2.2v1.3c0,1.8,0.1,2.2,0.6,2.2c0.4,0,0.6-0.4,0.6-0.9
		c0-2.3-3.4-4.7-3.4-8c0-2,1-3.6,2.9-3.6c1.1,0,1.5,0.6,1.8,0.6c0.2,0,0.2-0.2,0.2-0.3V4.5h1.5V9.7z"/>
</g>
<g>
</g>
<g>
</g>
<g>
</g>
<g>
</g>
<g>
</g>
<g>
</g>
</svg>
