<?xml version="1.0" encoding="utf-8"?>
<!-- Generator: Adobe Illustrator 27.0.0, SVG Export Plug-In . SVG Version: 6.00 Build 0)  -->
<svg version="1.1" id="Isolation_Mode" xmlns="http://www.w3.org/2000/svg" xmlns:xlink="http://www.w3.org/1999/xlink" x="0px"
	 y="0px" viewBox="0 0 45.8 55.6" style="enable-background:new 0 0 45.8 55.6;" xml:space="preserve">
<style type="text/css">
	.st0{fill:#FFFFFF;}
</style>
<g>
	<path class="st0" d="M35,37.3L35,37.3c3.2,4.6,7,8.9,10.7,11.9c-7.4,4.3-15.1,6.4-22.9,6.4c-7.7,0-15.5-2.1-22.9-6.4
		C0,49.2,21.1,53.4,35,37.3z"/>
	<path class="st0" d="M12.9,33.9c-1.3-0.5-2.5-1.1-3.8-1.8c0,0,15.3,0.1,19.5-9.5l0,0c2.2,3.6,5.1,7.3,8,9.6
		c-1.2,0.7-2.5,1.3-3.8,1.8c0,0-12.2,14.9-32.9,15.3C4.6,45.5,9.4,39.8,12.9,33.9z"/>
	<path class="st0" d="M17.7,21.5c0,0,0-0.1,0.1-0.1c-1-0.4-2-0.8-3-1.4c0,0,0.1,0,0.2,0c-0.1,0-0.1,0-0.2,0c1.9-1.5,3.8-3.9,5.1-6.3
		c1.3-2.4,2.2-4.8,3.1-7.1l-2.8,1.8L21,5.3l-2.6-2.1l3.3-0.1L22.9,0L24,3.1l3.3,0.1l-2.6,2.1l0.9,3.2l-2.8-1.8
		c0.7,1.9,1.4,3.9,2.4,5.8l-0.1-0.1c0,0-3.2,6.1-9,7.5c-0.4,0.1-0.7,0.1-1,0.2c0.3,0,0.7-0.1,1-0.2c2.5-0.5,7.8-2.1,9.5-6.5
		l-0.1-0.2c0.1,0.2,0.2,0.4,0.3,0.6c1.3,2.4,3.2,4.8,5.1,6.3c-1,0.6-2,1-3,1.4c0,0,0,0,0,0c0,0-4.4,8.5-18.9,10.7
		C12.3,29.6,15.5,25.5,17.7,21.5z"/>
</g>
</svg>
