<?xml version="1.0" encoding="utf-8"?>
<!-- Generator: Adobe Illustrator 27.0.0, SVG Export Plug-In . SVG Version: 6.00 Build 0)  -->
<svg version="1.1" id="Layer_1" xmlns="http://www.w3.org/2000/svg" xmlns:xlink="http://www.w3.org/1999/xlink" x="0px" y="0px"
	 viewBox="0 0 159.4 47.4" style="enable-background:new 0 0 159.4 47.4;" xml:space="preserve">
<g>
	<path d="M0,46.1h3.1V3.3H0v-1h10.2v44.8H0V46.1z M16.4,46.1h3.1L12,24.2L24.9,3.3h-3v-1h7v1h-3l-9,14.6l9.5,28.3h3.1v1H16.4V46.1z"
		/>
	<path d="M32.2,40.4V16.9h-3.1v-1h9v27.7c0,1.5,0.7,2.3,1.8,2.3c2,0,4-2.1,4.1-5.2h0.9c0,3.7-2.8,6.7-6.4,6.7
		C34.7,47.4,32.2,44.8,32.2,40.4z M45.8,16.9h-3.1v-1h9v30.2h3.1v1h-9V16.9z"/>
	<path d="M57.1,46.1h3.1V1h-3.1V0h9v46.1h3.2v1H57.1V46.1z"/>
	<path d="M75.3,40.9v-24h-3.5v-0.8c5,0,8.6-4.2,8.6-9.2h0.9v9h5.7v1h-5.7v30.5C78,47.4,75.3,45.1,75.3,40.9z M82.3,46.4
		c2.5-0.4,4.3-2.4,4.3-5.5h0.9c0,3.6-2.1,6-5.2,6.4V46.4z"/>
	<path d="M93.1,40.4V16.9H90v-1h9v27.7c0,1.5,0.7,2.3,1.8,2.3c2,0,4-2.1,4.1-5.2h0.9c0,3.7-2.8,6.7-6.4,6.7
		C95.6,47.4,93.1,44.8,93.1,40.4z M106.6,16.9h-3.1v-1h9v30.2h3.1v1h-9V16.9z"/>
	<path d="M118,46.1h3.1V16.9H118v-1h9v30.2h4.3v1H118V46.1z M130.3,19.2c0-2,1.5-3.6,3.4-3.6c1.9,0,3.5,1.6,3.5,3.6
		c0,2-1.5,3.6-3.5,3.6C131.9,22.9,130.3,21.3,130.3,19.2z"/>
	<path d="M136.4,40v-3.4c0-4.9,2.8-7.3,6.4-7.3c3.5,0,6.4,3,6.4,6.7h-0.9c0-3-2.4-5.3-4-5.3c-1,0-1.6,0.7-1.6,2.5v10.3
		c0,1.7,0.6,2.5,1.8,2.5c1.6,0,3.9-2,3.9-5.3h0.9c0,3.8-3,6.8-6.4,6.8C139.3,47.4,136.4,45,136.4,40z M139.9,22.6
		c0-2,1.5-3.6,3.4-3.6c1.9,0,3.4,1.6,3.4,3.6c0,2.1-1.5,3.7-3.4,3.7C141.4,26.3,139.9,24.7,139.9,22.6z M150.1,40.1V18.9
		c0-1.7-1.2-2.1-2.4-2.1c-1.3,0-2.3,0.4-3.3,0.9l-0.5-0.8c1.3-0.9,2.8-1.3,4.4-1.3c4.6,0,8,3.1,8,8.4v22.1h3.1v1h-3.1
		C152,47.1,150.1,44.6,150.1,40.1z"/>
</g>
<g>
</g>
<g>
</g>
<g>
</g>
<g>
</g>
<g>
</g>
<g>
</g>
</svg>
