<?xml version="1.0" encoding="utf-8"?>
<!-- Generator: Adobe Illustrator 26.0.1, SVG Export Plug-In . SVG Version: 6.00 Build 0)  -->
<svg version="1.1" id="Layer_1" xmlns="http://www.w3.org/2000/svg" xmlns:xlink="http://www.w3.org/1999/xlink" x="0px" y="0px"
	 viewBox="0 0 1200 380" style="enable-background:new 0 0 1200 380;" xml:space="preserve">
<style type="text/css">
	.st0{fill:#FFFFFF;}
</style>
<g>
	<path class="st0" d="M119,42.1c0,0.3-1.7,11.7-9.4,11.7H97.6v-15h15.7V26.2H97.6V15h15.2c1.7,0.2,3,0.9,4.1,1.9
		c1.6,1.6,2,3.7,2.1,4.8l0.2,2.6l10.9-0.1V1.4h-17.7H74.3V15h6.4v38.8h-6.4v13.5h55.9V39.7h-10.9L119,42.1z"/>
	<path class="st0" d="M242.9,42c0,0.3-1.7,11.7-9.4,11.7h-12.1v-15H237V26.2h-15.7V15h15.2c1.7,0.2,3,0.9,4.1,1.9
		c1.6,1.6,2,3.7,2.1,4.8l0.2,2.6l10.9-0.1V1.4h-17.7H198V15h6.4v38.8H198v13.5h55.9V39.5H243L242.9,42z"/>
	<path class="st0" d="M178.6,37.9c0,0.7-1.4,15.3-7.7,15.8h-9.8V14.9h6.1V1.2h-31.2v13.6h7v38.8H138v13.6h53v-32h-12.2L178.6,37.9z"
		/>
	<path class="st0" d="M295.2,42.5h9.5v1.5c-0.5,6.5-8.2,7.3-11.5,7.3h-0.1c-3.2,0-7.9-1.6-11.4-5.1c-2.9-2.9-4.6-7-4.6-11.5
		c0.2-8.8,5.2-17.6,15.7-17.6h0.5c3.3,0.1,7.7,1.4,9.9,3.5c0.5,0.5,0.9,1,1.1,1.6l0.8,1.6h14.2l0-21.2h-15.4v0.6
		c-3.4-1.2-6.6-1.9-9.9-1.9c-0.5,0-0.8,0-1.1,0c-0.2,0-0.2,0-0.3,0c-8.4,0-16.3,3.4-22,9.5c-5.6,6.1-8.7,14.4-8.7,23.4
		c0,9.4,3.5,18,9.9,24.3c5.3,5.3,12.2,8.4,18.7,8.7c6,0.2,10.1-0.3,14.2-1.7v1.7h15.9V42.4h5.6V30h-30.9L295.2,42.5z"/>
	<path class="st0" d="M1.5,30.6h13.7v-2.8c-0.1-5.6,0.9-9.5,2.8-11.5c1.1-1.2,2.3-1.2,2.5-1.2h3v38.6h-9.8v13.6h43.7V54H45V15.2h1.8
		h0.5c1.7,0,2.9,0.5,4.1,1.6c2,2,3,5.6,3.3,11.3l0.1,2.7h13.2V1.6H1.5V30.6z"/>
	<path class="st0" d="M385.8,41.1c8.7-3.7,13-10,13.1-19.3c0-5.4-1.6-9.8-4.7-13.1c-6.9-6.9-19.3-7.4-33.7-7.4h-32.7V15h8.6v38.6
		h-8.4v13.5h35.1l0.1-13.6H356v-8.9h13.2L380.4,67h19.3V53.5l-7-0.1L385.8,41.1z M356,15h1c1.5,0,3.2,0,5,0h1.4c5.3,0,6.2,0,6.4,0
		h0.7c3.4,0.1,7.7,0.6,9.9,2.8c1.1,1.1,1.7,2.8,1.7,4.7c0,5-1.9,8.2-11,8.2c-1.4,0-2.6,0-3.7,0h-0.3c-0.6,0-1.1,0-1.6,0
		c-4.5,0-7.5,0-9.5,0L356,15z"/>
	<path class="st0" d="M455.1,15h7V1.5h-42.2V15l7.9-0.1l-17,38.8h-4.8v13.5h32.3V53.6h-8.4l2-4.4h19.5l2,4.4h-7.9v13.6h32.3V53.7
		H472L455.1,15z M447.2,39.7h-11.4l5.7-14.1L447.2,39.7z"/>
	<polygon class="st0" points="564.5,13.6 564.5,1.5 534.6,1.5 522,27 512,1.5 481.1,1.5 481.1,13.7 488.2,13.7 488.2,53.7 
		482.6,53.7 482.6,67.3 513,67.3 513,53.7 507.7,53.7 507.6,35.7 521.2,66.8 538.1,33.8 538.1,53.7 533.1,53.7 533.1,67.1 
		563.5,67.1 563.5,53.7 557.5,53.7 557.5,13.6 	"/>
</g>
<g>
	<path class="st0" d="M309.7,333.5c1.1,7.6,5.3,22.5,14.5,27v0.8c-9.5,5.3-36.9,14.5-81.1,14.5c-65.5,0-73.1-24-76.9-57.1l-9.9-85.3
		l-1.9,1.6v80.3c0,29.7,3.8,45.7,7.6,53.7v0.8H4.3v-0.8c8.4-8,16.8-24,16.8-53.7V157.6c0-29.7-8.4-45.7-16.8-53.7v-0.8h157.6v0.8
		c-3.8,8-7.6,24-7.6,53.7V229l19-16.2V103.1h140.1v0.8c-7.6,4.2-21.3,13.3-42.6,31.6L160.1,230l0.3,1.1c18.7-12.6,41.5-16,60.2-16
		c46.8,0,73.5,17.1,80,59L309.7,333.5L309.7,333.5z"/>
	<path class="st0" d="M613.5,210.5L596,369.7H324.5v-0.8c8.4-8,16.8-24,16.8-53.7V157.6c0-29.7-8.4-45.7-16.8-53.7v-0.8h170.6v0.8
		c-10.3,8-20.6,24-20.6,53.7v207.5h6.9l131.4-154.6H613.5z"/>
	<path class="st0" d="M890.4,103.9c-8.4,8-16.8,24-16.8,53.7v110c0,68.9-45.3,105.9-124.1,105.9s-123.4-36.9-123.4-105.9v-110
		c0-29.7-8.4-45.7-16.8-53.7v-0.8h150v166.4c0,35.4,20.9,54.5,54.5,54.5c32.7,0,54.5-19.8,54.5-54.5l0.2-28.6L767,103.9v-0.8h123.4
		V103.9z"/>
	<path class="st0" d="M1190.1,292c0,49.9-46.5,77.7-131.4,77.7H889.6v-0.8c8.4-8,16.8-24,16.8-53.7V157.6c0-29.7-8.4-45.7-16.8-53.7
		v-0.8h169.1c48,0,113.9,0.4,113.9,60.5c0,49.9-45.3,57.5-106.6,57.9v1.5C1126.5,223.1,1190.1,233.7,1190.1,292z M1054.9,165.2
		c0-28.9-5.3-59-15.2-59v113.1C1049.9,219.3,1054.9,192.6,1054.9,165.2z M1054.9,295.4c0-35-5-70.1-15.2-70.1v141.3
		C1049.9,366.6,1054.9,330.8,1054.9,295.4z"/>
</g>
<g>
</g>
<g>
</g>
<g>
</g>
<g>
</g>
<g>
</g>
<g>
</g>
<g>
</g>
<g>
</g>
<g>
</g>
<g>
</g>
<g>
</g>
<g>
</g>
<g>
</g>
<g>
</g>
<g>
</g>
</svg>
