<?xml version="1.0" encoding="utf-8"?>
<!-- Generator: Adobe Illustrator 27.0.0, SVG Export Plug-In . SVG Version: 6.00 Build 0)  -->
<svg version="1.1" id="Layer_1" xmlns="http://www.w3.org/2000/svg" xmlns:xlink="http://www.w3.org/1999/xlink" x="0px" y="0px"
	 viewBox="0 0 540.2 92" style="enable-background:new 0 0 540.2 92;" xml:space="preserve">
<style type="text/css">
	.st0{fill:#AE3737;}
	.st1{fill:#FFFFFF;}
</style>
<rect class="st0" width="540.2" height="92"/>
<g>
	<path class="st1" d="M124.5,52.9c0,0.3-1.5,10.4-8.3,10.4h-10.7V50h13.9V38.8h-13.9v-10H119c1.5,0.2,2.7,0.8,3.6,1.7
		c1.4,1.4,1.8,3.3,1.9,4.3l0.2,2.3l9.7-0.1V16.7h-15.7H84.8v12.1h5.7v34.4h-5.7v12h49.6V50.7h-9.7L124.5,52.9z"/>
	<path class="st1" d="M234.4,52.8c0,0.3-1.5,10.4-8.3,10.4h-10.7V49.9h13.8V38.8h-13.9v-10h13.5c1.5,0.2,2.7,0.8,3.6,1.7
		c1.4,1.4,1.8,3.3,1.9,4.3l0.2,2.3l9.7-0.1V16.7h-15.7h-33.9v12.1h5.7v34.4h-5.7v12h49.6V50.6h-9.7L234.4,52.8z"/>
	<path class="st1" d="M177.4,49.1c0,0.6-1.2,13.6-6.8,14h-8.7V28.7h5.4V16.6h-27.7v12.1h6.2v34.4h-4.5v12.1h47V46.8h-10.8
		L177.4,49.1z"/>
	<path class="st1" d="M280.9,53.2h8.4v1.3c-0.4,5.8-7.3,6.5-10.2,6.5H279c-2.8,0-7-1.4-10.1-4.5c-2.6-2.6-4.1-6.2-4.1-10.2
		c0.2-7.8,4.6-15.6,13.9-15.6h0.4c2.9,0.1,6.8,1.2,8.8,3.1c0.4,0.4,0.8,0.9,1,1.4l0.7,1.4h12.6V17.8h-13.7v0.5
		c-3-1.1-5.9-1.7-8.8-1.7c-0.4,0-0.7,0-1,0c-0.2,0-0.2,0-0.3,0c-7.5,0-14.5,3-19.5,8.4c-5,5.4-7.7,12.8-7.7,20.8
		c0,8.3,3.1,16,8.8,21.6c4.7,4.7,10.8,7.5,16.6,7.7c5.3,0.2,9-0.3,12.6-1.5v1.5h14.1v-22h5v-11h-27.4V53.2z"/>
	<path class="st1" d="M20.2,42.7h12.2v-2.5c-0.1-5,0.8-8.4,2.5-10.2c1-1.1,2-1.1,2.2-1.1h2.7v34.3h-8.7v12.1h38.8V63.4H58.8V29h1.6
		h0.4c1.5,0,2.6,0.4,3.6,1.4c1.8,1.8,2.7,5,2.9,10l0.1,2.4h11.7V16.9H20.2V42.7z"/>
	<path class="st1" d="M361.3,52c7.7-3.3,11.5-8.9,11.6-17.1c0-4.8-1.4-8.7-4.2-11.6c-6.1-6.1-17.1-6.6-29.9-6.6h-29v12.1h7.6v34.3
		h-7.5v12h31.2l0.1-12.1h-6.4v-7.9h11.7l10,19.9h17.1V63l-6.2-0.1L361.3,52z M334.8,28.8h0.9c1.3,0,2.8,0,4.4,0h1.2
		c4.7,0,5.5,0,5.7,0h0.6c3,0.1,6.8,0.5,8.8,2.5c1,1,1.5,2.5,1.5,4.2c0,4.4-1.7,7.3-9.8,7.3c-1.2,0-2.3,0-3.3,0h-0.3
		c-0.5,0-1,0-1.4,0c-4,0-6.7,0-8.4,0L334.8,28.8z"/>
	<path class="st1" d="M422.8,28.8h6.2v-12h-37.5v12l7-0.1l-15.1,34.4h-4.3v12h28.7v-12h-7.5l1.8-3.9h17.3l1.8,3.9h-7v12.1h28.7v-12
		h-5.1L422.8,28.8z M415.8,50.7h-10.1l5.1-12.5L415.8,50.7z"/>
	<polygon class="st1" points="519.9,27.6 519.9,16.8 493.4,16.8 482.2,39.5 473.3,16.8 445.9,16.8 445.9,27.7 452.2,27.7 
		452.2,63.2 447.2,63.2 447.2,75.2 474.2,75.2 474.2,63.2 469.5,63.2 469.4,47.2 481.5,74.8 496.5,45.5 496.5,63.2 492,63.2 
		492,75.1 519,75.1 519,63.2 513.7,63.2 513.7,27.6 	"/>
</g>
</svg>
