<?xml version="1.0" encoding="UTF-8" standalone="no"?>
<!DOCTYPE svg PUBLIC "-//W3C//DTD SVG 1.1//EN" "http://www.w3.org/Graphics/SVG/1.1/DTD/svg11.dtd">
<svg width="100%" height="100%" viewBox="0 0 731 215" version="1.1" xmlns="http://www.w3.org/2000/svg" xmlns:xlink="http://www.w3.org/1999/xlink" xml:space="preserve" xmlns:serif="http://www.serif.com/" style="fill-rule:evenodd;clip-rule:evenodd;stroke-linejoin:round;stroke-miterlimit:2;">
    <g transform="matrix(1,0,0,1,-122.198,-264.877)">
        <g transform="matrix(0.935382,0,-0.0870448,0.822097,48.3398,86.7219)">
            <rect x="405" y="220.877" width="468" height="254.78" style="fill:rgb(174,55,55);"/>
        </g>
        <g transform="matrix(0.938713,0,0,0.930913,-6.79551,130.103)">
            <path d="M500.031,266.902C492.259,266.902 486.066,264.757 481.451,260.466C476.836,256.175 474.528,250.386 474.528,243.1C474.528,242.29 474.609,240.914 474.771,238.97L478.536,207.881C479.184,202.295 480.985,197.396 483.94,193.186C486.895,188.976 490.68,185.718 495.295,183.41C499.91,181.103 505.051,179.949 510.718,179.949C515.9,179.949 520.414,180.921 524.259,182.864C528.105,184.807 531.08,187.499 533.185,190.94C535.29,194.381 536.343,198.287 536.343,202.659C536.343,203.469 536.262,204.683 536.1,206.302L535.979,207.638C535.817,208.448 535.371,208.853 534.643,208.853L525.656,208.853C525.332,208.853 525.069,208.731 524.867,208.488C524.664,208.245 524.603,207.962 524.684,207.638L524.806,206.545C524.887,205.978 524.927,205.169 524.927,204.116C524.927,199.906 523.551,196.526 520.798,193.976C518.045,191.426 514.281,190.15 509.504,190.15C504.241,190.15 499.829,191.729 496.267,194.887C492.704,198.044 490.599,202.254 489.952,207.517L486.066,239.335C485.985,239.982 485.944,240.873 485.944,242.007C485.944,246.459 487.381,250.022 490.255,252.693C493.129,255.365 496.995,256.701 501.853,256.701C506.954,256.701 511.204,255.305 514.605,252.511C518.005,249.718 519.989,245.893 520.555,241.035L521.77,231.684C521.77,231.36 521.608,231.198 521.284,231.198L505.375,231.198C504.565,231.198 504.241,230.793 504.403,229.984L505.253,222.454C505.334,222.13 505.496,221.847 505.739,221.604C505.982,221.361 506.266,221.24 506.589,221.24L533.185,221.24C533.509,221.24 533.772,221.361 533.975,221.604C534.177,221.847 534.238,222.13 534.157,222.454L532.214,237.877C531.08,247.188 527.639,254.353 521.891,259.373C516.143,264.393 508.856,266.902 500.031,266.902Z" style="fill:white;fill-rule:nonzero;"/>
            <path d="M572.654,267.024C564.801,267.024 558.547,264.797 553.891,260.344C549.236,255.891 546.908,249.9 546.908,242.371C546.908,240.428 546.989,238.93 547.151,237.877L550.673,208.974C551.402,203.226 553.244,198.166 556.199,193.794C559.154,189.422 562.979,186.021 567.675,183.592C572.371,181.164 577.593,179.949 583.341,179.949C591.276,179.949 597.57,182.176 602.226,186.629C606.881,191.081 609.209,197.032 609.209,204.481C609.209,206.424 609.128,207.922 608.966,208.974L605.444,237.877C604.796,243.626 602.975,248.706 599.979,253.119C596.983,257.531 593.138,260.952 588.442,263.38C583.746,265.809 578.484,267.024 572.654,267.024ZM573.869,256.944C579.293,256.944 583.847,255.244 587.531,251.843C591.215,248.443 593.421,243.95 594.15,238.363L597.672,208.853C597.834,207.395 597.915,206.343 597.915,205.695C597.915,200.918 596.498,197.113 593.664,194.279C590.83,191.446 586.985,190.029 582.127,190.029C576.864,190.029 572.371,191.749 568.647,195.19C564.922,198.631 562.737,203.185 562.089,208.853L558.446,238.363C558.284,239.821 558.203,240.873 558.203,241.521C558.203,246.217 559.619,249.961 562.453,252.754C565.287,255.547 569.092,256.944 573.869,256.944Z" style="fill:white;fill-rule:nonzero;"/>
            <path d="M620.381,265.931C619.653,265.931 619.288,265.526 619.288,264.716L629.49,182.135C629.652,181.325 630.097,180.921 630.826,180.921L659.365,180.921C666.813,180.921 672.683,182.783 676.974,186.507C681.265,190.231 683.41,195.291 683.41,201.687C683.41,202.416 683.329,203.59 683.167,205.209L678.674,241.642C677.784,249.01 674.646,254.9 669.262,259.312C663.878,263.725 657.098,265.931 648.921,265.931L620.381,265.931ZM631.797,255.365C631.797,255.689 631.919,255.851 632.161,255.851L650.621,255.851C655.155,255.851 658.96,254.414 662.036,251.54C665.113,248.666 666.975,244.8 667.623,239.942L671.63,206.909C671.711,206.262 671.752,205.331 671.752,204.116C671.752,199.987 670.598,196.769 668.291,194.462C665.983,192.154 662.725,191 658.515,191L640.177,191C639.853,191 639.691,191.162 639.691,191.486L631.797,255.365Z" style="fill:white;fill-rule:nonzero;"/>
            <path d="M693.126,265.931C692.397,265.931 692.033,265.526 692.033,264.716L702.234,182.135C702.396,181.325 702.841,180.921 703.57,180.921L712.557,180.921C712.881,180.921 713.144,181.042 713.346,181.285C713.548,181.528 713.609,181.811 713.528,182.135L703.327,264.716C703.327,265.04 703.206,265.324 702.963,265.566C702.72,265.809 702.436,265.931 702.113,265.931L693.126,265.931Z" style="fill:white;fill-rule:nonzero;"/>
            <path d="M781.536,182.135C781.536,181.811 781.658,181.528 781.901,181.285C782.144,181.042 782.427,180.921 782.751,180.921L791.738,180.921C792.466,180.921 792.831,181.325 792.831,182.135L782.629,264.716C782.467,265.526 782.022,265.931 781.293,265.931L772.671,265.931C772.185,265.931 771.78,265.647 771.457,265.081L742.189,203.023C742.108,202.78 741.986,202.679 741.824,202.72C741.663,202.76 741.582,202.902 741.582,203.145L734.052,264.716C734.052,265.04 733.931,265.324 733.688,265.566C733.445,265.809 733.162,265.931 732.838,265.931L723.851,265.931C723.122,265.931 722.758,265.526 722.758,264.716L732.959,182.135C733.121,181.325 733.566,180.921 734.295,180.921L743.039,180.921C743.606,180.921 744.01,181.204 744.253,181.771L773.4,243.828C773.481,244.071 773.602,244.172 773.764,244.132C773.926,244.091 774.007,243.95 774.007,243.707L781.536,182.135Z" style="fill:white;fill-rule:nonzero;"/>
            <path d="M851.852,265.931C851.609,265.931 851.366,265.85 851.123,265.688C850.88,265.526 850.718,265.283 850.637,264.959L848.087,250.75C848.087,250.508 847.966,250.386 847.723,250.386L814.569,250.386C814.326,250.386 814.164,250.508 814.083,250.75L808.132,264.959C807.728,265.607 807.201,265.931 806.554,265.931L796.96,265.931C796.555,265.931 796.292,265.809 796.17,265.566C796.049,265.324 796.069,265 796.231,264.595L832.178,181.892C832.583,181.245 833.109,180.921 833.757,180.921L845.537,180.921C845.78,180.921 846.023,181.002 846.265,181.164C846.508,181.325 846.67,181.568 846.751,181.892L862.66,264.595L862.66,264.838C862.66,265.566 862.296,265.931 861.567,265.931L851.852,265.931ZM818.212,240.549C818.131,240.711 818.151,240.853 818.273,240.974C818.394,241.096 818.536,241.156 818.698,241.156L845.78,241.156C845.942,241.156 846.083,241.096 846.205,240.974C846.326,240.853 846.346,240.711 846.265,240.549L838.129,195.494C838.129,195.332 838.048,195.251 837.886,195.251C837.724,195.251 837.562,195.332 837.4,195.494L818.212,240.549Z" style="fill:white;fill-rule:nonzero;"/>
        </g>
        <g transform="matrix(0.478992,0,0,0.475012,268.52,3.90117)">
            <path d="M406.66,834.893C407.62,834.893 408.004,835.373 407.812,836.333L406.66,845.549C406.66,845.933 406.516,846.269 406.228,846.557C405.94,846.845 405.556,846.989 405.076,846.989L378.292,846.989C377.908,846.989 377.716,847.181 377.716,847.565L367.06,934.253C366.868,935.213 366.34,935.693 365.476,935.693L354.82,935.693C353.86,935.693 353.476,935.213 353.668,934.253L364.324,847.565C364.324,847.181 364.132,846.989 363.748,846.989L338.26,846.989C337.396,846.989 336.964,846.509 336.964,845.549L338.116,836.333C338.308,835.373 338.836,834.893 339.7,834.893L406.66,834.893Z" style="fill:white;fill-rule:nonzero;"/>
            <path d="M488.308,845.405C488.116,846.365 487.588,846.845 486.724,846.845L437.188,846.845C436.804,846.845 436.612,847.037 436.612,847.421L432.724,878.381C432.724,878.765 432.916,878.957 433.3,878.957L467.284,878.957C468.148,878.957 468.58,879.437 468.58,880.397L467.428,889.469C467.236,890.429 466.708,890.909 465.844,890.909L431.716,890.909C431.332,890.909 431.14,891.101 431.14,891.485L427.252,923.165C427.252,923.549 427.396,923.741 427.684,923.741L477.364,923.741C478.324,923.741 478.708,924.221 478.516,925.181L477.364,934.253C477.364,934.637 477.22,934.973 476.932,935.261C476.644,935.549 476.26,935.693 475.78,935.693L413.716,935.693C412.852,935.693 412.42,935.213 412.42,934.253L424.516,836.333C424.708,835.373 425.236,834.893 426.1,834.893L488.164,834.893C488.644,834.893 489.004,835.037 489.244,835.325C489.484,835.613 489.556,835.949 489.46,836.333L488.308,845.405Z" style="fill:white;fill-rule:nonzero;"/>
            <path d="M497.236,935.693C496.372,935.693 495.94,935.213 495.94,934.253L508.036,836.333C508.228,835.373 508.756,834.893 509.62,834.893L520.276,834.893C520.66,834.893 520.972,835.037 521.212,835.325C521.452,835.613 521.524,835.949 521.428,836.333L510.772,923.165C510.772,923.549 510.916,923.741 511.204,923.741L559.444,923.741C560.404,923.741 560.788,924.221 560.596,925.181L559.588,934.253C559.396,935.213 558.868,935.693 558.004,935.693L497.236,935.693Z" style="fill:white;fill-rule:nonzero;"/>
            <path d="M651.316,845.405C651.124,846.365 650.596,846.845 649.732,846.845L600.196,846.845C599.812,846.845 599.62,847.037 599.62,847.421L595.732,878.381C595.732,878.765 595.924,878.957 596.308,878.957L630.292,878.957C631.156,878.957 631.588,879.437 631.588,880.397L630.436,889.469C630.244,890.429 629.716,890.909 628.852,890.909L594.724,890.909C594.34,890.909 594.148,891.101 594.148,891.485L590.26,923.165C590.26,923.549 590.404,923.741 590.692,923.741L640.372,923.741C641.332,923.741 641.716,924.221 641.524,925.181L640.372,934.253C640.372,934.637 640.228,934.973 639.94,935.261C639.652,935.549 639.268,935.693 638.788,935.693L576.724,935.693C575.86,935.693 575.428,935.213 575.428,934.253L587.524,836.333C587.716,835.373 588.244,834.893 589.108,834.893L651.172,834.893C651.652,834.893 652.012,835.037 652.252,835.325C652.492,835.613 652.564,835.949 652.468,836.333L651.316,845.405Z" style="fill:white;fill-rule:nonzero;"/>
            <path d="M690.052,936.845C680.836,936.845 673.492,934.301 668.02,929.213C662.548,924.125 659.812,917.261 659.812,908.621C659.812,907.661 659.908,906.029 660.1,903.725L664.564,866.861C665.332,860.237 667.468,854.429 670.972,849.437C674.476,844.445 678.964,840.581 684.436,837.845C689.908,835.109 696.004,833.741 702.724,833.741C708.868,833.741 714.22,834.893 718.78,837.197C723.34,839.501 726.868,842.693 729.364,846.773C731.86,850.853 733.108,855.485 733.108,860.669C733.108,861.629 733.012,863.069 732.82,864.989L732.676,866.573C732.484,867.533 731.956,868.013 731.092,868.013L720.436,868.013C720.052,868.013 719.74,867.869 719.5,867.581C719.26,867.293 719.188,866.957 719.284,866.573L719.428,865.277C719.524,864.605 719.572,863.645 719.572,862.397C719.572,857.405 717.94,853.397 714.676,850.373C711.412,847.349 706.948,845.837 701.284,845.837C695.044,845.837 689.812,847.709 685.588,851.453C681.364,855.197 678.868,860.189 678.1,866.429L673.492,904.157C673.396,904.925 673.348,905.981 673.348,907.325C673.348,912.605 675.052,916.829 678.46,919.997C681.868,923.165 686.452,924.749 692.212,924.749C698.26,924.749 703.3,923.093 707.332,919.781C711.364,916.469 713.716,911.933 714.388,906.173L715.828,895.085C715.828,894.701 715.636,894.509 715.252,894.509L696.388,894.509C695.428,894.509 695.044,894.029 695.236,893.069L696.244,884.141C696.34,883.757 696.532,883.421 696.82,883.133C697.108,882.845 697.444,882.701 697.828,882.701L729.364,882.701C729.748,882.701 730.06,882.845 730.3,883.133C730.54,883.421 730.612,883.757 730.516,884.141L728.212,902.429C726.868,913.469 722.788,921.965 715.972,927.917C709.156,933.869 700.516,936.845 690.052,936.845Z" style="fill:white;fill-rule:nonzero;"/>
            <path d="M800.212,935.693C799.54,935.693 799.06,935.357 798.772,934.685L784.516,891.629C784.516,891.341 784.372,891.197 784.084,891.197L763.924,891.197C763.54,891.197 763.348,891.389 763.348,891.773L758.02,934.253C758.02,934.637 757.876,934.973 757.588,935.261C757.3,935.549 756.964,935.693 756.58,935.693L745.924,935.693C745.06,935.693 744.628,935.213 744.628,934.253L756.724,836.333C756.916,835.373 757.444,834.893 758.308,834.893L795.892,834.893C803.476,834.893 809.5,837.077 813.964,841.445C818.428,845.813 820.66,851.645 820.66,858.941C820.66,859.901 820.564,861.437 820.372,863.549C819.604,870.269 817.228,875.957 813.244,880.613C809.26,885.269 804.148,888.413 797.908,890.045C797.62,890.141 797.476,890.381 797.476,890.765L812.452,933.965L812.596,934.541C812.596,935.309 812.164,935.693 811.3,935.693L800.212,935.693ZM769.396,846.845C769.012,846.845 768.82,847.037 768.82,847.421L764.788,879.677C764.788,880.061 764.932,880.253 765.22,880.253L788.548,880.253C793.924,880.253 798.364,878.453 801.868,874.853C805.372,871.253 807.124,866.621 807.124,860.957C807.124,856.637 805.828,853.205 803.236,850.661C800.644,848.117 797.14,846.845 792.724,846.845L769.396,846.845Z" style="fill:white;fill-rule:nonzero;"/>
            <path d="M893.524,935.693C893.236,935.693 892.948,935.597 892.66,935.405C892.372,935.213 892.18,934.925 892.084,934.541L889.06,917.693C889.06,917.405 888.916,917.261 888.628,917.261L849.316,917.261C849.028,917.261 848.836,917.405 848.74,917.693L841.684,934.541C841.204,935.309 840.58,935.693 839.812,935.693L828.436,935.693C827.956,935.693 827.644,935.549 827.5,935.261C827.356,934.973 827.38,934.589 827.572,934.109L870.196,836.045C870.676,835.277 871.3,834.893 872.068,834.893L886.036,834.893C886.324,834.893 886.612,834.989 886.9,835.181C887.188,835.373 887.38,835.661 887.476,836.045L906.34,934.109L906.34,934.397C906.34,935.261 905.908,935.693 905.044,935.693L893.524,935.693ZM853.636,905.597C853.54,905.789 853.564,905.957 853.708,906.101C853.852,906.245 854.02,906.317 854.212,906.317L886.324,906.317C886.516,906.317 886.684,906.245 886.828,906.101C886.972,905.957 886.996,905.789 886.9,905.597L877.252,852.173C877.252,851.981 877.156,851.885 876.964,851.885C876.772,851.885 876.58,851.981 876.388,852.173L853.636,905.597Z" style="fill:white;fill-rule:nonzero;"/>
            <path d="M997.78,835.757C998.26,835.181 998.836,834.893 999.508,834.893L1010.16,834.893C1011.12,834.893 1011.51,835.373 1011.32,836.333L999.364,934.253C999.172,935.213 998.644,935.693 997.78,935.693L987.124,935.693C986.164,935.693 985.78,935.213 985.972,934.253L995.044,860.525C995.044,860.237 994.948,860.045 994.756,859.949C994.564,859.853 994.42,859.949 994.324,860.237L970.564,891.629C969.988,892.205 969.364,892.493 968.692,892.493L963.364,892.493C962.788,892.493 962.26,892.205 961.78,891.629L945.508,860.525C945.412,860.237 945.292,860.141 945.148,860.237C945.004,860.333 944.884,860.525 944.788,860.813L935.716,934.253C935.716,934.637 935.572,934.973 935.284,935.261C934.996,935.549 934.66,935.693 934.276,935.693L923.62,935.693C922.756,935.693 922.324,935.213 922.324,934.253L934.42,836.333C934.612,835.373 935.14,834.893 936.004,834.893L946.66,834.893C947.428,834.893 947.908,835.181 948.1,835.757L967.972,873.485C968.068,873.581 968.212,873.629 968.404,873.629C968.596,873.629 968.74,873.581 968.836,873.485L997.78,835.757Z" style="fill:white;fill-rule:nonzero;"/>
            <path d="M1081.44,935.693C1081.16,935.693 1080.87,935.597 1080.58,935.405C1080.29,935.213 1080.1,934.925 1080,934.541L1076.98,917.693C1076.98,917.405 1076.84,917.261 1076.55,917.261L1037.24,917.261C1036.95,917.261 1036.76,917.405 1036.66,917.693L1029.6,934.541C1029.12,935.309 1028.5,935.693 1027.73,935.693L1016.36,935.693C1015.88,935.693 1015.56,935.549 1015.42,935.261C1015.28,934.973 1015.3,934.589 1015.49,934.109L1058.12,836.045C1058.6,835.277 1059.22,834.893 1059.99,834.893L1073.96,834.893C1074.24,834.893 1074.53,834.989 1074.82,835.181C1075.11,835.373 1075.3,835.661 1075.4,836.045L1094.26,934.109L1094.26,934.397C1094.26,935.261 1093.83,935.693 1092.96,935.693L1081.44,935.693ZM1041.56,905.597C1041.46,905.789 1041.48,905.957 1041.63,906.101C1041.77,906.245 1041.94,906.317 1042.13,906.317L1074.24,906.317C1074.44,906.317 1074.6,906.245 1074.75,906.101C1074.89,905.957 1074.92,905.789 1074.82,905.597L1065.17,852.173C1065.17,851.981 1065.08,851.885 1064.88,851.885C1064.69,851.885 1064.5,851.981 1064.31,852.173L1041.56,905.597Z" style="fill:white;fill-rule:nonzero;"/>
        </g>
        <g transform="matrix(4.77669,0,0,4.737,-1909.24,-1631.33)">
            <path d="M435.325,401.605C435.53,401.482 435.836,401.421 436.244,401.421L443.411,401.421C443.615,401.421 443.779,401.492 443.901,401.635C444.024,401.778 444.065,401.952 444.024,402.156L438.94,443.565C438.899,443.77 438.807,443.943 438.664,444.086C438.521,444.229 438.347,444.3 438.143,444.3L431.221,444.3C430.772,444.3 430.547,444.055 430.547,443.565L434.713,409.997C434.713,409.915 434.672,409.833 434.59,409.752C434.509,409.67 434.427,409.65 434.345,409.69L428.281,411.344L428.036,411.406C427.668,411.406 427.525,411.181 427.607,410.732L428.036,405.464C428.118,405.096 428.342,404.81 428.71,404.606L435.325,401.605Z" style="fill:white;fill-rule:nonzero;"/>
            <path d="M458.97,444.974C455.009,444.974 451.926,443.933 449.721,441.85C447.515,439.767 446.413,436.888 446.413,433.213C446.413,432.233 446.454,431.477 446.535,430.947L448.496,414.775C449.026,410.528 450.711,407.159 453.549,404.667C456.388,402.176 459.991,400.931 464.361,400.931C468.322,400.931 471.416,401.962 473.641,404.024C475.867,406.087 476.98,408.915 476.98,412.508C476.98,413.488 476.939,414.244 476.857,414.775L474.897,430.947C474.366,435.275 472.672,438.695 469.813,441.207C466.954,443.719 463.34,444.974 458.97,444.974ZM459.889,437.562C461.645,437.562 463.116,437.011 464.3,435.908C465.484,434.806 466.199,433.295 466.444,431.375L468.527,414.53C468.567,414.285 468.588,413.958 468.588,413.55C468.588,411.916 468.139,410.64 467.24,409.721C466.342,408.802 465.076,408.343 463.442,408.343C461.686,408.343 460.216,408.904 459.032,410.027C457.847,411.15 457.153,412.651 456.949,414.53L454.866,431.375C454.825,431.62 454.805,431.988 454.805,432.478C454.805,434.071 455.254,435.316 456.153,436.215C457.051,437.113 458.297,437.562 459.889,437.562Z" style="fill:white;fill-rule:nonzero;"/>
        </g>
    </g>
</svg>
