<?xml version="1.0" encoding="utf-8"?>
<!-- Generator: Adobe Illustrator 24.1.2, SVG Export Plug-In . SVG Version: 6.00 Build 0)  -->
<svg version="1.1" id="Layer_1" xmlns="http://www.w3.org/2000/svg" xmlns:xlink="http://www.w3.org/1999/xlink" x="0px" y="0px"
	 viewBox="0 0 401.8 142.2" style="enable-background:new 0 0 401.8 142.2;" xml:space="preserve">
<style type="text/css">
	.st0{fill:#FFFFFF;}
	.st1{clip-path:url(#SVGID_4_);fill:#FFFFFF;stroke:#FFFFFF;stroke-miterlimit:10;}
	.st2{fill:#FFFFFF;stroke:#FFFFFF;stroke-miterlimit:10;}
	.st3{fill:none;stroke:#FFFFFF;stroke-width:8;stroke-miterlimit:10;}
</style>
<g id="Layer_1_1_">
	<path class="st0" d="M392.4,66V48l-5.7,12.7h-5L376,48v18h-9.3V31.8h10.2l7.3,16.1l7.4-16.1h10.2V66H392.4z M352.2,59.3h-9.1
		l-2,6.7h-9.6h-0.3H321l-6.5-10.5H311V66h-9.3V31.8h15.6c1.7,0,3.2,0.3,4.6,1s2.6,1.6,3.6,2.7c1,1.1,1.8,2.4,2.4,3.8
		c0.6,1.4,0.9,2.9,0.9,4.3c0,2-0.4,3.8-1.3,5.6c-0.9,1.7-2.1,3.1-3.6,4.2l7.5,12.3l12.5-33.9h7.6L364.1,66h-9.9L352.2,59.3z
		 M318.4,40.9c-0.6-0.6-1.1-0.9-1.7-0.9H311v7.3h5.9c0.6,0,1.1-0.3,1.6-1c0.5-0.6,0.7-1.5,0.7-2.7C319.3,42.5,319,41.6,318.4,40.9z
		 M347.7,41.6l-3.2,11.5h6.2L347.7,41.6z M289.4,63.2c-2.1,2-4.6,3-7.4,3c-2.1,0-4.1-0.5-6-1.4s-3.5-2.2-5-3.8
		c-1.4-1.6-2.5-3.5-3.4-5.6c-0.8-2.1-1.2-4.4-1.2-6.8c0-2.4,0.4-4.6,1.3-6.7c0.8-2.1,2-3.9,3.5-5.4s3.2-2.7,5.2-3.6
		c2-0.9,4.2-1.3,6.5-1.3c1.4,0,2.8,0.2,4.1,0.5c1.3,0.3,2.5,0.8,3.6,1.5s2.1,1.4,3,2.4c0.9,0.9,1.6,1.9,2.2,3.1l-6.9,5.3
		c-0.6-1.3-1.4-2.4-2.6-3.2s-2.4-1.2-3.7-1.2c-1,0-1.8,0.2-2.7,0.7c-0.8,0.5-1.5,1.1-2.1,1.9c-0.6,0.8-1.1,1.8-1.4,2.9
		c-0.3,1.1-0.5,2.3-0.5,3.6s0.2,2.6,0.5,3.7c0.3,1.1,0.8,2,1.4,2.8s1.3,1.4,2.2,1.8c0.8,0.4,1.8,0.6,2.8,0.6c1.2,0,2.3-0.3,3.3-0.9
		c1.1-0.6,2.1-1.4,3-2.5h-6v-6.8h14V66h-7.7L289.4,63.2L289.4,63.2z M240.1,31.8h23.8V40h-14.5v4.8h12.4v7.6h-12.4v5.4h15V66h-24.2
		L240.1,31.8L240.1,31.8z M212,31.8h9.3v26h15.4V66h-24.8L212,31.8L212,31.8z M183.4,31.8h23.8V40h-14.5v4.8h12.4v7.6h-12.4v5.4
		h14.9V66h-24.2V31.8z M170.2,66h-9.3V40h-9.8v-8.2H180V40h-9.8V66z"/>
	<path class="st0" d="M329.3,98.8c-0.8,2.1-1.9,3.9-3.4,5.5s-3.2,2.9-5.2,3.8c-2,1-4.2,1.4-6.6,1.4s-4.6-0.5-6.6-1.5
		s-3.7-2.3-5.1-3.9s-2.5-3.5-3.3-5.6s-1.2-4.2-1.2-6.4s0.4-4.4,1.2-6.5c0.8-2.1,2-3.9,3.4-5.5c1.5-1.6,3.2-2.9,5.2-3.8
		s4.2-1.4,6.6-1.4s4.6,0.5,6.6,1.5s3.7,2.3,5.1,3.9s2.5,3.5,3.3,5.6s1.1,4.2,1.1,6.4C330.6,94.6,330.1,96.8,329.3,98.8z M320.6,88.8
		c-0.3-1.1-0.7-2-1.3-2.8s-1.3-1.5-2.1-2c-0.9-0.5-1.9-0.7-3-0.7c-1.2,0-2.2,0.3-3,0.8s-1.5,1.2-2.1,2s-1,1.8-1.2,2.9
		c-0.3,1.1-0.4,2.2-0.4,3.3c0,1.2,0.1,2.3,0.4,3.3c0.3,1.1,0.7,2,1.3,2.9c0.6,0.8,1.3,1.5,2.2,2s1.9,0.8,3,0.8
		c1.2,0,2.2-0.3,3.1-0.8s1.6-1.2,2.1-2.1s0.9-1.8,1.2-2.9c0.3-1.1,0.4-2.2,0.4-3.3C321.1,91,320.9,89.9,320.6,88.8z M284.6,75.1h9.3
		v34.2h-9.3V75.1z M275.7,104.6c-1.5,1.5-3.3,2.6-5.4,3.5c-2.1,0.8-4.5,1.2-7,1.2h-13.1V75.1h13.1c2.8,0,5.3,0.5,7.4,1.3
		c2.1,0.9,3.9,2.1,5.4,3.7c1.4,1.5,2.5,3.3,3.3,5.4c0.7,2.1,1.1,4.3,1.1,6.6c0,2.6-0.4,4.9-1.2,7.1
		C278.4,101.3,277.2,103.1,275.7,104.6z M270.4,88.6c-0.4-1.1-0.9-2-1.5-2.8c-0.7-0.8-1.5-1.4-2.4-1.8c-1-0.4-2-0.6-3.2-0.6h-3.7
		v17.8h3.7c1.2,0,2.3-0.2,3.3-0.7c1-0.4,1.8-1.1,2.4-1.9c0.7-0.8,1.1-1.7,1.5-2.8c0.3-1.1,0.5-2.3,0.5-3.6
		C271,90.9,270.8,89.7,270.4,88.6z M241.2,104.7c-1.3,1.5-2.9,2.7-4.8,3.6c-1.9,0.9-4.2,1.3-6.8,1.3c-2.7,0-5-0.5-7-1.4
		c-1.9-0.9-3.5-2.1-4.8-3.7c-1.2-1.5-2.2-3.3-2.7-5.4c-0.6-2-0.9-4.2-0.9-6.5V75h9.3v17.6c0,1.1,0.1,2.2,0.3,3.2s0.6,2,1.1,2.7
		c0.5,0.8,1.1,1.4,1.8,1.9c0.8,0.5,1.7,0.7,2.8,0.7s2-0.2,2.8-0.7s1.4-1.1,1.9-1.9s0.8-1.7,1.1-2.7c0.2-1,0.3-2.1,0.3-3.2V75h9.3
		v17.6c0,2.4-0.3,4.6-0.9,6.7C243.4,101.4,242.4,103.2,241.2,104.7z M201.5,109.3h-9.3v-26h-9.8v-8.2h28.9v8.2h-9.8
		C201.5,83.3,201.5,109.3,201.5,109.3z M176.6,107.4c-1.2,0.8-2.6,1.4-4.2,1.8c-1.6,0.4-3.1,0.6-4.7,0.6c-1.2,0-2.5-0.1-3.8-0.3
		s-2.6-0.5-3.9-0.8c-1.3-0.4-2.5-0.8-3.7-1.3s-2.3-1-3.3-1.6l4-8.2c1.1,0.7,2.3,1.3,3.5,1.9c1,0.5,2.2,0.9,3.5,1.3s2.6,0.6,4,0.6
		c1,0,1.7-0.1,2.1-0.4c0.4-0.3,0.6-0.6,0.6-1.1s-0.2-0.9-0.6-1.2c-0.4-0.3-1-0.6-1.7-0.9s-1.5-0.5-2.4-0.8s-1.9-0.6-2.9-0.9
		c-1.5-0.5-2.8-1.1-3.9-1.7c-1.1-0.6-2-1.3-2.7-2c-0.7-0.8-1.2-1.6-1.6-2.6c-0.3-1-0.5-2.1-0.5-3.3c0-1.9,0.3-3.6,1-5
		s1.6-2.6,2.8-3.6s2.5-1.7,4-2.2s3.1-0.7,4.8-0.7c1.2,0,2.5,0.1,3.6,0.4c1.2,0.2,2.3,0.5,3.4,0.9c1.1,0.4,2.1,0.8,3.1,1.2
		s1.8,0.8,2.6,1.2l-4,7.7c-1-0.6-1.9-1.1-3-1.5c-0.9-0.4-1.8-0.7-2.9-1.1c-1.1-0.3-2.1-0.5-3.1-0.5c-0.8,0-1.5,0.1-2,0.4
		S164,84.4,164,85c0,0.5,0.1,0.8,0.4,1.1s0.7,0.6,1.2,0.8s1.2,0.5,2,0.7s1.7,0.5,2.7,0.8c1.6,0.5,3,1,4.2,1.6s2.3,1.3,3.2,2
		c0.9,0.8,1.6,1.7,2.1,2.9c0.5,1.1,0.7,2.5,0.7,4.1c0,2.1-0.4,3.8-1.1,5.2C178.8,105.4,177.8,106.6,176.6,107.4z"/>
</g>
<g id="Layer_4">
</g>
<g id="Layer_2_1_">
	<g>
		<g>
			<path id="SVGID_2_" class="st0" d="M40.1,57h29.3v12.8h-5.2V69c-0.1-2.8-0.6-4.7-1.7-5.7c-0.6-0.6-1.3-0.9-2.3-0.9H60h-0.9h-0.5
				v19.5h6v5.3H44.8v-5.4h4.7V62.4h-0.9c-0.1,0-0.9,0-1.6,0.7c-1,1.1-1.6,3-1.5,5.8v0.8h-5.4V57z M89.2,70.5h13.6v4.9h-2.7v11.8
				h-6.5v-1c-2.1,0.9-4.1,1.1-7.3,1c-3-0.1-6.1-1.5-8.5-3.9c-2.9-2.9-4.5-6.9-4.5-11.2c0-4.1,1.4-8,4-10.7c2.6-2.8,6.2-4.4,10-4.4
				c0,0,0.1,0,0.2,0c0.2,0,0.3,0,0.5,0c1.7,0,3.5,0.4,5.3,1.2v-0.5h6.3l-0.1,9h-5.9l-0.2-0.4c-0.2-0.3-0.4-0.6-0.6-0.9
				c-1.2-1.2-3.5-1.8-5.1-1.9h-0.2c-5.3,0-7.9,4.4-8,8.9c0,2.3,0.9,4.3,2.4,5.8c1.8,1.8,4.2,2.5,5.8,2.5h0.1c1.7,0,5.7-0.4,6-4v-1.3
				h-4.5L89.2,70.5z"/>
		</g>
		<g>
			<g>
				<defs>
					<path id="SVGID_3_" d="M40.1,57h29.3v12.8h-5.2V69c-0.1-2.8-0.6-4.7-1.7-5.7c-0.6-0.6-1.3-0.9-2.3-0.9H60h-0.9h-0.5v19.5h6v5.3
						H44.8v-5.4h4.7V62.4h-0.9c-0.1,0-0.9,0-1.6,0.7c-1,1.1-1.6,3-1.5,5.8v0.8h-5.4V57z M89.2,70.5h13.6v4.9h-2.7v11.8h-6.5v-1
						c-2.1,0.9-4.1,1.1-7.3,1c-3-0.1-6.1-1.5-8.5-3.9c-2.9-2.9-4.5-6.9-4.5-11.2c0-4.1,1.4-8,4-10.7c2.6-2.8,6.2-4.4,10-4.4
						c0,0,0.1,0,0.2,0c0.2,0,0.3,0,0.5,0c1.7,0,3.5,0.4,5.3,1.2v-0.5h6.3l-0.1,9h-5.9l-0.2-0.4c-0.2-0.3-0.4-0.6-0.6-0.9
						c-1.2-1.2-3.5-1.8-5.1-1.9h-0.2c-5.3,0-7.9,4.4-8,8.9c0,2.3,0.9,4.3,2.4,5.8c1.8,1.8,4.2,2.5,5.8,2.5h0.1c1.7,0,5.7-0.4,6-4
						v-1.3h-4.5L89.2,70.5z"/>
				</defs>
				<use xlink:href="#SVGID_3_"  style="overflow:visible;fill:#FFFFFF;"/>
				<clipPath id="SVGID_4_">
					<use xlink:href="#SVGID_3_"  style="overflow:visible;"/>
				</clipPath>
				<rect x="2.5" y="2.5" class="st1" width="137.9" height="137.1"/>
			</g>
		</g>
		<g>
			<path id="SVGID_1_" class="st2" d="M40.1,57h29.3v12.8h-5.2V69c-0.1-2.8-0.6-4.7-1.7-5.7c-0.6-0.6-1.3-0.9-2.3-0.9H60h-0.9h-0.5
				v19.5h6v5.3H44.8v-5.4h4.7V62.4h-0.9c-0.1,0-0.9,0-1.6,0.7c-1,1.1-1.6,3-1.5,5.8v0.8h-5.4V57z M89.2,70.5h13.6v4.9h-2.7v11.8
				h-6.5v-1c-2.1,0.9-4.1,1.1-7.3,1c-3-0.1-6.1-1.5-8.5-3.9c-2.9-2.9-4.5-6.9-4.5-11.2c0-4.1,1.4-8,4-10.7c2.6-2.8,6.2-4.4,10-4.4
				c0,0,0.1,0,0.2,0c0.2,0,0.3,0,0.5,0c1.7,0,3.5,0.4,5.3,1.2v-0.5h6.3l-0.1,9h-5.9l-0.2-0.4c-0.2-0.3-0.4-0.6-0.6-0.9
				c-1.2-1.2-3.5-1.8-5.1-1.9h-0.2c-5.3,0-7.9,4.4-8,8.9c0,2.3,0.9,4.3,2.4,5.8c1.8,1.8,4.2,2.5,5.8,2.5h0.1c1.7,0,5.7-0.4,6-4v-1.3
				h-4.5L89.2,70.5z"/>
		</g>
	</g>
</g>
<g id="Layer_3">
	<path class="st3" d="M71.1,136.5L5.7,71.1L71.1,5.7l65.4,65.4L71.1,136.5z"/>
</g>
</svg>
