<?xml version="1.0" encoding="utf-8"?>
<!-- Generator: Adobe Illustrator 26.0.1, SVG Export Plug-In . SVG Version: 6.00 Build 0)  -->
<svg version="1.1" id="Layer_1" xmlns="http://www.w3.org/2000/svg" xmlns:xlink="http://www.w3.org/1999/xlink" x="0px" y="0px"
	 viewBox="0 0 61.6 61.6" style="enable-background:new 0 0 61.6 61.6;" xml:space="preserve">
<style type="text/css">
	.st0{fill:#0C1110;}
</style>
<g id="XMLID_10_">
	<g id="XMLID_11_">
		<path id="XMLID_17_" class="st0" d="M58.6,3v55.6H3V3H58.6 M61.6,0H0v61.6h61.6V0L61.6,0z"/>
		<g id="XMLID_12_">
			<path id="XMLID_14_" class="st0" d="M12.8,29.5h3.1V29c0-1.6,0.3-2.7,0.9-3.4c0.4-0.4,0.8-0.4,0.9-0.4h0.5v11.2h-2.7v3.1h11.3
				v-3.1h-3.4V25.2h0.3h0.5h0.1c0.5,0,1,0.2,1.3,0.5c0.6,0.6,0.9,1.7,1,3.3v0.4h3V22H12.8V29.5z"/>
			<path id="XMLID_13_" class="st0" d="M41,32.7h2.6v0.7c-0.2,2-2.5,2.3-3.5,2.3l0,0c-0.9,0-2.3-0.5-3.3-1.5c-0.9-0.9-1.3-2-1.4-3.4
				c0.1-2.5,1.5-5.1,4.6-5.1h0.1c0.9,0,2.2,0.4,2.9,1.1c0.2,0.2,0.3,0.3,0.4,0.5l0.1,0.3h3.4l0.1-5.2h-3.6v0.3c-1-0.5-2-0.7-3-0.7
				c-0.1,0-0.2,0-0.3,0S40,22,40,22c-2.2,0-4.3,0.9-5.8,2.5s-2.3,3.8-2.3,6.2c0,2.5,0.9,4.8,2.6,6.4c1.4,1.4,3.2,2.2,4.9,2.3
				c1.8,0.1,3-0.1,4.2-0.6v0.6h3.7v-6.8h1.5v-2.8H41L41,32.7z"/>
		</g>
	</g>
</g>
</svg>
