<?xml version="1.0" encoding="utf-8"?>
<!-- Generator: Adobe Illustrator 25.4.1, SVG Export Plug-In . SVG Version: 6.00 Build 0)  -->
<svg version="1.1" id="Layer_1" xmlns="http://www.w3.org/2000/svg" xmlns:xlink="http://www.w3.org/1999/xlink" x="0px" y="0px"
	 viewBox="0 0 231 323.3" style="enable-background:new 0 0 231 323.3;" xml:space="preserve">
<style type="text/css">
	.st0{fill:#FFFFFF;}
</style>
<g>
	<path class="st0" d="M216.9,48.8c-9.4-15.6-22.8-27.6-40.1-36.1C159.4,4.2,138.9,0,115.3,0L16.8,0C7.5,0,0,8.1,0,18.1
		c0,6.1,0,12.1,0,18.2c0,10,7.5,18.1,16.8,18.1c15,0,29.9-0.1,44.9-0.1h50.2c18.5,0,32.6,4.3,42.2,12.9c9.6,8.6,14.5,21,14.5,37.1
		c0,15.9-4.8,28.1-14.5,36.7c-9.6,8.6-23.7,12.9-42.2,12.9H61.7L38.7,154C17.3,154.2,0,172.9,0,196c0,10.9,0,22.8,0,34.3
		c0,3.9,2.9,7.1,6.6,7.1l56.5,0c3.6,0,6.6-3.2,6.6-7.1V226c0-10,7.5-18.1,16.8-18.1h28.9c23.6,0,44.1-4.2,61.5-12.5
		c17.4-8.3,30.8-20.4,40.1-36.1c9.4-15.7,14.1-34.1,14.1-55.2C231,82.9,226.3,64.4,216.9,48.8z"/>
</g>
<g>
	<path class="st0" d="M65.5,298.4H48.8c-2.4,0-4.4,2-4.4,4.4v16.2c0,2.4-2,4.4-4.4,4.4H29.8c-2.4,0-4.4-2-4.4-4.4v-16.2
		c0-2.4-2-4.4-4.4-4.4H4.5c-2.4,0-4.4-2-4.4-4.4v-9.2c0-2.4,2-4.4,4.4-4.4h16.6c2.4,0,4.4-2,4.4-4.4v-16.2c0-2.4,2-4.4,4.4-4.4H40
		c2.4,0,4.4,2,4.4,4.4v16.2c0,2.4,2,4.4,4.4,4.4h16.8c2.4,0,4.4,2,4.4,4.4v9.2C69.9,296.4,67.9,298.4,65.5,298.4z"/>
</g>
<g>
</g>
<g>
</g>
<g>
</g>
<g>
</g>
<g>
</g>
<g>
</g>
<g>
</g>
<g>
</g>
<g>
</g>
<g>
</g>
<g>
</g>
<g>
</g>
<g>
</g>
<g>
</g>
<g>
</g>
</svg>
