<?xml version="1.0" encoding="utf-8" standalone="yes"?><!-- Generator: Adobe Illustrator 25.2.0, SVG Export Plug-In . SVG Version: 6.00 Build 0)  --><svg xmlns="http://www.w3.org/2000/svg" xmlns:xlink="http://www.w3.org/1999/xlink" version="1.2" baseProfile="tiny-ps" viewBox="0 0 512 512" xml:space="preserve"><title>Telegram.hr</title><rect fill="#212121" width="512" height="512"></rect><g><path fill="#FCF1E7" d="M350.9,246.4h23.5v3.6c-1.1,16.2-20.4,18.2-28.5,18.2h-0.3c-7.8,0-19.6-3.9-28.2-12.6   c-7.3-7.3-11.5-17.3-11.5-28.5c0.6-21.8,12.9-43.6,38.8-43.6h1.1c8.1,0.3,19,3.4,24.6,8.7c1.1,1.1,2.2,2.5,2.8,3.9l2,3.9h35.2   v-52.5h-38.3v1.4c-8.4-3.1-16.5-4.8-24.6-4.8c-1.1,0-2,0-2.8,0c-0.6,0-0.6,0-0.8,0c-21,0-40.5,8.4-54.5,23.5   c-14,15.1-21.5,35.8-21.5,58.1c0,23.2,8.7,44.7,24.6,60.4c13.1,13.1,30.2,21,46.4,21.5c14.8,0.6,25.1-0.8,35.2-4.2v4.2h39.4v-61.5   h14v-30.7h-76.6V246.4z"></path><path fill="#FCF1E7" d="M84.6,217.1h34.1v-7c-0.3-14,2.2-23.5,7-28.5c2.8-3.1,5.6-3.1,6.1-3.1h7.5v95.8H115v33.8h108.4v-33.3h-31   v-96.1h4.5h1.1c4.2,0,7.3,1.1,10.1,3.9c5,5,7.5,14,8.1,27.9l0.3,6.7h32.7V145H84.6V217.1z"></path></g><rect x="91.7" y="363.9" fill="#AE3737" width="330.9" height="25.3"></rect></svg>