<?xml version="1.0" encoding="utf-8"?>
<!-- Generator: Adobe Illustrator 27.0.0, SVG Export Plug-In . SVG Version: 6.00 Build 0)  -->
<svg version="1.1" xmlns="http://www.w3.org/2000/svg" xmlns:xlink="http://www.w3.org/1999/xlink" x="0px" y="0px"
	 viewBox="0 0 1642.6 1980.7" style="enable-background:new 0 0 1642.6 1980.7;" xml:space="preserve">
<style type="text/css">
	.st0{fill:none;stroke:#FFFFFF;stroke-width:75;stroke-miterlimit:10;}
	.st1{fill:#FFFFFF;}
</style>
<g id="Layer_1" xmlns:serif="http://www.serif.com/">
	<path class="st0" d="M1526.6,757.6c0-389.4-315.9-705.3-705.3-705.3S116,368.3,116,757.6c0,321.1,429.8,892.6,618.2,1128.5
		c45.2,56.2,128.9,56.2,174.1,0l0,0C1096.8,1650.3,1526.6,1078.7,1526.6,757.6z"/>
	<g>
		<path class="st1" d="M776.8,1169.2v-103.7c0-43.6,10.6-79.5,31.9-107.7c21.3-28.2,53.7-59.8,97.3-94.9
			c30.8-24.4,55.5-46,74.2-64.6s34.3-41.2,47.1-67.8s19.2-58,19.2-94.1c0-58.5-18.1-105.3-54.3-140.4c-36.2-35.1-84-52.6-143.6-52.6
			c-59.6,0-108,17.8-145.2,53.5c-37.2,35.6-55.8,82.7-55.8,141.2v54.2c0,10.7-5.3,16-16,16L579,705c-10.6,0-15.9-5.3-15.9-16v-51
			c0-80.8,26.6-146.5,79.8-197c53.2-50.5,122.3-75.8,207.4-75.8c85.1,0,153.1,24.7,204.2,74.2c51,49.4,76.6,115.7,76.6,198.6
			c0,46.8-7.5,87.2-22.3,121.2c-14.9,34-33.2,62-55,83.8c-21.8,21.8-49.2,46-82.2,72.6c-37.2,30.9-64.4,56.7-81.4,77.4
			c-17,20.7-25.5,46.5-25.5,77.4v98.9c0,10.7-5.3,16-15.9,16h-55.8C782.1,1185.2,776.8,1179.9,776.8,1169.2z M762.4,1469.1
			c-14.9-14.9-22.3-34-22.3-57.4c0-23.4,7.4-42.5,22.3-57.4c14.9-14.9,34-22.3,57.5-22.3c23.4,0,42.5,7.4,57.4,22.3
			c14.9,14.9,22.3,34,22.3,57.4c0,23.4-7.5,42.5-22.3,57.4c-14.9,14.9-34,22.3-57.4,22.3C796.5,1491.5,777.3,1484,762.4,1469.1z"/>
	</g>
</g>
<g id="Layer_2">
</g>
</svg>
