<?xml version="1.0" encoding="utf-8"?>
<!-- Generator: Adobe Illustrator 27.0.0, SVG Export Plug-In . SVG Version: 6.00 Build 0)  -->
<svg version="1.1" id="Layer_1" xmlns:serif="http://www.serif.com/"
	 xmlns="http://www.w3.org/2000/svg" xmlns:xlink="http://www.w3.org/1999/xlink" x="0px" y="0px" viewBox="0 0 1642.6 1894.8"
	 style="enable-background:new 0 0 1642.6 1894.8;" xml:space="preserve">
<path d="M1526.6,714.7c0-389.4-315.9-705.3-705.3-705.3S116,325.4,116,714.7c0,321.1,429.8,892.6,618.2,1128.5
	c45.2,56.2,128.9,56.2,174.1,0h0C1096.8,1607.4,1526.6,1035.8,1526.6,714.7z M689.8,620.1c0,9.6-4.8,14.4-14.4,14.4l-109.7-5.8
	c-9.6,0-14.4-4.8-14.4-14.4v-31.8c0-52.9,12.5-99.8,37.5-140.7c25-40.9,60.4-72.6,106.1-95.2c45.7-22.6,97.9-33.9,156.6-33.9
	c87.6,0,157.8,24.1,210.7,72.2c52.9,48.1,79.4,111.6,79.4,190.5c0,42.4-7.2,78.9-21.6,109.7c-14.4,30.8-31.8,56-52,75.8
	c-20.2,19.7-46.2,41.1-77.9,64.2c-33.7,25-58.5,46.7-74.3,64.9c-15.9,18.3-23.8,40.4-23.8,66.4v64.9c0,9.6-4.8,14.4-14.4,14.4H766.2
	c-9.6,0-14.4-4.8-14.4-14.4v-72.2c0-43.3,11-78.9,33.2-106.8c22.1-27.9,54.4-57.7,96.7-89.5c39.4-29.8,69.3-56.8,89.5-80.8
	c20.2-24.1,30.3-54.8,30.3-92.4c0-43.3-14.2-77.7-42.6-103.2s-65.7-38.3-111.8-38.3c-47.1,0-85.1,13.2-114,39.7
	s-43.3,61.3-43.3,104.6V620.1z M884.6,1308.5c-17.3,17.3-39.4,26-66.4,26c-26.9,0-49.1-8.6-66.4-26c-17.3-17.3-26-39.4-26-66.4
	c0-26.9,8.6-49,26-66.4c17.3-17.3,39.4-26,66.4-26c26.9,0,49,8.7,66.4,26c17.3,17.3,26,39.4,26,66.4
	C910.6,1269.1,901.9,1291.2,884.6,1308.5z"/>
</svg>
