<?xml version="1.0" encoding="utf-8"?>
<!-- Generator: Adobe Illustrator 24.0.0, SVG Export Plug-In . SVG Version: 6.00 Build 0)  -->
<svg version="1.1" id="Layer_1" xmlns="http://www.w3.org/2000/svg" xmlns:xlink="http://www.w3.org/1999/xlink" x="0px" y="0px"
	 viewBox="0 0 64 64" style="enable-background:new 0 0 64 64;" xml:space="preserve">
<style type="text/css">
	.st0{fill:#22C4FF;}
</style>
<g>
	<g>
		<path class="st0" d="M29.5,54.6c-0.7,0-1.3-0.6-1.3-1.3v-8.4c0-0.7,0.6-1.3,1.3-1.3c0.7,0,1.3,0.6,1.3,1.3v8.4
			C30.8,54,30.2,54.6,29.5,54.6z"/>
	</g>
	<g>
		<path class="st0" d="M38.6,50.7c-0.7,0-1.3-0.6-1.3-1.3v-4.5c0-0.7,0.6-1.3,1.3-1.3c0.7,0,1.3,0.6,1.3,1.3v4.5
			C39.8,50.1,39.2,50.7,38.6,50.7z"/>
	</g>
	<g>
		<path class="st0" d="M20.5,50.7c-0.7,0-1.3-0.6-1.3-1.3v-4.5c0-0.7,0.6-1.3,1.3-1.3c0.7,0,1.3,0.6,1.3,1.3v4.5
			C21.8,50.1,21.2,50.7,20.5,50.7z"/>
	</g>
	<g>
		<path class="st0" d="M36,40.3H18.6c-4.7,0-8.5-3.8-8.5-8.5s3.8-8.5,8.5-8.5c0.8,0,1.6,0.1,2.3,0.3c0.8-7.6,7.2-13.6,15-13.6
			c8.3,0,15.1,6.8,15.1,15.1S44.3,40.3,36,40.3z M18.6,25.9c-3.3,0-6,2.7-6,6s2.7,6,6,6H36c7,0,12.6-5.7,12.6-12.6S43,12.6,36,12.6
			c-7,0-12.6,5.7-12.6,12.6c0,0,0,0.1,0,0.1c0,0.5-0.2,0.9-0.6,1.2c-0.4,0.3-0.9,0.3-1.3,0.1C20.6,26.1,19.6,25.9,18.6,25.9z"/>
	</g>
</g>
<g>
</g>
<g>
</g>
<g>
</g>
<g>
</g>
<g>
</g>
<g>
</g>
<g>
</g>
<g>
</g>
<g>
</g>
<g>
</g>
<g>
</g>
<g>
</g>
<g>
</g>
<g>
</g>
<g>
</g>
</svg>
