<?xml version="1.0" encoding="utf-8"?>
<!-- Generator: Adobe Illustrator 24.0.0, SVG Export Plug-In . SVG Version: 6.00 Build 0)  -->
<svg version="1.1" id="Layer_1" xmlns="http://www.w3.org/2000/svg" xmlns:xlink="http://www.w3.org/1999/xlink" x="0px" y="0px"
	 viewBox="0 0 64 64" style="enable-background:new 0 0 64 64;" xml:space="preserve">
<style type="text/css">
	.st0{fill:#22C4FF;}
</style>
<g>
	<g>
		<g>
			<path class="st0" d="M35.2,39.4H20.5c-4.1,0-7.4-3.3-7.4-7.4c0-4.1,3.3-7.4,7.4-7.4c0.6,0,1.2,0.1,1.8,0.2
				c0.8-6.4,6.2-11.4,12.9-11.4c7.1,0,13,5.8,13,13C48.1,33.6,42.3,39.4,35.2,39.4z M20.5,27.2c-2.7,0-4.9,2.2-4.9,4.9
				c0,2.7,2.2,4.9,4.9,4.9h14.7c5.8,0,10.5-4.7,10.5-10.5c0-5.8-4.7-10.5-10.5-10.5c-5.8,0-10.5,4.7-10.5,10.5c0,0.1,0,0.2,0,0.3
				c0,0.4-0.2,0.9-0.6,1.1c-0.4,0.2-0.9,0.2-1.3,0C22.1,27.4,21.3,27.2,20.5,27.2z"/>
		</g>
		<g>
			<path class="st0" d="M39.7,45H17.4c-0.7,0-1.3-0.6-1.3-1.3c0-0.7,0.6-1.3,1.3-1.3h22.3c0.7,0,1.3,0.6,1.3,1.3
				C40.9,44.5,40.4,45,39.7,45z"/>
		</g>
		<g>
			<path class="st0" d="M31.5,51.2h-9.9c-0.7,0-1.3-0.6-1.3-1.3c0-0.7,0.6-1.3,1.3-1.3h9.9c0.7,0,1.2,0.6,1.2,1.3
				C32.7,50.6,32.2,51.2,31.5,51.2z"/>
		</g>
		<g>
			<path class="st0" d="M44.8,51.2h-7.5c-0.7,0-1.3-0.6-1.3-1.3c0-0.7,0.6-1.3,1.3-1.3h7.5c0.7,0,1.3,0.6,1.3,1.3
				C46.1,50.6,45.5,51.2,44.8,51.2z"/>
		</g>
	</g>
</g>
<g>
</g>
<g>
</g>
<g>
</g>
<g>
</g>
<g>
</g>
<g>
</g>
<g>
</g>
<g>
</g>
<g>
</g>
<g>
</g>
<g>
</g>
<g>
</g>
<g>
</g>
<g>
</g>
<g>
</g>
</svg>
