<?xml version="1.0" encoding="utf-8"?>
<!-- Generator: Adobe Illustrator 24.0.0, SVG Export Plug-In . SVG Version: 6.00 Build 0)  -->
<svg version="1.1" id="Layer_1" xmlns="http://www.w3.org/2000/svg" xmlns:xlink="http://www.w3.org/1999/xlink" x="0px" y="0px"
	 viewBox="0 0 64 64" style="enable-background:new 0 0 64 64;" xml:space="preserve">
<style type="text/css">
	.st0{fill:#FFC300;}
	.st1{fill:#22C4FF;}
</style>
<g>
	<g>
		<path class="st0" d="M30.8,50.3c-7.4,0-14.1-4.7-16.6-11.7c-0.2-0.6-0.4-1.2-0.6-1.8c-0.1-0.5,0-0.9,0.4-1.2
			c0.4-0.3,0.9-0.4,1.3-0.2c2.3,0.9,4.9,1,7.3,0.1c5.3-1.9,8-7.8,6.1-13c-0.7-1.8-1.8-3.4-3.4-4.6c-0.4-0.3-0.6-0.8-0.5-1.2
			c0.1-0.5,0.4-0.8,0.9-1c1.7-0.5,3.4-0.8,5.1-0.8c7.4,0,14.1,4.7,16.6,11.6c1.6,4.4,1.4,9.3-0.6,13.5c-2,4.3-5.5,7.5-10,9.2
			C34.9,49.9,32.8,50.3,30.8,50.3z M16.7,38.4c2.3,5.7,7.9,9.4,14.1,9.4c1.8,0,3.5-0.3,5.2-0.9c3.8-1.4,6.9-4.2,8.6-7.9
			c1.7-3.7,1.9-7.8,0.5-11.6c-2.2-6-7.9-10-14.3-10c-0.7,0-1.5,0.1-2.2,0.2c1,1.2,1.9,2.5,2.4,4c2.4,6.6-1,13.9-7.6,16.2
			C21.3,38.6,18.9,38.8,16.7,38.4z"/>
	</g>
	<path class="st1" d="M16.7,26.8c0,1.2-1,2.3-2.3,2.3c-1.2,0-2.3-1-2.3-2.3c0-1.2,1-2.3,2.3-2.3C15.7,24.6,16.7,25.6,16.7,26.8z"/>
	<path class="st1" d="M18.1,18.2c-1.1,0-1.9-0.9-1.9-1.9c0-1.1,0.9-1.9,1.9-1.9c1.1,0,1.9,0.9,1.9,1.9C20,17.3,19.1,18.2,18.1,18.2z
		"/>
</g>
<g>
</g>
<g>
</g>
<g>
</g>
<g>
</g>
<g>
</g>
<g>
</g>
<g>
</g>
<g>
</g>
<g>
</g>
<g>
</g>
<g>
</g>
<g>
</g>
<g>
</g>
<g>
</g>
<g>
</g>
</svg>
