<?xml version="1.0" encoding="utf-8"?>
<!-- Generator: Adobe Illustrator 24.0.0, SVG Export Plug-In . SVG Version: 6.00 Build 0)  -->
<svg version="1.1" id="Layer_1" xmlns="http://www.w3.org/2000/svg" xmlns:xlink="http://www.w3.org/1999/xlink" x="0px" y="0px"
	 viewBox="0 0 64 64" style="enable-background:new 0 0 64 64;" xml:space="preserve">
<style type="text/css">
	.st0{fill:#22C4FF;}
</style>
<g>
	<g>
		<path class="st0" d="M29.2,44.2H18c-4.5,0-8.1-3.6-8.1-8.1c0-4.5,3.6-8.1,8.1-8.1c0.7,0,1.5,0.1,2.2,0.3
			c0.8-7.2,6.9-12.8,14.3-12.8c7.9,0,14.4,6.4,14.4,14.4c0,1.6-0.3,3.2-0.8,4.7c-0.2,0.7-0.9,1-1.6,0.8c-0.7-0.2-1-0.9-0.8-1.6
			c0.4-1.3,0.7-2.6,0.7-3.9c0-6.5-5.3-11.9-11.9-11.9c-6.5,0-11.9,5.3-11.9,11.9l0,0.3c0,0.5-0.2,0.9-0.6,1.1
			c-0.4,0.2-0.9,0.2-1.3,0c-0.8-0.5-1.8-0.7-2.7-0.7c-3.1,0-5.6,2.5-5.6,5.6c0,3.1,2.5,5.6,5.6,5.6h11.3c0.7,0,1.3,0.6,1.3,1.3
			C30.5,43.6,29.9,44.2,29.2,44.2z"/>
	</g>
	<g>
		<path class="st0" d="M42.9,49.2h-9.1c-2.8,0-5-2.3-5-5c0-2.8,2.3-5,5-5c0.2,0,0.5,0,0.7,0.1c0.7-4,4.2-7,8.4-7
			c4.7,0,8.5,3.8,8.5,8.5C51.4,45.4,47.5,49.2,42.9,49.2z M33.8,41.6c-1.4,0-2.5,1.1-2.5,2.5c0,1.4,1.1,2.5,2.5,2.5h9.1
			c3.3,0,6-2.7,6-6s-2.7-6-6-6c-3.3,0-6,2.7-6,6c0,0,0,0.1,0,0.2c0,0.4-0.2,0.9-0.6,1.1c-0.4,0.2-0.9,0.2-1.2,0
			C34.6,41.7,34.2,41.6,33.8,41.6z"/>
	</g>
</g>
<g>
</g>
<g>
</g>
<g>
</g>
<g>
</g>
<g>
</g>
<g>
</g>
<g>
</g>
<g>
</g>
<g>
</g>
<g>
</g>
<g>
</g>
<g>
</g>
<g>
</g>
<g>
</g>
<g>
</g>
</svg>
