<?xml version="1.0" encoding="utf-8"?>
<!-- Generator: Adobe Illustrator 24.0.0, SVG Export Plug-In . SVG Version: 6.00 Build 0)  -->
<svg version="1.1" id="Layer_1" xmlns="http://www.w3.org/2000/svg" xmlns:xlink="http://www.w3.org/1999/xlink" x="0px" y="0px"
	 viewBox="0 0 64 64" style="enable-background:new 0 0 64 64;" xml:space="preserve">
<style type="text/css">
	.st0{fill:#FFC300;}
	.st1{fill:#22C4FF;}
</style>
<g>
	<g>
		<g>
			<path class="st0" d="M10.4,27c-0.2,0-0.3,0-0.5-0.1l-3.7-1.5c-0.6-0.3-0.9-1-0.7-1.6c0.3-0.6,1-0.9,1.6-0.7l3.7,1.5
				c0.6,0.3,0.9,1,0.7,1.6C11.4,26.7,10.9,27,10.4,27z"/>
		</g>
	</g>
	<g>
		<path class="st0" d="M8.4,44.2c-0.4,0-0.7-0.2-1-0.5C7,43.2,7.1,42.4,7.6,42l3.2-2.5c0.5-0.4,1.3-0.3,1.8,0.2
			c0.4,0.5,0.3,1.3-0.2,1.8L9.1,44C8.9,44.1,8.6,44.2,8.4,44.2z"/>
	</g>
	<g>
		<path class="st0" d="M35.3,22.4c-0.4,0-0.7-0.2-1-0.5c-0.4-0.5-0.3-1.3,0.2-1.8l3.2-2.5c0.5-0.4,1.3-0.3,1.8,0.2
			c0.4,0.5,0.3,1.3-0.2,1.8l-3.2,2.5C35.8,22.3,35.6,22.4,35.3,22.4z"/>
	</g>
	<g>
		<g>
			<path class="st0" d="M21.5,17.7c-0.6,0-1.2-0.5-1.2-1.1l-0.5-4c-0.1-0.7,0.4-1.3,1.1-1.4c0.7-0.1,1.3,0.4,1.4,1.1l0.5,4
				c0.1,0.7-0.4,1.3-1.1,1.4C21.6,17.7,21.5,17.7,21.5,17.7z"/>
		</g>
	</g>
	<g>
		<path class="st0" d="M18.7,39.5c-0.3,0-0.5-0.1-0.7-0.2c-2.2-1.6-3.6-3.9-4-6.6c-0.8-5.5,3-10.6,8.5-11.5c4.6-0.7,9,1.8,10.8,6
			c0.3,0.6,0,1.4-0.7,1.6c-0.6,0.3-1.4,0-1.6-0.7c-1.3-3.2-4.7-5.1-8.1-4.5c-4.1,0.6-7,4.5-6.4,8.6c0.3,2,1.4,3.8,3,5
			c0.6,0.4,0.7,1.2,0.3,1.7C19.5,39.3,19.1,39.5,18.7,39.5z"/>
	</g>
	<g>
		<path class="st1" d="M40.9,53.5H23.5c-4.7,0-8.5-3.8-8.5-8.5c0-4.7,3.8-8.5,8.5-8.5c0.8,0,1.6,0.1,2.3,0.3
			c0.8-7.6,7.2-13.5,15-13.5c8.3,0,15.1,6.8,15.1,15.1C55.9,46.8,49.2,53.5,40.9,53.5z M23.5,39.1c-3.3,0-6,2.7-6,6c0,3.3,2.7,6,6,6
			h17.3c6.9,0,12.6-5.6,12.6-12.6c0-6.9-5.6-12.6-12.6-12.6s-12.6,5.6-12.6,12.6c0,0.2,0,0.2,0,0.3c0,0.4-0.2,0.9-0.6,1.1
			c-0.4,0.2-0.9,0.2-1.3,0C25.6,39.4,24.6,39.1,23.5,39.1z"/>
	</g>
</g>
<g>
</g>
<g>
</g>
<g>
</g>
<g>
</g>
<g>
</g>
<g>
</g>
<g>
</g>
<g>
</g>
<g>
</g>
<g>
</g>
<g>
</g>
<g>
</g>
<g>
</g>
<g>
</g>
<g>
</g>
</svg>
