<?xml version="1.0" encoding="utf-8"?>
<!-- Generator: Adobe Illustrator 24.0.0, SVG Export Plug-In . SVG Version: 6.00 Build 0)  -->
<svg version="1.1" id="Layer_1" xmlns="http://www.w3.org/2000/svg" xmlns:xlink="http://www.w3.org/1999/xlink" x="0px" y="0px"
	 viewBox="0 0 64 64" style="enable-background:new 0 0 64 64;" xml:space="preserve">
<style type="text/css">
	.st0{fill:#22C4FF;}
</style>
<g>
	<g>
		<g>
			<path class="st0" d="M40.3,42.9c-0.5,0-1-0.3-1.2-0.9c-0.2-0.7,0.1-1.4,0.8-1.6c1.5-0.5,3-1.3,4.2-2.3c2.9-2.4,4.5-5.9,4.5-9.7
				c0-7-5.7-12.6-12.6-12.6c-7,0-12.6,5.7-12.6,12.6l0,0.3c0,0.5-0.2,0.9-0.6,1.1c-0.4,0.2-0.9,0.2-1.3,0c-0.9-0.5-1.9-0.8-2.9-0.8
				c-3.3,0-6,2.7-6,6c0,2.3,1.3,4.3,3.3,5.4c0.6,0.3,0.9,1.1,0.6,1.7c-0.3,0.6-1.1,0.9-1.7,0.6c-2.9-1.4-4.7-4.4-4.7-7.6
				c0-4.7,3.8-8.5,8.5-8.5c0.8,0,1.6,0.1,2.3,0.3c0.8-7.6,7.2-13.6,15-13.6c8.3,0,15.1,6.8,15.1,15.1c0,4.5-2,8.7-5.4,11.6
				c-1.5,1.3-3.2,2.2-5,2.8C40.6,42.9,40.4,42.9,40.3,42.9z"/>
		</g>
		<g>
			<path class="st0" d="M24.7,42.9c0,1.2-1,2.2-2.2,2.2c-1.2,0-2.2-1-2.2-2.2c0-1.2,1-2.2,2.2-2.2C23.7,40.7,24.7,41.7,24.7,42.9z"
				/>
		</g>
		<g>
			<path class="st0" d="M34.9,42.9c0,1.2-1,2.2-2.2,2.2c-1.2,0-2.2-1-2.2-2.2c0-1.2,1-2.2,2.2-2.2C34,40.7,34.9,41.7,34.9,42.9z"/>
		</g>
		<g>
			<path class="st0" d="M18.6,49.1c0,1.2-1,2.2-2.2,2.2c-1.2,0-2.2-1-2.2-2.2c0-1.2,1-2.2,2.2-2.2C17.6,46.9,18.6,47.9,18.6,49.1z"
				/>
		</g>
		<g>
			<path class="st0" d="M28.8,49.1c0,1.2-1,2.2-2.2,2.2s-2.2-1-2.2-2.2c0-1.2,1-2.2,2.2-2.2S28.8,47.9,28.8,49.1z"/>
		</g>
		<g>
			<path class="st0" d="M38.9,49.1c0,1.2-1,2.2-2.2,2.2c-1.2,0-2.2-1-2.2-2.2c0-1.2,1-2.2,2.2-2.2C37.9,46.9,38.9,47.9,38.9,49.1z"
				/>
		</g>
	</g>
</g>
<g>
</g>
<g>
</g>
<g>
</g>
<g>
</g>
<g>
</g>
<g>
</g>
<g>
</g>
<g>
</g>
<g>
</g>
<g>
</g>
<g>
</g>
<g>
</g>
<g>
</g>
<g>
</g>
<g>
</g>
</svg>
