<?xml version="1.0" encoding="utf-8"?>
<!-- Generator: Adobe Illustrator 24.0.0, SVG Export Plug-In . SVG Version: 6.00 Build 0)  -->
<svg version="1.1" id="Layer_1" xmlns="http://www.w3.org/2000/svg" xmlns:xlink="http://www.w3.org/1999/xlink" x="0px" y="0px"
	 viewBox="0 0 64 64" style="enable-background:new 0 0 64 64;" xml:space="preserve">
<style type="text/css">
	.st0{fill:#FFC300;}
</style>
<g>
	<g>
		<path class="st0" d="M30.6,43.1c-6.1,0-11.1-5-11.1-11.1c0-6.1,5-11.1,11.1-11.1c6.1,0,11.1,5,11.1,11.1
			C41.7,38.2,36.7,43.1,30.6,43.1z M30.6,23.4c-4.7,0-8.6,3.9-8.6,8.6c0,4.7,3.9,8.6,8.6,8.6c4.7,0,8.6-3.9,8.6-8.6
			C39.2,27.3,35.4,23.4,30.6,23.4z"/>
	</g>
	<g>
		<g>
			<path class="st0" d="M30.6,18.5c-0.7,0-1.3-0.6-1.3-1.3v-3.6c0-0.7,0.6-1.3,1.3-1.3c0.7,0,1.3,0.6,1.3,1.3v3.6
				C31.9,17.9,31.3,18.5,30.6,18.5z"/>
		</g>
		<g>
			<path class="st0" d="M30.6,52.3c-0.7,0-1.3-0.6-1.3-1.3v-3.6c0-0.7,0.6-1.3,1.3-1.3c0.7,0,1.3,0.6,1.3,1.3v3.6
				C31.9,51.8,31.3,52.3,30.6,52.3z"/>
		</g>
	</g>
	<g>
		<g>
			<path class="st0" d="M17.5,26c-0.2,0-0.4-0.1-0.6-0.2l-3.1-1.8c-0.6-0.3-0.8-1.1-0.5-1.7c0.3-0.6,1.1-0.8,1.7-0.5l3.1,1.8
				c0.6,0.3,0.8,1.1,0.5,1.7C18.4,25.8,17.9,26,17.5,26z"/>
		</g>
		<g>
			<path class="st0" d="M46.8,43c-0.2,0-0.4-0.1-0.6-0.2L43.1,41c-0.6-0.3-0.8-1.1-0.5-1.7c0.3-0.6,1.1-0.8,1.7-0.5l3.1,1.8
				c0.6,0.3,0.8,1.1,0.5,1.7C47.7,42.7,47.3,43,46.8,43z"/>
		</g>
	</g>
	<g>
		<g>
			<path class="st0" d="M14.4,43c-0.4,0-0.9-0.2-1.1-0.6c-0.3-0.6-0.1-1.4,0.5-1.7l3.1-1.8c0.6-0.3,1.4-0.1,1.7,0.5
				c0.3,0.6,0.1,1.4-0.5,1.7L15,42.8C14.8,42.9,14.6,43,14.4,43z"/>
		</g>
		<g>
			<path class="st0" d="M43.7,26c-0.4,0-0.9-0.2-1.1-0.6c-0.3-0.6-0.1-1.4,0.5-1.7l3.1-1.8c0.6-0.3,1.4-0.1,1.7,0.5
				c0.3,0.6,0.1,1.4-0.5,1.7l-3.1,1.8C44.1,26,43.9,26,43.7,26z"/>
		</g>
	</g>
</g>
<g>
</g>
<g>
</g>
<g>
</g>
<g>
</g>
<g>
</g>
<g>
</g>
<g>
</g>
<g>
</g>
<g>
</g>
<g>
</g>
<g>
</g>
<g>
</g>
<g>
</g>
<g>
</g>
<g>
</g>
</svg>
