<?xml version="1.0" encoding="utf-8"?>
<!-- Generator: Adobe Illustrator 24.0.0, SVG Export Plug-In . SVG Version: 6.00 Build 0)  -->
<svg version="1.1" id="Layer_1" xmlns="http://www.w3.org/2000/svg" xmlns:xlink="http://www.w3.org/1999/xlink" x="0px" y="0px"
	 viewBox="0 0 64 64" style="enable-background:new 0 0 64 64;" xml:space="preserve">
<style type="text/css">
	.st0{fill:#22C4FF;}
</style>
<g>
	<g>
		<path class="st0" d="M18.8,42.6c-4.6,0-8.4-3.7-8.4-8.4c0-4.6,3.7-8.4,8.4-8.4c0.8,0,1.5,0.1,2.3,0.3c0.8-7.5,7.1-13.3,14.8-13.3
			c8.2,0,14.9,6.7,14.9,14.9c0,4.4-1.9,8.5-5.3,11.4c-1.5,1.2-3.1,2.2-5,2.8c-0.7,0.2-1.4-0.1-1.6-0.8c-0.2-0.7,0.1-1.4,0.8-1.6
			c1.5-0.5,2.9-1.3,4.1-2.3c2.8-2.4,4.4-5.8,4.4-9.5c0-6.8-5.5-12.4-12.4-12.4c-6.8,0-12.4,5.5-12.4,12.4c0,0.1,0,0.2,0,0.3
			c0,0.4-0.2,0.9-0.6,1.1c-0.4,0.2-0.9,0.2-1.2,0c-0.9-0.5-1.9-0.8-2.9-0.8c-3.2,0-5.9,2.6-5.9,5.9c0,3.2,2.6,5.9,5.9,5.9
			c0.7,0,1.3,0.6,1.3,1.3C20.1,42,19.5,42.6,18.8,42.6z"/>
	</g>
	<g>
		<path class="st0" d="M14.3,50.4c-0.2,0-0.4-0.1-0.6-0.2c-0.6-0.3-0.8-1.1-0.5-1.7l2-3.5c0.3-0.6,1.1-0.8,1.7-0.5
			c0.6,0.3,0.8,1.1,0.5,1.7l-2,3.5C15.2,50.1,14.8,50.4,14.3,50.4z"/>
	</g>
	<g>
		<path class="st0" d="M21.4,51.6c-0.2,0-0.4-0.1-0.6-0.2c-0.6-0.3-0.8-1.1-0.5-1.7l5.6-10c0.3-0.6,1.1-0.8,1.7-0.5
			c0.6,0.3,0.8,1.1,0.5,1.7l-5.6,10C22.3,51.4,21.8,51.6,21.4,51.6z"/>
	</g>
	<path class="st0" d="M29.8,51.8c-1.2,0-2.2-1-2.2-2.1c0-1.2,1-2.1,2.2-2.1c1.2,0,2.2,1,2.2,2.1C32,50.9,31,51.8,29.8,51.8z"/>
	<path class="st0" d="M37.2,51.8c-1.2,0-2.1-1-2.1-2.1c0-1.2,1-2.1,2.1-2.1c1.2,0,2.2,1,2.2,2.1C39.4,50.9,38.4,51.8,37.2,51.8z"/>
	<path class="st0" d="M33.2,44.8c-1.2,0-2.1-1-2.1-2.1c0-1.2,1-2.1,2.1-2.1c1.2,0,2.2,1,2.2,2.1C35.4,43.9,34.4,44.8,33.2,44.8z"/>
</g>
<g>
</g>
<g>
</g>
<g>
</g>
<g>
</g>
<g>
</g>
<g>
</g>
<g>
</g>
<g>
</g>
<g>
</g>
<g>
</g>
<g>
</g>
<g>
</g>
<g>
</g>
<g>
</g>
<g>
</g>
</svg>
