<?xml version="1.0" encoding="utf-8"?>
<!-- Generator: Adobe Illustrator 24.0.0, SVG Export Plug-In . SVG Version: 6.00 Build 0)  -->
<svg version="1.1" id="Layer_1" xmlns="http://www.w3.org/2000/svg" xmlns:xlink="http://www.w3.org/1999/xlink" x="0px" y="0px"
	 viewBox="0 0 64 64" style="enable-background:new 0 0 64 64;" xml:space="preserve">
<style type="text/css">
	.st0{fill:#111111;}
</style>
<g>
	<g>
		<g>
			<path class="st0" d="M36.1,48.4c-0.8,0-1.5-0.2-2.2-0.6c-0.6-0.4-0.8-1.1-0.4-1.7c0.4-0.6,1.1-0.8,1.7-0.4
				c0.3,0.2,0.7,0.3,1.1,0.2c0.7-0.1,1.3-0.4,1.7-1c0.4-0.5,0.6-1.2,0.5-1.9c-0.1-0.9-0.6-1.7-1.3-2.3c-0.7-0.6-1.7-0.8-2.6-0.7
				c-0.1,0-0.1,0-0.2,0h-9.5c-0.7,0-1.3-0.6-1.3-1.3c0-0.7,0.6-1.3,1.3-1.3h9.4c3.2-0.4,6.2,1.9,6.7,5.1c0.2,1.3-0.2,2.7-1,3.7
				c-0.8,1.1-2,1.8-3.3,2C36.5,48.3,36.3,48.4,36.1,48.4z"/>
		</g>
		<g>
			<path class="st0" d="M39.6,33c-0.6,0-1,0-1.3,0H16.2c-0.7,0-1.3-0.6-1.3-1.3c0-0.7,0.6-1.3,1.3-1.3h22.1c1.9,0,4.3,0,4.8-0.2
				c2.6-0.7,4.6-2.9,4.9-5.6c0.2-1.4-0.2-2.7-1-3.8c-0.8-1.1-2-1.8-3.4-2c-0.9-0.1-1.7,0-2.5,0.5c-0.6,0.3-1.4,0.2-1.7-0.4
				c-0.3-0.6-0.2-1.4,0.4-1.7c1.2-0.7,2.7-1,4.1-0.8c2,0.3,3.8,1.3,5,3c1.2,1.6,1.8,3.6,1.5,5.7c-0.5,3.7-3.2,6.7-6.8,7.7
				C43,33,41.1,33,39.6,33z"/>
		</g>
		<g>
			<path class="st0" d="M33,25.6H11.6c-0.7,0-1.3-0.6-1.3-1.3c0-0.7,0.6-1.3,1.3-1.3H33c0.7,0,1.3,0.6,1.3,1.3
				C34.3,25.1,33.7,25.6,33,25.6z"/>
		</g>
	</g>
</g>
<g>
</g>
<g>
</g>
<g>
</g>
<g>
</g>
<g>
</g>
<g>
</g>
<g>
</g>
<g>
</g>
<g>
</g>
<g>
</g>
<g>
</g>
<g>
</g>
<g>
</g>
<g>
</g>
<g>
</g>
</svg>
