<?xml version="1.0" encoding="utf-8"?>
<!-- Generator: Adobe Illustrator 24.0.0, SVG Export Plug-In . SVG Version: 6.00 Build 0)  -->
<svg version="1.1" id="Layer_1" xmlns="http://www.w3.org/2000/svg" xmlns:xlink="http://www.w3.org/1999/xlink" x="0px" y="0px"
	 viewBox="0 0 64 64" style="enable-background:new 0 0 64 64;" xml:space="preserve">
<style type="text/css">
	.st0{fill:#FFC300;}
	.st1{fill:#22C4FF;}
</style>
<g>
	<g>
		<g>
			<path class="st0" d="M16,41.4c-0.5,0-0.9-0.3-1.1-0.7c-0.6-1.4-1-2.8-1-4.3c-0.1-3,1-5.9,3-8.2c2.1-2.2,4.9-3.5,7.9-3.6
				c4.6-0.2,8.8,2.4,10.7,6.6c0.3,0.6,0,1.4-0.6,1.7c-0.6,0.3-1.4,0-1.7-0.6c-1.5-3.2-4.8-5.2-8.4-5.1c-2.4,0.1-4.6,1.1-6.2,2.8
				c-1.6,1.7-2.5,4-2.4,6.4c0,1.2,0.3,2.3,0.8,3.3c0.3,0.6,0,1.4-0.6,1.7C16.4,41.3,16.2,41.4,16,41.4z"/>
		</g>
		<g>
			<g>
				<path class="st0" d="M9.6,36.8H5.9c-0.7,0-1.3-0.6-1.3-1.3c0-0.7,0.6-1.3,1.3-1.3h3.7c0.7,0,1.3,0.6,1.3,1.3
					C10.8,36.3,10.3,36.8,9.6,36.8z"/>
			</g>
			<g>
				<path class="st0" d="M36.1,25.8c-0.3,0-0.6-0.1-0.9-0.4c-0.5-0.5-0.5-1.3,0-1.8l2.6-2.6c0.5-0.5,1.3-0.5,1.8,0
					c0.5,0.5,0.5,1.3,0,1.8L37,25.5C36.8,25.7,36.5,25.8,36.1,25.8z"/>
			</g>
			<g>
				<path class="st0" d="M25.1,21.3c-0.7,0-1.3-0.6-1.3-1.3v-3.7c0-0.7,0.6-1.3,1.3-1.3c0.7,0,1.3,0.6,1.3,1.3V20
					C26.4,20.7,25.8,21.3,25.1,21.3z"/>
			</g>
			<g>
				<path class="st0" d="M14.1,25.8c-0.3,0-0.6-0.1-0.9-0.4l-2.6-2.6c-0.5-0.5-0.5-1.3,0-1.8c0.5-0.5,1.3-0.5,1.8,0l2.6,2.6
					c0.5,0.5,0.5,1.3,0,1.8C14.8,25.7,14.5,25.8,14.1,25.8z"/>
			</g>
		</g>
	</g>
	<g>
		<path class="st1" d="M49.6,43.2h-28c-0.7,0-1.3-0.6-1.3-1.3c0-0.7,0.6-1.3,1.3-1.3h28c0.7,0,1.3,0.6,1.3,1.3
			C50.8,42.7,50.3,43.2,49.6,43.2z"/>
	</g>
	<g>
		<path class="st1" d="M30.4,49.6H14c-0.7,0-1.3-0.6-1.3-1.3c0-0.7,0.6-1.3,1.3-1.3h16.4c0.7,0,1.3,0.6,1.3,1.3
			C31.7,49.1,31.1,49.6,30.4,49.6z"/>
	</g>
	<g>
		<path class="st1" d="M41.9,49.6h-5.2c-0.7,0-1.3-0.6-1.3-1.3c0-0.7,0.6-1.3,1.3-1.3h5.2c0.7,0,1.3,0.6,1.3,1.3
			C43.2,49.1,42.6,49.6,41.9,49.6z"/>
	</g>
	<g>
		<path class="st1" d="M42.9,37.3H28.4c-0.7,0-1.3-0.6-1.3-1.3c0-0.7,0.6-1.3,1.3-1.3h14.5c0.7,0,1.3,0.6,1.3,1.3
			C44.2,36.7,43.6,37.3,42.9,37.3z"/>
	</g>
	<g>
		<path class="st1" d="M50.5,43.2c-0.2,0-0.5,0-0.7,0h-9.3c-0.7,0-1.3-0.6-1.3-1.3s0.6-1.3,1.3-1.3h9.4c0.1,0,0.1,0,0.2,0
			c1.9,0.3,3.6-1.1,3.9-3c0.1-0.7-0.1-1.3-0.5-1.9c-0.4-0.5-1-0.9-1.7-1c-0.4-0.1-0.8,0-1.1,0.2c-0.6,0.3-1.4,0.2-1.7-0.4
			c-0.3-0.6-0.1-1.4,0.4-1.7c0.8-0.5,1.8-0.7,2.7-0.5c1.3,0.2,2.5,0.9,3.3,1.9c0.8,1.1,1.2,2.4,1,3.7C56,41,53.4,43.2,50.5,43.2z"/>
	</g>
</g>
<g>
</g>
<g>
</g>
<g>
</g>
<g>
</g>
<g>
</g>
<g>
</g>
<g>
</g>
<g>
</g>
<g>
</g>
<g>
</g>
<g>
</g>
<g>
</g>
<g>
</g>
<g>
</g>
<g>
</g>
</svg>
