<svg id="icon-1" xmlns="http://www.w3.org/2000/svg" viewBox="0 0 110 110" data-adreal-did="1606153310749440">
  <title>1</title>
  <g id="icon-1-2" data-name="icon-1">
    <path d="M73.26,73.26a2.81,2.81,0,0,1,2.1-.88,3,3,0,0,1,2.24.88l5.46,5.32A3.22,3.22,0,0,1,84,80.86a3,3,0,0,1-.91,2.2,3.29,3.29,0,0,1-4.48,0l-5.32-5.32a3.44,3.44,0,0,1-.84-2.38,2.79,2.79,0,0,1,.84-2.1M55,29.14a3.21,3.21,0,0,0,2.26-.85,2.81,2.81,0,0,0,.93-2.16V18.5a3.19,3.19,0,0,0-6.37,0v7.63a2.81,2.81,0,0,0,.93,2.16,3.18,3.18,0,0,0,2.25.85m0,51.72a3.07,3.07,0,0,0-2.25.91A3,3,0,0,0,51.8,84v7.42a3.17,3.17,0,0,0,.93,2.31,3.17,3.17,0,0,0,4.51,0,3.17,3.17,0,0,0,.93-2.31V84a3,3,0,0,0-.91-2.24A3.09,3.09,0,0,0,55,80.86M34.57,72.38a3,3,0,0,0-2.21.88l-5.49,5.32A3.33,3.33,0,0,0,26,80.86a3.15,3.15,0,0,0,.88,2.2,3.73,3.73,0,0,0,2.3.89,3.67,3.67,0,0,0,2.29-.89l5.32-5.32a3.49,3.49,0,0,0,.91-2.38,2.81,2.81,0,0,0-.9-2.14,3.1,3.1,0,0,0-2.22-.84m2.22-35.59a3,3,0,0,0,.9-2.22,2.91,2.91,0,0,0-.91-2.21l-5.32-5.49A3.16,3.16,0,0,0,29.25,26a3.61,3.61,0,0,0-2.38.91,3.43,3.43,0,0,0,0,4.59l5.5,5.32a2.87,2.87,0,0,0,2.2.91,3,3,0,0,0,2.22-.9m31.94,4.45a19.68,19.68,0,0,0-6.22-4.16,19.15,19.15,0,0,0-17.24,1.06,19.5,19.5,0,0,0-7.13,7.13,19.36,19.36,0,0,0,0,19.45,19.49,19.49,0,0,0,7.11,7.09,19.53,19.53,0,0,0,19.47,0,19.44,19.44,0,0,0,7.09-7.09,19.39,19.39,0,0,0,1.06-17.27,19.58,19.58,0,0,0-4.14-6.21m6.63-3.55a3.31,3.31,0,0,0,2.24-.91l5.46-5.32a3.28,3.28,0,0,0,0-4.56A3,3,0,0,0,80.79,26a3.14,3.14,0,0,0-2.21.91l-5.32,5.49a2.93,2.93,0,0,0-.84,2.21,3.1,3.1,0,0,0,.84,2.22,2.75,2.75,0,0,0,2.1.9m16.1,14.07H83.9a2.88,2.88,0,0,0-2.13.91A3.29,3.29,0,0,0,80.86,55a3.18,3.18,0,0,0,.87,2.26,2.87,2.87,0,0,0,2.17.93h7.56a3.12,3.12,0,0,0,2.26-1,3,3,0,0,0,1-2.24,3.32,3.32,0,0,0-3.23-3.22m-65.33,0H18.5a3.18,3.18,0,0,0-2.24.91,3.15,3.15,0,0,0-1,2.31,3.25,3.25,0,0,0,3.19,3.19h7.63a2.82,2.82,0,0,0,2.16-.93A3.22,3.22,0,0,0,29.15,55a3.28,3.28,0,0,0-.86-2.27,2.81,2.81,0,0,0-2.16-1" fill="#ffd300"/>
  </g>
</svg>