<svg id="icon-10" xmlns="http://www.w3.org/2000/svg" viewBox="0 0 110 110" data-adreal-did="1606153412459795">
  <title>10</title>
  <g id="icon-10-2" data-name="icon-10">
    <path d="M32.52,45.69a2.64,2.64,0,0,1-1.92-.77,2.63,2.63,0,0,1,0-3.76,2.6,2.6,0,0,1,1.92-.77h4a2.75,2.75,0,0,1,.65.08,2.44,2.44,0,0,1,1.22.68,2.26,2.26,0,0,1,.5.73A2.6,2.6,0,0,1,39.2,43a2.57,2.57,0,0,1-.5,1.56,2.6,2.6,0,0,1-.26.32,2.55,2.55,0,0,1-1.26.7,2.88,2.88,0,0,1-.59.07H32.52m12.68,0H77.62a2.88,2.88,0,0,0,.59-.07,2.55,2.55,0,0,0,1.26-.7,2.6,2.6,0,0,0,.26-.32,2.57,2.57,0,0,0,.5-1.56A2.74,2.74,0,0,0,80,41.88a2.55,2.55,0,0,0-1.73-1.41,2.75,2.75,0,0,0-.65-.08H45.2a2.63,2.63,0,0,0-1.92.77A2.54,2.54,0,0,0,42.49,43a2.6,2.6,0,0,0,.79,1.88,2.64,2.64,0,0,0,1.92.77M77.48,64.31H73.41a2.88,2.88,0,0,0-.59.07,2.55,2.55,0,0,0-1.26.7,2.6,2.6,0,0,0-.26.32A2.57,2.57,0,0,0,70.8,67a2.6,2.6,0,0,0,.26,1.16,2.26,2.26,0,0,0,.5.73,2.44,2.44,0,0,0,1.22.68,2.75,2.75,0,0,0,.65.08h4a2.6,2.6,0,0,0,1.92-.77,2.63,2.63,0,0,0,0-3.76,2.64,2.64,0,0,0-1.92-.77m-12.68,0H32.38a2.88,2.88,0,0,0-.59.07,2.44,2.44,0,0,0-.85.39,3.15,3.15,0,0,0-.41.31,2.6,2.6,0,0,0-.26.32,2.57,2.57,0,0,0-.5,1.56A2.74,2.74,0,0,0,30,68.12a2.55,2.55,0,0,0,1.73,1.41,2.75,2.75,0,0,0,.65.08H64.8a2.63,2.63,0,0,0,1.92-.77A2.54,2.54,0,0,0,67.51,67a2.6,2.6,0,0,0-.79-1.88,2.64,2.64,0,0,0-1.92-.77M32.5,57.65H50.74a2.8,2.8,0,0,0,.59-.07,2.48,2.48,0,0,0,1.26-.7,1.92,1.92,0,0,0,.26-.32,2.57,2.57,0,0,0,.5-1.56,2.74,2.74,0,0,0-.25-1.16,2.41,2.41,0,0,0-.51-.73,2.52,2.52,0,0,0-1.22-.68,2.67,2.67,0,0,0-.64-.08H32.5a2.64,2.64,0,0,0-1.92.77,2.63,2.63,0,0,0,0,3.76,2.64,2.64,0,0,0,1.92.77m47-4.54a2.52,2.52,0,0,0-1.22-.68,2.74,2.74,0,0,0-.64-.08H59.36a2.64,2.64,0,0,0-1.92.77,2.63,2.63,0,0,0,0,3.76,2.64,2.64,0,0,0,1.92.77H77.6a2.88,2.88,0,0,0,.59-.07,2.48,2.48,0,0,0,1.26-.7,2.6,2.6,0,0,0,.26-.32,2.57,2.57,0,0,0,.5-1.56A2.74,2.74,0,0,0,80,53.84a2.6,2.6,0,0,0-.51-.73" fill="#5290cc"/>
  </g>
</svg>