<svg id="icon-11" xmlns="http://www.w3.org/2000/svg" viewBox="0 0 110 110" data-adreal-did="1606153417946273">
  <title>11</title>
  <g id="icon-11-2" data-name="icon-11">
    <path d="M86.89,46.91a15,15,0,0,0-8.55-5.42A18.38,18.38,0,0,0,71.74,31a18.73,18.73,0,0,0-20.2-2.09l-.09.05a18.41,18.41,0,0,0-2.93,1.9l-.05,0c-.38.31-.74.62-1.09.94l-.37.35c-.22.21-.43.43-.63.64l-.41.45c-.18.2-.35.41-.52.62l-.37.47-.64.9-.31.5c-.18.29-.35.58-.51.88-.08.15-.16.31-.23.46s-.28.56-.4.84-.14.31-.2.46a20.53,20.53,0,0,0-.9,2.78h-1a16,16,0,0,0-1.71.09c-.49.05-1,.12-1.46.21l-.11,0c-.47.1-.94.22-1.4.36l-.16.05a13.47,13.47,0,0,0-1.38.52l-.23.1c-.34.15-.67.32-1,.5l-.36.17,0,0c-.51.3-1,.62-1.45,1-.18.13-.35.28-.53.42s-.57.47-.84.72-.37.35-.54.53-.51.56-.76.85-.29.33-.42.5a15.41,15.41,0,0,0-1.06,1.57q-.34.6-.63,1.2a7,7,0,0,1,1.26.17,6.43,6.43,0,0,1,2.74,1.39,6.58,6.58,0,0,1,4.34-1.57h32.4a7,7,0,0,1,1.55.18,6.56,6.56,0,0,1,3.15,1.74,6.72,6.72,0,0,1,1.3,1.88,6.7,6.7,0,0,1-.64,6.76,7,7,0,0,1-.64.77,6.54,6.54,0,0,1-1.84,1.3,6.3,6.3,0,0,1,1.8,1.26,6.53,6.53,0,0,1,1.3,1.87,6.65,6.65,0,0,1-.38,6.35h2.13A15.37,15.37,0,0,0,85.9,67.27a15.41,15.41,0,0,0,1-20.36" fill="#5290cc"/>
    <path d="M69.44,54.69a2.42,2.42,0,0,1,.5.74,2.74,2.74,0,0,1,.25,1.16,2.63,2.63,0,0,1-.49,1.56,4,4,0,0,1-.26.32,2.63,2.63,0,0,1-1.27.7,2.8,2.8,0,0,1-.59.07H35.17a2.68,2.68,0,0,1-1.93-.77c-.1-.11-.19-.22-.28-.34A2.61,2.61,0,0,1,33,55a2.69,2.69,0,0,1,.27-.32,2.6,2.6,0,0,1,1.92-.77h32.4a2.61,2.61,0,0,1,.64.08,2.5,2.5,0,0,1,1.23.67M56.69,78.63a2.68,2.68,0,0,0-1.93-.77H22.35a2.8,2.8,0,0,0-.59.07,2.47,2.47,0,0,0-1.27.7,3.92,3.92,0,0,0-.25.32,2.57,2.57,0,0,0-.5,1.56A2.74,2.74,0,0,0,20,81.67a2.41,2.41,0,0,0,.51.73,2.52,2.52,0,0,0,1.22.68,2.67,2.67,0,0,0,.64.08h32.4a2.64,2.64,0,0,0,1.92-.77,2,2,0,0,0,.27-.32A2.63,2.63,0,0,0,57,79l-.28-.33m12.73-12A2.41,2.41,0,0,0,68.19,66a2.61,2.61,0,0,0-.64-.08H49.32a2.63,2.63,0,0,0-1.92.77,4.15,4.15,0,0,0-.27.32,2.63,2.63,0,0,0,0,3.1,2.2,2.2,0,0,0,.28.34,2.66,2.66,0,0,0,1.92.77H67.56a2.9,2.9,0,0,0,.6-.07,2.46,2.46,0,0,0,1.52-1,2.56,2.56,0,0,0,.49-1.56,2.74,2.74,0,0,0-.25-1.16,2.42,2.42,0,0,0-.5-.74M20.54,70.43h0l.07.06a2.94,2.94,0,0,0,.41.31l.21.11a2.23,2.23,0,0,0,.43.16l.1,0h0a3.86,3.86,0,0,0,.49.06H40.71l.14,0,.4,0h0l.1,0a2.07,2.07,0,0,0,.47-.18l.17-.08a2.84,2.84,0,0,0,.53-.4,2.58,2.58,0,0,0,.79-1.88,2.51,2.51,0,0,0-.79-1.88h0s-.05,0-.07-.06a2.53,2.53,0,0,0-.42-.31l-.21-.11a2.75,2.75,0,0,0-.43-.17l-.09,0h-.06a3.7,3.7,0,0,0-.48-.06H22.41l-.15,0a2.45,2.45,0,0,0-.39,0h-.05a.29.29,0,0,0-.1,0,3.41,3.41,0,0,0-.48.18l-.16.09a2.9,2.9,0,0,0-.54.4,2.66,2.66,0,0,0,0,3.76h0m.56-11.56.14.07a2.25,2.25,0,0,0,.51.2l.06,0h0a3.06,3.06,0,0,0,.54.07h4.17l.11,0a2.22,2.22,0,0,0,.45,0h0l.06,0a2.49,2.49,0,0,0,.56-.21l.09,0a3,3,0,0,0,.58-.42,2.64,2.64,0,0,0-.54-4.17l-.14-.07a2.23,2.23,0,0,0-.51-.19l-.06,0h0a2.35,2.35,0,0,0-.54-.06H22.33a3.26,3.26,0,0,0-.45,0h0l-.06,0a2.69,2.69,0,0,0-.56.21l-.09,0a2.55,2.55,0,0,0-1.36,2.3,2.55,2.55,0,0,0,.78,1.88,2.9,2.9,0,0,0,.54.4M68.18,78l-.06,0h0a3.08,3.08,0,0,0-.54-.06H63.38a2.8,2.8,0,0,0-.59.07l-.06,0-.1,0a2.18,2.18,0,0,0-.55.22,2.84,2.84,0,0,0-.58.42,2.66,2.66,0,0,0,0,3.76,2.9,2.9,0,0,0,.54.4l.14.07a2.68,2.68,0,0,0,.3.12,2.15,2.15,0,0,0,.27.1,2.67,2.67,0,0,0,.64.08H67.6a3.25,3.25,0,0,0,.45-.06h0l.06,0a2.49,2.49,0,0,0,.56-.21h0l.06,0,.29-.18a2.6,2.6,0,0,0,.32-.26,2.54,2.54,0,0,0,.79-1.88,2.58,2.58,0,0,0-.79-1.88A2.68,2.68,0,0,0,68.18,78" fill="#5290cc"/>
  </g>
</svg>