<svg id="icon-12" xmlns="http://www.w3.org/2000/svg" viewBox="0 0 110 110" data-adreal-did="1606153423028315">
  <title>12</title>
  <g id="icon-12-2" data-name="icon-12">
    <path d="M36.51,35.31a2.68,2.68,0,0,1-1.89-.71,2.35,2.35,0,0,1-.78-1.8V26.41a2.7,2.7,0,0,1,2.67-2.67,2.72,2.72,0,0,1,2.67,2.67V32.8a2.38,2.38,0,0,1-.78,1.8,2.68,2.68,0,0,1-1.89.71M19.43,71.5a2.45,2.45,0,0,0-1.85.73L13,76.68a2.77,2.77,0,0,0-.73,1.91A2.62,2.62,0,0,0,13,80.43a3.16,3.16,0,0,0,1.93.75,3.07,3.07,0,0,0,1.91-.75L21.27,76A2.89,2.89,0,0,0,22,74a2.34,2.34,0,0,0-.75-1.79,2.61,2.61,0,0,0-1.86-.7M17.58,41.7a2.4,2.4,0,0,0,1.85.76,2.56,2.56,0,0,0,1.86-.74A2.53,2.53,0,0,0,22,39.86,2.39,2.39,0,0,0,21.27,38l-4.45-4.6A2.63,2.63,0,0,0,15,32.65a3,3,0,0,0-2,.76,2.89,2.89,0,0,0,0,3.84ZM37.76,61.19a19.16,19.16,0,0,1,2.63-9.79,20.07,20.07,0,0,1,1.33-2c.14-.18.28-.35.43-.52l.1-.11c.25-.3.58-.69,1-1.08l.7-.67c.34-.32.7-.63,1.06-.92l.1-.08c.18-.15.37-.3.58-.45.51-.37,1-.69,1.47-1A17.2,17.2,0,0,0,42.81,42a15.69,15.69,0,0,0-6.3-1.3,15.89,15.89,0,0,0-8.13,2.19,16.33,16.33,0,0,0-6,6,16.14,16.14,0,0,0,0,16.27A16.17,16.17,0,0,0,28.36,71a15.89,15.89,0,0,0,8.15,2.19,16.06,16.06,0,0,0,4.81-.73c-.38-.54-.74-1.09-1.07-1.67a19.39,19.39,0,0,1-2.49-9.61M14.17,58.83a2.69,2.69,0,0,0,.72-1.89A2.73,2.73,0,0,0,14.17,55a2.32,2.32,0,0,0-1.8-.79H6a2.65,2.65,0,0,0-2.66,2.7,2.55,2.55,0,0,0,.79,1.87A2.53,2.53,0,0,0,6,59.6h6.39a2.37,2.37,0,0,0,1.8-.77" fill="#ffd300"/>
    <path d="M103.31,51.58a15,15,0,0,0-8.55-5.42A18.8,18.8,0,0,0,76.42,31.51a18.12,18.12,0,0,0-8.46,2l-.09.05a19.91,19.91,0,0,0-2.93,1.9l0,0c-.38.3-.74.61-1.09.94-.13.11-.24.23-.37.35l-.63.64c-.14.14-.27.29-.41.44l-.52.63L61.5,39c-.22.3-.43.6-.63.91l-.32.49c-.17.29-.35.59-.51.89-.08.15-.16.3-.23.45s-.27.56-.4.84l-.2.47a20,20,0,0,0-.9,2.77h-1c-.58,0-1.15,0-1.71.09a14.28,14.28,0,0,0-1.46.22l-.11,0c-.47.1-.94.22-1.4.36l-.16,0a13.47,13.47,0,0,0-1.38.52l-.23.1c-.33.15-.66.32-1,.5a3.84,3.84,0,0,0-.35.18l0,0a14.48,14.48,0,0,0-1.45.95l-.54.42c-.28.23-.56.47-.83.72l-.55.53c-.26.28-.51.56-.75.85l-.43.5a16.11,16.11,0,0,0-1.06,1.58,15.11,15.11,0,0,0-2.08,7.76,15.36,15.36,0,0,0,2,7.65A15.7,15.7,0,0,0,45,70.76a15.5,15.5,0,0,0,4.13,3.72,15,15,0,0,0,7.54,2.24h2.57l3.83-9.6a6.47,6.47,0,0,1,6-4.09,6.41,6.41,0,0,1,4.12,1.47A6.48,6.48,0,0,1,77.35,63a6.41,6.41,0,0,1,2.41.46,6.5,6.5,0,0,1,3.63,8.45l-1.91,4.78h10.2a15.37,15.37,0,0,0,10.64-4.78,15.41,15.41,0,0,0,1-20.36" fill="#5290cc"/>
    <path d="M78.28,67.21a2.51,2.51,0,0,1,1.4,3.25L74,84.66a2.49,2.49,0,0,1-3.25,1.4,2.56,2.56,0,0,1-1-.69,2.47,2.47,0,0,1-.45-2.56L75,68.6a2.58,2.58,0,0,1,.4-.66A2.47,2.47,0,0,1,77.35,67a2.52,2.52,0,0,1,.93.18m-8.23,0a2.5,2.5,0,0,0-2.86.73,2.62,2.62,0,0,0-.39.67l-5.67,14.2a2.49,2.49,0,0,0,.44,2.56,2.53,2.53,0,0,0,1,.69,2.56,2.56,0,0,0,.93.18,2.5,2.5,0,0,0,2.32-1.58l5.67-14.2a2.5,2.5,0,0,0-1.39-3.25" fill="#5290cc"/>
  </g>
</svg>