<svg id="icon-13" xmlns="http://www.w3.org/2000/svg" viewBox="0 0 110 110" data-adreal-did="1606153428574886">
  <title>13</title>
  <g id="icon-13-2" data-name="icon-13">
    <path d="M36.51,35.33a2.69,2.69,0,0,1-1.89-.72,2.35,2.35,0,0,1-.78-1.8V26.42a2.7,2.7,0,0,1,2.67-2.67,2.72,2.72,0,0,1,2.67,2.67v6.39a2.38,2.38,0,0,1-.78,1.8,2.69,2.69,0,0,1-1.89.72M19.43,71.51a2.45,2.45,0,0,0-1.85.73L13,76.69a2.77,2.77,0,0,0-.73,1.91A2.6,2.6,0,0,0,13,80.44a3.16,3.16,0,0,0,1.93.75,3.07,3.07,0,0,0,1.91-.75L21.27,76A2.89,2.89,0,0,0,22,74a2.36,2.36,0,0,0-.75-1.79,2.61,2.61,0,0,0-1.86-.7m-1.85-29.8a2.4,2.4,0,0,0,1.85.76A2.55,2.55,0,0,0,22,39.87,2.41,2.41,0,0,0,21.27,38l-4.45-4.6A2.63,2.63,0,0,0,15,32.66a3,3,0,0,0-2,.76,2.81,2.81,0,0,0-.73,1.91A2.77,2.77,0,0,0,13,37.26ZM37.76,61.2a19.16,19.16,0,0,1,2.63-9.79,20.07,20.07,0,0,1,1.33-2c.14-.18.28-.35.43-.52l.1-.11c.25-.3.58-.69,1-1.08l.7-.67c.34-.32.7-.63,1.06-.92l.1-.07a6.9,6.9,0,0,1,.58-.46c.51-.37,1-.69,1.47-1A17.2,17.2,0,0,0,42.81,42a16,16,0,0,0-14.43.9,16.23,16.23,0,0,0-6,6,16.14,16.14,0,0,0,0,16.27A16.17,16.17,0,0,0,28.36,71a15.89,15.89,0,0,0,8.15,2.19,16.38,16.38,0,0,0,4.81-.72c-.38-.54-.74-1.1-1.07-1.68a19.39,19.39,0,0,1-2.49-9.61M14.17,58.84A2.69,2.69,0,0,0,14.89,57,2.73,2.73,0,0,0,14.17,55a2.36,2.36,0,0,0-1.8-.79H6A2.69,2.69,0,0,0,4.11,55,2.64,2.64,0,0,0,3.32,57a2.55,2.55,0,0,0,.79,1.87A2.53,2.53,0,0,0,6,59.61h6.39a2.37,2.37,0,0,0,1.8-.77" fill="#ffd300"/>
    <path d="M103.31,51.59a15,15,0,0,0-8.55-5.42A18.8,18.8,0,0,0,76.42,31.52a18.12,18.12,0,0,0-8.46,2l-.09.05a19.91,19.91,0,0,0-2.93,1.9l0,0c-.38.3-.74.62-1.09.94-.13.11-.24.23-.37.35l-.63.64c-.14.14-.27.29-.41.44l-.52.63L61.5,39q-.33.43-.63.9l-.32.49c-.17.29-.35.59-.51.89s-.16.3-.23.45-.27.56-.4.84l-.2.47a20.39,20.39,0,0,0-.9,2.77h-1c-.58,0-1.15,0-1.71.09s-1,.12-1.46.22l-.11,0c-.47.1-.94.22-1.4.36l-.16.05c-.47.15-.93.33-1.38.52l-.23.1c-.33.15-.66.33-1,.5a3.84,3.84,0,0,0-.35.18l0,0a14.48,14.48,0,0,0-1.45,1l-.54.42c-.28.23-.56.47-.83.72s-.37.35-.55.54-.51.55-.75.84-.29.33-.43.51a14.85,14.85,0,0,0-1.06,1.57,15.11,15.11,0,0,0-2.08,7.76,15.33,15.33,0,0,0,2,7.65A15,15,0,0,0,45,70.77l.24-.16,1.39-3.48a6.45,6.45,0,0,1,4.89-4A6.12,6.12,0,0,1,52.69,63h0a6.42,6.42,0,0,1,2.41.47,6.3,6.3,0,0,1,1.71,1A6.48,6.48,0,0,1,60.91,63,6.21,6.21,0,0,1,65,64.53,6.44,6.44,0,0,1,69.13,63a6.51,6.51,0,0,1,2.42.47,6.4,6.4,0,0,1,1.7,1A6.48,6.48,0,0,1,77.35,63a6.62,6.62,0,0,1,2.41.46A6.5,6.5,0,0,1,83.39,72l-1.91,4.78h10.2A15.37,15.37,0,0,0,102.32,72a15.41,15.41,0,0,0,1-20.36" fill="#5290cc"/>
    <path d="M78.28,67.22a2.51,2.51,0,0,1,1.4,3.25L74,84.67a2.49,2.49,0,0,1-3.25,1.4,2.55,2.55,0,0,1-1.4-3.25L75,68.62a2.64,2.64,0,0,1,.4-.67A2.47,2.47,0,0,1,77.35,67a2.52,2.52,0,0,1,.93.18m-24.66,0a2.56,2.56,0,0,0-.93-.18,2.51,2.51,0,0,0-1.93.91,2.62,2.62,0,0,0-.39.67L44.7,82.82a2.47,2.47,0,0,0,.45,2.56,2.42,2.42,0,0,0,.94.69,2.56,2.56,0,0,0,.93.18,2.5,2.5,0,0,0,2.32-1.58L55,70.47a2.5,2.5,0,0,0-1.39-3.25m8.22,0a2.52,2.52,0,0,0-.93-.18A2.47,2.47,0,0,0,59,68a2.64,2.64,0,0,0-.4.67l-5.67,14.2a2.55,2.55,0,0,0,1.4,3.25,2.49,2.49,0,0,0,3.25-1.4l5.67-14.2a2.51,2.51,0,0,0-1.4-3.25m8.22,0a2.56,2.56,0,0,0-.93-.18A2.51,2.51,0,0,0,67.2,68a2.62,2.62,0,0,0-.39.67l-5.67,14.2a2.47,2.47,0,0,0,.45,2.56,2.42,2.42,0,0,0,.94.69,2.56,2.56,0,0,0,.93.18,2.5,2.5,0,0,0,2.32-1.58l5.67-14.2a2.5,2.5,0,0,0-1.39-3.25" fill="#5290cc"/>
  </g>
</svg>