<svg id="icon-15" xmlns="http://www.w3.org/2000/svg" viewBox="0 0 110 110" data-adreal-did="1606153442928323">
  <title>15</title>
  <g id="icon-15-2" data-name="icon-15">
    <path d="M36.51,29.72A2.69,2.69,0,0,1,34.62,29a2.33,2.33,0,0,1-.78-1.8V20.82a2.7,2.7,0,0,1,2.67-2.67,2.53,2.53,0,0,1,1.87.79,2.56,2.56,0,0,1,.8,1.88V27.2A2.37,2.37,0,0,1,38.4,29a2.69,2.69,0,0,1-1.89.72M19.43,65.9a2.49,2.49,0,0,0-1.85.73L13,71.09a2.74,2.74,0,0,0-.73,1.9A2.62,2.62,0,0,0,13,74.84a3.16,3.16,0,0,0,1.93.75,3.07,3.07,0,0,0,1.91-.75l4.45-4.46a2.86,2.86,0,0,0,.77-2,2.33,2.33,0,0,0-.75-1.78,2.62,2.62,0,0,0-1.86-.71M17.58,36.11a2.4,2.4,0,0,0,1.85.76A2.56,2.56,0,0,0,22,34.26a2.37,2.37,0,0,0-.77-1.84l-4.45-4.6A2.64,2.64,0,0,0,15,27.05a3,3,0,0,0-2,.77,2.89,2.89,0,0,0,0,3.84ZM37.76,55.6a19.07,19.07,0,0,1,4-11.76c.14-.18.28-.35.43-.52l.1-.12c.25-.29.58-.68,1-1.07.23-.23.46-.46.7-.68s.7-.62,1.06-.91l.1-.08c.18-.15.37-.3.58-.45.51-.38,1-.69,1.47-1a16.92,16.92,0,0,0-4.3-2.67,15.7,15.7,0,0,0-6.3-1.31,15.9,15.9,0,0,0-8.13,2.2,16.3,16.3,0,0,0-6,6,16.16,16.16,0,0,0,0,16.28,16.24,16.24,0,0,0,5.94,5.93,16.36,16.36,0,0,0,13,1.46A19.19,19.19,0,0,1,37.76,55.6M14.17,53.23a2.85,2.85,0,0,0,0-3.79,2.32,2.32,0,0,0-1.8-.79H6a2.65,2.65,0,0,0-1.87.76,2.62,2.62,0,0,0-.79,1.93,2.57,2.57,0,0,0,.79,1.88A2.53,2.53,0,0,0,6,54h6.39a2.35,2.35,0,0,0,1.8-.78" fill="#ffd300"/>
    <path d="M103.31,46a14.92,14.92,0,0,0-8.55-5.42A18.8,18.8,0,0,0,76.42,25.92,18.12,18.12,0,0,0,68,28l-.09.05a18.41,18.41,0,0,0-2.93,1.9l0,0c-.38.31-.74.62-1.09.94-.13.12-.24.24-.37.35l-.63.64-.41.45c-.18.2-.35.41-.52.62l-.37.47q-.33.45-.63.9l-.32.5c-.17.29-.35.58-.51.88l-.23.46c-.14.28-.27.56-.4.84s-.13.31-.2.46a20.53,20.53,0,0,0-.9,2.78h-1a16,16,0,0,0-1.71.09c-.49,0-1,.12-1.46.21l-.11,0c-.47.1-.94.22-1.4.36l-.16.05q-.71.23-1.38.51l-.23.11c-.33.15-.66.32-1,.5l-.35.17,0,0a16.55,16.55,0,0,0-1.45,1c-.19.13-.36.28-.54.42s-.56.47-.83.72-.37.35-.55.53-.51.56-.75.85l-.43.5a17.24,17.24,0,0,0-1.06,1.57A15.49,15.49,0,0,0,45,65.17a15.47,15.47,0,0,0,4.13,3.71,14.9,14.9,0,0,0,7.54,2.25h20l4-10.68.2-.53.33-.45a4.86,4.86,0,0,1,3.9-2H94a4.48,4.48,0,0,1,3.9,2,4.41,4.41,0,0,1,.17,4.33l0,.09,0,.1-3.72,6.77h.07a15.26,15.26,0,0,0,8-4.43,15.41,15.41,0,0,0,1-20.36" fill="#5290cc"/>
    <path d="M94.45,74.83a.64.64,0,0,0-.3-.06H87.53l7-12.7c.21-.42,0-.63-.46-.63H85.17a.83.83,0,0,0-.68.41L78,79.1c-.06.42.09.63.44.63h6.4L80.35,91.85h.92L94.5,75.41c.16-.31.14-.5,0-.58" fill="#ec1c24"/>
  </g>
</svg>