<svg id="icon-19" xmlns="http://www.w3.org/2000/svg" viewBox="0 0 110 110" data-adreal-did="1606153465858250">
  <title>19</title>
  <g id="icon-19-2" data-name="icon-19">
    <path d="M94.37,75.47H91.85l1.78-1.78a.78.78,0,0,0,.24-.57.8.8,0,0,0-.24-.58L93.12,72a.81.81,0,0,0-.58-.22A.78.78,0,0,0,92,72l-1.78,1.78V71.29a.81.81,0,0,0-.81-.81h-.73a.81.81,0,0,0-.81.81v2.52L86.06,72a.82.82,0,0,0-.58-.23h0a.78.78,0,0,0-.57.23l-.52.51a.83.83,0,0,0-.23.58.79.79,0,0,0,.23.57l1.78,1.78H83.66a.82.82,0,0,0-.82.81V77a.82.82,0,0,0,.82.81h2.52L84.4,79.6a.82.82,0,0,0,0,1.15l.52.52a.83.83,0,0,0,.58.23.79.79,0,0,0,.57-.23l1.78-1.79V82a.82.82,0,0,0,.81.82h.73a.82.82,0,0,0,.81-.82V79.49L92,81.26a.78.78,0,0,0,.57.24.82.82,0,0,0,.58-.23l.51-.52a.76.76,0,0,0,.24-.57.78.78,0,0,0-.24-.58l-1.78-1.78h2.52a.81.81,0,0,0,.81-.81v-.73a.81.81,0,0,0-.81-.81" fill="#5290cc"/>
    <path d="M36.51,35.32a2.69,2.69,0,0,1-1.89-.72,2.35,2.35,0,0,1-.78-1.8V26.41a2.7,2.7,0,0,1,2.67-2.66,2.72,2.72,0,0,1,2.67,2.66V32.8a2.35,2.35,0,0,1-.78,1.8,2.69,2.69,0,0,1-1.89.72M19.43,71.5a2.45,2.45,0,0,0-1.85.73L13,76.69a2.74,2.74,0,0,0-.73,1.9A2.64,2.64,0,0,0,13,80.44a3.21,3.21,0,0,0,1.93.74,3.11,3.11,0,0,0,1.91-.74L21.28,76A2.91,2.91,0,0,0,22,74a2.36,2.36,0,0,0-.75-1.79,2.61,2.61,0,0,0-1.86-.7M17.58,41.71a2.43,2.43,0,0,0,1.85.76A2.56,2.56,0,0,0,22,39.86,2.41,2.41,0,0,0,21.27,38l-4.45-4.59A2.64,2.64,0,0,0,15,32.65a3,3,0,0,0-2,.77,2.79,2.79,0,0,0-.73,1.9A2.76,2.76,0,0,0,13,37.25ZM37.76,61.2a19.1,19.1,0,0,1,2.63-9.79,20.67,20.67,0,0,1,1.33-2c.14-.19.29-.36.43-.53l.1-.11c.25-.3.58-.68,1-1.07.23-.24.46-.46.7-.68s.7-.62,1.06-.91l.09-.08c.19-.15.38-.31.59-.45a15.62,15.62,0,0,1,1.47-1A17,17,0,0,0,42.81,42a16,16,0,0,0-14.43.9,16.23,16.23,0,0,0-6,6,16.14,16.14,0,0,0,0,16.27A16.27,16.27,0,0,0,28.36,71a16,16,0,0,0,8.15,2.18,16.38,16.38,0,0,0,4.81-.72,19.17,19.17,0,0,1-1.07-1.68,19.38,19.38,0,0,1-2.49-9.6M14.17,58.83a2.85,2.85,0,0,0,0-3.79,2.33,2.33,0,0,0-1.8-.8H6A2.66,2.66,0,0,0,4.11,55a2.6,2.6,0,0,0-.79,1.93,2.53,2.53,0,0,0,.79,1.87,2.54,2.54,0,0,0,1.87.8h6.39a2.35,2.35,0,0,0,1.8-.78" fill="#ffd300"/>
    <path d="M103.31,51.59a14.92,14.92,0,0,0-8.55-5.42A18.77,18.77,0,0,0,76.42,31.52a17.93,17.93,0,0,0-8.45,2l-.1,0a19.18,19.18,0,0,0-2.93,1.91l0,0c-.38.3-.74.62-1.09.94-.13.12-.24.24-.37.35l-.63.64-.41.45-.52.62L61.5,39q-.33.44-.63.9l-.32.49c-.17.3-.35.59-.51.89-.08.15-.16.3-.23.46s-.27.55-.4.84-.13.31-.19.46a19.52,19.52,0,0,0-.91,2.77h-1a16,16,0,0,0-1.71.1c-.49.05-1,.12-1.46.21l-.11,0a12.88,12.88,0,0,0-1.39.36l-.17,0c-.47.16-.93.33-1.38.52l-.23.1-1,.5c-.12.07-.24.11-.35.18l0,0a14.56,14.56,0,0,0-1.45,1c-.19.13-.36.27-.54.41s-.56.48-.83.73-.37.35-.55.53-.51.56-.75.85l-.43.5a17.24,17.24,0,0,0-1.06,1.57,15.12,15.12,0,0,0-2.08,7.77,15.3,15.3,0,0,0,2,7.64A14.3,14.3,0,0,0,45,70.76a15.33,15.33,0,0,0,4.13,3.72,14.89,14.89,0,0,0,7.54,2.24h2.57l3.83-9.59a6.48,6.48,0,0,1,8.45-3.63,6.17,6.17,0,0,1,1.7,1A6.5,6.5,0,0,1,83.33,67a7.1,7.1,0,0,1,.37,1.16,4.74,4.74,0,0,1,1.62-.34,4.79,4.79,0,0,1,3.31-1.32h.73a4.79,4.79,0,0,1,3.32,1.33,4.81,4.81,0,0,1,3.25,1.39l.5.5A4.83,4.83,0,0,1,97.85,73a4.94,4.94,0,0,1,1,1.69A16.53,16.53,0,0,0,102.32,72a15.41,15.41,0,0,0,1-20.36" fill="#5290cc"/>
    <path d="M78.27,67.23a2.49,2.49,0,0,1,1.4,3.24L74,84.68a2.49,2.49,0,0,1-2.32,1.57,2.39,2.39,0,0,1-1.88-.86,2.5,2.5,0,0,1-.44-2.56L75,68.62a2.42,2.42,0,0,1,.4-.66,2.48,2.48,0,0,1,1.93-.91,2.32,2.32,0,0,1,.92.18m-8.23,0a2.33,2.33,0,0,0-.93-.18,2.47,2.47,0,0,0-1.92.91,2.42,2.42,0,0,0-.4.66L61.12,82.83a2.48,2.48,0,0,0,.45,2.56,2.56,2.56,0,0,0,1,.69,2.46,2.46,0,0,0,.92.17,2.5,2.5,0,0,0,2.33-1.57l5.67-14.21A2.5,2.5,0,0,0,70,67.23" fill="#5290cc"/>
  </g>
</svg>