<svg id="icon-2" xmlns="http://www.w3.org/2000/svg" viewBox="0 0 110 110" data-adreal-did="1606153344530151">
  <title>2</title>
  <g id="icon-2-2" data-name="icon-2">
    <path d="M34.54,76.36a15.52,15.52,0,0,0,7.4,13.29,14.89,14.89,0,0,0,7.54,2.24h35A15.36,15.36,0,0,0,95.1,87.12a15.45,15.45,0,0,0-7.56-25.79A18.48,18.48,0,0,0,81,50.8,18.28,18.28,0,0,0,69.2,46.69a18.05,18.05,0,0,0-8.48,2c-.23.12-.45.27-.68.4s-.62.35-.92.54a17.58,17.58,0,0,0-1.45,1c-.38.3-.74.62-1.09.94-.13.11-.25.23-.37.35s-.43.42-.64.64l-.39.44c-.19.21-.36.42-.54.64l-.36.45c-.23.31-.45.62-.66.94l-.28.45c-.18.29-.36.59-.52.9-.08.15-.16.3-.23.45s-.28.56-.4.85l-.2.45a20.53,20.53,0,0,0-.9,2.78h-1a16.37,16.37,0,0,0-1.72.1c-.49.05-1,.12-1.45.21l-.1,0a13.26,13.26,0,0,0-1.41.37l-.16,0c-.47.15-.93.33-1.38.52l-.24.11a13.79,13.79,0,0,0-1.33.67h0c-.52.3-1,.63-1.49,1l-.53.42a9.63,9.63,0,0,0-.83.73,6.88,6.88,0,0,0-.55.53c-.27.27-.52.56-.76.85s-.29.32-.42.5a15.41,15.41,0,0,0-1.06,1.57,15,15,0,0,0-2.08,7.76" fill="#b3e3f9"/>
    <path d="M58.7,45c0,.08,0,.15.08.22h0c-.6.31-1.19.66-1.78,1l-.07,0c-.59.39-1.18.8-1.75,1.26a22.25,22.25,0,0,0-7,9.5,19.41,19.41,0,0,0-7.84,2.47c-.51.3-1,.62-1.49,1l-.3.22c-.48.34-1,.71-1.39,1.09h0c-.45.4-.88.82-1.3,1.26l-.13.14c-.42.46-.82.93-1.2,1.43a16.33,16.33,0,0,1-4.83-5.19,16.16,16.16,0,0,1,0-16.28,16.38,16.38,0,0,1,6-6A15.9,15.9,0,0,1,43.73,35,15.7,15.7,0,0,1,50,36.32a16.59,16.59,0,0,1,5.2,3.48A16.34,16.34,0,0,1,58.7,45M26.65,65.86a2.43,2.43,0,0,0-1.84.74l-4.6,4.45a2.77,2.77,0,0,0-.74,1.9,2.63,2.63,0,0,0,.74,1.85,2.83,2.83,0,0,0,3.84,0l4.45-4.45a2.89,2.89,0,0,0,.76-2,2.33,2.33,0,0,0-.75-1.78,2.62,2.62,0,0,0-1.86-.71M19.59,48.61H13.2a2.67,2.67,0,0,0-1.87.76,2.62,2.62,0,0,0-.79,1.93A2.7,2.7,0,0,0,13.2,54h6.39a2.35,2.35,0,0,0,1.8-.78,2.67,2.67,0,0,0,.72-1.89,2.73,2.73,0,0,0-.72-1.9,2.32,2.32,0,0,0-1.8-.79M43.73,29.68A2.69,2.69,0,0,0,45.62,29a2.32,2.32,0,0,0,.78-1.8V20.78a2.7,2.7,0,0,0-2.67-2.67,2.7,2.7,0,0,0-2.66,2.67v6.38a2.34,2.34,0,0,0,.77,1.8,2.69,2.69,0,0,0,1.89.72m17.05,7.15a2.74,2.74,0,0,0,1.88-.76l4.57-4.45A2.63,2.63,0,0,0,68,29.68a2.56,2.56,0,0,0-.78-1.87A2.51,2.51,0,0,0,65.32,27a2.63,2.63,0,0,0-1.84.76L59,32.38a2.43,2.43,0,0,0-.71,1.84A2.58,2.58,0,0,0,59,36.08a2.28,2.28,0,0,0,1.75.75m-32.27-.75a2.49,2.49,0,0,0,.75-1.86,2.38,2.38,0,0,0-.76-1.84L24,27.78A2.61,2.61,0,0,0,22.2,27a3,3,0,0,0-2,.76,2.86,2.86,0,0,0,0,3.84l4.6,4.45a2.38,2.38,0,0,0,1.84.76,2.53,2.53,0,0,0,1.86-.75" fill="#ffd300"/>
  </g>
</svg>