<svg id="icon-20" xmlns="http://www.w3.org/2000/svg" viewBox="0 0 110 110" data-adreal-did="1606153473212131">
  <title>20</title>
  <g id="icon-20-2" data-name="icon-20">
    <path d="M34.47,35.32a2.69,2.69,0,0,1-1.89-.72,2.37,2.37,0,0,1-.77-1.8V26.41a2.67,2.67,0,0,1,5.33,0V32.8a2.35,2.35,0,0,1-.78,1.8,2.65,2.65,0,0,1-1.89.72M17.39,71.5a2.43,2.43,0,0,0-1.84.73L11,76.69a2.74,2.74,0,0,0-.73,1.9A2.64,2.64,0,0,0,11,80.44a3.18,3.18,0,0,0,1.92.74,3.14,3.14,0,0,0,1.92-.74L19.24,76A2.88,2.88,0,0,0,20,74a2.36,2.36,0,0,0-.75-1.79,2.57,2.57,0,0,0-1.86-.7M15.55,41.7a2.38,2.38,0,0,0,1.84.77,2.49,2.49,0,0,0,1.86-.75A2.53,2.53,0,0,0,20,39.86,2.4,2.4,0,0,0,19.24,38l-4.45-4.6a2.7,2.7,0,0,0-1.85-.76,3.06,3.06,0,0,0-2,.76,2.79,2.79,0,0,0-.73,1.91A2.73,2.73,0,0,0,11,37.25ZM35.73,61.19a19,19,0,0,1,2.63-9.78,20.17,20.17,0,0,1,1.33-2c.14-.18.28-.35.43-.52l.1-.11c.24-.3.57-.68,1-1.07.23-.24.46-.46.7-.68s.69-.62,1.05-.91l.1-.08c.19-.15.38-.31.58-.45a17,17,0,0,1,1.47-1A16.61,16.61,0,0,0,40.77,42a16,16,0,0,0-14.43.9,16.3,16.3,0,0,0-6,6,16.2,16.2,0,0,0,0,16.27A16.37,16.37,0,0,0,26.33,71a15.94,15.94,0,0,0,8.14,2.18,16.28,16.28,0,0,0,4.81-.72c-.37-.54-.73-1.1-1.06-1.68a19.39,19.39,0,0,1-2.49-9.61M12.14,58.83a2.72,2.72,0,0,0,.71-1.89A2.79,2.79,0,0,0,12.14,55a2.36,2.36,0,0,0-1.81-.79H4A2.68,2.68,0,0,0,2.07,55a2.6,2.6,0,0,0-.79,1.93,2.53,2.53,0,0,0,.79,1.87A2.55,2.55,0,0,0,4,59.6h6.38a2.35,2.35,0,0,0,1.81-.77" fill="#ffd300"/>
    <path d="M101.28,51.58a15.09,15.09,0,0,0-8.55-5.42,18.45,18.45,0,0,0-6.6-10.53,18.78,18.78,0,0,0-20.2-2.09l-.09.05A19.28,19.28,0,0,0,62.9,35.5l0,0c-.38.3-.74.62-1.1.94l-.36.35c-.22.21-.43.42-.63.64l-.41.45c-.18.2-.35.41-.52.62s-.26.31-.37.47-.44.59-.64.9-.21.33-.31.49-.35.59-.51.89c-.09.15-.16.3-.24.46s-.27.55-.39.84-.14.3-.2.46a20.85,20.85,0,0,0-.9,2.77h-1a16,16,0,0,0-1.71.1c-.5.05-1,.12-1.46.21l-.11,0c-.47.1-.94.22-1.4.36l-.16,0c-.47.15-.93.33-1.39.52l-.22.1c-.34.15-.67.33-1,.5l-.35.18-.05,0a16.47,16.47,0,0,0-1.45.95l-.53.42c-.29.24-.57.48-.84.73l-.55.53c-.26.27-.51.56-.75.85s-.29.32-.42.5a15.41,15.41,0,0,0-1.06,1.57,15,15,0,0,0-2.08,7.76,15.31,15.31,0,0,0,2,7.65A14.3,14.3,0,0,0,43,70.76l.23-.15,1.39-3.48a6.47,6.47,0,0,1,4.9-4A7.1,7.1,0,0,1,50.66,63h0a6.5,6.5,0,0,1,2.41.47,6.4,6.4,0,0,1,1.7,1A6.53,6.53,0,0,1,58.88,63a6.42,6.42,0,0,1,2.41.47,6.51,6.51,0,0,1,1.68,1,6.53,6.53,0,0,1,8.25,0,6.44,6.44,0,0,1,6.51-1A6.41,6.41,0,0,1,81.29,67a7.15,7.15,0,0,1,.38,1.16,4.69,4.69,0,0,1,1.62-.34,4.76,4.76,0,0,1,3.3-1.32h.73a4.76,4.76,0,0,1,3.32,1.33,4.79,4.79,0,0,1,3.25,1.39l.51.5c.12.13.23.28.34.41.11-.13.21-.27.34-.4l.48-.49a4.82,4.82,0,0,1,3.29-1.42,4.79,4.79,0,0,1,3.31-1.32h.73a4.58,4.58,0,0,1,.83.08,15.44,15.44,0,0,0,.93-5.36,15,15,0,0,0-3.37-9.61" fill="#5290cc"/>
    <path d="M59.81,67.23a2.5,2.5,0,0,1,1.4,3.25l-5.67,14.2a2.49,2.49,0,0,1-2.32,1.57,2.55,2.55,0,0,1-.93-.17,2.65,2.65,0,0,1-.95-.69,2.49,2.49,0,0,1-.44-2.56l5.67-14.21A2.3,2.3,0,0,1,57,68a2.48,2.48,0,0,1,2.85-.73m8.21,0a2.51,2.51,0,0,0-.92-.18,2.48,2.48,0,0,0-1.93.91,2.58,2.58,0,0,0-.4.66L59.11,82.83a2.49,2.49,0,0,0,.44,2.56,2.39,2.39,0,0,0,1.88.86,2.49,2.49,0,0,0,2.32-1.57l5.67-14.2A2.5,2.5,0,0,0,68,67.23m8.24,0a2.52,2.52,0,0,0-.93-.18,2.47,2.47,0,0,0-1.92.91,2.58,2.58,0,0,0-.4.66L67.34,82.83a2.47,2.47,0,0,0,.45,2.56,2.56,2.56,0,0,0,.95.69A2.53,2.53,0,0,0,72,84.68l5.67-14.2a2.5,2.5,0,0,0-1.4-3.25m-24.68,0a2.52,2.52,0,0,0-.93-.18,2.47,2.47,0,0,0-1.92.91,2.58,2.58,0,0,0-.4.66L42.67,82.83a2.47,2.47,0,0,0,.44,2.56,2.56,2.56,0,0,0,1,.69,2.53,2.53,0,0,0,3.25-1.4L53,70.48a2.5,2.5,0,0,0-1.4-3.25" fill="#5290cc"/>
    <path d="M92.34,75.47a.82.82,0,0,1,.81.81V77a.81.81,0,0,1-.81.81H89.81l1.79,1.79a.82.82,0,0,1,0,1.14l-.52.52a.81.81,0,0,1-.57.23.83.83,0,0,1-.58-.23l-1.77-1.78V82a.82.82,0,0,1-.82.81h-.73A.82.82,0,0,1,85.8,82V79.49L84,81.27a.82.82,0,0,1-.56.24.81.81,0,0,1-.58-.24l-.52-.52a.8.8,0,0,1-.24-.57.84.84,0,0,1,.24-.58l1.78-1.78H81.62a.81.81,0,0,1-.81-.81v-.73a.81.81,0,0,1,.81-.81h2.52l-1.78-1.78a.8.8,0,0,1-.24-.57.84.84,0,0,1,.24-.58l.51-.51a.82.82,0,0,1,.58-.23h0A.78.78,0,0,1,84,72l1.78,1.78V71.29a.81.81,0,0,1,.81-.81h.73a.82.82,0,0,1,.82.81v2.52L89.93,72a.81.81,0,0,1,.58-.22.82.82,0,0,1,.58.22l.51.52a.8.8,0,0,1,0,1.14l-1.78,1.78h2.52m15.57,0h-2.52l1.78-1.78a.8.8,0,0,0,0-1.14l-.51-.52a.82.82,0,0,0-.58-.22.77.77,0,0,0-.57.22l-1.78,1.78V71.29a.81.81,0,0,0-.81-.81h-.74a.8.8,0,0,0-.8.81v2.52L99.6,72A.82.82,0,0,0,99,71.8h0a.78.78,0,0,0-.57.23l-.52.51a.84.84,0,0,0-.24.58.8.8,0,0,0,.24.57l1.78,1.78H97.19a.81.81,0,0,0-.81.81V77a.81.81,0,0,0,.81.81h2.52L97.93,79.6a.84.84,0,0,0-.24.58.8.8,0,0,0,.24.57l.52.52a.83.83,0,0,0,.58.24.8.8,0,0,0,.56-.24l1.79-1.78V82a.81.81,0,0,0,.8.81h.74a.82.82,0,0,0,.81-.81V79.49l1.77,1.78a.85.85,0,0,0,.58.23.81.81,0,0,0,.57-.23l.52-.52a.8.8,0,0,0,0-1.14l-1.78-1.79h2.52a.81.81,0,0,0,.81-.81v-.73a.82.82,0,0,0-.81-.81" fill="#5290cc"/>
  </g>
</svg>