<svg id="icon-21" xmlns="http://www.w3.org/2000/svg" viewBox="0 0 110 110" data-adreal-did="1606153478607008">
  <title>21</title>
  <g id="icon-21-2" data-name="icon-21">
    <path d="M34.48,34.2a2.69,2.69,0,0,1-1.89-.72,2.35,2.35,0,0,1-.78-1.8V25.29a2.7,2.7,0,0,1,2.67-2.66,2.53,2.53,0,0,1,1.87.79,2.56,2.56,0,0,1,.8,1.87v6.39a2.35,2.35,0,0,1-.78,1.8,2.69,2.69,0,0,1-1.89.72M17.4,70.38a2.49,2.49,0,0,0-1.85.73L11,75.57a2.74,2.74,0,0,0-.73,1.9A2.64,2.64,0,0,0,11,79.32a3.21,3.21,0,0,0,1.93.74,3.11,3.11,0,0,0,1.91-.74l4.46-4.46a2.91,2.91,0,0,0,.76-2,2.36,2.36,0,0,0-.75-1.79,2.61,2.61,0,0,0-1.86-.7M15.55,40.59a2.43,2.43,0,0,0,1.85.76A2.56,2.56,0,0,0,20,38.74a2.37,2.37,0,0,0-.77-1.84l-4.45-4.6A2.64,2.64,0,0,0,13,31.53a3,3,0,0,0-2,.77,2.79,2.79,0,0,0-.73,1.9A2.76,2.76,0,0,0,11,36.13ZM34.22,61.91h0a6.33,6.33,0,0,1,1.62.22,20,20,0,0,1-.11-2.05,19.13,19.13,0,0,1,2.63-9.79,22.12,22.12,0,0,1,1.33-2l.43-.52.1-.11c.25-.29.57-.68,1-1.07.23-.23.46-.46.7-.68s.7-.62,1.06-.91l.1-.08.57-.45c.51-.38,1-.69,1.48-1a16.64,16.64,0,0,0-4.3-2.67,16,16,0,0,0-14.43.89,16.23,16.23,0,0,0-6,6,16.16,16.16,0,0,0,0,16.28,16.24,16.24,0,0,0,5.94,5.93l.25.13,1.61-4a6.46,6.46,0,0,1,6-4.1m-22.08-4.2a2.85,2.85,0,0,0,0-3.79,2.32,2.32,0,0,0-1.8-.79H4a2.65,2.65,0,0,0-1.87.76,2.6,2.6,0,0,0-.79,1.93,2.53,2.53,0,0,0,.79,1.87,2.54,2.54,0,0,0,1.87.8h6.39a2.35,2.35,0,0,0,1.8-.78" fill="#ffd300"/>
    <path d="M101.28,50.47a14.92,14.92,0,0,0-8.55-5.42A18.77,18.77,0,0,0,74.39,30.4a18,18,0,0,0-8.46,2l-.09,0a19.18,19.18,0,0,0-2.93,1.91l0,0c-.38.3-.74.62-1.09.94-.13.12-.24.24-.37.35l-.63.64-.41.45c-.18.2-.35.41-.52.62l-.37.47c-.22.29-.43.6-.63.9l-.32.49c-.17.3-.35.59-.51.89l-.23.46c-.14.27-.27.55-.4.84s-.13.31-.2.46a20.85,20.85,0,0,0-.9,2.77h-1a16,16,0,0,0-1.71.1c-.49.05-1,.12-1.46.21L52,45a13.69,13.69,0,0,0-1.4.36l-.16,0q-.7.23-1.38.51l-.23.1-1,.5c-.12.07-.24.11-.35.18l0,0a16.55,16.55,0,0,0-1.45,1c-.19.13-.36.27-.54.42s-.56.47-.83.72-.37.35-.55.53-.51.56-.75.85-.29.32-.43.5a17.24,17.24,0,0,0-1.06,1.57,15.15,15.15,0,0,0-2.08,7.77,16.7,16.7,0,0,0,.18,2.36,6.51,6.51,0,0,1,2.53-.53,6.42,6.42,0,0,1,2.41.47,6.56,6.56,0,0,1,1.69,1,6.49,6.49,0,0,1,3-1.38,7.1,7.1,0,0,1,1.14-.11h0a6.42,6.42,0,0,1,2.41.47,6.33,6.33,0,0,1,1.71,1,6.42,6.42,0,0,1,6.51-1,6.56,6.56,0,0,1,1.69,1,6.45,6.45,0,0,1,6.54-1,6.43,6.43,0,0,1,1.7,1,6.42,6.42,0,0,1,6.51-1,6.76,6.76,0,0,1,1.5.87c.1-.11.18-.23.29-.34l.48-.48A4.78,4.78,0,0,1,83.29,61a4.79,4.79,0,0,1,3.31-1.32h.73A4.79,4.79,0,0,1,90.65,61,4.81,4.81,0,0,1,93.9,62.4l.5.51a3.36,3.36,0,0,1,.34.41c.11-.14.22-.28.34-.41l.49-.48A4.78,4.78,0,0,1,98.86,61a4.76,4.76,0,0,1,3.3-1.32h.73a4.68,4.68,0,0,1,1.76.34,14.91,14.91,0,0,0-3.37-9.55" fill="#5290cc"/>
    <path d="M92.33,68.66a.81.81,0,0,1,.81.81v.74a.8.8,0,0,1-.81.8H89.81l1.78,1.79a.76.76,0,0,1,.24.57.8.8,0,0,1-.24.58l-.51.51a.83.83,0,0,1-1.15,0l-1.78-1.78V75.2a.81.81,0,0,1-.81.81h-.73a.81.81,0,0,1-.81-.81V72.68L84,74.46a.8.8,0,0,1-.57.24.84.84,0,0,1-.58-.24l-.52-.52a.78.78,0,0,1-.23-.57.8.8,0,0,1,.24-.58L84.14,71H81.62a.81.81,0,0,1-.82-.8v-.74a.82.82,0,0,1,.82-.81h2.51l-1.78-1.77a.83.83,0,0,1-.23-.58.79.79,0,0,1,.23-.57l.52-.52a.78.78,0,0,1,.57-.23h0a.82.82,0,0,1,.58.23L85.8,67V64.48a.81.81,0,0,1,.81-.81h.73a.81.81,0,0,1,.81.81V67l1.78-1.78A.78.78,0,0,1,90.5,65a.78.78,0,0,1,.58.23l.51.51a.76.76,0,0,1,.24.57.8.8,0,0,1-.24.58l-1.78,1.77h2.52m15.57,0h-2.52l1.78-1.77a.8.8,0,0,0,.24-.58.76.76,0,0,0-.24-.57l-.51-.51a.76.76,0,0,0-.58-.23.78.78,0,0,0-.57.22L103.72,67V64.48a.81.81,0,0,0-.81-.81h-.73a.81.81,0,0,0-.81.81V67l-1.78-1.78A.82.82,0,0,0,99,65h0a.79.79,0,0,0-.57.23l-.51.52a.76.76,0,0,0-.24.57.8.8,0,0,0,.24.58l1.78,1.77H97.19a.81.81,0,0,0-.81.81v.74a.8.8,0,0,0,.81.8h2.52l-1.78,1.78a.8.8,0,0,0-.24.58.75.75,0,0,0,.24.57l.51.52a.84.84,0,0,0,.58.24.8.8,0,0,0,.57-.24l1.78-1.78V75.2a.81.81,0,0,0,.81.81h.73a.81.81,0,0,0,.81-.81V72.68l1.78,1.78a.83.83,0,0,0,1.15,0l.51-.51a.8.8,0,0,0,.24-.58.76.76,0,0,0-.24-.57L105.38,71h2.52a.8.8,0,0,0,.81-.8v-.74a.81.81,0,0,0-.81-.81M100.12,80H97.6l1.78-1.78a.84.84,0,0,0,.24-.58.82.82,0,0,0-.24-.57l-.51-.51a.83.83,0,0,0-.58-.23.85.85,0,0,0-.58.22l-1.77,1.78V75.84a.82.82,0,0,0-.81-.81h-.74a.81.81,0,0,0-.8.81v2.53L91.8,76.59a.78.78,0,0,0-.57-.24h0a.82.82,0,0,0-.57.23l-.52.52a.81.81,0,0,0,0,1.15L91.92,80H89.4a.81.81,0,0,0-.81.81v.73a.81.81,0,0,0,.81.81h2.52l-1.78,1.78a.8.8,0,0,0-.24.57.83.83,0,0,0,.24.58l.52.51a.8.8,0,0,0,1.14,0L93.59,84v2.52a.8.8,0,0,0,.8.81h.74a.81.81,0,0,0,.81-.81V84l1.77,1.78a.79.79,0,0,0,.58.23.77.77,0,0,0,.57-.23l.52-.51a.81.81,0,0,0,0-1.15L97.6,82.38h2.52a.82.82,0,0,0,.81-.81v-.73a.81.81,0,0,0-.81-.81" fill="#5290cc"/>
    <path d="M43.36,66.12a2.5,2.5,0,0,1,1.39,3.25L39.09,83.58A2.5,2.5,0,0,1,35.84,85a2.44,2.44,0,0,1-1-.68,2.49,2.49,0,0,1-.45-2.57l5.67-14.2a2.94,2.94,0,0,1,.39-.67,2.5,2.5,0,0,1,2.86-.73m8.21,0a2.5,2.5,0,0,0-2.86.73,2.62,2.62,0,0,0-.39.67l-5.67,14.2a2.49,2.49,0,0,0,.45,2.57,2.44,2.44,0,0,0,.95.68,2.49,2.49,0,0,0,3.24-1.39L53,69.37a2.5,2.5,0,0,0-1.39-3.25m8.24,0a2.5,2.5,0,0,0-2.86.73,2.62,2.62,0,0,0-.39.67l-5.67,14.2a2.49,2.49,0,0,0,.45,2.57,2.4,2.4,0,0,0,.94.68,2.56,2.56,0,0,0,.93.18,2.49,2.49,0,0,0,2.32-1.57L61.2,69.37a2.51,2.51,0,0,0-1.39-3.25m-24.68,0a2.5,2.5,0,0,0-2.86.73,2.62,2.62,0,0,0-.39.67l-5.67,14.2a2.49,2.49,0,0,0,.45,2.57,2.36,2.36,0,0,0,.95.68,2.49,2.49,0,0,0,3.24-1.39l5.67-14.21a2.51,2.51,0,0,0-1.39-3.25m32.89,0a2.48,2.48,0,0,0-2.85.73,2.64,2.64,0,0,0-.4.67L59.1,81.72a2.49,2.49,0,0,0,.45,2.57,2.44,2.44,0,0,0,1,.68,2.5,2.5,0,0,0,3.25-1.39l5.67-14.21A2.51,2.51,0,0,0,68,66.12m8.24,0a2.5,2.5,0,0,0-2.86.73,2.62,2.62,0,0,0-.39.67l-5.67,14.2a2.49,2.49,0,0,0,.45,2.57,2.36,2.36,0,0,0,.95.68A2.49,2.49,0,0,0,72,83.58l5.67-14.21a2.5,2.5,0,0,0-1.39-3.25" fill="#5290cc"/>
  </g>
</svg>