<svg id="icon-22" xmlns="http://www.w3.org/2000/svg" viewBox="0 0 110 110" data-adreal-did="1606153504627557">
  <title>22</title>
  <g id="icon-22-2" data-name="icon-22">
    <path d="M19.87,27a2.89,2.89,0,0,1,0-3.84,3,3,0,0,1,2-.76,2.65,2.65,0,0,1,1.85.76l4.45,4.6a2.38,2.38,0,0,1,.76,1.84,2.55,2.55,0,0,1-2.61,2.61,2.38,2.38,0,0,1-1.84-.76Zm1.92,43.93a3.12,3.12,0,0,0,1.92-.75l4.45-4.45a2.89,2.89,0,0,0,.76-2,2.33,2.33,0,0,0-.75-1.78,2.58,2.58,0,0,0-1.86-.71,2.43,2.43,0,0,0-1.84.74l-4.6,4.45a2.76,2.76,0,0,0-.73,1.9,2.62,2.62,0,0,0,.73,1.85,3.14,3.14,0,0,0,1.92.75M12.87,49.33h6.38a2.32,2.32,0,0,0,1.8-.78,2.65,2.65,0,0,0,.72-1.89,2.73,2.73,0,0,0-.72-1.9,2.29,2.29,0,0,0-1.8-.79H12.87a2.67,2.67,0,0,0-1.88.76,2.62,2.62,0,0,0-.79,1.93,2.7,2.7,0,0,0,2.67,2.67M43.39,25a2.69,2.69,0,0,0,1.89-.71,2.35,2.35,0,0,0,.78-1.81V16.14a2.67,2.67,0,0,0-5.33,0v6.38a2.38,2.38,0,0,0,.77,1.81,2.72,2.72,0,0,0,1.89.71M29.3,54.81A16.25,16.25,0,0,0,34.14,60l0,0h0c.14-.18.28-.35.43-.52l.1-.11.43-.51.49-.53,0,0c.23-.24.46-.46.7-.68l0,0c.31-.28.62-.55.95-.81l.07-.06.09-.08.58-.46h0l.53-.38c.4-.27.78-.52,1.16-.74l0,0,.12-.06h0c.51-.29,1.06-.57,1.67-.85h.06l.23-.1h0c.58-.25,1.17-.47,1.73-.65h0l.21-.07h0c.57-.17,1.15-.32,1.72-.44l.06,0,.12,0h0c.57-.11,1.17-.2,1.83-.27h0l.15,0c0-.1.09-.21.14-.31l0-.06.24-.56v0c.15-.33.3-.65.46-1v0l.06-.1c.05-.11.1-.21.16-.32l.06-.13.28-.49c.05-.09.1-.18.16-.27s.12-.21.2-.33.25-.4.38-.6.08-.12.12-.18.23-.35.35-.51l.3-.42.37-.47.09-.1a5.58,5.58,0,0,1,.39-.46l.13-.17.11-.13.5-.54c.24-.25.48-.5.73-.74l0,0,.09-.09.31-.3,0,0,.38-.33c.31-.27.61-.54.93-.79h0l.11-.09c.32-.25.65-.47,1-.7s.46-.34.7-.5c.43-.28.89-.53,1.34-.78l.47-.28a1.89,1.89,0,0,0-.09-.21,16.12,16.12,0,0,0-3.47-5.21,16.59,16.59,0,0,0-5.2-3.48,15.69,15.69,0,0,0-6.3-1.3,15.89,15.89,0,0,0-8.13,2.19,16.4,16.4,0,0,0-6,6,16.2,16.2,0,0,0,0,16.27M60.44,32.19a2.74,2.74,0,0,0,1.88-.76L66.89,27a2.75,2.75,0,0,0,0-3.81A2.55,2.55,0,0,0,65,22.38a2.64,2.64,0,0,0-1.85.76l-4.45,4.6A2.43,2.43,0,0,0,58,29.58a2.62,2.62,0,0,0,.71,1.87,2.33,2.33,0,0,0,1.75.74" fill="#ffd300"/>
    <path d="M56.15,82.72a4.3,4.3,0,0,1,0-.62,5.17,5.17,0,0,1,1.53-3.69l.74-.73a5.22,5.22,0,0,1,3.71-1.55,4.17,4.17,0,0,1,.61,0,5.2,5.2,0,0,1,4.1-2h1.08a5.2,5.2,0,0,1,4.11,2q.3,0,.6,0a5.23,5.23,0,0,1,3.69,1.5l.75.75a5.2,5.2,0,0,1,1.54,3.7c0,.21,0,.41,0,.62a5.19,5.19,0,0,1,2,4.08v.45H84.8a15.34,15.34,0,0,0,10.63-4.77A15.44,15.44,0,0,0,87.88,56.7a18.44,18.44,0,0,0-6.6-10.54,18.23,18.23,0,0,0-11.74-4.11,18,18,0,0,0-8.46,2l-.09,0A19.28,19.28,0,0,0,58.05,46l0,0c-.38.3-.74.62-1.1.94l-.36.35c-.22.21-.43.42-.63.64l-.41.45c-.18.2-.35.41-.52.62s-.26.31-.37.47-.44.59-.64.9-.21.33-.31.5-.35.58-.51.88c-.09.15-.16.31-.24.46s-.27.55-.39.84-.14.3-.2.46a19.49,19.49,0,0,0-.9,2.77h-1a16,16,0,0,0-1.7.1c-.5.05-1,.12-1.46.21l-.11,0a11.51,11.51,0,0,0-1.4.36l-.17,0c-.46.15-.92.33-1.38.52l-.22.1c-.46.21-.91.43-1.35.68l0,0a14.56,14.56,0,0,0-1.45,1l-.53.41c-.29.24-.57.48-.84.73l-.55.53c-.26.27-.51.56-.75.85s-.29.32-.42.5A15.41,15.41,0,0,0,37,64a15,15,0,0,0-2.08,7.77A15.54,15.54,0,0,0,42.27,85a14.93,14.93,0,0,0,7.55,2.24h4.34V86.8a5.19,5.19,0,0,1,2-4.08" fill="#5290cc"/>
    <path d="M75.31,85.6H71.56L74.21,83a1.18,1.18,0,0,0,.36-.85,1.2,1.2,0,0,0-.36-.86l-.76-.76a1.22,1.22,0,0,0-.86-.33,1.18,1.18,0,0,0-.85.33l-2.65,2.64V79.38a1.21,1.21,0,0,0-1.21-1.21H66.8a1.21,1.21,0,0,0-1.21,1.21v3.75l-2.65-2.65a1.19,1.19,0,0,0-.85-.35h0a1.21,1.21,0,0,0-.85.35l-.76.76a1.2,1.2,0,0,0-.36.86,1.18,1.18,0,0,0,.36.85l2.64,2.65H59.37a1.21,1.21,0,0,0-1.21,1.2v1.09a1.21,1.21,0,0,0,1.21,1.21h3.75l-.16.15-2,2-.49.49a1.22,1.22,0,0,0-.36.86,1.2,1.2,0,0,0,.36.86l.77.77a1.24,1.24,0,0,0,.86.35,1.2,1.2,0,0,0,.84-.36l2.65-2.65v3.75a1.21,1.21,0,0,0,1.21,1.21h1.08a1.21,1.21,0,0,0,1.21-1.21V91.58l2.64,2.64a1.23,1.23,0,0,0,.86.35,1.21,1.21,0,0,0,.86-.35l.76-.76a1.2,1.2,0,0,0,0-1.71l-.49-.5-2-2-.15-.15h3.75a1.21,1.21,0,0,0,1.21-1.21V86.8a1.21,1.21,0,0,0-1.21-1.2" fill="#5290cc"/>
  </g>
</svg>