<svg id="icon-23" xmlns="http://www.w3.org/2000/svg" viewBox="0 0 110 110" data-adreal-did="1606153510133844">
  <title>23</title>
  <g id="icon-23-2" data-name="icon-23">
    <path d="M19.87,27a2.89,2.89,0,0,1,0-3.84,3,3,0,0,1,2-.76,2.65,2.65,0,0,1,1.85.76l4.45,4.6a2.38,2.38,0,0,1,.76,1.84,2.56,2.56,0,0,1-2.61,2.61,2.38,2.38,0,0,1-1.84-.76L19.87,27m-.73,41.33a2.62,2.62,0,0,0,.73,1.85,3.14,3.14,0,0,0,1.93.75,3.11,3.11,0,0,0,1.91-.75l4.45-4.45a2.89,2.89,0,0,0,.76-2,2.33,2.33,0,0,0-.75-1.78,2.58,2.58,0,0,0-1.86-.71,2.43,2.43,0,0,0-1.84.74l-4.6,4.45a2.76,2.76,0,0,0-.73,1.9m-6.27-19h6.38a2.32,2.32,0,0,0,1.8-.78,2.65,2.65,0,0,0,.72-1.89,2.73,2.73,0,0,0-.72-1.9,2.29,2.29,0,0,0-1.8-.79H12.87a2.67,2.67,0,0,0-1.88.76,2.62,2.62,0,0,0-.79,1.93,2.7,2.7,0,0,0,2.67,2.67m32.41-25a2.32,2.32,0,0,0,.78-1.8V16.14a2.67,2.67,0,0,0-5.33,0v6.38a2.34,2.34,0,0,0,.77,1.8,2.69,2.69,0,0,0,1.89.72,2.65,2.65,0,0,0,1.89-.72m-16,14.21a16.22,16.22,0,0,0,0,16.28A16.25,16.25,0,0,0,34.14,60l0,0h0c.14-.18.28-.35.43-.52l.1-.11.43-.51.49-.53,0,0,.7-.67,0,0c.31-.28.62-.55.95-.81l.07-.06.09-.08c.19-.16.38-.31.58-.45h0l.53-.38c.4-.27.78-.52,1.16-.74l0,0,.12-.06h0c.51-.29,1.06-.57,1.67-.85h.06l.23-.1h0c.58-.25,1.17-.47,1.73-.65h0l.21-.07h0c.57-.17,1.15-.32,1.72-.44l.06,0,.12,0h0a18.21,18.21,0,0,1,1.83-.27h0l.15,0c0-.11.09-.21.14-.32l0,0,.24-.56v0c.15-.33.3-.65.46-1v0l.06-.11.16-.31a.83.83,0,0,1,.07-.13c.08-.16.17-.32.27-.49s.1-.18.16-.27.12-.21.2-.33.25-.4.38-.6.08-.12.12-.18.23-.35.35-.51l.3-.42.37-.47.09-.1c.12-.16.26-.31.39-.47s.09-.1.13-.16l.11-.13.5-.54.73-.75,0,0,.09-.09.31-.3,0,0c.12-.12.25-.22.37-.33.31-.27.61-.54.93-.79h0l.11-.09c.32-.25.65-.47,1-.7s.46-.34.7-.5c.43-.28.89-.53,1.34-.79.16-.08.31-.18.47-.27,0-.07-.05-.14-.09-.22a16.18,16.18,0,0,0-3.47-5.2,16.59,16.59,0,0,0-5.2-3.48,15.7,15.7,0,0,0-6.3-1.31,15.9,15.9,0,0,0-8.13,2.2,16.38,16.38,0,0,0-6,6m31.14-6.34a2.74,2.74,0,0,0,1.88-.76L66.89,27A2.63,2.63,0,0,0,67.65,25a2.59,2.59,0,0,0-.77-1.87A2.55,2.55,0,0,0,65,22.38a2.64,2.64,0,0,0-1.85.76l-4.45,4.6A2.43,2.43,0,0,0,58,29.58a2.58,2.58,0,0,0,.71,1.86,2.3,2.3,0,0,0,1.75.75" fill="#ffd300"/>
    <path d="M69.54,82.72c0-.21,0-.41,0-.62A5.17,5.17,0,0,1,71,78.41l.74-.74a5.2,5.2,0,0,1,3.7-1.54,4.21,4.21,0,0,1,.62,0,5.17,5.17,0,0,1,4.09-2h1.09a5.2,5.2,0,0,1,4.11,2q.3,0,.6,0a5.24,5.24,0,0,1,3.69,1.5l.75.75A5.19,5.19,0,0,1,92,82.1c0,.21,0,.41,0,.62a5.29,5.29,0,0,1,1.35,1.62,17.79,17.79,0,0,0,2.15-1.86A15.43,15.43,0,0,0,87.88,56.7a18.44,18.44,0,0,0-6.6-10.54,18.78,18.78,0,0,0-20.2-2.09l-.09,0A19.28,19.28,0,0,0,58.05,46l0,0c-.38.3-.74.62-1.1.94l-.36.35c-.22.21-.43.42-.63.64l-.41.45c-.18.2-.35.41-.52.62a5.45,5.45,0,0,0-.37.47c-.23.29-.44.59-.64.9s-.21.33-.31.49-.35.59-.51.89c-.09.15-.16.3-.24.46s-.27.55-.39.84-.14.3-.2.46a20.85,20.85,0,0,0-.9,2.77h-1a16,16,0,0,0-1.71.1,13.87,13.87,0,0,0-1.46.21l-.11,0a13.74,13.74,0,0,0-1.4.37l-.16,0c-.47.15-.93.33-1.39.52l-.22.1c-.46.21-.91.43-1.35.68l0,0a16.47,16.47,0,0,0-1.45,1l-.53.42c-.29.23-.57.47-.84.73s-.37.34-.55.53-.51.55-.75.85-.29.32-.42.5A15.41,15.41,0,0,0,37,64a15,15,0,0,0-2.08,7.76,15.38,15.38,0,0,0,6.49,12.65,5.25,5.25,0,0,1,1.38-1.65c0-.21,0-.41,0-.62a5.16,5.16,0,0,1,1.52-3.69l.74-.74a5.23,5.23,0,0,1,3.71-1.54,4.3,4.3,0,0,1,.62,0,5.17,5.17,0,0,1,4.09-2h1.09a5.22,5.22,0,0,1,4.11,2,5.68,5.68,0,0,1,.59,0,5.21,5.21,0,0,1,3.69,1.5l.75.75a5.2,5.2,0,0,1,1.54,3.7,4.3,4.3,0,0,1,0,.62,5.19,5.19,0,0,1,2,4.08v.45h.44V86.8a5.18,5.18,0,0,1,2-4.08" fill="#5290cc"/>
    <path d="M61.92,85.6a1.2,1.2,0,0,1,1.2,1.2v1.09a1.2,1.2,0,0,1-1.2,1.2H58.16l.16.16,2,2,.5.5a1.21,1.21,0,0,1,0,1.71l-.76.76a1.22,1.22,0,0,1-1.71,0L55.7,91.58v3.74a1.21,1.21,0,0,1-1.21,1.21H53.4a1.21,1.21,0,0,1-1.2-1.21V91.57l-2.66,2.65a1.16,1.16,0,0,1-.84.36,1.24,1.24,0,0,1-.86-.35l-.77-.77a1.2,1.2,0,0,1-.36-.86,1.19,1.19,0,0,1,.37-.86l.65-.65,1.85-1.85q-.82,0-1.62-.15H46a1.19,1.19,0,0,1-1.08-.69,1.07,1.07,0,0,1-.13-.51V86.8a1.14,1.14,0,0,1,.13-.51A1.2,1.2,0,0,1,46,85.6h3.75L47.07,83a1.18,1.18,0,0,1-.36-.85,1.2,1.2,0,0,1,.36-.86l.77-.76a1.18,1.18,0,0,1,.85-.35h0a1.22,1.22,0,0,1,.86.35l2.65,2.65V79.38a1.21,1.21,0,0,1,1.2-1.21h1.09a1.21,1.21,0,0,1,1.21,1.21v3.74l2.64-2.64a1.19,1.19,0,0,1,.85-.33,1.26,1.26,0,0,1,.87.33l.76.76a1.24,1.24,0,0,1,.35.86,1.21,1.21,0,0,1-.35.85L58.17,85.6h3.75m27.83.64a1.17,1.17,0,0,0-1-.64H85L87.61,83a1.22,1.22,0,0,0,0-1.71l-.76-.76a1.29,1.29,0,0,0-1.72,0l-2.64,2.64V79.38a1.21,1.21,0,0,0-1.21-1.21H80.19A1.21,1.21,0,0,0,79,79.38v3.75l-2.65-2.65a1.22,1.22,0,0,0-.86-.35h0a1.19,1.19,0,0,0-.85.35l-.76.76a1.21,1.21,0,0,0,0,1.71l2.65,2.65H72.77a1.21,1.21,0,0,0-1.21,1.2v1.09a1.2,1.2,0,0,0,1.21,1.2h3.75l-.16.16-2,2-.49.49a1.22,1.22,0,0,0-.36.86,1.24,1.24,0,0,0,.35.86l.77.77a1.26,1.26,0,0,0,.87.35,1.2,1.2,0,0,0,.84-.36L79,91.57v3.75a1.21,1.21,0,0,0,1.2,1.21h1.09a1.21,1.21,0,0,0,1.21-1.21V91.58l2.64,2.64a1.2,1.2,0,0,0,.86.34,1.18,1.18,0,0,0,.85-.34l.77-.76A1.19,1.19,0,0,0,88,92.6a1.17,1.17,0,0,0-.35-.85l-.68-.68-1.84-1.84c.51,0,1-.07,1.5-.14h2.12a1.19,1.19,0,0,0,1.11-.74,1.18,1.18,0,0,0,.09-.46V86.8a1.1,1.1,0,0,0-.16-.56" fill="#5290cc"/>
  </g>
</svg>