<svg id="icon-24" xmlns="http://www.w3.org/2000/svg" viewBox="0 0 110 110" data-adreal-did="1606153515556570">
  <title>24</title>
  <g id="icon-24-2" data-name="icon-24">
    <path d="M18.11,27a2.89,2.89,0,0,1,0-3.84,3,3,0,0,1,2-.76,2.64,2.64,0,0,1,1.85.76l4.45,4.6a2.38,2.38,0,0,1,.77,1.84,2.49,2.49,0,0,1-.75,1.86,2.53,2.53,0,0,1-1.86.75,2.4,2.4,0,0,1-1.85-.76L18.11,27m9.06,36.73a2.33,2.33,0,0,0-.75-1.78,2.62,2.62,0,0,0-1.86-.71,2.46,2.46,0,0,0-1.85.74l-4.6,4.45a2.76,2.76,0,0,0-.73,1.9,2.62,2.62,0,0,0,.73,1.85,3.16,3.16,0,0,0,1.93.75A3.07,3.07,0,0,0,22,70.16l4.45-4.45a2.9,2.9,0,0,0,.77-2M19.3,48.55A2.65,2.65,0,0,0,20,46.66a2.73,2.73,0,0,0-.72-1.9A2.32,2.32,0,0,0,17.5,44H11.11a2.65,2.65,0,0,0-1.87.76,2.62,2.62,0,0,0-.79,1.93,2.7,2.7,0,0,0,2.66,2.67H17.5a2.35,2.35,0,0,0,1.8-.78M43.53,24.32a2.34,2.34,0,0,0,.77-1.8V16.14a2.65,2.65,0,0,0-4.54-1.88A2.59,2.59,0,0,0,39,16.14v6.38a2.32,2.32,0,0,0,.78,1.8,2.84,2.84,0,0,0,3.78,0M32.38,60l0,0h0c.13-.18.28-.35.43-.52l.1-.11c.12-.15.26-.32.43-.51s.31-.35.49-.53l0,0c.22-.23.46-.45.7-.67l0,0c.31-.28.63-.55,1-.81l.07-.06.1-.08.58-.46h0l.54-.38c.39-.27.78-.52,1.16-.74l0,0,.12-.06h0c.51-.29,1.06-.57,1.68-.85h0l.23-.1h0c.59-.25,1.17-.47,1.74-.65h0l.2-.07h0c.58-.17,1.15-.32,1.72-.44l.07,0,.11,0h0a18.43,18.43,0,0,1,1.84-.27h0l.15,0c0-.11.09-.21.13-.32l0,0,.24-.56,0,0q.21-.48.45-1l0,0,0-.11c.05-.1.11-.2.16-.31l.07-.13c.08-.16.17-.32.27-.49l.16-.27.2-.33c.12-.2.25-.41.38-.6l.12-.18.35-.51.31-.42.37-.47.08-.1.39-.47.14-.16.11-.13.49-.54.74-.75,0,0,.09-.09.31-.3s0,0,0,0l.38-.33c.3-.27.61-.54.93-.79h0l.12-.08c.31-.25.65-.47,1-.7s.46-.35.69-.5c.44-.28.89-.53,1.35-.79l.46-.27c0-.07,0-.14-.08-.22a16.51,16.51,0,0,0-3.47-5.2,16.71,16.71,0,0,0-5.2-3.48,15.74,15.74,0,0,0-6.3-1.31,15.9,15.9,0,0,0-8.13,2.2,16.3,16.3,0,0,0-6,6,16.16,16.16,0,0,0,0,16.28A16.22,16.22,0,0,0,32.38,60M58.69,32.19a2.72,2.72,0,0,0,1.87-.76L65.13,27A2.64,2.64,0,0,0,65.9,25a2.68,2.68,0,0,0-2.67-2.66,2.65,2.65,0,0,0-1.85.76l-4.45,4.6a2.42,2.42,0,0,0-.7,1.84,2.57,2.57,0,0,0,.7,1.86,2.32,2.32,0,0,0,1.76.75" fill="#ffd300"/>
    <path d="M81.18,82.72c0-.21,0-.41,0-.62a5.17,5.17,0,0,1,1.53-3.69l.74-.74a5.2,5.2,0,0,1,3.7-1.54,4.21,4.21,0,0,1,.62,0,5.17,5.17,0,0,1,4.09-2h1.09a5.2,5.2,0,0,1,4.11,2,2.68,2.68,0,0,1,.4,0A15.67,15.67,0,0,0,98,71.72a15.47,15.47,0,0,0-11.92-15A18.77,18.77,0,0,0,67.78,42.05a18.11,18.11,0,0,0-8.46,2l-.09,0A19.91,19.91,0,0,0,56.3,46l0,0c-.38.3-.74.62-1.09.94-.13.11-.25.23-.37.35l-.63.64c-.14.15-.27.3-.41.44l-.52.63-.37.47q-.33.44-.63.9l-.32.49c-.17.29-.35.59-.51.89-.08.15-.16.3-.23.46s-.27.55-.4.84-.13.3-.2.46a20.85,20.85,0,0,0-.9,2.77h-1a16,16,0,0,0-1.71.1,14.25,14.25,0,0,0-1.46.21l-.11,0A13.74,13.74,0,0,0,44,57l-.16,0c-.47.15-.93.33-1.38.52l-.23.1c-.45.21-.9.43-1.34.68l0,0c-.51.29-1,.62-1.46,1l-.53.42c-.29.23-.56.47-.83.73s-.37.34-.55.53-.51.55-.75.85-.29.32-.43.5A17.24,17.24,0,0,0,35.2,64a15,15,0,0,0-2.08,7.76,15.38,15.38,0,0,0,.63,4.42c.13,0,.27,0,.4,0a5.2,5.2,0,0,1,4.1-2h1.08a5.2,5.2,0,0,1,4.11,2q.3,0,.6,0a5.23,5.23,0,0,1,3.69,1.5l.75.75A5.2,5.2,0,0,1,50,82.1c0,.21,0,.41,0,.62a5.19,5.19,0,0,1,2,4.08v.45h.43V86.8a5.19,5.19,0,0,1,2-4.08c0-.21,0-.41,0-.62a5.16,5.16,0,0,1,1.52-3.69l.74-.74a5.21,5.21,0,0,1,3.71-1.54,4.3,4.3,0,0,1,.62,0,5.17,5.17,0,0,1,4.09-2h1.09a5.22,5.22,0,0,1,4.11,2,5.68,5.68,0,0,1,.59,0,5.21,5.21,0,0,1,3.69,1.5l.76.75a5.23,5.23,0,0,1,1.53,3.7c0,.21,0,.41,0,.62a5.21,5.21,0,0,1,2,4.08v.45h.44V86.8a5.18,5.18,0,0,1,2-4.08" fill="#5290cc"/>
    <path d="M46.76,85.6A1.21,1.21,0,0,1,48,86.8v1.09a1.2,1.2,0,0,1-1.21,1.2H43l1.81,1.81.84.85a1.18,1.18,0,0,1,.36.85,1.2,1.2,0,0,1-.36.86l-.76.76a1.2,1.2,0,0,1-.86.34,1.22,1.22,0,0,1-.86-.34l-2.64-2.64v3.74a1.21,1.21,0,0,1-1.2,1.21H38.25A1.21,1.21,0,0,1,37,95.32V91.57l-2.65,2.65a1.2,1.2,0,0,1-.84.36,1.24,1.24,0,0,1-.86-.35l-.77-.77a1.2,1.2,0,0,1-.36-.86,1.22,1.22,0,0,1,.36-.86l2.65-2.65H30.82a1.2,1.2,0,0,1-1.21-1.2V86.8a1.21,1.21,0,0,1,1.21-1.2h3.75L31.92,83a1.14,1.14,0,0,1-.19-1.43,1.07,1.07,0,0,1,.19-.28l.76-.77a1.26,1.26,0,0,1,.59-.29,1.17,1.17,0,0,1,.27-.05h0a1.24,1.24,0,0,1,.86.35L37,83.13V79.38a1.21,1.21,0,0,1,1.21-1.21h1.09a1.21,1.21,0,0,1,1.2,1.21v3.74l2.65-2.65a1.29,1.29,0,0,1,1.71,0l.76.76a1.2,1.2,0,0,1,0,1.71L43,85.6h3.74m26.8,0H69.81L72.46,83a1.22,1.22,0,0,0,0-1.71l-.76-.76a1.3,1.3,0,0,0-1.72,0l-2.64,2.65V79.38a1.21,1.21,0,0,0-1.21-1.21H65a1.21,1.21,0,0,0-1.2,1.21v3.75l-2.65-2.65a1.22,1.22,0,0,0-.86-.35h0a1.21,1.21,0,0,0-.85.34l-.77.77a1.19,1.19,0,0,0-.35.86,1.17,1.17,0,0,0,.35.85l2.65,2.65H57.61a1.21,1.21,0,0,0-1.21,1.2v1.09a1.21,1.21,0,0,0,1.21,1.2h3.75l-.15.16-2,2-.49.49a1.18,1.18,0,0,0-.36.86,1.19,1.19,0,0,0,.35.86l.77.77a1.24,1.24,0,0,0,.86.35,1.16,1.16,0,0,0,.84-.36l2.66-2.65v3.75A1.21,1.21,0,0,0,65,96.53h1.09a1.21,1.21,0,0,0,1.21-1.21V91.58L70,94.22a1.25,1.25,0,0,0,1.71,0l.77-.76a1.24,1.24,0,0,0,.35-.86,1.21,1.21,0,0,0-.35-.85l-.5-.5-2-2-.16-.16h3.76a1.2,1.2,0,0,0,1.2-1.2V86.8a1.2,1.2,0,0,0-1.2-1.2m26.79,0H96.6L99.25,83a1.19,1.19,0,0,0,.35-.85,1.14,1.14,0,0,0-.18-.6,1.45,1.45,0,0,0-.17-.26l-.76-.76a1.15,1.15,0,0,0-.62-.29,1,1,0,0,0-.24,0,1.25,1.25,0,0,0-.86.32l-2.64,2.65V79.38a1.21,1.21,0,0,0-1.21-1.21H91.83a1.21,1.21,0,0,0-1.2,1.21v3.75L88,80.48a1.22,1.22,0,0,0-.86-.35h0a1.25,1.25,0,0,0-.85.34l-.76.77a1.21,1.21,0,0,0,0,1.71l2.65,2.65H84.41a1.21,1.21,0,0,0-1.21,1.2v1.09a1.2,1.2,0,0,0,1.21,1.2h3.75l-1.75,1.75-.9.9a1.22,1.22,0,0,0-.36.86,1.24,1.24,0,0,0,.35.86l.77.77a1.26,1.26,0,0,0,.87.35,1.2,1.2,0,0,0,.84-.36l2.65-2.65v3.75a1.21,1.21,0,0,0,1.2,1.21h1.09a1.21,1.21,0,0,0,1.21-1.21V91.58l2.64,2.64a1.22,1.22,0,0,0,.86.34,1.16,1.16,0,0,0,.85-.34l.77-.76a1.19,1.19,0,0,0,.35-.86,1.17,1.17,0,0,0-.35-.85L96.6,89.09h3.75a1.2,1.2,0,0,0,1.2-1.2V86.8a1.2,1.2,0,0,0-1.2-1.2" fill="#5290cc"/>
  </g>
</svg>