<svg id="icon-25" xmlns="http://www.w3.org/2000/svg" viewBox="0 0 110 110" data-adreal-did="1606153521008132">
  <title>25</title>
  <g id="icon-25-2" data-name="icon-25">
    <path d="M36.88,75.35c0-.2,0-.41,0-.61v0A5.27,5.27,0,0,1,38.37,71l.78-.77a5.21,5.21,0,0,1,3.71-1.55c.23,0,.46,0,.68,0a5.22,5.22,0,0,1,4.13-2h1.12a5.25,5.25,0,0,1,4.14,2c.22,0,.44,0,.67,0a5.18,5.18,0,0,1,3.7,1.54l.75.75a5.25,5.25,0,0,1,1.56,3.73,5,5,0,0,1,0,.67,5.07,5.07,0,0,1,1.27,1.42l2.31-6.14.19-.52.33-.45a4.84,4.84,0,0,1,3.9-2h8.88a4.47,4.47,0,0,1,3.89,2A4.41,4.41,0,0,1,80.5,74l0,.1,0,.09L76.68,81h.06a15.25,15.25,0,0,0,8-4.43,14.87,14.87,0,0,0,4.37-10.75,15.47,15.47,0,0,0-11.93-15A18.8,18.8,0,0,0,58.81,36.09a18.05,18.05,0,0,0-8.45,2l-.1.05a19.13,19.13,0,0,0-2.93,1.9l0,0c-.38.3-.74.61-1.09.93l-.36.36-.64.64c-.14.14-.27.29-.4.44l-.53.63-.37.46c-.22.3-.43.6-.63.91s-.21.32-.31.49-.36.58-.52.89l-.23.45c-.14.28-.27.56-.4.84s-.13.31-.19.47a18.7,18.7,0,0,0-.9,2.77h-1c-.58,0-1.15,0-1.71.09a14.28,14.28,0,0,0-1.46.22l-.1,0c-.48.1-.94.22-1.4.36l-.17.05a13.47,13.47,0,0,0-1.38.52l-.22.1a14.11,14.11,0,0,0-1.35.67l-.05,0a14.48,14.48,0,0,0-1.45.95c-.18.13-.36.28-.53.42s-.57.47-.84.72l-.55.53c-.26.28-.51.56-.75.85l-.43.5A18.12,18.12,0,0,0,26.23,58a15.11,15.11,0,0,0-2.08,7.76,15.48,15.48,0,0,0,7.4,13.28,14.47,14.47,0,0,0,3.3,1.52V79.48a5.22,5.22,0,0,1,2-4.13" fill="#5290cc"/>
    <path d="M56.38,78.25H52.54l2.71-2.7a1.25,1.25,0,0,0,.36-.88h0a1.21,1.21,0,0,0-.36-.87L54.47,73a1.22,1.22,0,0,0-1.75,0L50,75.72V71.89a1.23,1.23,0,0,0-1.23-1.23H47.67a1.23,1.23,0,0,0-1.22,1.23v3.84L43.74,73a1.22,1.22,0,0,0-.88-.37A1.19,1.19,0,0,0,42,73l-.79.78a1.27,1.27,0,0,0-.36.89,1.21,1.21,0,0,0,.37.85l2.71,2.71H40.08a1.24,1.24,0,0,0-1.23,1.23V80.6a1.28,1.28,0,0,0,1.23,1.23h3.83L42.44,83.3l-1.23,1.23a1.15,1.15,0,0,0-.33.77,1.17,1.17,0,0,0,.33,1l.78.78a1.23,1.23,0,0,0,1.74,0L45.5,85.3l1-1v3.84a1.23,1.23,0,0,0,1.22,1.23h1.12A1.23,1.23,0,0,0,50,88.19V84.36l.94.94,1.76,1.76a1.23,1.23,0,0,0,.88.37,1.19,1.19,0,0,0,.87-.37l.78-.78a1.22,1.22,0,0,0,.32-1,1.19,1.19,0,0,0-.32-.77L54,83.3l-1.47-1.47h3.83a1.21,1.21,0,0,0,1-.53,1.17,1.17,0,0,0,.25-.7V79.48a1.24,1.24,0,0,0-1.23-1.23" fill="#5290cc"/>
    <path d="M76.84,85a.64.64,0,0,0-.3-.06H69.92l7-12.7c.21-.42,0-.63-.45-.63H67.56a.87.87,0,0,0-.68.41L60.41,89.27c-.06.43.09.64.44.64h6.4L62.74,102h.92L76.89,85.58c.16-.31.14-.5,0-.58" fill="#ec1c24"/>
    <path d="M105.65,46.26a15,15,0,0,0-8.56-5.42A18.77,18.77,0,0,0,78.75,26.19a18.06,18.06,0,0,0-11.53,4,18.73,18.73,0,0,0-2.66,2.6A22.94,22.94,0,0,1,80.4,47.54,19.51,19.51,0,0,1,93.08,65.77a19.88,19.88,0,0,1-.79,5.62H94a15.3,15.3,0,0,0,10.64-4.77,15.43,15.43,0,0,0,1-20.36" fill="#b3e3f9"/>
    <path d="M11.84,43.06a2.85,2.85,0,0,0,0-3.79,2.32,2.32,0,0,0-1.8-.79H3.65a2.65,2.65,0,0,0-1.87.76A2.6,2.6,0,0,0,1,41.17,2.53,2.53,0,0,0,1.78,43a2.54,2.54,0,0,0,1.87.8H10a2.35,2.35,0,0,0,1.8-.78" fill="#ffd300"/>
    <path d="M15.25,25.94a2.43,2.43,0,0,0,1.85.76,2.56,2.56,0,0,0,2.61-2.61,2.37,2.37,0,0,0-.77-1.84l-4.45-4.6a2.64,2.64,0,0,0-1.84-.77,3,3,0,0,0-2,.77,2.74,2.74,0,0,0-.73,1.9,2.71,2.71,0,0,0,.73,1.93Z" fill="#ffd300"/>
    <path d="M17.1,55.73a2.45,2.45,0,0,0-1.85.73l-4.6,4.46a2.74,2.74,0,0,0-.73,1.9,2.64,2.64,0,0,0,.73,1.85,3.15,3.15,0,0,0,1.93.74,3.05,3.05,0,0,0,1.91-.74l4.45-4.46a2.86,2.86,0,0,0,.76-2A2.35,2.35,0,0,0,19,56.43a2.61,2.61,0,0,0-1.86-.7" fill="#ffd300"/>
    <path d="M34.18,19.55a2.69,2.69,0,0,0,1.89-.72,2.37,2.37,0,0,0,.77-1.8V10.64A2.65,2.65,0,0,0,32.3,8.77a2.59,2.59,0,0,0-.79,1.87V17a2.35,2.35,0,0,0,.78,1.8,2.65,2.65,0,0,0,1.89.72" fill="#ffd300"/>
    <path d="M25.37,53.82c.24-.29.57-.68.95-1.07.22-.23.46-.46.7-.68s.69-.62,1.05-.91l.1-.08.58-.45c.3-.22.58-.42.87-.61s.47-.3.7-.43l.13-.09.05,0h0l.13-.07a17.72,17.72,0,0,1,1.69-.85l0,0s0,0,0,0l.21-.09.66-.27c.37-.14.73-.27,1.08-.38l.21-.07c.57-.17,1.15-.32,1.72-.44h0l.17,0c.58-.11,1.17-.2,1.84-.27l.18,0,.15-.38.24-.56c.16-.35.32-.69.49-1l0-.09h0l.23-.45c.18-.33.38-.68.63-1.09.12-.2.25-.4.38-.6.27-.4.52-.76.78-1.1.12-.16.24-.32.37-.47l.08-.11c.21-.25.42-.51.64-.76l.49-.54c.25-.26.5-.52.77-.77l.09-.09.35-.34c.46-.42.89-.79,1.31-1.12l.12-.09a22.77,22.77,0,0,1,3.48-2.25l.09,0-.06-.16a16,16,0,0,0-8.67-8.68,16,16,0,0,0-14.43.89,16.23,16.23,0,0,0-6,6,16.14,16.14,0,0,0,0,16.27,16.25,16.25,0,0,0,4.75,5.14c.14-.18.28-.35.43-.51Z" fill="#ffd300"/>
    <path d="M51.23,26.7a2.76,2.76,0,0,0,1.87-.76l4.57-4.46a2.61,2.61,0,0,0,.77-1.93,2.7,2.7,0,0,0-2.67-2.67,2.7,2.7,0,0,0-1.85.76l-4.45,4.6a2.44,2.44,0,0,0-.7,1.85,2.61,2.61,0,0,0,.7,1.86,2.32,2.32,0,0,0,1.76.75" fill="#ffd300"/>
  </g>
</svg>