<svg id="icon-26" xmlns="http://www.w3.org/2000/svg" viewBox="0 0 110 110" data-adreal-did="1607338214387028">
  <title>26</title>
  <g id="icon-26-2" data-name="icon-26">
    <path d="M94.09,42.7a15,15,0,0,0-8.55-5.42A18.48,18.48,0,0,0,79,26.74,18.28,18.28,0,0,0,67.2,22.63a18.06,18.06,0,0,0-11.53,4,19.09,19.09,0,0,0-2.76,2.7A22.85,22.85,0,0,1,68.79,44.07,19.52,19.52,0,0,1,81.46,62.31a19.79,19.79,0,0,1-.78,5.52h1.78A15.32,15.32,0,0,0,93.1,63.06a15.41,15.41,0,0,0,1-20.36" fill="#5290cc"/>
    <path d="M74.09,52.7a15,15,0,0,0-8.55-5.42,18.44,18.44,0,0,0-6.6-10.54A18.23,18.23,0,0,0,47.2,32.63a18,18,0,0,0-8.46,2l-.09,0a19.18,19.18,0,0,0-2.93,1.91l0,0c-.38.3-.74.62-1.09.94l-.37.35c-.22.21-.43.42-.63.64l-.41.45c-.18.2-.35.41-.52.62l-.37.47c-.22.29-.43.6-.64.9l-.31.5c-.18.29-.35.58-.51.88l-.24.46c-.13.27-.27.55-.39.84s-.13.31-.2.46a20.53,20.53,0,0,0-.9,2.78h-1a16,16,0,0,0-1.71.09c-.49,0-1,.12-1.46.21l-.11,0a13.69,13.69,0,0,0-1.4.36l-.16.05a13.41,13.41,0,0,0-1.38.51l-.23.1c-.34.16-.66.33-1,.5l-.36.18-.05,0c-.51.3-1,.62-1.45,1-.18.13-.35.27-.53.42s-.57.47-.84.72-.37.35-.54.53-.51.56-.76.85-.29.33-.42.5a15.41,15.41,0,0,0-1.06,1.57,15.05,15.05,0,0,0-2.08,7.77,15.3,15.3,0,0,0,2,7.64,14.3,14.3,0,0,0,1.29,1.92,15.19,15.19,0,0,0,4.13,3.72,14.8,14.8,0,0,0,7.54,2.24H30l3.83-9.59a6.48,6.48,0,0,1,8.45-3.63,6.33,6.33,0,0,1,1.71,1,6.49,6.49,0,0,1,10.14,7.43l-1.91,4.78h10.2A15.32,15.32,0,0,0,73.1,73.06a15.41,15.41,0,0,0,1-20.36" fill="#5290cc"/>
    <path d="M49.06,68.32a2.5,2.5,0,0,1,1.39,3.25L44.78,85.78a2.51,2.51,0,0,1-2.32,1.57,2.47,2.47,0,0,1-.92-.18,2.36,2.36,0,0,1-.95-.68,2.49,2.49,0,0,1-.45-2.57l5.67-14.2a2.62,2.62,0,0,1,.39-.67,2.5,2.5,0,0,1,2.86-.73m-8.24,0a2.32,2.32,0,0,0-.92-.18,2.48,2.48,0,0,0-1.93.91,2.42,2.42,0,0,0-.4.66L31.91,84a2.5,2.5,0,0,0,.44,2.56,2.44,2.44,0,0,0,.95.68,2.52,2.52,0,0,0,.93.18,2.49,2.49,0,0,0,2.32-1.57l5.67-14.21a2.5,2.5,0,0,0-1.4-3.24" fill="#5290cc"/>
  </g>
</svg>