<svg id="icon-27" xmlns="http://www.w3.org/2000/svg" viewBox="0 0 110 110" data-adreal-did="1606153538165751">
  <title>27</title>
  <g id="icon-27-2" data-name="icon-27">
    <path d="M74.1,52.71a15,15,0,0,0-8.56-5.42A18.77,18.77,0,0,0,47.2,32.64a18,18,0,0,0-8.45,2l-.09,0a18.06,18.06,0,0,0-2.94,1.9l0,0c-.38.31-.74.62-1.09.94l-.36.35-.64.64-.4.45c-.18.2-.36.41-.53.62l-.37.47c-.22.29-.43.6-.63.9l-.31.5c-.18.29-.36.58-.52.88s-.15.31-.23.46-.27.55-.4.84l-.19.46a19.22,19.22,0,0,0-.9,2.78h-1a16,16,0,0,0-1.71.09c-.49,0-1,.12-1.46.21l-.1,0c-.48.1-.94.22-1.4.36l-.17,0q-.7.23-1.38.51l-.22.11c-.34.15-.67.32-1,.49a3.84,3.84,0,0,1-.35.18l-.05,0a16.55,16.55,0,0,0-1.45,1,5.43,5.43,0,0,0-.53.42q-.43.34-.84.72c-.19.17-.37.35-.55.53s-.51.56-.75.85-.29.33-.42.5a17.33,17.33,0,0,0-1.07,1.57A15.64,15.64,0,0,0,14.52,70a17.52,17.52,0,0,0,1.29,1.93c.09,0,.16-.11.24-.16l1.39-3.48a6.46,6.46,0,0,1,4.89-4,7.21,7.21,0,0,1,1.14-.1h0a6.41,6.41,0,0,1,4.11,1.47,6.48,6.48,0,0,1,6.51-1,6.56,6.56,0,0,1,1.69,1,6.52,6.52,0,0,1,6.54-1,6.43,6.43,0,0,1,1.7,1,6.49,6.49,0,0,1,10.14,7.43l-1.9,4.78h10.2A15.29,15.29,0,0,0,73.1,73.07a15.4,15.4,0,0,0,1-20.36" fill="#5290cc"/>
    <path d="M49.06,68.33a2.51,2.51,0,0,1,1.4,3.25L44.79,85.79a2.49,2.49,0,0,1-2.32,1.57,2.52,2.52,0,0,1-.93-.18,2.44,2.44,0,0,1-.95-.68,2.51,2.51,0,0,1-.44-2.57l5.66-14.2a2.64,2.64,0,0,1,.4-.67,2.48,2.48,0,0,1,2.85-.73m-24.66,0a2.5,2.5,0,0,0-2.86.73,2.62,2.62,0,0,0-.39.67l-5.67,14.2a2.49,2.49,0,0,0,.45,2.57,2.36,2.36,0,0,0,.95.68,2.49,2.49,0,0,0,3.24-1.39l5.67-14.21a2.5,2.5,0,0,0-1.39-3.25m8.22,0a2.48,2.48,0,0,0-2.85.73,2.64,2.64,0,0,0-.4.67l-5.66,14.2a2.51,2.51,0,0,0,.44,2.57,2.44,2.44,0,0,0,1,.68,2.56,2.56,0,0,0,.93.18,2.49,2.49,0,0,0,2.32-1.57L34,71.58a2.5,2.5,0,0,0-1.4-3.25m8.22,0a2.5,2.5,0,0,0-2.86.73,2.62,2.62,0,0,0-.39.67l-5.67,14.2a2.49,2.49,0,0,0,.45,2.57,2.44,2.44,0,0,0,1,.68,2.49,2.49,0,0,0,3.24-1.39l5.67-14.21a2.5,2.5,0,0,0-1.39-3.25" fill="#5290cc"/>
    <path d="M94.09,42.71a15,15,0,0,0-8.56-5.42A18.77,18.77,0,0,0,67.19,22.64a18.08,18.08,0,0,0-11.53,4,20.17,20.17,0,0,0-2.76,2.7A22.85,22.85,0,0,1,68.78,44.09,19.51,19.51,0,0,1,81.46,62.32a19.44,19.44,0,0,1-.79,5.52h1.79a15.29,15.29,0,0,0,10.63-4.77,15.4,15.4,0,0,0,1-20.36" fill="#5290cc"/>
  </g>
</svg>