<svg id="icon-28" xmlns="http://www.w3.org/2000/svg" viewBox="0 0 110 110" data-adreal-did="1606153543672995">
  <title>28</title>
  <g id="icon-28-2" data-name="icon-28">
    <path d="M81,52.71a15,15,0,0,0-8.56-5.42A18.77,18.77,0,0,0,54.09,32.64a18,18,0,0,0-8.45,2l-.09,0a18.5,18.5,0,0,0-2.94,1.9l0,0c-.39.31-.75.62-1.1.94l-.36.35-.64.64-.4.45c-.18.2-.35.41-.52.62s-.26.31-.38.47-.43.6-.63.9l-.31.5c-.18.29-.35.58-.52.88s-.15.31-.23.46-.27.55-.39.84-.14.31-.2.46a19.22,19.22,0,0,0-.9,2.78H35a15.85,15.85,0,0,0-1.7.09c-.5,0-1,.12-1.46.21l-.11,0c-.47.1-.94.22-1.4.36l-.17,0q-.69.23-1.38.51l-.22.11c-.34.15-.67.32-1,.49-.11.07-.23.11-.35.18l-.05,0a16.55,16.55,0,0,0-1.45,1c-.18.13-.36.27-.53.42s-.57.47-.84.72l-.55.53c-.26.27-.51.56-.75.85s-.29.33-.42.5a15.41,15.41,0,0,0-1.06,1.57,15.05,15.05,0,0,0-2.08,7.77,16.7,16.7,0,0,0,.17,2.36,6.33,6.33,0,0,1,6.63,1,6.49,6.49,0,0,1,3-1.38,7.34,7.34,0,0,1,1.15-.11,6.49,6.49,0,0,1,4.11,1.48,6.37,6.37,0,0,1,8.2,0,6.53,6.53,0,0,1,4.13-1.49,6.42,6.42,0,0,1,2.41.47,6.65,6.65,0,0,1,1.71,1A6.44,6.44,0,0,1,55,64.15a6.5,6.5,0,0,1,2.41.47,6.5,6.5,0,0,1,3.63,8.44l-1.91,4.78h10.2A15.29,15.29,0,0,0,80,73.07a15.4,15.4,0,0,0,1-20.36" fill="#5290cc"/>
    <path d="M56,68.33a2.5,2.5,0,0,1,1.4,3.25L51.68,85.79a2.49,2.49,0,0,1-2.32,1.57,2.56,2.56,0,0,1-.93-.18A2.51,2.51,0,0,1,47,83.93l5.67-14.2a2.35,2.35,0,0,1,.39-.67A2.51,2.51,0,0,1,55,68.15a2.47,2.47,0,0,1,.92.18m-41.1,0a2.48,2.48,0,0,0-2.85.73,2.64,2.64,0,0,0-.4.67L5.93,83.93a2.49,2.49,0,0,0,.45,2.57,2.44,2.44,0,0,0,1,.68,2.5,2.5,0,0,0,3.25-1.39l5.67-14.21a2.51,2.51,0,0,0-1.4-3.25m8.22,0a2.48,2.48,0,0,0-2.85.73,2.64,2.64,0,0,0-.4.67l-5.67,14.2a2.49,2.49,0,0,0,.45,2.57,2.44,2.44,0,0,0,1,.68,2.5,2.5,0,0,0,3.25-1.39l5.67-14.21a2.51,2.51,0,0,0-1.4-3.25m8.23,0a2.48,2.48,0,0,0-2.85.73,2.64,2.64,0,0,0-.4.67l-5.66,14.2a2.51,2.51,0,0,0,.44,2.57,2.44,2.44,0,0,0,1,.68,2.52,2.52,0,0,0,.93.18A2.49,2.49,0,0,0,27,85.79L32.7,71.58a2.51,2.51,0,0,0-1.4-3.25m8.21,0a2.48,2.48,0,0,0-2.85.73,2.64,2.64,0,0,0-.4.67l-5.67,14.2A2.49,2.49,0,0,0,31,86.5a2.44,2.44,0,0,0,.95.68,2.5,2.5,0,0,0,3.25-1.39l5.67-14.21a2.51,2.51,0,0,0-1.4-3.25m8.23,0a2.48,2.48,0,0,0-2.85.73,2.64,2.64,0,0,0-.4.67l-5.67,14.2a2.54,2.54,0,0,0,.45,2.57,2.44,2.44,0,0,0,.95.68,2.52,2.52,0,0,0,.93.18,2.49,2.49,0,0,0,2.32-1.57l5.67-14.21a2.51,2.51,0,0,0-1.4-3.25" fill="#5290cc"/>
    <path d="M100.87,42.71a14.92,14.92,0,0,0-8.55-5.42A18.77,18.77,0,0,0,74,22.64a18.06,18.06,0,0,0-11.53,4,19.09,19.09,0,0,0-2.76,2.7A22.89,22.89,0,0,1,75.57,44.09,19.49,19.49,0,0,1,88.24,62.32a19.79,19.79,0,0,1-.78,5.52h1.78a15.32,15.32,0,0,0,10.64-4.77,15.41,15.41,0,0,0,1-20.36" fill="#5290cc"/>
  </g>
</svg>