<svg id="icon-29" xmlns="http://www.w3.org/2000/svg" viewBox="0 0 110 110" data-adreal-did="1606153550487345">
  <title>29</title>
  <g id="icon-29-2" data-name="icon-29">
    <path d="M74.12,47.05a15.05,15.05,0,0,0-8.55-5.42A18.48,18.48,0,0,0,59,31.1,18.28,18.28,0,0,0,47.23,27a18,18,0,0,0-8.46,2l-.09,0A19.18,19.18,0,0,0,35.75,31l0,0c-.38.3-.74.62-1.09.94-.13.11-.25.23-.37.35s-.43.42-.63.64l-.41.45c-.18.2-.35.41-.52.62l-.37.47c-.22.29-.43.59-.64.9l-.31.49c-.18.29-.35.59-.51.89s-.16.3-.23.46-.28.55-.4.84-.13.3-.2.46a20.85,20.85,0,0,0-.9,2.77h-1a16,16,0,0,0-1.71.1,14.25,14.25,0,0,0-1.46.21l-.11,0c-.47.1-.94.22-1.4.36l-.16.05c-.47.15-.93.33-1.38.52l-.23.1c-.34.15-.66.33-1,.5a3.84,3.84,0,0,0-.35.18l-.06,0c-.5.29-1,.62-1.45.95l-.53.42c-.29.23-.57.48-.83.73a6.88,6.88,0,0,0-.55.53c-.27.27-.51.55-.76.85s-.29.32-.42.5a15.41,15.41,0,0,0-1.06,1.57,15,15,0,0,0-2.08,7.76,15.31,15.31,0,0,0,2,7.65,15,15,0,0,0,1.29,1.92A15.33,15.33,0,0,0,20,70a14.89,14.89,0,0,0,7.54,2.24h20l4-10.68.2-.52.33-.45a4.87,4.87,0,0,1,3.9-2h8.87a4.48,4.48,0,0,1,3.9,2,4.39,4.39,0,0,1,.16,4.33l0,.09-.05.09L65.1,71.84h.06a15.39,15.39,0,0,0,8-4.43,15.42,15.42,0,0,0,1-20.37" fill="#5290cc"/>
    <path d="M65.25,75.89a.72.72,0,0,0-.29,0H58.34l7-12.7c.2-.43,0-.64-.46-.64H56a.85.85,0,0,0-.68.42L48.83,80.17c-.06.42.08.63.43.63h6.41L51.16,92.92h.92L65.31,76.47c.16-.3.13-.49-.06-.58" fill="#ec1c24"/>
    <path d="M94.06,37.15a15,15,0,0,0-8.55-5.42A18.42,18.42,0,0,0,78.92,21.2a18.23,18.23,0,0,0-11.75-4.12,18,18,0,0,0-11.53,4,18.53,18.53,0,0,0-2.76,2.69A22.89,22.89,0,0,1,68.76,38.53,19.49,19.49,0,0,1,81.43,56.76a19.92,19.92,0,0,1-.78,5.53h1.78a15.37,15.37,0,0,0,10.64-4.78,15.41,15.41,0,0,0,1-20.36" fill="#5290cc"/>
  </g>
</svg>