<svg id="icon-3" xmlns="http://www.w3.org/2000/svg" viewBox="0 0 110 110" data-adreal-did="1606153353020392">
  <title>3</title>
  <g id="icon-3-2" data-name="icon-3">
    <path d="M28.51,36.08a2.53,2.53,0,0,1-1.86.75,2.38,2.38,0,0,1-1.84-.76l-4.6-4.45a2.86,2.86,0,0,1,0-3.84,3,3,0,0,1,2-.76,2.61,2.61,0,0,1,1.84.76l4.46,4.6a2.38,2.38,0,0,1,.76,1.84,2.53,2.53,0,0,1-.75,1.86M26.65,65.86a2.46,2.46,0,0,0-1.84.73l-4.6,4.46a2.75,2.75,0,0,0-.74,1.9,2.63,2.63,0,0,0,.74,1.85,2.83,2.83,0,0,0,3.84,0l4.45-4.46a2.85,2.85,0,0,0,.76-2,2.33,2.33,0,0,0-.75-1.78,2.62,2.62,0,0,0-1.86-.71M19.59,48.61H13.2a2.67,2.67,0,0,0-1.87.76,2.62,2.62,0,0,0-.79,1.93A2.7,2.7,0,0,0,13.2,54h6.39a2.35,2.35,0,0,0,1.8-.78,2.85,2.85,0,0,0,0-3.79,2.32,2.32,0,0,0-1.8-.79M43.73,29.68A2.69,2.69,0,0,0,45.62,29a2.33,2.33,0,0,0,.78-1.8V20.78a2.7,2.7,0,0,0-2.67-2.67,2.7,2.7,0,0,0-2.66,2.67v6.38a2.36,2.36,0,0,0,.77,1.8,2.69,2.69,0,0,0,1.89.72M55.18,47.57a22.75,22.75,0,0,1,3.61-2.35L58.7,45a16.34,16.34,0,0,0-3.47-5.2A16.59,16.59,0,0,0,50,36.32,15.7,15.7,0,0,0,43.73,35a15.9,15.9,0,0,0-8.13,2.2,16.38,16.38,0,0,0-6,6,16.16,16.16,0,0,0,0,16.28,16.19,16.19,0,0,0,4.83,5.18,19.13,19.13,0,0,1,5.82-5.09,19.41,19.41,0,0,1,7.84-2.47,22.25,22.25,0,0,1,7-9.5m5.6-10.74a2.74,2.74,0,0,0,1.88-.76l4.57-4.45A2.63,2.63,0,0,0,68,29.68a2.56,2.56,0,0,0-.78-1.87A2.51,2.51,0,0,0,65.32,27a2.63,2.63,0,0,0-1.84.76L59,32.38a2.43,2.43,0,0,0-.71,1.84A2.62,2.62,0,0,0,59,36.08a2.28,2.28,0,0,0,1.75.75" fill="#ffd300"/>
    <path d="M96.09,66.75a15,15,0,0,0-8.55-5.42A18.77,18.77,0,0,0,69.2,46.69a18.09,18.09,0,0,0-8.46,2l-.09,0a19.33,19.33,0,0,0-3,1.94c-.38.3-.74.62-1.09.94-.13.11-.25.23-.37.35s-.43.42-.64.64l-.39.44c-.19.21-.36.42-.54.64l-.36.45c-.23.31-.45.62-.66.94l-.28.44c-.18.3-.36.6-.52.91-.08.15-.16.3-.23.45s-.28.56-.41.85-.12.3-.19.45a20.53,20.53,0,0,0-.9,2.78h-1a16.22,16.22,0,0,0-1.72.1,13.68,13.68,0,0,0-1.45.21l-.1,0q-.72.15-1.41.36l-.16,0c-.47.15-.93.33-1.38.52l-.24.11a13.79,13.79,0,0,0-1.33.67h0c-.52.3-1,.63-1.49,1l-.53.42c-.29.23-.56.47-.83.72s-.38.35-.55.54-.51.56-.76.85-.29.32-.42.5a14.37,14.37,0,0,0-1.06,1.57,15,15,0,0,0-2.08,7.76,15.52,15.52,0,0,0,7.4,13.29,14.89,14.89,0,0,0,7.54,2.24h35A15.37,15.37,0,0,0,95.1,87.11a15.41,15.41,0,0,0,1-20.36" fill="#5290cc"/>
  </g>
</svg>