<svg id="icon-30" xmlns="http://www.w3.org/2000/svg" viewBox="0 0 110 110" data-adreal-did="1606153556901941">
  <title>30</title>
  <g id="icon-30-2" data-name="icon-30">
    <path d="M74.05,47.05a15.08,15.08,0,0,0-8.56-5.42A18.77,18.77,0,0,0,47.15,27a18,18,0,0,0-8.45,2l-.09,0A18.8,18.8,0,0,0,35.67,31l-.05,0c-.38.3-.74.62-1.09.94l-.36.35-.64.64-.4.45c-.18.2-.36.41-.53.62l-.37.47q-.33.44-.63.9c-.11.16-.21.33-.31.49s-.36.59-.52.89l-.23.46c-.14.27-.27.55-.4.84l-.19.46a19.49,19.49,0,0,0-.9,2.77H28a16,16,0,0,0-1.71.1c-.49,0-1,.12-1.46.21l-.1,0a13,13,0,0,0-1.4.35l-.17.05c-.47.15-.93.33-1.38.52l-.22.1c-.34.15-.67.33-1,.5a3.84,3.84,0,0,0-.35.18l-.05,0a16.47,16.47,0,0,0-1.45.95c-.19.14-.36.28-.53.42s-.57.48-.84.73-.37.34-.55.53-.51.56-.75.85-.29.32-.42.5a17.33,17.33,0,0,0-1.07,1.57,15.11,15.11,0,0,0-2.08,7.76,15.31,15.31,0,0,0,2,7.65,16.49,16.49,0,0,0,1.29,1.92A15.49,15.49,0,0,0,19.89,70a14.93,14.93,0,0,0,7.55,2.24H30l3.83-9.6A6.48,6.48,0,0,1,42.28,59,6.4,6.4,0,0,1,44,60a6.46,6.46,0,0,1,6.52-1,6.35,6.35,0,0,1,1.85,1.16A4.77,4.77,0,0,1,55.9,58.5h8.88a4.48,4.48,0,0,1,3.89,2,4.41,4.41,0,0,1,.17,4.33l0,.09-.05.09L65,71.84h.07a15.36,15.36,0,0,0,8-4.43,15.41,15.41,0,0,0,1-20.37" fill="#5290cc"/>
    <path d="M65.18,75.89a.81.81,0,0,0-.3,0H58.26l7-12.7c.21-.43,0-.64-.45-.64H55.9a.86.86,0,0,0-.68.42l-.65,1.73L48.75,80.17a.62.62,0,0,0,.09.49.41.41,0,0,0,.35.14h6.4L51.08,92.92H52L65.23,76.47c.16-.3.14-.49,0-.58" fill="#ec1c24"/>
    <path d="M40.79,62.7A2.49,2.49,0,0,1,42.18,66l-5.67,14.2a2.5,2.5,0,0,1-2.32,1.58,2.53,2.53,0,0,1-2.32-3.43l5.67-14.21a2.73,2.73,0,0,1,.39-.66,2.51,2.51,0,0,1,1.93-.91,2.56,2.56,0,0,1,.93.18m8.23,0a2.52,2.52,0,0,0-.93-.18,2.47,2.47,0,0,0-1.92.91,2.77,2.77,0,0,0-.4.66L40.1,78.3a2.47,2.47,0,0,0,.45,2.56,2.56,2.56,0,0,0,1,.69,2.49,2.49,0,0,0,3.25-1.4L50.42,66A2.51,2.51,0,0,0,49,62.7" fill="#5290cc"/>
    <path d="M94.14,37.15a15,15,0,0,0-8.56-5.42A18.8,18.8,0,0,0,67.24,17.08a18,18,0,0,0-11.53,4A19.54,19.54,0,0,0,53,23.79,22.85,22.85,0,0,1,68.83,38.53,19.54,19.54,0,0,1,81.51,56.76a19.56,19.56,0,0,1-.79,5.53h1.79a15.35,15.35,0,0,0,10.63-4.78,14.87,14.87,0,0,0,4.37-10.75,15,15,0,0,0-3.37-9.61" fill="#5290cc"/>
  </g>
</svg>