<svg id="icon-31" xmlns="http://www.w3.org/2000/svg" viewBox="0 0 110 110" data-adreal-did="1606153564215622">
  <title>31</title>
  <g id="icon-31-2" data-name="icon-31">
    <path d="M74.07,47.16a14.92,14.92,0,0,0-8.55-5.42A18.8,18.8,0,0,0,47.18,27.09a18,18,0,0,0-8.46,2l-.09.05a18.41,18.41,0,0,0-2.93,1.9l-.05,0c-.38.31-.74.62-1.09.94l-.37.35-.63.64-.41.45c-.18.2-.35.41-.52.62l-.37.47c-.22.29-.43.6-.63.9l-.32.5c-.17.29-.35.58-.51.88-.08.15-.16.31-.23.46s-.27.55-.4.84-.13.31-.2.46a20.53,20.53,0,0,0-.9,2.78h-1a16,16,0,0,0-1.71.09c-.49.05-1,.12-1.46.21l-.11,0c-.47.1-.94.22-1.4.36l-.16.05q-.71.23-1.38.51l-.23.11c-.34.15-.66.32-1,.49l-.35.18-.05,0c-.51.3-1,.62-1.46,1-.18.13-.35.28-.53.42s-.56.47-.83.72-.38.35-.55.53-.51.56-.75.85l-.43.5A17.24,17.24,0,0,0,14.6,49a15.08,15.08,0,0,0-2.08,7.77,15.3,15.3,0,0,0,2,7.64,15.08,15.08,0,0,0,1.29,1.93l.23-.16,1.39-3.48a6.47,6.47,0,0,1,4.9-4,7.11,7.11,0,0,1,1.14-.1h0a6.41,6.41,0,0,1,2.41.46,6.33,6.33,0,0,1,1.71,1,6.48,6.48,0,0,1,6.51-1,6.56,6.56,0,0,1,1.69,1,6.49,6.49,0,0,1,4.12-1.48,6.41,6.41,0,0,1,2.41.46,6.33,6.33,0,0,1,1.71,1,6.48,6.48,0,0,1,6.51-1,6.29,6.29,0,0,1,1.85,1.16,4.78,4.78,0,0,1,3.56-1.62H64.8a4.48,4.48,0,0,1,3.9,2A4.41,4.41,0,0,1,68.87,65l-.05.09,0,.1-3.72,6.77h.07a15.26,15.26,0,0,0,8-4.43,15.41,15.41,0,0,0,1-20.36" fill="#5290cc"/>
    <path d="M65.21,76a.64.64,0,0,0-.3-.06H58.29l7-12.7c.21-.42,0-.63-.46-.63H55.93a.83.83,0,0,0-.68.41L48.78,80.27a.64.64,0,0,0,.08.49.44.44,0,0,0,.36.14h6.4L51.11,93H52L65.26,76.58c.16-.31.14-.5-.05-.58" fill="#ec1c24"/>
    <path d="M32.6,62.81A2.5,2.5,0,0,1,34,66.06l-5.67,14.2A2.5,2.5,0,0,1,26,81.84a2.56,2.56,0,0,1-.93-.18,2.46,2.46,0,0,1-.95-.69,2.49,2.49,0,0,1-.44-2.56l5.66-14.2a2.64,2.64,0,0,1,.4-.67,2.48,2.48,0,0,1,2.85-.73m8.21,0a2.48,2.48,0,0,0-2.85.73,2.64,2.64,0,0,0-.4.67l-5.67,14.2a2.55,2.55,0,0,0,1.4,3.25,2.49,2.49,0,0,0,3.25-1.4l5.67-14.2a2.51,2.51,0,0,0-1.4-3.25m8.24,0a2.5,2.5,0,0,0-2.86.73,2.62,2.62,0,0,0-.39.67l-5.67,14.2a2.51,2.51,0,0,0,2.32,3.43,2.51,2.51,0,0,0,2.33-1.58l5.66-14.2a2.49,2.49,0,0,0-1.39-3.25m-24.68,0a2.48,2.48,0,0,0-2.85.73,2.64,2.64,0,0,0-.4.67l-5.67,14.2a2.55,2.55,0,0,0,1.4,3.25,2.49,2.49,0,0,0,3.25-1.4l5.67-14.2a2.51,2.51,0,0,0-1.4-3.25" fill="#5290cc"/>
    <path d="M94.11,37.05a15,15,0,0,0-8.55-5.42A18.44,18.44,0,0,0,79,21.09,18.7,18.7,0,0,0,55.69,21a19.09,19.09,0,0,0-2.76,2.7A22.89,22.89,0,0,1,68.81,38.43,19.49,19.49,0,0,1,81.48,56.66a19.92,19.92,0,0,1-.78,5.53h1.78a15.35,15.35,0,0,0,10.63-4.78,15.4,15.4,0,0,0,1-20.36" fill="#5290cc"/>
  </g>
</svg>