<svg id="icon-32" xmlns="http://www.w3.org/2000/svg" viewBox="0 0 110 110" data-adreal-did="1606153575889875">
  <title>32</title>
  <g id="icon-32-2" data-name="icon-32">
    <path d="M80.94,47.05a15.08,15.08,0,0,0-8.56-5.42A18.77,18.77,0,0,0,54,27a18,18,0,0,0-8.45,2l-.09,0A18.8,18.8,0,0,0,42.56,31l-.05,0c-.38.3-.74.62-1.09.94l-.36.35-.64.64-.4.45c-.18.2-.36.41-.53.62l-.37.47q-.33.44-.63.9c-.11.16-.21.33-.31.49s-.36.59-.52.89l-.23.46c-.14.27-.27.55-.4.84l-.19.46a19.49,19.49,0,0,0-.9,2.77h-1a16,16,0,0,0-1.71.1c-.49,0-1,.12-1.46.21l-.1,0a11.05,11.05,0,0,0-1.4.36l-.17,0c-.47.15-.93.33-1.38.52l-.22.1c-.34.15-.67.33-1,.5a3.84,3.84,0,0,0-.35.18l-.05,0a16.47,16.47,0,0,0-1.45.95c-.19.14-.36.28-.53.42s-.57.48-.84.73-.37.34-.55.53-.51.56-.75.85-.29.32-.42.5a17.33,17.33,0,0,0-1.07,1.57,15.11,15.11,0,0,0-2.08,7.76A16.73,16.73,0,0,0,19.56,59a6.55,6.55,0,0,1,2.53-.53A6.42,6.42,0,0,1,24.5,59a6.56,6.56,0,0,1,1.69,1,6.49,6.49,0,0,1,3-1.38,7.22,7.22,0,0,1,1.14-.11h0a6.51,6.51,0,0,1,2.42.47,6.17,6.17,0,0,1,1.7,1,6.42,6.42,0,0,1,6.51-1,6.56,6.56,0,0,1,1.69,1,6.44,6.44,0,0,1,4.12-1.49,6.51,6.51,0,0,1,2.42.47,6.17,6.17,0,0,1,1.7,1,6.44,6.44,0,0,1,6.52-1,6.35,6.35,0,0,1,1.85,1.16,4.77,4.77,0,0,1,3.55-1.63h8.88a4.48,4.48,0,0,1,3.89,2,4.41,4.41,0,0,1,.17,4.33l0,.09-.05.09-3.72,6.78H72a15.36,15.36,0,0,0,8-4.43,15.41,15.41,0,0,0,1-20.37" fill="#5290cc"/>
    <path d="M72.07,75.89a.81.81,0,0,0-.3,0H65.15l7-12.7c.21-.43,0-.64-.45-.64H62.79a.86.86,0,0,0-.68.42l-.65,1.73L55.64,80.17a.62.62,0,0,0,.09.49.41.41,0,0,0,.35.14h6.4L58,92.92h.92L72.12,76.47c.16-.3.14-.49-.05-.58" fill="#ec1c24"/>
    <path d="M23,62.71A2.5,2.5,0,0,1,24.43,66L18.77,80.17a2.52,2.52,0,0,1-2.33,1.57,2.47,2.47,0,0,1-.92-.18,2.44,2.44,0,0,1-.95-.68,2.49,2.49,0,0,1-.45-2.57l5.67-14.2a2.4,2.4,0,0,1,.39-.66,2.51,2.51,0,0,1,1.93-.91,2.55,2.55,0,0,1,.93.17m8.21,0a2.55,2.55,0,0,0-.93-.17,2.51,2.51,0,0,0-1.93.91,2.4,2.4,0,0,0-.39.66l-5.67,14.2a2.49,2.49,0,0,0,.45,2.57,2.36,2.36,0,0,0,.95.68A2.49,2.49,0,0,0,27,80.17L32.64,66a2.5,2.5,0,0,0-1.39-3.25m8.24,0a2.55,2.55,0,0,0-.93-.17,2.51,2.51,0,0,0-1.93.91,2.4,2.4,0,0,0-.39.66l-5.67,14.2A2.51,2.51,0,0,0,32,81.56a2.56,2.56,0,0,0,.93.18,2.49,2.49,0,0,0,2.32-1.57L40.88,66a2.51,2.51,0,0,0-1.39-3.25m-24.68,0a2.55,2.55,0,0,0-.93-.17,2.51,2.51,0,0,0-1.93.91,2.4,2.4,0,0,0-.39.66L5.89,78.31a2.49,2.49,0,0,0,.45,2.57,2.4,2.4,0,0,0,.94.68,2.56,2.56,0,0,0,.93.18,2.49,2.49,0,0,0,2.32-1.57L16.2,66a2.51,2.51,0,0,0-1.39-3.25m32.89,0a2.55,2.55,0,0,0-.93-.17,2.51,2.51,0,0,0-1.93.91,2.4,2.4,0,0,0-.39.66l-5.67,14.2a2.49,2.49,0,0,0,.45,2.57,2.44,2.44,0,0,0,1,.68,2.47,2.47,0,0,0,.92.18,2.5,2.5,0,0,0,2.33-1.57L49.09,66a2.5,2.5,0,0,0-1.39-3.25m8.24,0a2.55,2.55,0,0,0-.93-.17,2.51,2.51,0,0,0-1.93.91,2.4,2.4,0,0,0-.39.66L47,78.31a2.49,2.49,0,0,0,.45,2.57,2.4,2.4,0,0,0,.94.68,2.56,2.56,0,0,0,.93.18,2.49,2.49,0,0,0,2.32-1.57L57.33,66a2.51,2.51,0,0,0-1.39-3.25" fill="#5290cc"/>
    <path d="M100.92,37.15a15,15,0,0,0-8.56-5.42A18.8,18.8,0,0,0,74,17.08a18,18,0,0,0-11.52,4,18.53,18.53,0,0,0-2.76,2.69A22.89,22.89,0,0,1,75.62,38.53,19.55,19.55,0,0,1,88.29,56.76a19.56,19.56,0,0,1-.79,5.53h1.79a15.35,15.35,0,0,0,10.63-4.78,14.87,14.87,0,0,0,4.37-10.75,15,15,0,0,0-3.37-9.61" fill="#5290cc"/>
  </g>
</svg>