<svg id="icon-33" xmlns="http://www.w3.org/2000/svg" viewBox="0 0 110 110" data-adreal-did="1606153581538415">
  <title>33</title>
  <g id="icon-33-2" data-name="icon-33">
    <path d="M75.15,71.59H72.63l1.78-1.78a.84.84,0,0,0,.24-.58.82.82,0,0,0-.24-.57l-.51-.51a.83.83,0,0,0-.58-.23.81.81,0,0,0-.57.22L71,69.92V67.4a.82.82,0,0,0-.81-.81h-.74a.81.81,0,0,0-.8.81v2.53l-1.78-1.78a.83.83,0,0,0-.58-.24h0a.82.82,0,0,0-.57.23l-.52.52a.81.81,0,0,0,0,1.15L67,71.59H64.43a.81.81,0,0,0-.81.81v.73a.81.81,0,0,0,.81.81H67l-1.78,1.77a.84.84,0,0,0-.24.58.83.83,0,0,0,.24.58l.52.51a.78.78,0,0,0,.58.24.76.76,0,0,0,.56-.24l1.79-1.78v2.52a.8.8,0,0,0,.8.81h.74a.81.81,0,0,0,.81-.81V75.6l1.77,1.78a.85.85,0,0,0,.58.23.81.81,0,0,0,.57-.23l.52-.51a.84.84,0,0,0,.24-.58.8.8,0,0,0-.24-.57l-1.78-1.78h2.52a.82.82,0,0,0,.81-.81V72.4a.81.81,0,0,0-.81-.81" fill="#5290cc"/>
    <path d="M84.09,47.7a15,15,0,0,0-8.55-5.42A18.82,18.82,0,0,0,57.2,27.63a18.09,18.09,0,0,0-8.46,2l-.09.05a19.91,19.91,0,0,0-2.93,1.9.1.1,0,0,0,0,0c-.38.3-.74.61-1.09.94-.13.11-.25.23-.37.35s-.43.42-.63.64-.28.29-.41.44l-.52.63c-.13.15-.25.3-.37.46s-.43.6-.64.91c-.1.16-.21.32-.31.49s-.35.59-.51.89l-.24.45c-.13.28-.27.56-.39.84s-.14.31-.2.47a20,20,0,0,0-.9,2.77h-1c-.58,0-1.15,0-1.71.09a14.28,14.28,0,0,0-1.46.22l-.11,0c-.47.1-.94.22-1.4.36l-.16.05a13.47,13.47,0,0,0-1.38.52l-.23.1c-.34.15-.67.32-1,.5l-.36.17a.1.1,0,0,1-.05,0,15.73,15.73,0,0,0-1.45,1c-.18.13-.35.28-.53.42s-.57.47-.84.72-.37.35-.54.53-.51.56-.76.85-.29.33-.42.5a14.51,14.51,0,0,0-1.06,1.58,15,15,0,0,0-2.08,7.76,15.36,15.36,0,0,0,2,7.65,15.7,15.7,0,0,0,1.29,1.92,15.35,15.35,0,0,0,4.13,3.72,15,15,0,0,0,7.54,2.24H40l3.83-9.6a6.48,6.48,0,0,1,6-4.09A6.47,6.47,0,0,1,54,60.62,6.48,6.48,0,0,1,64.1,63.08a6.15,6.15,0,0,1,.38,1.17,4.7,4.7,0,0,1,1.62-.35,4.78,4.78,0,0,1,3.3-1.32h.74a4.79,4.79,0,0,1,3.31,1.33,4.8,4.8,0,0,1,3.26,1.4l.5.5a4.77,4.77,0,0,1,1.41,3.27,4.76,4.76,0,0,1,1,1.7,16.58,16.58,0,0,0,3.45-2.72,15.41,15.41,0,0,0,1-20.36" fill="#5290cc"/>
    <path d="M59.05,63.34a2.51,2.51,0,0,1,1.4,3.25l-5.67,14.2a2.49,2.49,0,0,1-3.25,1.4,2.55,2.55,0,0,1-1.4-3.25l5.67-14.2a2.64,2.64,0,0,1,.4-.67,2.48,2.48,0,0,1,2.85-.73m-8.23,0a2.5,2.5,0,0,0-2.86.73,2.62,2.62,0,0,0-.39.67L41.9,78.94a2.47,2.47,0,0,0,.45,2.56,2.42,2.42,0,0,0,.94.69,2.56,2.56,0,0,0,.93.18,2.5,2.5,0,0,0,2.32-1.58l5.67-14.2a2.5,2.5,0,0,0-1.39-3.25" fill="#5290cc"/>
  </g>
</svg>