<svg id="icon-34" xmlns="http://www.w3.org/2000/svg" viewBox="0 0 110 110" data-adreal-did="1606153589832763">
  <title>34</title>
  <g id="icon-34-2" data-name="icon-34">
    <path d="M82.06,47.7a15,15,0,0,0-8.56-5.42A18.8,18.8,0,0,0,55.16,27.63a18.08,18.08,0,0,0-8.45,2l-.09.05a18.5,18.5,0,0,0-2.94,1.9l0,0c-.38.31-.74.62-1.09.94l-.36.36-.64.64-.4.44c-.18.2-.36.41-.53.62l-.37.47q-.33.45-.63.9l-.31.5c-.18.29-.36.58-.52.88s-.15.31-.23.46-.27.56-.4.84S38,39,38,39.16a18.7,18.7,0,0,0-.9,2.77H36a16,16,0,0,0-1.71.09,14.28,14.28,0,0,0-1.46.22l-.1,0c-.48.1-.94.22-1.4.36l-.17.05a13.47,13.47,0,0,0-1.38.52l-.22.1c-.34.15-.67.32-1,.5l-.35.17,0,0a14.48,14.48,0,0,0-1.45,1c-.18.13-.36.28-.53.42s-.57.47-.84.72-.37.35-.55.53-.51.56-.75.85-.29.33-.42.5a17.33,17.33,0,0,0-1.07,1.57,15.18,15.18,0,0,0-2.08,7.77,15.36,15.36,0,0,0,2,7.65,18.38,18.38,0,0,0,1.29,1.92c.09,0,.16-.11.24-.16l1.39-3.48a6.45,6.45,0,0,1,4.89-4,6.29,6.29,0,0,1,1.14-.11h0a6.49,6.49,0,0,1,2.41.46,6.71,6.71,0,0,1,1.7,1,6.34,6.34,0,0,1,8.2,0,6.49,6.49,0,0,1,6.54-1,6.71,6.71,0,0,1,1.7,1,6.49,6.49,0,0,1,10.08,2.46,6.91,6.91,0,0,1,.37,1.17,4.76,4.76,0,0,1,1.63-.35,4.76,4.76,0,0,1,3.3-1.32h.73a4.8,4.8,0,0,1,3.32,1.33,4.79,4.79,0,0,1,3.25,1.39l.5.51c.13.13.23.27.35.41a4.39,4.39,0,0,1,.33-.4l.49-.49a4.83,4.83,0,0,1,3.29-1.43,4.78,4.78,0,0,1,3.3-1.32h.74a4.58,4.58,0,0,1,.83.08,15.38,15.38,0,0,0,.93-5.35,15,15,0,0,0-3.37-9.61" fill="#5290cc"/>
    <path d="M40.59,63.34A2.51,2.51,0,0,1,42,66.59l-5.67,14.2a2.49,2.49,0,0,1-3.25,1.4,2.36,2.36,0,0,1-1-.69,2.47,2.47,0,0,1-.45-2.56l5.67-14.2a2.64,2.64,0,0,1,.4-.67,2.48,2.48,0,0,1,2.85-.73m8.21,0a2.48,2.48,0,0,0-2.85.73,2.64,2.64,0,0,0-.4.67l-5.67,14.2a2.47,2.47,0,0,0,.45,2.56,2.36,2.36,0,0,0,1,.69,2.49,2.49,0,0,0,3.25-1.4l5.67-14.2a2.51,2.51,0,0,0-1.4-3.25m8.24,0a2.5,2.5,0,0,0-2.86.73,2.62,2.62,0,0,0-.39.67l-5.67,14.2a2.47,2.47,0,0,0,.45,2.56,2.29,2.29,0,0,0,1,.69,2.47,2.47,0,0,0,.92.18,2.5,2.5,0,0,0,2.32-1.58l5.67-14.2A2.49,2.49,0,0,0,57,63.34m-24.68,0a2.5,2.5,0,0,0-2.86.73,2.62,2.62,0,0,0-.39.67l-5.67,14.2a2.47,2.47,0,0,0,.45,2.56,2.36,2.36,0,0,0,.95.69,2.47,2.47,0,0,0,.92.18,2.51,2.51,0,0,0,2.33-1.58l5.66-14.2a2.49,2.49,0,0,0-1.39-3.25" fill="#5290cc"/>
    <path d="M73.11,71.59a.81.81,0,0,1,.81.81v.73a.81.81,0,0,1-.81.81H70.59l1.78,1.78a.81.81,0,0,1,0,1.15l-.51.51a.83.83,0,0,1-1.15,0l-1.78-1.77v2.51a.81.81,0,0,1-.81.81h-.73a.81.81,0,0,1-.81-.81V75.6L64.8,77.38a.8.8,0,0,1-.57.24.83.83,0,0,1-.58-.23l-.51-.52a.81.81,0,0,1,0-1.15l1.78-1.78H62.4a.81.81,0,0,1-.81-.81V72.4a.81.81,0,0,1,.81-.81h2.52l-1.78-1.78a.81.81,0,0,1,0-1.15l.51-.51a.8.8,0,0,1,.57-.24h0a.83.83,0,0,1,.58.24l1.78,1.78V67.41a.81.81,0,0,1,.81-.81h.73a.81.81,0,0,1,.81.81v2.51l1.78-1.77a.83.83,0,0,1,1.15,0l.51.51a.81.81,0,0,1,0,1.15l-1.78,1.78h2.52m15.58,0H86.17L88,69.81a.83.83,0,0,0,0-1.15l-.52-.51a.79.79,0,0,0-.57-.23.82.82,0,0,0-.58.23l-1.77,1.77V67.41a.82.82,0,0,0-.82-.81H83a.81.81,0,0,0-.81.81v2.52l-1.78-1.78a.78.78,0,0,0-.57-.24h0a.83.83,0,0,0-.58.24l-.51.51a.81.81,0,0,0,0,1.15l1.78,1.78H78a.81.81,0,0,0-.81.81v.73a.81.81,0,0,0,.81.81h2.52l-1.78,1.78a.82.82,0,0,0-.24.57.78.78,0,0,0,.24.58l.52.52a.81.81,0,0,0,1.14,0l1.78-1.78v2.52a.81.81,0,0,0,.81.81h.73a.82.82,0,0,0,.82-.81V75.61l1.77,1.77a.79.79,0,0,0,.58.23.77.77,0,0,0,.57-.23l.52-.51a.83.83,0,0,0,0-1.15l-1.79-1.78h2.53a.81.81,0,0,0,.81-.81V72.4a.81.81,0,0,0-.81-.81" fill="#5290cc"/>
  </g>
</svg>