<svg id="icon-35" xmlns="http://www.w3.org/2000/svg" viewBox="0 0 110 110" data-adreal-did="1606153595527285">
  <title>35</title>
  <g id="icon-35-2" data-name="icon-35">
    <path d="M88.91,46.58a15,15,0,0,0-8.55-5.42A18.82,18.82,0,0,0,62,26.51a18.09,18.09,0,0,0-8.46,2l-.09.05a20.56,20.56,0,0,0-2.94,1.9s0,0,0,0c-.38.3-.74.61-1.1.94l-.36.35c-.22.21-.43.42-.63.64s-.28.29-.41.44l-.52.63c-.13.15-.25.3-.37.46s-.43.6-.64.91-.21.32-.31.49-.35.59-.51.89c-.09.15-.16.3-.24.45s-.27.56-.39.84-.14.31-.2.47a20,20,0,0,0-.9,2.77h-1c-.58,0-1.15,0-1.71.09a13.87,13.87,0,0,0-1.46.22l-.11,0c-.47.1-.94.22-1.4.36l-.16,0a13.47,13.47,0,0,0-1.38.52l-.23.1c-.34.15-.67.32-1,.5l-.36.17a.1.1,0,0,1-.05,0,14.48,14.48,0,0,0-1.45.95c-.18.13-.35.28-.53.42s-.57.47-.84.72l-.55.53c-.26.28-.5.56-.75.85s-.29.33-.42.5a14.51,14.51,0,0,0-1.06,1.58,15,15,0,0,0-2.08,7.76,16.59,16.59,0,0,0,.17,2.36A6.55,6.55,0,0,1,30.07,58a6.7,6.7,0,0,1,2.41.46,6.27,6.27,0,0,1,1.68,1,6.38,6.38,0,0,1,3-1.38A6.12,6.12,0,0,1,38.29,58h0a6.62,6.62,0,0,1,2.41.46,7,7,0,0,1,1.71,1A6.48,6.48,0,0,1,46.51,58a6.62,6.62,0,0,1,2.41.46,6.49,6.49,0,0,1,1.69,1A6.42,6.42,0,0,1,54.73,58a6.47,6.47,0,0,1,4.12,1.47A6.48,6.48,0,0,1,63,58a6.62,6.62,0,0,1,2.41.46,6.42,6.42,0,0,1,1.5.88,3.17,3.17,0,0,1,.28-.34l.49-.49a4.87,4.87,0,0,1,3.29-1.43,4.78,4.78,0,0,1,3.3-1.32H75a4.8,4.8,0,0,1,3.32,1.33,4.8,4.8,0,0,1,3.26,1.4l.5.5a4.35,4.35,0,0,1,.34.41,4.23,4.23,0,0,1,.34-.4l.48-.49a4.87,4.87,0,0,1,3.29-1.43,4.79,4.79,0,0,1,3.31-1.32h.73a4.92,4.92,0,0,1,1.76.34,15,15,0,0,0-3.37-9.55" fill="#5290cc"/>
    <path d="M80,64.78a.81.81,0,0,1,.81.81v.73a.81.81,0,0,1-.81.81H77.44l1.78,1.78a.81.81,0,0,1,0,1.15l-.52.52a.81.81,0,0,1-.57.23.8.8,0,0,1-.58-.24L75.78,68.8v2.51a.82.82,0,0,1-.81.82h-.74a.81.81,0,0,1-.8-.82V68.79l-1.79,1.79a.75.75,0,0,1-.56.23.8.8,0,0,1-.58-.23L70,70.06a.8.8,0,0,1-.24-.57.83.83,0,0,1,.24-.58l1.78-1.78H69.24a.81.81,0,0,1-.81-.81v-.73a.81.81,0,0,1,.81-.81h2.52L70,63a.81.81,0,0,1,0-1.15l.52-.51a.78.78,0,0,1,.57-.24h0a.78.78,0,0,1,.57.24l1.79,1.78V60.6a.8.8,0,0,1,.8-.81H75a.81.81,0,0,1,.81.81v2.51l1.77-1.77a.81.81,0,0,1,.58-.22.82.82,0,0,1,.58.22l.51.51a.81.81,0,0,1,0,1.15l-1.78,1.78H80m15.57,0H93L94.79,63a.81.81,0,0,0,0-1.15l-.51-.51a.82.82,0,0,0-.58-.22.78.78,0,0,0-.57.22l-1.78,1.77V60.6a.81.81,0,0,0-.81-.81h-.73a.81.81,0,0,0-.81.81v2.52l-1.78-1.78a.83.83,0,0,0-.58-.24h0a.78.78,0,0,0-.57.24l-.52.51a.81.81,0,0,0,0,1.15l1.78,1.78H84.81a.81.81,0,0,0-.81.81v.73a.81.81,0,0,0,.81.81h2.53l-1.78,1.78a.8.8,0,0,0,0,1.15l.52.52a.82.82,0,0,0,.58.23.79.79,0,0,0,.57-.23L89,68.79v2.52a.82.82,0,0,0,.81.82h.73a.82.82,0,0,0,.81-.82V68.8l1.77,1.77a.82.82,0,0,0,.58.24.85.85,0,0,0,.58-.23l.51-.52a.81.81,0,0,0,0-1.15L93,67.13h2.52a.81.81,0,0,0,.81-.81v-.73a.81.81,0,0,0-.81-.81M87.74,76.14H85.22L87,74.36a.76.76,0,0,0,.24-.57.8.8,0,0,0-.24-.58l-.51-.51a.86.86,0,0,0-1.15,0l-1.78,1.78V72a.81.81,0,0,0-.81-.81H82a.81.81,0,0,0-.81.81v2.52L79.43,72.7a.82.82,0,0,0-.58-.23h0a.79.79,0,0,0-.57.23l-.51.51a.8.8,0,0,0-.24.58.76.76,0,0,0,.24.57l1.78,1.78H77a.81.81,0,0,0-.81.81v.73a.81.81,0,0,0,.81.81h2.52l-1.78,1.78a.78.78,0,0,0-.24.58.76.76,0,0,0,.24.57l.51.52a.81.81,0,0,0,1.15,0l1.78-1.79v2.52a.82.82,0,0,0,.81.82h.73a.82.82,0,0,0,.81-.82V80.16l1.78,1.77a.78.78,0,0,0,.58.24.81.81,0,0,0,.57-.23l.51-.52a.76.76,0,0,0,.24-.57.8.8,0,0,0-.24-.58l-1.78-1.78h2.52a.81.81,0,0,0,.81-.81V77a.81.81,0,0,0-.81-.81" fill="#5290cc"/>
    <path d="M31,62.24a2.5,2.5,0,0,1,1.39,3.25l-5.67,14.2a2.5,2.5,0,0,1-2.32,1.58,2.56,2.56,0,0,1-.93-.18,2.53,2.53,0,0,1-.94-.69,2.47,2.47,0,0,1-.45-2.56l5.67-14.21a2.56,2.56,0,0,1,.39-.66,2.51,2.51,0,0,1,1.93-.91,2.56,2.56,0,0,1,.93.18m8.21,0a2.56,2.56,0,0,0-.93-.18,2.51,2.51,0,0,0-1.93.91,2.56,2.56,0,0,0-.39.66L30.28,77.84a2.49,2.49,0,0,0,.44,2.56,2.65,2.65,0,0,0,1,.69,2.56,2.56,0,0,0,.93.18,2.5,2.5,0,0,0,2.32-1.58l5.67-14.2a2.5,2.5,0,0,0-1.39-3.25m8.23,0a2.52,2.52,0,0,0-.93-.18,2.47,2.47,0,0,0-1.92.91,2.58,2.58,0,0,0-.4.66L38.52,77.84A2.49,2.49,0,0,0,39,80.4a2.45,2.45,0,0,0,1.88.87,2.5,2.5,0,0,0,2.32-1.58l5.67-14.2a2.5,2.5,0,0,0-1.4-3.25m-24.68,0a2.51,2.51,0,0,0-.92-.18A2.48,2.48,0,0,0,19.9,63a2.58,2.58,0,0,0-.4.66L13.84,77.84a2.49,2.49,0,0,0,.44,2.56,2.45,2.45,0,0,0,1.88.87,2.5,2.5,0,0,0,2.32-1.58l5.67-14.2a2.5,2.5,0,0,0-1.4-3.25m32.9,0a2.56,2.56,0,0,0-.93-.18,2.51,2.51,0,0,0-1.93.91,2.56,2.56,0,0,0-.39.66L46.73,77.84a2.47,2.47,0,0,0,.45,2.56,2.53,2.53,0,0,0,.94.69,2.56,2.56,0,0,0,.93.18,2.5,2.5,0,0,0,2.32-1.58L57,65.49a2.5,2.5,0,0,0-1.39-3.25m8.23,0A2.48,2.48,0,0,0,61,63a2.58,2.58,0,0,0-.4.66L55,77.84a2.49,2.49,0,0,0,.44,2.56,2.65,2.65,0,0,0,1,.69,2.56,2.56,0,0,0,.93.18,2.5,2.5,0,0,0,2.32-1.58l5.67-14.2a2.5,2.5,0,0,0-1.4-3.25" fill="#5290cc"/>
  </g>
</svg>