<svg id="icon-36" xmlns="http://www.w3.org/2000/svg" viewBox="0 0 110 110" data-adreal-did="1606153608926999">
  <title>36</title>
  <g id="icon-36-2" data-name="icon-36">
    <path d="M33.67,73.17c0-.2,0-.41,0-.61a5.15,5.15,0,0,1,1.52-3.69l.74-.74a5.23,5.23,0,0,1,3.71-1.54,4.3,4.3,0,0,1,.62,0,5.17,5.17,0,0,1,4.09-2h1.09a5.22,5.22,0,0,1,4.11,2,5.65,5.65,0,0,1,.59,0,5.17,5.17,0,0,1,3.69,1.51l.76.75a5.19,5.19,0,0,1,1.53,3.7c0,.2,0,.41,0,.61a5.23,5.23,0,0,1,2,4.09v.45h4.28A15.37,15.37,0,0,0,73,72.93a15.41,15.41,0,0,0,1-20.36,15,15,0,0,0-8.55-5.42A18.8,18.8,0,0,0,47.06,32.5a18.12,18.12,0,0,0-8.46,2l-.09,0a19.91,19.91,0,0,0-2.93,1.9l0,0c-.38.3-.74.62-1.09.94-.13.11-.25.23-.37.35l-.63.64-.41.44-.52.63-.37.47q-.33.43-.63.9l-.32.49c-.17.29-.35.59-.51.89-.08.15-.16.3-.23.45s-.27.56-.4.84l-.2.47A20.39,20.39,0,0,0,29,46.8h-1c-.58,0-1.15,0-1.71.09a14.28,14.28,0,0,0-1.46.22l-.11,0c-.47.1-.93.22-1.4.36l-.16,0a13.47,13.47,0,0,0-1.38.52l-.23.1c-.45.2-.9.43-1.34.68l-.05,0a14.48,14.48,0,0,0-1.45,1l-.54.42c-.28.23-.56.47-.83.72s-.37.35-.55.54-.51.55-.75.84-.29.33-.43.51a16.55,16.55,0,0,0-1.06,1.57,15.11,15.11,0,0,0-2.08,7.76,15.33,15.33,0,0,0,2,7.65,15.51,15.51,0,0,0,5.42,5.64,15,15,0,0,0,7.54,2.24h4.34v-.45a5.22,5.22,0,0,1,2-4.09" fill="#5290cc"/>
    <path d="M52.84,76.06H49.09l2.65-2.65a1.22,1.22,0,0,0,0-1.71L51,70.94a1.27,1.27,0,0,0-1.72,0l-2.64,2.65V69.83a1.21,1.21,0,0,0-1.21-1.2H44.32a1.2,1.2,0,0,0-1.2,1.2v3.76l-2.65-2.65a1.22,1.22,0,0,0-.86-.35h0a1.21,1.21,0,0,0-.85.34L38,71.7a1.19,1.19,0,0,0-.35.86,1.17,1.17,0,0,0,.35.85l2.65,2.65H36.89a1.21,1.21,0,0,0-1.21,1.2v1.09a1.21,1.21,0,0,0,1.21,1.2h3.75l-.15.16-2,2L38,82.2a1.21,1.21,0,0,0,0,1.71l.77.77a1.18,1.18,0,0,0,1.7,0L43.12,82v3.75A1.21,1.21,0,0,0,44.32,87h1.09a1.22,1.22,0,0,0,1.21-1.21V82l2.64,2.65a1.2,1.2,0,0,0,.86.34,1.18,1.18,0,0,0,.85-.34l.77-.76a1.24,1.24,0,0,0,.35-.86,1.19,1.19,0,0,0-.35-.85l-.5-.5-2-2-.16-.16h3.76a1.2,1.2,0,0,0,1.2-1.2V77.26a1.2,1.2,0,0,0-1.2-1.2" fill="#5290cc"/>
    <path d="M94.23,43.08a15,15,0,0,0-8.56-5.42A18.8,18.8,0,0,0,67.33,23a18,18,0,0,0-11.52,4,18.53,18.53,0,0,0-2.76,2.69A22.89,22.89,0,0,1,68.93,44.46,19.55,19.55,0,0,1,81.6,62.69a19.56,19.56,0,0,1-.79,5.53H82.6a15.35,15.35,0,0,0,10.63-4.78,15.4,15.4,0,0,0,1-20.36" fill="#5290cc"/>
  </g>
</svg>