<svg id="icon-37" xmlns="http://www.w3.org/2000/svg" viewBox="0 0 110 110" data-adreal-did="1606153616621194">
  <title>37</title>
  <g id="icon-37-2" data-name="icon-37">
    <path d="M47.09,73.2a4.17,4.17,0,0,1,0-.61,5.17,5.17,0,0,1,1.53-3.69l.74-.74A5.21,5.21,0,0,1,53,66.62a4.17,4.17,0,0,1,.61,0,5.19,5.19,0,0,1,4.1-2h1.08a5.2,5.2,0,0,1,4.11,2q.3,0,.6,0a5.18,5.18,0,0,1,3.69,1.5l.75.75a5.2,5.2,0,0,1,1.54,3.7c0,.2,0,.41,0,.61a5.22,5.22,0,0,1,1.36,1.63A17,17,0,0,0,73,73,15.41,15.41,0,0,0,74,52.6a15,15,0,0,0-8.55-5.42A18.8,18.8,0,0,0,47.08,32.53a18.12,18.12,0,0,0-8.46,2l-.09,0a19.91,19.91,0,0,0-2.93,1.9l-.05,0c-.38.3-.74.62-1.09.94-.13.11-.25.23-.37.35s-.43.42-.63.64l-.41.44-.52.63-.37.47c-.22.29-.43.59-.64.9l-.31.49c-.18.29-.35.59-.51.89s-.16.3-.23.46-.27.55-.4.83l-.2.47a20.39,20.39,0,0,0-.9,2.77H28c-.58,0-1.15,0-1.71.09s-1,.12-1.46.22l-.11,0c-.47.1-.94.22-1.4.36l-.16,0c-.47.15-.93.33-1.38.52l-.23.1c-.46.21-.91.43-1.34.68l-.06,0a17.2,17.2,0,0,0-1.45,1l-.53.42a9.63,9.63,0,0,0-.83.73,6.88,6.88,0,0,0-.55.53c-.27.27-.51.55-.76.85s-.28.32-.42.5a17.24,17.24,0,0,0-1.06,1.57,15,15,0,0,0-2.08,7.76,15.35,15.35,0,0,0,6.5,12.65,5.37,5.37,0,0,1,1.37-1.66c0-.2,0-.41,0-.61a5.17,5.17,0,0,1,1.53-3.69l.74-.74a5.2,5.2,0,0,1,3.7-1.54,4.3,4.3,0,0,1,.62,0,5.17,5.17,0,0,1,4.09-2H32a5.22,5.22,0,0,1,4.11,2l.59,0a5.21,5.21,0,0,1,3.7,1.5l.75.75a5.19,5.19,0,0,1,1.53,3.7c0,.2,0,.41,0,.61a5.21,5.21,0,0,1,2,4.09v.45h.44v-.45a5.22,5.22,0,0,1,2-4.09" fill="#5290cc"/>
    <path d="M39.46,76.09a1.2,1.2,0,0,1,1.2,1.2v1.09a1.2,1.2,0,0,1-1.2,1.2H35.71l.15.16,2,2,.5.5a1.17,1.17,0,0,1,.35.85,1.19,1.19,0,0,1-.35.86l-.77.76a1.18,1.18,0,0,1-.85.34,1.2,1.2,0,0,1-.86-.34l-2.64-2.64v3.74A1.21,1.21,0,0,1,32,87H30.94a1.21,1.21,0,0,1-1.2-1.21V82.06l-2.65,2.65a1.2,1.2,0,0,1-.84.36,1.23,1.23,0,0,1-.87-.36l-.77-.77a1.15,1.15,0,0,1-.35-.85,1.2,1.2,0,0,1,.36-.86l.66-.65,1.84-1.85q-.82,0-1.62-.15h-2a1.19,1.19,0,0,1-1.08-.69,1.07,1.07,0,0,1-.12-.51V77.29a1.13,1.13,0,0,1,.12-.51,1.2,1.2,0,0,1,1.08-.69h3.75l-2.65-2.65a1.17,1.17,0,0,1-.35-.85,1.19,1.19,0,0,1,.35-.86l.77-.77a1.21,1.21,0,0,1,.85-.34h0a1.22,1.22,0,0,1,.86.35l2.65,2.65V69.86a1.2,1.2,0,0,1,1.2-1.2H32a1.21,1.21,0,0,1,1.21,1.2v3.75L35.88,71a1.25,1.25,0,0,1,.85-.32,1.22,1.22,0,0,1,.87.33l.76.76a1.22,1.22,0,0,1,0,1.71l-2.65,2.65h3.75m27.84.64a1.19,1.19,0,0,0-1-.64H62.5l2.65-2.65a1.2,1.2,0,0,0,0-1.71L64.39,71a1.29,1.29,0,0,0-1.71,0L60,73.61V69.86a1.21,1.21,0,0,0-1.21-1.2H57.74a1.21,1.21,0,0,0-1.21,1.2v3.76L53.88,71a1.19,1.19,0,0,0-.85-.35h0a1.25,1.25,0,0,0-.85.34l-.76.77a1.2,1.2,0,0,0,0,1.71l2.64,2.65H50.31a1.21,1.21,0,0,0-1.21,1.2v1.09a1.21,1.21,0,0,0,1.21,1.2h3.75l-.16.16-2,2-.49.49a1.2,1.2,0,0,0-.36.86,1.16,1.16,0,0,0,.36.85l.77.77a1.18,1.18,0,0,0,1.7,0l2.65-2.65v3.75A1.21,1.21,0,0,0,57.74,87h1.08A1.21,1.21,0,0,0,60,85.81V82.07l2.64,2.64a1.22,1.22,0,0,0,.86.34,1.16,1.16,0,0,0,.85-.34l.77-.76a1.19,1.19,0,0,0,.35-.86,1.17,1.17,0,0,0-.35-.85l-.68-.68-1.84-1.84c.51,0,1-.07,1.5-.14h2.12a1.23,1.23,0,0,0,1.21-1.2V77.29a1.18,1.18,0,0,0-.16-.56" fill="#5290cc"/>
    <path d="M94.21,43.05a15,15,0,0,0-8.55-5.42A18.42,18.42,0,0,0,79.07,27.1,18.23,18.23,0,0,0,67.32,23a18,18,0,0,0-11.53,4A18.53,18.53,0,0,0,53,29.69,22.89,22.89,0,0,1,68.91,44.43,19.49,19.49,0,0,1,81.58,62.66a19.92,19.92,0,0,1-.78,5.53h1.78a15.37,15.37,0,0,0,10.64-4.78,15.41,15.41,0,0,0,1-20.36" fill="#5290cc"/>
  </g>
</svg>