<svg id="icon-38" xmlns="http://www.w3.org/2000/svg" viewBox="0 0 110 110" data-adreal-did="1606153623348086">
  <title>38</title>
  <g id="icon-38-2" data-name="icon-38">
    <path d="M62.29,73.16c0-.2,0-.41,0-.62a5.15,5.15,0,0,1,1.53-3.68l.74-.74a5.2,5.2,0,0,1,3.7-1.54c.21,0,.42,0,.62,0a5.19,5.19,0,0,1,4.09-2H74a5.17,5.17,0,0,1,4.11,2c.13,0,.27,0,.4,0a15.6,15.6,0,0,0,.61-4.43,15.47,15.47,0,0,0-11.92-15,18.42,18.42,0,0,0-6.59-10.53,18.75,18.75,0,0,0-20.21-2.09l-.09,0a19.13,19.13,0,0,0-2.93,1.9l0,0c-.38.3-.74.61-1.09.94-.13.11-.25.23-.37.35s-.43.42-.63.64-.27.29-.41.44-.35.41-.52.63L34,40c-.22.3-.43.6-.64.91-.1.16-.21.32-.31.49s-.35.58-.51.89c-.08.15-.16.3-.23.45s-.28.56-.4.84l-.2.47a20,20,0,0,0-.9,2.77h-1c-.58,0-1.15,0-1.71.09a14.28,14.28,0,0,0-1.46.22l-.11,0c-.47.1-.94.22-1.4.36l-.16.05a13.47,13.47,0,0,0-1.38.52l-.23.1c-.45.2-.9.42-1.34.67l0,0a15.88,15.88,0,0,0-1.46,1c-.18.13-.35.28-.53.42s-.56.47-.83.72-.38.35-.55.53-.51.56-.76.85-.28.33-.42.5a16.11,16.11,0,0,0-1.06,1.58,15,15,0,0,0-2.08,7.76,15.38,15.38,0,0,0,.63,4.42l.4,0a5.21,5.21,0,0,1,4.1-2h1.08a5.17,5.17,0,0,1,4.11,2,4,4,0,0,1,.6,0,5.19,5.19,0,0,1,3.69,1.51l.75.75a5.17,5.17,0,0,1,1.54,3.69c0,.21,0,.42,0,.62a5.21,5.21,0,0,1,2,4.09v.45h.43v-.45a5.21,5.21,0,0,1,2-4.09c0-.2,0-.41,0-.62A5.15,5.15,0,0,1,37,68.86l.74-.74a5.21,5.21,0,0,1,3.71-1.54,6.08,6.08,0,0,1,.61,0,5.23,5.23,0,0,1,4.1-2h1.09a5.19,5.19,0,0,1,4.11,2,3.81,3.81,0,0,1,.59,0,5.17,5.17,0,0,1,3.69,1.51l.75.75a5.17,5.17,0,0,1,1.54,3.69,4.21,4.21,0,0,1,0,.62,5.21,5.21,0,0,1,2,4.09v.45h.44v-.45a5.2,5.2,0,0,1,2-4.09" fill="#5290cc"/>
    <path d="M27.87,76.05a1.21,1.21,0,0,1,1.21,1.2v1.09a1.21,1.21,0,0,1-1.21,1.2H24.12l1.8,1.81.85.84a1.19,1.19,0,0,1,.35.86,1.17,1.17,0,0,1-.35.85l-.76.77a1.2,1.2,0,0,1-.86.34,1.22,1.22,0,0,1-.86-.34L21.65,82v3.75A1.21,1.21,0,0,1,20.44,87H19.36a1.21,1.21,0,0,1-1.21-1.21V82L15.5,84.67a1.21,1.21,0,0,1-1.7,0L13,83.9a1.16,1.16,0,0,1-.36-.85,1.2,1.2,0,0,1,.36-.86l2.65-2.65H11.93a1.21,1.21,0,0,1-1.21-1.2V77.25a1.21,1.21,0,0,1,1.21-1.2h3.74L13,73.4a1.2,1.2,0,0,1-.36-.86,1.18,1.18,0,0,1,.17-.57,1.07,1.07,0,0,1,.19-.28l.76-.77a1.26,1.26,0,0,1,.59-.29,1.19,1.19,0,0,1,.26,0h0a1.19,1.19,0,0,1,.85.34l2.65,2.66V69.82a1.21,1.21,0,0,1,1.21-1.2h1.08a1.21,1.21,0,0,1,1.21,1.2v3.75l2.65-2.65a1.26,1.26,0,0,1,1.71,0l.76.76a1.2,1.2,0,0,1,0,1.71l-2.65,2.65h3.75m26.8,0H50.92l2.65-2.65a1.22,1.22,0,0,0,0-1.71l-.77-.76a1.26,1.26,0,0,0-1.71,0l-2.64,2.65V69.82a1.21,1.21,0,0,0-1.21-1.2H46.15a1.2,1.2,0,0,0-1.2,1.2v3.76L42.3,70.92a1.21,1.21,0,0,0-.86-.34h0a1.17,1.17,0,0,0-.85.34l-.77.77a1.2,1.2,0,0,0,0,1.71l2.65,2.65H38.72a1.21,1.21,0,0,0-1.21,1.2v1.09a1.21,1.21,0,0,0,1.21,1.2h3.75l-.15.16-2,2-.49.49a1.18,1.18,0,0,0,0,1.71l.77.77a1.19,1.19,0,0,0,.86.35,1.15,1.15,0,0,0,.84-.35L45,82v3.75A1.21,1.21,0,0,0,46.15,87h1.09a1.22,1.22,0,0,0,1.21-1.21V82l2.64,2.65a1.25,1.25,0,0,0,1.71,0l.76-.77a1.18,1.18,0,0,0,.36-.85,1.24,1.24,0,0,0-.35-.86l-.5-.49-2-2-.16-.16h3.76a1.2,1.2,0,0,0,1.2-1.2V77.25a1.2,1.2,0,0,0-1.2-1.2m26.79,0H77.71l2.65-2.65a1.19,1.19,0,0,0,.35-.86,1.13,1.13,0,0,0-.18-.59,1.17,1.17,0,0,0-.17-.26l-.76-.76a1.09,1.09,0,0,0-.62-.29,1,1,0,0,0-.24,0,1.22,1.22,0,0,0-.86.33l-2.64,2.65V69.82A1.21,1.21,0,0,0,74,68.62H72.94a1.2,1.2,0,0,0-1.2,1.2v3.76l-2.65-2.66a1.21,1.21,0,0,0-.86-.34h0a1.19,1.19,0,0,0-.85.34l-.76.77a1.16,1.16,0,0,0-.36.85,1.19,1.19,0,0,0,.35.86l2.65,2.65H65.52a1.21,1.21,0,0,0-1.21,1.2v1.09a1.21,1.21,0,0,0,1.21,1.2h3.75l-1.75,1.75-.9.9a1.2,1.2,0,0,0-.36.86,1.15,1.15,0,0,0,.35.85l.77.77a1.22,1.22,0,0,0,.87.35,1.19,1.19,0,0,0,.84-.35L71.74,82v3.75A1.21,1.21,0,0,0,72.94,87H74a1.21,1.21,0,0,0,1.21-1.21V82l2.64,2.65a1.2,1.2,0,0,0,.86.34,1.18,1.18,0,0,0,.85-.34l.77-.77a1.17,1.17,0,0,0,.35-.85,1.19,1.19,0,0,0-.35-.86l-2.65-2.65h3.75a1.2,1.2,0,0,0,1.2-1.2V77.25a1.2,1.2,0,0,0-1.2-1.2" fill="#5290cc"/>
    <path d="M95.91,43.09a15,15,0,0,0-8.55-5.42A18.82,18.82,0,0,0,69,23a18,18,0,0,0-11.53,4,18.53,18.53,0,0,0-2.76,2.69A22.89,22.89,0,0,1,70.61,44.47,19.52,19.52,0,0,1,83.28,62.7a19.81,19.81,0,0,1-.78,5.53h1.78a15.39,15.39,0,0,0,10.64-4.78,15.41,15.41,0,0,0,1-20.36" fill="#5290cc"/>
  </g>
</svg>