<svg id="icon-39" xmlns="http://www.w3.org/2000/svg" viewBox="0 0 110 110" data-adreal-did="1606153629569954">
  <title>39</title>
  <g id="icon-39-2" data-name="icon-39">
    <path d="M80.67,59.31a2.57,2.57,0,0,1,.25,1.16,2.63,2.63,0,0,1-.75,1.87,2.54,2.54,0,0,1-1.26.71,2.9,2.9,0,0,1-.6.07H45.9A2.64,2.64,0,0,1,44,62.35,2.2,2.2,0,0,1,43.7,62a2.52,2.52,0,0,1-.51-1.54,2.48,2.48,0,0,1,.52-1.56,2.69,2.69,0,0,1,.27-.32,2.63,2.63,0,0,1,1.92-.77H78.3a2.61,2.61,0,0,1,.64.08,2.43,2.43,0,0,1,1.73,1.41m0,12a2.65,2.65,0,0,0-.51-.74,2.42,2.42,0,0,0-1.22-.67,2.75,2.75,0,0,0-.65-.08H60.06a2.64,2.64,0,0,0-1.93.77,2.6,2.6,0,0,0-.26.32,2.61,2.61,0,0,0,0,3.1c.09.12.18.23.28.34a2.67,2.67,0,0,0,1.92.77H78.3a2.88,2.88,0,0,0,.59-.07,2.55,2.55,0,0,0,1.26-.7,3.65,3.65,0,0,0,.26-.32,2.57,2.57,0,0,0,.5-1.56,2.71,2.71,0,0,0-.25-1.16M52.77,74.71a2.62,2.62,0,0,0,1.32-2.28,2.51,2.51,0,0,0-.79-1.88h0v0l-.07,0a2.53,2.53,0,0,0-.42-.31.7.7,0,0,0-.21-.11,2.63,2.63,0,0,0-.42-.17l-.1,0H52a3.5,3.5,0,0,0-.48-.06H33a2.6,2.6,0,0,0-.39,0h-.05l-.1,0a4.68,4.68,0,0,0-.48.18l-.16.09a2.55,2.55,0,0,0-.53.4,2.63,2.63,0,0,0,0,3.76h0s.05,0,.07.06a2.53,2.53,0,0,0,.42.31,1,1,0,0,0,.21.11,2.14,2.14,0,0,0,.42.16l.1,0h.06a2.44,2.44,0,0,0,.48,0l.1,0H51.44l.15,0L52,75H52l.1,0a2.15,2.15,0,0,0,.48-.18l.16-.08M38.59,62.77a3.22,3.22,0,0,0,.57-.42A2.58,2.58,0,0,0,40,60.47a2.51,2.51,0,0,0-.79-1.88,2.34,2.34,0,0,0-.54-.41l-.13-.07a2.5,2.5,0,0,0-.52-.19l-.06,0h0a3.06,3.06,0,0,0-.54-.07H33.07a3.41,3.41,0,0,0-.46.05h0l0,0a2.3,2.3,0,0,0-.57.21l-.09.05a2.27,2.27,0,0,0-.57.42,2.51,2.51,0,0,0-.79,1.88,2.57,2.57,0,0,0,.78,1.88,3,3,0,0,0,.55.4l.13.07a2.67,2.67,0,0,0,.52.2l0,0h0a3.33,3.33,0,0,0,.54.07h4.17l.11,0a2.31,2.31,0,0,0,.46-.05h0l0,0a2.32,2.32,0,0,0,.57-.22l.09,0M80.1,86.27a2.58,2.58,0,0,0,.79-1.88,2.63,2.63,0,0,0-2-2.55l-.06,0h0a2.35,2.35,0,0,0-.54-.06H74.11a2.88,2.88,0,0,0-.59.07l0,0-.11,0a2.18,2.18,0,0,0-.55.22,2.54,2.54,0,0,0-.57.42,2.51,2.51,0,0,0-.79,1.88,2.55,2.55,0,0,0,.78,1.88,3,3,0,0,0,.55.4h0l.13.07c.1.05.2.08.3.12s.18.08.27.1a2.75,2.75,0,0,0,.65.08h4.09l.11,0a2.31,2.31,0,0,0,.46,0h0l.05,0h0a2.78,2.78,0,0,0,.57-.21l.06,0,.28-.19a2.51,2.51,0,0,0,.32-.25M68,83.24a2.41,2.41,0,0,0-.51-.73,2.06,2.06,0,0,0-.37-.29L67,82.16A2.64,2.64,0,0,0,66.7,82a2.74,2.74,0,0,0-.4-.15l-.08,0h0a3,3,0,0,0-.68-.08H33.08a2.88,2.88,0,0,0-.59.07,2.41,2.41,0,0,0-1.26.7,2.6,2.6,0,0,0-.26.32,2.57,2.57,0,0,0-.5,1.56,2.63,2.63,0,0,0,.76,1.89,2.55,2.55,0,0,0,.38.29l.08.06.29.15a2.62,2.62,0,0,0,.39.15l.08,0h0a2.93,2.93,0,0,0,.67.08H65.59a2.8,2.8,0,0,0,.59-.07,2.55,2.55,0,0,0,1.27-.7,4,4,0,0,0,.26-.32,2.63,2.63,0,0,0,.49-1.56A2.74,2.74,0,0,0,68,83.24" fill="#5290cc"/>
    <path d="M36.52,34.52a2.69,2.69,0,0,1-1.89-.72,2.37,2.37,0,0,1-.77-1.8V25.61a2.67,2.67,0,0,1,5.33,0V32a2.35,2.35,0,0,1-.78,1.8,2.65,2.65,0,0,1-1.89.72M21.3,71.41a2.57,2.57,0,0,0-1.85-.71,2.44,2.44,0,0,0-1.85.74L13,75.89a2.76,2.76,0,0,0-.73,1.9A2.62,2.62,0,0,0,13,79.64a3.13,3.13,0,0,0,1.93.74,3.07,3.07,0,0,0,1.91-.74l4.45-4.45a2.91,2.91,0,0,0,.76-2,2.32,2.32,0,0,0-.75-1.78m-3.7-30.5a2.38,2.38,0,0,0,1.85.76,2.49,2.49,0,0,0,1.85-.75,2.53,2.53,0,0,0,.75-1.86,2.38,2.38,0,0,0-.76-1.84l-4.45-4.6A2.65,2.65,0,0,0,15,31.86a3,3,0,0,0-2,.76,2.74,2.74,0,0,0-.73,1.9A2.71,2.71,0,0,0,13,36.45Zm4.83,23.38a16.41,16.41,0,0,0,4.77,5.14,6.76,6.76,0,0,1,3.05-3,6.62,6.62,0,0,1-1.76-1.24,6.64,6.64,0,0,1,0-9.46,6.59,6.59,0,0,1,4.73-1.92h4.05a7,7,0,0,1,1.55.18h0a19,19,0,0,1,1.57-3.4,20.17,20.17,0,0,1,1.33-2l.43-.51.1-.12c.24-.29.57-.68.95-1.07.23-.23.46-.46.7-.68s.69-.62,1-.91l.1-.08.58-.45c.51-.37,1-.69,1.47-1a16.31,16.31,0,0,0-4.3-2.67,15.69,15.69,0,0,0-6.29-1.31,15.91,15.91,0,0,0-8.14,2.2,16.38,16.38,0,0,0-6,6,16.22,16.22,0,0,0,0,16.28M6,58.81h6.38A2.35,2.35,0,0,0,14.19,58a2.72,2.72,0,0,0,.71-1.89,2.77,2.77,0,0,0-.71-1.9,2.33,2.33,0,0,0-1.81-.79H6a2.65,2.65,0,0,0-2.67,2.69A2.7,2.7,0,0,0,6,58.81" fill="#ffd300"/>
    <path d="M103.33,50.79a15,15,0,0,0-8.55-5.42,18.44,18.44,0,0,0-6.6-10.54,18.23,18.23,0,0,0-11.74-4.11,18,18,0,0,0-8.46,2l-.09,0A18.5,18.5,0,0,0,65,34.7l0,0c-.38.31-.74.62-1.1.94l-.36.35c-.22.21-.43.43-.63.64l-.41.45c-.18.2-.35.41-.52.62s-.26.31-.37.47-.44.6-.64.9l-.31.5c-.18.29-.35.58-.51.88s-.16.31-.24.46-.27.55-.39.84-.14.31-.2.46a20.53,20.53,0,0,0-.9,2.78h-1a16,16,0,0,0-1.71.09c-.5,0-1,.12-1.46.21l-.11,0c-.47.1-.94.22-1.4.36l-.16,0c-.47.15-.93.32-1.39.51l-.22.11c-.34.15-.67.32-1,.49a3.84,3.84,0,0,1-.35.18l0,0A16.55,16.55,0,0,0,48,48c-.18.13-.35.28-.53.42s-.57.47-.84.72l-.55.53c-.26.27-.51.56-.75.85s-.29.33-.42.5a15.41,15.41,0,0,0-1.06,1.57,14.15,14.15,0,0,0-.93,1.87,6.64,6.64,0,0,1,3-.68H78.3a7,7,0,0,1,1.55.18A6.4,6.4,0,0,1,83,55.74a6.54,6.54,0,0,1,1.31,1.88,6.92,6.92,0,0,1,.63,2.84,6.6,6.6,0,0,1-1.27,3.92,7,7,0,0,1-.64.77,6.54,6.54,0,0,1-1.84,1.3A6.47,6.47,0,0,1,83,67.7a6.72,6.72,0,0,1,1.3,1.88,6.5,6.5,0,0,1,.4,1.12l3.45-8.52a6.53,6.53,0,0,1,6.07-4.09h0a6.55,6.55,0,0,1,2.47.49,6.65,6.65,0,0,1,1.76,1.06,6.51,6.51,0,0,1,6.61-1,6.89,6.89,0,0,1,1.63,1,14.9,14.9,0,0,0-3.34-8.82" fill="#5290cc"/>
    <path d="M103.54,62.33a2.55,2.55,0,0,1,1.4,3.32L103,70.38l-1.75,4.32L100,77.79l-.93,2.3a2.55,2.55,0,0,1-2.36,1.59h0a2.61,2.61,0,0,1-.94-.18,2.6,2.6,0,0,1-1.53-1.83,2.48,2.48,0,0,1,.13-1.49l.24-.61.93-2.28,4.69-11.56a2.63,2.63,0,0,1,.35-.58,2.51,2.51,0,0,1,3-.82m-8.38,0a2.51,2.51,0,0,0-3,.82,2.63,2.63,0,0,0-.35.58L87.15,75.29l-.93,2.28-.24.61a2.48,2.48,0,0,0-.13,1.49,2.6,2.6,0,0,0,1.53,1.83,2.61,2.61,0,0,0,.94.18h0a2.55,2.55,0,0,0,2.36-1.59l.93-2.3,1.26-3.09,1.75-4.32,1.92-4.73a2.55,2.55,0,0,0-1.4-3.32" fill="#5290cc"/>
  </g>
</svg>