<svg id="icon-4" xmlns="http://www.w3.org/2000/svg" viewBox="0 0 110 110" data-adreal-did="1606153359994049">
  <title>4</title>
  <g id="icon-4-2" data-name="icon-4">
    <path d="M106.09,56.75a15,15,0,0,0-8.55-5.42A18.77,18.77,0,0,0,79.2,36.69a18,18,0,0,0-11.53,4,20,20,0,0,0-2.76,2.68A22.94,22.94,0,0,1,80.79,58.13,19.52,19.52,0,0,1,93.46,76.36a20,20,0,0,1-.76,5.53h1.76a15.33,15.33,0,0,0,10.64-4.78,15.41,15.41,0,0,0,1-20.36" fill="#5290cc"/>
    <path d="M77.54,61.33A18.48,18.48,0,0,0,71,50.8,18.28,18.28,0,0,0,59.2,46.69a18.09,18.09,0,0,0-8.46,2l-.09,0a19.91,19.91,0,0,0-2.93,1.9l0,0c-.38.3-.74.62-1.09.94-.13.11-.25.23-.37.35s-.43.42-.63.64l-.41.44-.52.63-.37.47c-.22.29-.43.59-.64.9l-.31.49c-.18.29-.35.59-.51.89-.08.15-.16.3-.23.46s-.28.55-.4.84-.13.3-.2.46a20.85,20.85,0,0,0-.9,2.77h-1a16,16,0,0,0-1.71.1,14.25,14.25,0,0,0-1.46.21l-.11,0c-.47.1-.94.22-1.4.36l-.16,0c-.47.15-.93.33-1.38.52l-.23.1c-.46.21-.91.43-1.34.68l-.06,0a17.2,17.2,0,0,0-1.45,1l-.53.42c-.29.23-.57.48-.83.73a6.88,6.88,0,0,0-.55.53c-.27.27-.51.55-.76.85s-.29.32-.42.5a15.41,15.41,0,0,0-1.06,1.57,15,15,0,0,0-2.08,7.76,15.52,15.52,0,0,0,7.4,13.29,14.89,14.89,0,0,0,7.54,2.24h35A15.33,15.33,0,0,0,85.1,87.11a15.41,15.41,0,0,0,1-20.36,15,15,0,0,0-8.55-5.42" fill="#b3e3f9"/>
    <path d="M18.51,36.08a2.49,2.49,0,0,1-1.86.75,2.38,2.38,0,0,1-1.84-.76l-4.6-4.46a2.71,2.71,0,0,1-.73-1.93,2.74,2.74,0,0,1,.73-1.9,3,3,0,0,1,2-.76,2.61,2.61,0,0,1,1.84.76l4.46,4.6a2.38,2.38,0,0,1,.76,1.84,2.51,2.51,0,0,1-.75,1.86M9.59,48.61H3.21a2.67,2.67,0,0,0-1.88.76A2.62,2.62,0,0,0,.54,51.3a2.55,2.55,0,0,0,.79,1.88A2.55,2.55,0,0,0,3.21,54H9.59a2.33,2.33,0,0,0,1.8-.78,2.67,2.67,0,0,0,.72-1.89,2.73,2.73,0,0,0-.72-1.9,2.31,2.31,0,0,0-1.8-.79M33.73,29.68A2.69,2.69,0,0,0,35.62,29a2.33,2.33,0,0,0,.78-1.8V20.78a2.7,2.7,0,0,0-2.67-2.67,2.7,2.7,0,0,0-2.66,2.67v6.38a2.36,2.36,0,0,0,.77,1.8,2.69,2.69,0,0,0,1.89.72m17.05,7.15a2.74,2.74,0,0,0,1.88-.76l4.57-4.46A2.59,2.59,0,0,0,58,29.68a2.56,2.56,0,0,0-.78-1.87A2.51,2.51,0,0,0,55.32,27a2.63,2.63,0,0,0-1.84.76L49,32.38a2.43,2.43,0,0,0-.71,1.84A2.6,2.6,0,0,0,49,36.08a2.28,2.28,0,0,0,1.75.75m-5.6,10.74a23.13,23.13,0,0,1,3.6-2.35c0-.07-.05-.14-.08-.22a16.34,16.34,0,0,0-3.47-5.2A16.59,16.59,0,0,0,40,36.32,15.7,15.7,0,0,0,33.73,35a15.9,15.9,0,0,0-8.13,2.2,16.38,16.38,0,0,0-6,6,16.16,16.16,0,0,0,0,16.28,16.19,16.19,0,0,0,4.83,5.18,19.13,19.13,0,0,1,5.82-5.09,19.41,19.41,0,0,1,7.84-2.47,22.25,22.25,0,0,1,7-9.5M16.65,65.86a2.43,2.43,0,0,0-1.84.74l-4.6,4.45A2.77,2.77,0,0,0,9.47,73a2.63,2.63,0,0,0,.74,1.85,3.12,3.12,0,0,0,1.92.75,3.12,3.12,0,0,0,1.92-.75l4.45-4.45a2.89,2.89,0,0,0,.76-2,2.33,2.33,0,0,0-.75-1.78,2.62,2.62,0,0,0-1.86-.71" fill="#ffd300"/>
  </g>
</svg>