<svg id="icon-40" xmlns="http://www.w3.org/2000/svg" viewBox="0 0 110 110" data-adreal-did="1606153636593737">
  <title>40</title>
  <g id="icon-40-2" data-name="icon-40">
    <path d="M36.51,34.52a2.69,2.69,0,0,1-1.89-.72,2.35,2.35,0,0,1-.78-1.8V25.61A2.7,2.7,0,0,1,36.51,23a2.53,2.53,0,0,1,1.87.79,2.56,2.56,0,0,1,.8,1.87V32a2.38,2.38,0,0,1-.78,1.8,2.69,2.69,0,0,1-1.89.72M19.43,70.7a2.49,2.49,0,0,0-1.85.73L13,75.89a2.74,2.74,0,0,0-.73,1.9A2.64,2.64,0,0,0,13,79.64a3.16,3.16,0,0,0,1.93.75,3.07,3.07,0,0,0,1.91-.75l4.45-4.46a2.87,2.87,0,0,0,.77-2,2.36,2.36,0,0,0-.75-1.79,2.65,2.65,0,0,0-1.86-.7M17.58,40.91a2.4,2.4,0,0,0,1.85.76A2.56,2.56,0,0,0,22,39.06a2.37,2.37,0,0,0-.77-1.84l-4.45-4.6A2.64,2.64,0,0,0,15,31.85a3,3,0,0,0-2,.77,2.79,2.79,0,0,0-.73,1.9A2.76,2.76,0,0,0,13,36.45ZM30.24,66.44a6.83,6.83,0,0,1-1.77-1.24,6.64,6.64,0,0,1,0-9.46,6.61,6.61,0,0,1,4.73-1.92h4.06A6.88,6.88,0,0,1,38.8,54h0a19.24,19.24,0,0,1,1.57-3.39,20.17,20.17,0,0,1,1.33-2l.43-.51.1-.12c.25-.29.58-.68,1-1.07.23-.23.46-.46.7-.68s.7-.62,1.06-.91l.09-.08c.19-.15.38-.3.59-.45.5-.37,1-.69,1.47-1a16.64,16.64,0,0,0-4.3-2.67,16,16,0,0,0-14.43.89,16.3,16.3,0,0,0-6,6,16.16,16.16,0,0,0,0,16.28,16.19,16.19,0,0,0,4.77,5.14,6.62,6.62,0,0,1,1.26-1.73,6.84,6.84,0,0,1,1.79-1.26M14.17,58a2.85,2.85,0,0,0,0-3.79,2.32,2.32,0,0,0-1.8-.79H6a2.65,2.65,0,0,0-1.87.76,2.6,2.6,0,0,0-.79,1.93A2.57,2.57,0,0,0,4.11,58,2.57,2.57,0,0,0,6,58.81h6.39a2.35,2.35,0,0,0,1.8-.78" fill="#ffd300"/>
    <path d="M103.31,50.79a14.92,14.92,0,0,0-8.55-5.42A18.77,18.77,0,0,0,76.42,30.72a18,18,0,0,0-8.46,2l-.09,0a18.41,18.41,0,0,0-2.93,1.9l0,0c-.38.31-.74.62-1.09.94-.13.12-.24.24-.37.35l-.63.64-.41.45c-.18.2-.35.41-.52.62l-.37.47c-.22.29-.43.6-.63.9l-.32.5c-.17.29-.35.58-.51.88l-.23.46c-.14.28-.27.55-.4.84s-.13.31-.2.46a20.53,20.53,0,0,0-.9,2.78h-1a16,16,0,0,0-1.71.09c-.49,0-1,.12-1.46.21l-.11,0c-.47.1-.94.22-1.4.36l-.16,0q-.71.23-1.38.51l-.23.11c-.33.15-.66.32-1,.49-.12.07-.24.11-.35.18l0,0A16.55,16.55,0,0,0,48,48c-.19.13-.36.27-.54.42s-.56.47-.83.72-.37.35-.55.53-.51.56-.75.85l-.43.5a15.06,15.06,0,0,0-2,3.44,6.65,6.65,0,0,1,3-.68h32.4a6.88,6.88,0,0,1,1.54.18A6.43,6.43,0,0,1,83,55.74a6.54,6.54,0,0,1,1.31,1.88,6.76,6.76,0,0,1,.62,2.84,6.59,6.59,0,0,1-1.26,3.92,6.19,6.19,0,0,1-.65.77,6.64,6.64,0,0,1-1.83,1.3A6.43,6.43,0,0,1,83,67.7a6.23,6.23,0,0,1,.62.74l.17-.22A4.82,4.82,0,0,1,85.16,65l.49-.48A4.83,4.83,0,0,1,88.94,63a4.78,4.78,0,0,1,3.3-1.32H93a4.79,4.79,0,0,1,3.31,1.33,4.84,4.84,0,0,1,3.26,1.39l.5.51a4.73,4.73,0,0,1,1.41,3.27,4.79,4.79,0,0,1,1.24,2.5,14.79,14.79,0,0,0,4-10.32,14.94,14.94,0,0,0-3.37-9.61" fill="#5290cc"/>
    <path d="M98,70.71H95.45l1.78-1.78a.8.8,0,0,0,.24-.57.84.84,0,0,0-.24-.58l-.51-.51a.82.82,0,0,0-.58-.22.77.77,0,0,0-.57.22l-1.78,1.78V66.53a.81.81,0,0,0-.81-.81h-.74a.8.8,0,0,0-.8.81v2.52l-1.78-1.78a.82.82,0,0,0-.58-.23h0a.78.78,0,0,0-.57.23l-.52.51a.84.84,0,0,0-.24.58.8.8,0,0,0,.24.57l1.78,1.78H87.25a.81.81,0,0,0-.81.81v.73a.81.81,0,0,0,.81.81h2.52L88,74.84a.83.83,0,0,0-.24.58.81.81,0,0,0,.19.5L88,76l.52.52a.83.83,0,0,0,.58.24.8.8,0,0,0,.56-.24l.59-.59,1.2-1.19v2.51a.85.85,0,0,0,.8.82H93a.84.84,0,0,0,.81-.82V74.73l.8.8,1,1a.82.82,0,0,0,1.15,0l.52-.52a.8.8,0,0,0,.24-.57.84.84,0,0,0-.24-.58l-.12-.11-1.66-1.67H98a.81.81,0,0,0,.81-.81v-.73a.81.81,0,0,0-.81-.81" fill="#5290cc"/>
    <path d="M80.66,59.31a2.71,2.71,0,0,1,.25,1.16,2.57,2.57,0,0,1-.5,1.56,2.6,2.6,0,0,1-1.52,1,2.8,2.8,0,0,1-.59.07H45.88A2.67,2.67,0,0,1,44,62.35c-.1-.11-.19-.22-.28-.34a2.51,2.51,0,0,1-.5-1.54,2.48,2.48,0,0,1,.52-1.56,2.6,2.6,0,0,1,.26-.32,2.64,2.64,0,0,1,1.93-.77h32.4a2.74,2.74,0,0,1,.64.08,2.42,2.42,0,0,1,1.22.67,2.65,2.65,0,0,1,.51.74m0,12a2.45,2.45,0,0,0-.51-.74,2.42,2.42,0,0,0-1.22-.67,2.67,2.67,0,0,0-.64-.08H60a2.6,2.6,0,0,0-1.92.77,2.69,2.69,0,0,0-.27.32,2.59,2.59,0,0,0,0,3.1,2.2,2.2,0,0,0,.28.34,2.64,2.64,0,0,0,1.92.77H78.28a2.8,2.8,0,0,0,.59-.07,2.5,2.5,0,0,0,1.26-.71,1.86,1.86,0,0,0,.26-.31,2.57,2.57,0,0,0,.5-1.56,2.71,2.71,0,0,0-.25-1.16M52.75,74.71a2.9,2.9,0,0,0,.54-.4,2.66,2.66,0,0,0,0-3.76h0v0l-.08,0a2.33,2.33,0,0,0-.41-.31,1.06,1.06,0,0,0-.21-.11,2.26,2.26,0,0,0-.43-.17.29.29,0,0,0-.1,0h0a3.93,3.93,0,0,0-.48-.06H33a2.57,2.57,0,0,0-.4,0h0a.32.32,0,0,0-.09,0,3.41,3.41,0,0,0-.48.18l-.16.09a2.9,2.9,0,0,0-.54.4,2.54,2.54,0,0,0-.79,1.88,2.6,2.6,0,0,0,.79,1.88h0l.08.06a4,4,0,0,0,.41.31l.21.11a2.23,2.23,0,0,0,.43.16l.1,0h0a2.61,2.61,0,0,0,.48,0l.11,0H51.42l.15,0A2.3,2.3,0,0,0,52,75h0l.1,0a2,2,0,0,0,.48-.18l.16-.08M38.57,62.77a2.9,2.9,0,0,0,.58-.43,2.64,2.64,0,0,0,0-3.75,2.39,2.39,0,0,0-.55-.41l-.13-.07a2.23,2.23,0,0,0-.51-.19l-.06,0h0a3.19,3.19,0,0,0-.54-.07H33.05a3.41,3.41,0,0,0-.46.05h0l-.06,0a2.3,2.3,0,0,0-.57.21l-.08.05a2.31,2.31,0,0,0-.58.42,2.63,2.63,0,0,0,0,3.76,2.9,2.9,0,0,0,.54.4l.14.07a2.85,2.85,0,0,0,.51.2l.06,0h0a3.06,3.06,0,0,0,.54.07h4.17l.1,0a2.31,2.31,0,0,0,.46-.05h0l.06,0a2.41,2.41,0,0,0,.56-.22l.09,0m41.52,23.5a2.57,2.57,0,0,0,.78-1.88,2.54,2.54,0,0,0-.78-1.88,2.59,2.59,0,0,0-1.19-.67l-.06,0h0a2.48,2.48,0,0,0-.54-.06H74.1a2.73,2.73,0,0,0-.59.07l-.06,0-.1,0a2.18,2.18,0,0,0-.55.22,2.31,2.31,0,0,0-.58.42,2.63,2.63,0,0,0,0,3.76,2.9,2.9,0,0,0,.54.4h0l.14.07a2.08,2.08,0,0,0,.3.12,2.15,2.15,0,0,0,.27.1,2.61,2.61,0,0,0,.64.08h4.1l.1,0a2.31,2.31,0,0,0,.46,0h0l.06,0a2.92,2.92,0,0,0,.56-.21l.06,0a1.75,1.75,0,0,0,.29-.18,2.51,2.51,0,0,0,.32-.25m-12.16-3a2.38,2.38,0,0,0-.5-.73,2.55,2.55,0,0,0-.38-.29L67,82.16a2.64,2.64,0,0,0-.29-.15,2.74,2.74,0,0,0-.4-.15l-.08,0h0a3,3,0,0,0-.68-.08H33.07a2.73,2.73,0,0,0-.59.07,2.44,2.44,0,0,0-1.27.7,2.6,2.6,0,0,0-.26.32,2.63,2.63,0,0,0-.49,1.56,2.74,2.74,0,0,0,.25,1.16,2.5,2.5,0,0,0,.5.73,2.55,2.55,0,0,0,.38.29l.08.05a2.69,2.69,0,0,0,.29.16,2.74,2.74,0,0,0,.4.15l.08,0h0a3,3,0,0,0,.68.08H65.57a2.9,2.9,0,0,0,.6-.07,2.48,2.48,0,0,0,1.26-.7,2.6,2.6,0,0,0,.26-.32,2.57,2.57,0,0,0,.5-1.56,2.74,2.74,0,0,0-.26-1.16" fill="#5290cc"/>
  </g>
</svg>