<svg id="icon-41" xmlns="http://www.w3.org/2000/svg" viewBox="0 0 110 110" data-adreal-did="1606153642117432">
  <title>41</title>
  <g id="icon-41-2" data-name="icon-41">
    <path d="M89.74,46.9a15,15,0,0,0-8.55-5.42A18.8,18.8,0,0,0,62.85,26.83a18.12,18.12,0,0,0-8.46,2l-.09.05a19.91,19.91,0,0,0-2.93,1.9l0,0c-.38.3-.74.62-1.09.94-.13.11-.24.23-.37.35l-.63.64c-.14.14-.27.29-.41.44l-.52.63-.37.47q-.33.43-.63.9l-.32.49c-.17.29-.35.59-.51.89-.08.15-.16.3-.23.45s-.27.56-.4.84l-.2.47a20,20,0,0,0-.9,2.77h-1c-.58,0-1.15,0-1.71.09s-1,.12-1.46.22l-.11,0c-.47.1-.94.22-1.4.36l-.16,0c-.47.15-.93.33-1.38.52l-.23.1c-.33.15-.66.33-1,.5a3.84,3.84,0,0,0-.35.18l0,0a14.48,14.48,0,0,0-1.45.95l-.54.42c-.28.23-.56.47-.83.72s-.37.35-.55.54-.51.55-.75.84-.29.33-.43.51a14.85,14.85,0,0,0-1.06,1.57,16.13,16.13,0,0,0-.93,1.86,6.79,6.79,0,0,1,3-.68h32.4a6.88,6.88,0,0,1,1.54.18,6.54,6.54,0,0,1,4.46,3.63,6.72,6.72,0,0,1,.62,2.84,6.59,6.59,0,0,1-1.26,3.91,6.19,6.19,0,0,1-.65.78,6.61,6.61,0,0,1-1.83,1.29,6.68,6.68,0,0,1,1.79,1.26,6.23,6.23,0,0,1,.62.74l.17-.22a4.78,4.78,0,0,1,1.41-3.27l.49-.49a4.87,4.87,0,0,1,3.29-1.43,4.82,4.82,0,0,1,3.3-1.32h.74a4.79,4.79,0,0,1,3.31,1.33A4.85,4.85,0,0,1,86,60.56l.5.5a4.78,4.78,0,0,1,1.41,3.28,4.76,4.76,0,0,1,1.24,2.49,14.77,14.77,0,0,0,4-10.32,15,15,0,0,0-3.37-9.61" fill="#5290cc"/>
    <path d="M84.4,66.83H81.88l1.78-1.78a.84.84,0,0,0,.24-.58.82.82,0,0,0-.24-.57l-.51-.51a.83.83,0,0,0-.58-.23.81.81,0,0,0-.57.22l-1.78,1.78V62.64a.82.82,0,0,0-.81-.81h-.74a.81.81,0,0,0-.8.81v2.53l-1.78-1.78a.83.83,0,0,0-.58-.24h0a.82.82,0,0,0-.57.23l-.52.52a.81.81,0,0,0,0,1.15l1.78,1.78H73.68a.81.81,0,0,0-.81.81v.73a.81.81,0,0,0,.81.81H76.2L74.42,71a.8.8,0,0,0-.24.57.84.84,0,0,0,.19.51l0,.07.52.52a.82.82,0,0,0,.58.23.76.76,0,0,0,.56-.24l.59-.58,1.2-1.2v2.52a.77.77,0,0,0,.38.67.81.81,0,0,0,.42.14h.74a.79.79,0,0,0,.62-.31.81.81,0,0,0,.19-.5V70.84l.8.81,1,1a.85.85,0,0,0,.58.23.77.77,0,0,0,.57-.23l.52-.51a.83.83,0,0,0,.24-.58.8.8,0,0,0-.24-.57l-.12-.12-1.66-1.66H84.4a.82.82,0,0,0,.81-.81v-.73a.81.81,0,0,0-.81-.81" fill="#5290cc"/>
    <path d="M67.09,55.42a2.74,2.74,0,0,1,.25,1.16,2.57,2.57,0,0,1-.5,1.56,2.6,2.6,0,0,1-.26.32,2.41,2.41,0,0,1-1.26.7,2.8,2.8,0,0,1-.59.07H32.31a2.63,2.63,0,0,1-1.92-.77c-.1-.1-.19-.22-.28-.33a2.54,2.54,0,0,1-.5-1.55A2.58,2.58,0,0,1,30.12,55a4.15,4.15,0,0,1,.27-.32,2.68,2.68,0,0,1,1.93-.77h32.4a2.74,2.74,0,0,1,.64.08,2.52,2.52,0,0,1,1.22.68,2.75,2.75,0,0,1,.51.73m0,12A2.55,2.55,0,0,0,65.34,66a2.67,2.67,0,0,0-.64-.08H46.47a2.64,2.64,0,0,0-1.92.77,2.69,2.69,0,0,0-.27.32,2.53,2.53,0,0,0-.52,1.56,2.55,2.55,0,0,0,.51,1.55,2.13,2.13,0,0,0,.28.33,2.6,2.6,0,0,0,1.92.77H64.71a2.27,2.27,0,0,0,.59-.07,2.41,2.41,0,0,0,1.26-.7,1.92,1.92,0,0,0,.26-.32,2.55,2.55,0,0,0,.5-1.56,2.74,2.74,0,0,0-.25-1.16M39.18,70.82a2.9,2.9,0,0,0,.54-.4,2.5,2.5,0,0,0,.78-1.88,2.55,2.55,0,0,0-.78-1.88h0l-.08-.06a2.94,2.94,0,0,0-.41-.31L39,66.17a2.23,2.23,0,0,0-.43-.16l-.1,0h0A3.93,3.93,0,0,0,38,65.9H19.56l-.15,0L19,66H19l-.09,0a2,2,0,0,0-.48.18.8.8,0,0,0-.16.08,2.57,2.57,0,0,0-.54.41,2.54,2.54,0,0,0-.79,1.87,2.58,2.58,0,0,0,.79,1.88h0v0l.07,0a3,3,0,0,0,.42.31l.21.12.43.16a.29.29,0,0,0,.1,0H19a3.93,3.93,0,0,0,.48.06H37.85l.15,0a2.34,2.34,0,0,0,.39,0h0a.29.29,0,0,0,.1,0,3.41,3.41,0,0,0,.48-.18l.16-.09M25,58.88a2.84,2.84,0,0,0,.58-.42,2.66,2.66,0,0,0,0-3.76,2.67,2.67,0,0,0-.55-.4l-.13-.07a2.25,2.25,0,0,0-.51-.2l-.06,0h0a3.19,3.19,0,0,0-.54-.07H19.48A3.4,3.4,0,0,0,19,54h0l-.06,0a2.78,2.78,0,0,0-.57.21l-.08.05a3,3,0,0,0-.58.42,2.56,2.56,0,0,0-.79,1.88,2.51,2.51,0,0,0,.79,1.88,3,3,0,0,0,.54.41l.14.07a2.82,2.82,0,0,0,.51.19l.06,0h0a3.08,3.08,0,0,0,.54.06H23.8a3.41,3.41,0,0,0,.46,0h0l.06,0a2.92,2.92,0,0,0,.56-.21l.09,0m41.52,23.5a2.66,2.66,0,0,0,0-3.76A2.78,2.78,0,0,0,65.33,78l-.06,0h0a3.33,3.33,0,0,0-.54-.07H60.53a2.73,2.73,0,0,0-.59.07l-.06,0-.1,0a2.56,2.56,0,0,0-1.13.65,2.54,2.54,0,0,0-.79,1.87,2.51,2.51,0,0,0,.79,1.88,3,3,0,0,0,.54.41h0l.14.07a2.09,2.09,0,0,0,.3.11,2.15,2.15,0,0,0,.27.1,2.61,2.61,0,0,0,.64.08h4.2a3.41,3.41,0,0,0,.46,0h0l.06,0a2.92,2.92,0,0,0,.56-.21l.06,0a1.75,1.75,0,0,0,.29-.18,2.6,2.6,0,0,0,.32-.26m-12.16-3a2.42,2.42,0,0,0-.5-.74,2.47,2.47,0,0,0-.38-.28s0,0-.08-.06a1.59,1.59,0,0,0-.29-.15,2,2,0,0,0-.4-.16l-.08,0h0a3,3,0,0,0-.68-.09H19.5a2.73,2.73,0,0,0-.59.07,2.59,2.59,0,0,0-1.53,1,2.63,2.63,0,0,0-.49,1.56,2.71,2.71,0,0,0,.25,1.16,2.42,2.42,0,0,0,.5.74,3.37,3.37,0,0,0,.38.28l.08.06a1.59,1.59,0,0,0,.29.15,1.93,1.93,0,0,0,.4.15.19.19,0,0,0,.08,0h0a3,3,0,0,0,.68.09H52a2.9,2.9,0,0,0,.6-.07,2.5,2.5,0,0,0,1.26-.71,3.56,3.56,0,0,0,.26-.31,2.58,2.58,0,0,0,.5-1.57,2.7,2.7,0,0,0-.26-1.15" fill="#5290cc"/>
  </g>
</svg>