<svg id="icon-6" xmlns="http://www.w3.org/2000/svg" viewBox="0 0 110 110" data-adreal-did="1606153373424488">
  <title>6</title>
  <g id="icon-6-2" data-name="icon-6">
    <path d="M75.54,47.05a18.44,18.44,0,0,0-6.6-10.54,18.2,18.2,0,0,0-8.39-3.83,20.63,20.63,0,0,0-2.11-.23c-.41,0-.82-.05-1.24-.05s-.66,0-1,0a18,18,0,0,0-10.54,4,18.33,18.33,0,0,0-6.58,10.28h-1a15.48,15.48,0,0,0-7.8,2,15.2,15.2,0,0,0-5.65,5.58,15,15,0,0,0-2.08,7.76,15.52,15.52,0,0,0,7.4,13.29,14.89,14.89,0,0,0,7.54,2.24h35A15.32,15.32,0,0,0,83.1,72.83q.57-.6,1.08-1.23a15.09,15.09,0,0,0,1.33-2,14.11,14.11,0,0,0,1-2,15.43,15.43,0,0,0,1-5.53,15.47,15.47,0,0,0-11.92-15" fill="#5290cc"/>
  </g>
</svg>