<svg id="icon-8" xmlns="http://www.w3.org/2000/svg" viewBox="0 0 110 110" data-adreal-did="1606153397227877">
  <title>8</title>
  <g id="icon-8-2" data-name="icon-8">
    <path d="M46.53,36.66A2.68,2.68,0,0,1,44.64,36a2.37,2.37,0,0,1-.77-1.8V27.76a2.57,2.57,0,0,1,.79-1.88,2.62,2.62,0,0,1,3.75,0,2.61,2.61,0,0,1,.79,1.88v6.39a2.35,2.35,0,0,1-.78,1.8,2.68,2.68,0,0,1-1.89.71M29.45,72.85a2.43,2.43,0,0,0-1.84.73L23,78a2.78,2.78,0,0,0-.74,1.91A2.63,2.63,0,0,0,23,81.78a2.83,2.83,0,0,0,3.84,0l4.45-4.45a2.88,2.88,0,0,0,.76-2,2.34,2.34,0,0,0-.75-1.79,2.61,2.61,0,0,0-1.86-.7m-1.84-29.8a2.38,2.38,0,0,0,1.84.76,2.55,2.55,0,0,0,2.61-2.61,2.38,2.38,0,0,0-.76-1.84l-4.46-4.6A2.61,2.61,0,0,0,25,34a3,3,0,0,0-2,.76,2.86,2.86,0,0,0,0,3.84Zm16.6,22.52A6.63,6.63,0,0,1,46,64.31a6.62,6.62,0,0,1-1.76-1.24,6.51,6.51,0,0,1-2-4.73A6.67,6.67,0,0,1,49,51.68H53a6.36,6.36,0,0,1,1.54.19,6.47,6.47,0,0,1,2.75,1.39,6.56,6.56,0,0,1,4.06-1.56A16.14,16.14,0,0,0,58,46.79a16.45,16.45,0,0,0-5.2-3.49,15.69,15.69,0,0,0-6.3-1.3,15.89,15.89,0,0,0-8.13,2.19,16.33,16.33,0,0,0-6,6,16.14,16.14,0,0,0,0,16.27,16.19,16.19,0,0,0,6,5.93,15.57,15.57,0,0,0,5.16,1.91,6.64,6.64,0,0,1,.66-8.7M63.58,43.81a2.74,2.74,0,0,0,1.88-.76L70,38.6a2.61,2.61,0,0,0,.76-1.94A2.58,2.58,0,0,0,70,34.79,2.51,2.51,0,0,0,68.12,34a2.61,2.61,0,0,0-1.84.76l-4.46,4.6a2.46,2.46,0,0,0-.7,1.85,2.65,2.65,0,0,0,.7,1.86,2.35,2.35,0,0,0,1.76.74M24.19,60.18a2.69,2.69,0,0,0,.72-1.89,2.73,2.73,0,0,0-.72-1.91,2.32,2.32,0,0,0-1.8-.79H16a2.67,2.67,0,0,0-1.88.76,2.62,2.62,0,0,0-.79,1.94A2.7,2.7,0,0,0,16,61h6.38a2.37,2.37,0,0,0,1.8-.77" fill="#ffd300"/>
    <path d="M96.41,57.18a2.69,2.69,0,0,1,.25,1.15,2.58,2.58,0,0,1-.5,1.57,3.56,3.56,0,0,1-.26.31,2.5,2.5,0,0,1-1.26.71,2.81,2.81,0,0,1-.59.06H61.63a2.64,2.64,0,0,1-1.92-.78,3,3,0,0,1-.28-.33,2.54,2.54,0,0,1-.5-1.55,2.48,2.48,0,0,1,.52-1.55,2,2,0,0,1,.27-.32,2.61,2.61,0,0,1,1.92-.78H94a3.3,3.3,0,0,1,.64.08,2.52,2.52,0,0,1,1.22.68,2.45,2.45,0,0,1,.51.74M55.12,59.91v0a2.53,2.53,0,0,0,.5-1.56,2.69,2.69,0,0,0-.25-1.15,2.34,2.34,0,0,0-.26-.43,6.92,6.92,0,0,0-.19,1.59,6.75,6.75,0,0,0,.19,1.57m28.32,20.8a3,3,0,0,0-.29-.33,2.6,2.6,0,0,0-1.92-.77H48.82a2.22,2.22,0,0,0-.59.07,2.44,2.44,0,0,0-1.27.7,2.74,2.74,0,0,0-.75,1.88,2.77,2.77,0,0,0,.25,1.16,2.36,2.36,0,0,0,.51.73,2.48,2.48,0,0,0,1.22.68,2.61,2.61,0,0,0,.64.08h32.4a2.71,2.71,0,0,0,2.19-1.09,2.63,2.63,0,0,0,0-3.11M75.79,73H94a2.8,2.8,0,0,0,.59-.07,2.52,2.52,0,0,0,1.27-.71l.26-.31a2.64,2.64,0,0,0,.49-1.57,2.69,2.69,0,0,0-.25-1.15,2.46,2.46,0,0,0-1.73-1.42,3.22,3.22,0,0,0-.64-.07H75.79a2.62,2.62,0,0,0-1.92.77,2.69,2.69,0,0,0-.27.32,6.64,6.64,0,0,1,.18,1.55,6.15,6.15,0,0,1-.19,1.55,1.75,1.75,0,0,0,.28.33,2.61,2.61,0,0,0,1.92.78M73.6,68.74a2.48,2.48,0,0,0-.52,1.56,2.52,2.52,0,0,0,.51,1.54,6.65,6.65,0,0,0,.2-1.55,7.22,7.22,0,0,0-.19-1.55m-4.33,3.13h0a2.76,2.76,0,0,0,.24-2.72,2.3,2.3,0,0,0-.25-.43,6.41,6.41,0,0,0-.2,1.59,6.75,6.75,0,0,0,.19,1.57m-.77.71a3,3,0,0,0,.54-.41,2.54,2.54,0,0,0,.79-1.87A2.58,2.58,0,0,0,69,68.42h0v0L69,68.35a3.9,3.9,0,0,0-.42-.32l-.21-.11a3.16,3.16,0,0,0-.43-.16l-.1,0h0a2.63,2.63,0,0,0-.48-.06H48.73a2.3,2.3,0,0,0-.39,0h-.05l-.1,0a2.5,2.5,0,0,0-.48.18l-.16.09a2.9,2.9,0,0,0-.54.4,2.49,2.49,0,0,0-.78,1.87A2.54,2.54,0,0,0,47,72.17h0l.08,0a3,3,0,0,0,.41.32l.21.11a3.16,3.16,0,0,0,.43.16l.1,0h0a2,2,0,0,0,.48.06l.11,0H67.17l.15,0a2.57,2.57,0,0,0,.4-.05h0l.09,0a2,2,0,0,0,.48-.18l.16-.08M54.32,60.64a2.9,2.9,0,0,0,.58-.43,2.64,2.64,0,0,0,0-3.75,2.39,2.39,0,0,0-.55-.41L54.22,56a2.23,2.23,0,0,0-.51-.19l-.06,0h0a3.06,3.06,0,0,0-.54-.07H48.8a3.26,3.26,0,0,0-.45,0h0l-.06,0a2.51,2.51,0,0,0-.56.22l-.09,0a2.64,2.64,0,0,0-.58.43,2.54,2.54,0,0,0-.79,1.87,2.65,2.65,0,0,0,1.33,2.29l.14.07a2.23,2.23,0,0,0,.51.19l.06,0h0a3.06,3.06,0,0,0,.54.07h4.28a3.26,3.26,0,0,0,.45,0h0l.06,0a2.72,2.72,0,0,0,.56-.22l.09,0M95.84,84.13a2.64,2.64,0,0,0,0-3.75,2.59,2.59,0,0,0-1.19-.67l-.06,0h0a2.35,2.35,0,0,0-.54-.06H89.85a2.27,2.27,0,0,0-.59.07l-.06,0-.1,0a2.66,2.66,0,0,0-.55.23,2.31,2.31,0,0,0-.58.42,2.54,2.54,0,0,0-.79,1.88A2.62,2.62,0,0,0,88,84.14a2.9,2.9,0,0,0,.54.4h0l.14.07a1.54,1.54,0,0,0,.3.11,1.28,1.28,0,0,0,.27.11,2.61,2.61,0,0,0,.64.08H94l.11,0a2.22,2.22,0,0,0,.45,0h0l.06,0a2.25,2.25,0,0,0,.56-.22l.06,0a1.75,1.75,0,0,0,.29-.18,1.92,1.92,0,0,0,.32-.26" fill="#5290cc"/>
  </g>
</svg>