<svg id="icon-9" xmlns="http://www.w3.org/2000/svg" viewBox="0 0 110 110" data-adreal-did="1606153404269289">
  <title>9</title>
  <g id="icon-9-2" data-name="icon-9">
    <path d="M36.51,34.53a2.69,2.69,0,0,1-1.89-.72,2.35,2.35,0,0,1-.78-1.8V25.62A2.7,2.7,0,0,1,36.51,23a2.72,2.72,0,0,1,2.67,2.66V32a2.38,2.38,0,0,1-.78,1.8,2.69,2.69,0,0,1-1.89.72M19.43,70.71a2.45,2.45,0,0,0-1.85.73L13,75.89a2.79,2.79,0,0,0-.73,1.91A2.6,2.6,0,0,0,13,79.64a3.16,3.16,0,0,0,1.93.75,3.07,3.07,0,0,0,1.91-.75l4.45-4.45a2.87,2.87,0,0,0,.77-2,2.36,2.36,0,0,0-.75-1.79,2.61,2.61,0,0,0-1.86-.7m-1.85-29.8a2.41,2.41,0,0,0,1.85.77A2.56,2.56,0,0,0,22,39.07a2.41,2.41,0,0,0-.77-1.85l-4.45-4.6A2.68,2.68,0,0,0,15,31.86a3.09,3.09,0,0,0-2,.76,2.81,2.81,0,0,0-.73,1.91A2.77,2.77,0,0,0,13,36.46ZM35.91,66.45a6.67,6.67,0,0,1-1.77-1.24,6.66,6.66,0,0,1,4.73-11.39h0a19.39,19.39,0,0,1,1.49-3.21,23.55,23.55,0,0,1,1.33-2c.14-.18.29-.35.43-.52l.1-.11c.25-.3.57-.68,1-1.08.22-.23.45-.45.69-.67s.7-.62,1.06-.91l.09-.08c.19-.16.38-.31.59-.46.51-.37,1-.69,1.47-1a17.2,17.2,0,0,0-4.3-2.67,16,16,0,0,0-14.43.9,16.23,16.23,0,0,0-6,6,16.14,16.14,0,0,0,0,16.27,16.3,16.3,0,0,0,9.75,7.54,6.53,6.53,0,0,1,1.95-4.12,6.61,6.61,0,0,1,1.79-1.26M14.17,58a2.69,2.69,0,0,0,.72-1.89,2.75,2.75,0,0,0-.72-1.91,2.36,2.36,0,0,0-1.8-.79H6a2.69,2.69,0,0,0-1.87.76,2.64,2.64,0,0,0-.79,1.94A2.53,2.53,0,0,0,4.11,58,2.53,2.53,0,0,0,6,58.81h6.39a2.34,2.34,0,0,0,1.8-.77" fill="#ffd300"/>
    <path d="M103.31,50.79a15,15,0,0,0-8.55-5.42A18.77,18.77,0,0,0,76.42,30.73a18.11,18.11,0,0,0-8.46,2l-.09,0a19.18,19.18,0,0,0-2.93,1.91l0,0c-.38.3-.74.62-1.09.94-.13.11-.24.23-.37.35l-.63.64-.41.45c-.18.2-.35.41-.52.62l-.37.47q-.33.43-.63.9l-.32.49c-.17.29-.35.59-.51.89-.08.15-.16.3-.23.46s-.27.55-.4.84-.13.3-.2.46a20.85,20.85,0,0,0-.9,2.77h-1a16,16,0,0,0-1.71.1,14.25,14.25,0,0,0-1.46.21l-.11,0c-.47.1-.94.22-1.4.36l-.16,0c-.47.15-.93.33-1.38.52l-.23.1c-.33.15-.66.33-1,.5a3.84,3.84,0,0,0-.35.18l0,0A16.47,16.47,0,0,0,48,48l-.54.42c-.28.23-.56.48-.83.73s-.37.34-.55.53-.51.55-.75.85-.29.32-.43.5a17.24,17.24,0,0,0-1.06,1.57c-.23.39-.43.8-.63,1.2a7.9,7.9,0,0,1,1.26.16,6.39,6.39,0,0,1,2.74,1.4,6.62,6.62,0,0,1,4.34-1.58H84A6.94,6.94,0,0,1,85.5,54,6.54,6.54,0,0,1,90,57.63a6.72,6.72,0,0,1,.62,2.84,6.63,6.63,0,0,1-1.26,3.91,6.35,6.35,0,0,1-.65.78,6.61,6.61,0,0,1-1.83,1.29,6.68,6.68,0,0,1,1.79,1.26,6.54,6.54,0,0,1,1.31,1.88,6.76,6.76,0,0,1,.62,2.84,6.61,6.61,0,0,1-1,3.5h2.13a15.36,15.36,0,0,0,10.64-4.77,15.42,15.42,0,0,0,1-20.37" fill="#b3e3f9"/>
    <path d="M86.36,59.31a2.74,2.74,0,0,1,.25,1.16A2.48,2.48,0,0,1,86.12,62a2.6,2.6,0,0,1-.26.32,2.45,2.45,0,0,1-1.26.7,2.35,2.35,0,0,1-.6.07H51.59a2.6,2.6,0,0,1-1.92-.77,2.13,2.13,0,0,1-.28-.33,2.55,2.55,0,0,1-.51-1.55,2.53,2.53,0,0,1,.52-1.56,3.82,3.82,0,0,1,.27-.32,2.67,2.67,0,0,1,1.92-.77H84a2.61,2.61,0,0,1,.64.08,2.49,2.49,0,0,1,1.73,1.41M45.07,62.05l0,0a2.54,2.54,0,0,0,.49-1.56,2.74,2.74,0,0,0-.25-1.16,2.67,2.67,0,0,0-.25-.43,6.55,6.55,0,0,0-.2,1.6,6.82,6.82,0,0,0,.19,1.57M71.19,81.74H38.77a2.88,2.88,0,0,0-.59.06,2.5,2.5,0,0,0-1.26.71,3.56,3.56,0,0,0-.26.31,2.58,2.58,0,0,0-.5,1.57,2.69,2.69,0,0,0,.25,1.15,2.65,2.65,0,0,0,.51.74,2.52,2.52,0,0,0,1.22.68,3.39,3.39,0,0,0,.64.07H71.19a2.63,2.63,0,0,0,1.92-.77,4.15,4.15,0,0,0,.27-.32,6.26,6.26,0,0,1,0-3.1,2.22,2.22,0,0,0-.28-.33,2.63,2.63,0,0,0-1.92-.78M73.38,86a2.41,2.41,0,0,0,.51-1.55,2.52,2.52,0,0,0-.5-1.55,6.26,6.26,0,0,0,0,3.1m13-14.68a2.75,2.75,0,0,0-.51-.73,2.52,2.52,0,0,0-1.22-.68,3.4,3.4,0,0,0-.65-.08H65.75a2.65,2.65,0,0,0-1.93.78A2.76,2.76,0,0,0,63,72.43a2.54,2.54,0,0,0,.5,1.55c.09.11.18.23.28.33a2.63,2.63,0,0,0,1.92.77H84a2.88,2.88,0,0,0,.59-.06,2.5,2.5,0,0,0,1.26-.71A2.6,2.6,0,0,0,86.1,74a2.55,2.55,0,0,0,.5-1.56,2.74,2.74,0,0,0-.25-1.16M59.23,74v0a2.55,2.55,0,0,0,.5-1.56,2.74,2.74,0,0,0-.25-1.16,2.26,2.26,0,0,0-.26-.42A6.92,6.92,0,0,0,59,72.44,6.82,6.82,0,0,0,59.23,74m-.77.7a2.55,2.55,0,0,0,.53-.4,2.62,2.62,0,0,0,0-3.75h0l-.07-.05a2.59,2.59,0,0,0-.42-.32l-.21-.11a2.61,2.61,0,0,0-.42-.16l-.1,0H57.7a1.86,1.86,0,0,0-.48-.06l-.1,0H38.83l-.15,0a2.6,2.6,0,0,0-.39,0h0l-.1,0a2.34,2.34,0,0,0-.48.18l-.16.08a2.6,2.6,0,0,0-.53.41,2.62,2.62,0,0,0,0,3.75h0v0l.07,0a2.59,2.59,0,0,0,.42.32l.21.11a3,3,0,0,0,.42.16l.1,0h.06a2.42,2.42,0,0,0,.48.06H57.28a2.6,2.6,0,0,0,.39,0h0l.1,0a3.94,3.94,0,0,0,.48-.18l.16-.09M44.28,62.77a2.46,2.46,0,0,0,.57-.42,2.63,2.63,0,0,0,0-3.76,2.9,2.9,0,0,0-.54-.4l-.13-.07a3.28,3.28,0,0,0-.52-.2l-.06,0h0a3.06,3.06,0,0,0-.54-.07H38.86l-.1,0a2.31,2.31,0,0,0-.46,0h0l-.05,0a2.32,2.32,0,0,0-.57.22l-.09,0a2.59,2.59,0,0,0-.57.43,2.5,2.5,0,0,0-.79,1.87A2.54,2.54,0,0,0,37,62.35a2.62,2.62,0,0,0,.55.41l.13.07a2.14,2.14,0,0,0,.52.19l0,0h0a2.48,2.48,0,0,0,.54.06h4.28a3.41,3.41,0,0,0,.46,0h0l0,0a2.3,2.3,0,0,0,.57-.21l.09,0m41.51,23.5a2.54,2.54,0,0,0,.79-1.87,2.63,2.63,0,0,0-2-2.55l-.06,0h0a3.06,3.06,0,0,0-.54-.07H79.8a2.88,2.88,0,0,0-.59.06.11.11,0,0,1-.06,0l-.1,0a2.63,2.63,0,0,0-.55.22,2.59,2.59,0,0,0-.57.43,2.5,2.5,0,0,0-.79,1.87,2.54,2.54,0,0,0,.78,1.88,2.62,2.62,0,0,0,.55.41h0l.13.07a1.82,1.82,0,0,0,.3.11l.27.11a3.41,3.41,0,0,0,.65.07H84a3.41,3.41,0,0,0,.46,0h0l0,0a2.3,2.3,0,0,0,.57-.21l.06,0a2.2,2.2,0,0,0,.28-.18,2.6,2.6,0,0,0,.32-.26" fill="#5290cc"/>
  </g>
</svg>