<?xml version="1.0" encoding="utf-8"?>
<!-- Generator: Adobe Illustrator 24.0.0, SVG Export Plug-In . SVG Version: 6.00 Build 0)  -->
<svg version="1.1" id="Layer_1" xmlns="http://www.w3.org/2000/svg" xmlns:xlink="http://www.w3.org/1999/xlink" x="0px" y="0px"
	 viewBox="0 0 64 64" style="enable-background:new 0 0 64 64;" xml:space="preserve">
<style type="text/css">
	.st0{fill:#111111;}
</style>
<g>
	<g>
		<g>
			<path class="st0" d="M24,31.2c-1.7,0-3.3-0.7-4.5-1.9c-2.5-2.5-2.5-6.5,0-9c2.2-2.2,9.8-3.4,11.3-3.7c0.4-0.1,0.8,0.1,1.1,0.4
				c0.3,0.3,0.4,0.7,0.4,1.1c-0.2,1.5-1.5,9.1-3.7,11.3C27.3,30.5,25.7,31.2,24,31.2z M29.4,19.4c-3.2,0.6-7.2,1.7-8.2,2.7
				c-1.5,1.5-1.5,4,0,5.5c1.5,1.5,4,1.5,5.5,0C27.7,26.5,28.8,22.6,29.4,19.4z"/>
		</g>
		<g>
			<path class="st0" d="M21,48.1c-1.7,0-3.3-0.7-4.5-1.9c-1.2-1.2-1.9-2.8-1.9-4.5c0-1.7,0.7-3.3,1.9-4.5c2.2-2.2,9.8-3.4,11.3-3.7
				c0.4-0.1,0.8,0.1,1.1,0.4c0.3,0.3,0.4,0.7,0.4,1.1c-0.2,1.5-1.5,9.1-3.7,11.3C24.3,47.5,22.7,48.1,21,48.1z M26.4,36.3
				C23.2,37,19.3,38,18.3,39c-0.7,0.7-1.1,1.7-1.1,2.7c0,1,0.4,2,1.1,2.7c1.5,1.5,4,1.5,5.5,0C24.8,43.5,25.8,39.6,26.4,36.3z"/>
		</g>
		<g>
			<path class="st0" d="M38.4,44.3c-1.7,0-3.3-0.7-4.5-1.9c-2.5-2.5-2.5-6.5,0-9c2.2-2.2,9.8-3.4,11.3-3.7c0.4-0.1,0.8,0.1,1.1,0.4
				c0.3,0.3,0.4,0.7,0.4,1.1c-0.2,1.5-1.5,9.1-3.7,11.3C41.7,43.7,40.1,44.3,38.4,44.3z M43.8,32.5c-3.2,0.6-7.2,1.7-8.2,2.7
				c-1.5,1.5-1.5,4,0,5.5c1.5,1.5,4,1.5,5.5,0C42.1,39.7,43.2,35.8,43.8,32.5z"/>
		</g>
	</g>
</g>
<g>
</g>
<g>
</g>
<g>
</g>
<g>
</g>
<g>
</g>
<g>
</g>
<g>
</g>
<g>
</g>
<g>
</g>
<g>
</g>
<g>
</g>
<g>
</g>
<g>
</g>
<g>
</g>
<g>
</g>
</svg>
