<svg width="17" height="17" viewBox="0 0 17 17" fill="none" xmlns="http://www.w3.org/2000/svg">
<path d="M8.33333 0C10.5975 0 10.88 0.00833329 11.7683 0.05C12.6558 0.0916666 13.26 0.230833 13.7917 0.4375C14.3417 0.649167 14.805 0.935833 15.2683 1.39833C15.6921 1.81491 16.02 2.31882 16.2292 2.875C16.435 3.40583 16.575 4.01083 16.6167 4.89833C16.6558 5.78667 16.6667 6.06917 16.6667 8.33333C16.6667 10.5975 16.6583 10.88 16.6167 11.7683C16.575 12.6558 16.435 13.26 16.2292 13.7917C16.0206 14.3481 15.6926 14.8522 15.2683 15.2683C14.8516 15.6919 14.3478 16.0198 13.7917 16.2292C13.2608 16.435 12.6558 16.575 11.7683 16.6167C10.88 16.6558 10.5975 16.6667 8.33333 16.6667C6.06917 16.6667 5.78667 16.6583 4.89833 16.6167C4.01083 16.575 3.40667 16.435 2.875 16.2292C2.31861 16.0204 1.81461 15.6925 1.39833 15.2683C0.974505 14.8518 0.646609 14.3479 0.4375 13.7917C0.230833 13.2608 0.0916666 12.6558 0.05 11.7683C0.0108333 10.88 0 10.5975 0 8.33333C0 6.06917 0.00833329 5.78667 0.05 4.89833C0.0916666 4.01 0.230833 3.40667 0.4375 2.875C0.64603 2.31848 0.974003 1.81443 1.39833 1.39833C1.81473 0.974359 2.31869 0.646441 2.875 0.4375C3.40667 0.230833 4.01 0.0916666 4.89833 0.05C5.78667 0.0108333 6.06917 0 8.33333 0ZM8.33333 4.16667C7.22826 4.16667 6.16846 4.60565 5.38706 5.38706C4.60565 6.16846 4.16667 7.22826 4.16667 8.33333C4.16667 9.4384 4.60565 10.4982 5.38706 11.2796C6.16846 12.061 7.22826 12.5 8.33333 12.5C9.4384 12.5 10.4982 12.061 11.2796 11.2796C12.061 10.4982 12.5 9.4384 12.5 8.33333C12.5 7.22826 12.061 6.16846 11.2796 5.38706C10.4982 4.60565 9.4384 4.16667 8.33333 4.16667ZM13.75 3.95833C13.75 3.68207 13.6403 3.41711 13.4449 3.22176C13.2496 3.02641 12.9846 2.91667 12.7083 2.91667C12.4321 2.91667 12.1671 3.02641 11.9718 3.22176C11.7764 3.41711 11.6667 3.68207 11.6667 3.95833C11.6667 4.2346 11.7764 4.49955 11.9718 4.6949C12.1671 4.89025 12.4321 5 12.7083 5C12.9846 5 13.2496 4.89025 13.4449 4.6949C13.6403 4.49955 13.75 4.2346 13.75 3.95833ZM8.33333 5.83333C8.99638 5.83333 9.63226 6.09673 10.1011 6.56557C10.5699 7.03441 10.8333 7.67029 10.8333 8.33333C10.8333 8.99638 10.5699 9.63226 10.1011 10.1011C9.63226 10.5699 8.99638 10.8333 8.33333 10.8333C7.67029 10.8333 7.03441 10.5699 6.56557 10.1011C6.09673 9.63226 5.83333 8.99638 5.83333 8.33333C5.83333 7.67029 6.09673 7.03441 6.56557 6.56557C7.03441 6.09673 7.67029 5.83333 8.33333 5.83333Z" fill="black"/>
</svg>
