<svg preserveAspectRatio="none" width="100%" height="100%" overflow="visible" style="display: block;" viewBox="0 0 134 15.7974" fill="none" xmlns="http://www.w3.org/2000/svg">
<g id="Group">
<path id="Vector" d="M27.9702 9.76983C27.9702 9.85057 27.5679 12.5688 25.7445 12.5688H22.8752V8.98934H26.6026V5.97505H22.8752V3.28371H26.4953C26.8975 3.33754 27.2193 3.49902 27.4607 3.74124C27.8361 4.11803 27.9434 4.62938 27.9702 4.89851L28.0238 5.51752L30.6249 5.49061V0.0271968H26.4149H17.3243V3.28371H18.8528V12.5419H17.3243V15.7715H30.6249V9.17774H28.0238L27.9702 9.76983Z" fill="var(--fill-0, white)"/>
<path id="Vector_2" d="M57.4385 9.74292C57.4385 9.82366 57.0362 12.5419 55.2128 12.5419H52.3435V8.96243H56.044V5.97505H52.3166V3.28371H55.9368C56.339 3.33754 56.6608 3.49902 56.9021 3.74124C57.2776 4.11803 57.3848 4.62938 57.4117 4.89851L57.4653 5.51752L60.0664 5.49061V0.0271968H55.8563H46.7658V3.28371H48.2943V12.5419H46.7658V15.7715H60.0664V9.15082H57.4653L57.4385 9.74292Z" fill="var(--fill-0, white)"/>
<path id="Vector_3" d="M42.1543 8.74684C42.1543 8.90832 41.8325 12.4071 40.3308 12.5147H37.9978V3.25652H39.4459V0H32.0179V3.25652H33.6805V12.5147H32.4737V15.7712H45.0772V8.12783H42.1811L42.1543 8.74684Z" fill="var(--fill-0, white)"/>
<path id="Vector_4" d="M69.9096 9.85029H72.1622V10.2002C72.0549 11.7611 70.2046 11.9495 69.427 11.9495H69.4001C68.6493 11.9495 67.523 11.5727 66.6917 10.7384C65.9945 10.0387 65.5923 9.0698 65.5923 7.99327C65.6459 5.89402 66.8258 3.79478 69.3197 3.79478H69.427C70.2046 3.8217 71.2504 4.11774 71.7868 4.6291C71.894 4.73675 72.0013 4.87132 72.0549 5.00588L72.2426 5.38267H75.6214V0.32296H71.9476V0.457527C71.1432 0.16148 70.3655 0 69.5879 0C69.4806 0 69.4001 0 69.3197 0C69.2661 0 69.2661 0 69.2393 0C67.2281 0 65.351 0.8074 64.0102 2.26072C62.6694 3.71404 61.9453 5.70563 61.9453 7.8587C61.9453 10.0925 62.7766 12.1648 64.3051 13.672C65.5655 14.9369 67.2012 15.6905 68.7566 15.7443C70.1778 15.7981 71.17 15.6636 72.1354 15.3406V15.7443H75.9164V9.82337H77.2572V6.8629H69.9096V9.85029Z" fill="var(--fill-0, white)"/>
<path id="Vector_5" d="M0 7.02352H3.27153V6.35069C3.24471 5.00502 3.48606 4.08996 3.94193 3.60552C4.21008 3.30948 4.47824 3.30948 4.53187 3.30948H5.2559V12.5408H2.92292V15.7973H13.3275V12.5946H10.3509V3.33639H10.78H10.8872C11.2895 3.33639 11.5844 3.44404 11.8526 3.71318C12.3353 4.19762 12.5766 5.05884 12.6303 6.40451L12.6571 7.05043H15.7945V0.0798735H0V7.02352Z" fill="var(--fill-0, white)"/>
<path id="Vector_6" d="M91.4688 9.52761C93.5336 8.63947 94.5526 7.13232 94.5794 4.92543C94.5794 3.63359 94.204 2.58397 93.4532 1.80348C91.8174 0.161764 88.8677 0.0271968 85.4352 0.0271968H77.6586V3.28371H79.6966V12.515H77.6855V15.7446H86.052L86.0788 12.4881H84.3626V10.3619H87.5L90.1816 15.7177H94.7671V12.4881L93.1046 12.4612L91.4688 9.52761ZM84.3626 3.28371H84.6039C84.9525 3.28371 85.3548 3.28371 85.7838 3.28371H86.1056C87.366 3.28371 87.5805 3.28371 87.6341 3.28371H87.795C88.5995 3.31063 89.6185 3.41828 90.1548 3.95655C90.423 4.22568 90.5571 4.62938 90.5571 5.08691C90.5571 6.27109 90.1012 7.05158 87.9291 7.05158C87.6073 7.05158 87.3123 7.05158 87.0442 7.05158H86.9637C86.8297 7.05158 86.6956 7.05158 86.5883 7.05158C85.5157 7.05158 84.7917 7.05158 84.3358 7.05158L84.3626 3.28371Z" fill="var(--fill-0, white)"/>
<path id="Vector_7" d="M107.959 3.28398H109.622V0.0543806H99.5657V3.28398L101.443 3.25707L97.3937 12.5153H96.2406V15.7449H103.937V12.5153H101.926L102.408 11.4656H107.047L107.53 12.5153H105.653V15.7718H113.349V12.5422H111.981L107.959 3.28398ZM106.082 9.17801H103.374L104.741 5.81384L106.082 9.17801Z" fill="var(--fill-0, white)"/>
<path id="Vector_8" d="M134 2.96102V0.0543806H126.894L123.89 6.16371L121.504 0.0543806H114.156V2.98794H115.846V12.5422H114.505V15.7718H121.745V12.5422H120.485L120.458 8.23604L123.703 15.6641L127.725 7.77851V12.5422H126.518V15.7449H133.759V12.5422H132.337V2.96102H134Z" fill="var(--fill-0, white)"/>
</g>
</svg>
