<?xml version="1.0" encoding="utf-8"?>
<!-- Generator: Adobe Illustrator 26.0.1, SVG Export Plug-In . SVG Version: 6.00 Build 0)  -->
<svg version="1.1" id="Layer_1" xmlns="http://www.w3.org/2000/svg" xmlns:xlink="http://www.w3.org/1999/xlink" x="0px" y="0px"
	 viewBox="0 0 763.5 81.4" style="enable-background:new 0 0 763.5 81.4;" xml:space="preserve">
<style type="text/css">
	.st0{fill:#FC1921;}
	.st1{fill:#FFFFFF;}
	.st2{fill:#006431;}
</style>
<g>
	<g>
		<g>
			<g>
				<rect x="4.8" y="4.8" class="st0" width="646.2" height="71.9"/>
			</g>
			<g>
				<g>
					<g>
						<path class="st1" d="M315.5,17.8h32.6c5.1,0,13.1,4.2,13.1,14.2v0.6c0,5.3-3.3,10-8,12.3c0,0,0.3,0.5,7.6,10.4
							c0.9,1.3,1,4.3-1.1,6.2c-2,1.8-5.3,2-6.9,0.1c-2.3-2.7-5-6.2-12.3-15.5h-11.9c-3.8,0-8.9-3-8.9-9.6H347c1.6-0.1,4-1.6,4-4.5
							c0-2.7-2.4-4.6-4.1-4.6h-30.3l0,29.9c0,3.3-2.5,5.5-5.2,5.5c-2.6,0-5.1-2.3-5.1-5.3V27.1C306.4,21.9,311.8,17.8,315.5,17.8z"
							/>
					</g>
					<g>
						<path class="st1" d="M243.7,17.8h36.1c4.6,0,9,5.5,9,9.7h-44.8v7.7h41.4c2.5,0,4.4,2.3,4.4,4.8c0,2.6-1.9,4.7-4.3,4.7h-41.3
							v7.9h44.6c-0.1,6.6-5.8,9.3-8.6,9.3h-36c-4.6,0-10-4.8-10-10.8V25.9C234.3,23,238.3,17.8,243.7,17.8z"/>
					</g>
					<g>
						<path class="st1" d="M215.2,17.8c4.6,0,9,5.5,9,9.7h-22.6v24.7l0,5.6c0,3.3-2.4,5.2-5.1,5.2c-2.6,0-5.2-2.1-5.2-5.2l0-5.6
							V27.5h-22.7c0-4.2,4.5-9.7,9-9.7H215.2z"/>
					</g>
					<g>
						<path class="st1" d="M76.6,57.7c0,3.1,2.6,5.2,5.2,5.2c2.7,0,5.1-1.9,5.1-5.2l0-5.6V21.4c0-1.6-1.6-4.8-5-4.8
							c-3.7,0-5.2,3.1-5.2,4.8v30.7L76.6,57.7z"/>
					</g>
					<g>
						<path class="st1" d="M113.1,17.8c-0.8-0.7-1.8-1.1-3.1-1.1c-3.7,0-5.2,3.1-5.2,4.8v30.7l0,5.6c0,3.1,2.6,5.2,5.2,5.2
							c2.7,0,5.1-1.9,5.1-5.2l0-5.6V33.2l37,28.6c0.9,0.7,2,1.1,3.2,1.1c2.7,0,5.1-1.9,5.1-5.2l0-5.6V21.4c0-1.6-1.6-4.8-5-4.8
							c-3.7,0-5.2,3.1-5.2,4.8v24.8L113.1,17.8z"/>
					</g>
				</g>
				<g>
					<path class="st1" d="M542.6,17.8c3.2,0,5.2,1.2,8.3,5.1L573.3,55c1.2,1.7,1.1,4.4-1,6.1c-1.8,1.5-5.1,1.7-6.8-0.6l-5.4-7.4
						h-35.4l-5.4,7.6c-1.9,2.2-4.2,2.2-6.3,0.8c-2.2-1.5-2.7-4.3-1.4-6.2l22.7-32.4C537.2,18.9,539.5,17.8,542.6,17.8z M543.9,29.7
						c-0.6-0.9-0.8-1-1.4-1c-0.7,0-1,0.4-1.5,1c-0.8,1-9.8,14.3-9.9,14.3h22.7C553.8,44.1,545.2,31.6,543.9,29.7z"/>
					<path class="st1" d="M389.4,17.9h32.3c8,0,8.8,9.2,8.8,9.2l-39.8,0c-2,0-3.8,1.5-3.8,4.1c0,3,2.2,4.4,3.7,4.4h28.1
						c5.6,0,13.5,4.6,13.5,12.7c0,10.4-9.2,14.1-12.4,14.1h-32.9c-9.8,0-9.2-9.3-9.2-9.3h40.8c1.6,0,4-1.6,4-4
						c0-2.3-2.1-4.1-3.7-4.1h-27.6c-7.8,0-13.9-5.8-13.9-13.7C377.3,22.3,384.9,17.9,389.4,17.9z"/>
					<g>
						<path class="st1" d="M596.8,17.8h33.4c5.1,0,12.9,4.1,12.9,14v0.6c0,5.3-3.3,9.9-7.9,12.1c0,0,0.3,0.5,7.5,10.2
							c0.9,1.3,1,4.3-1.1,6.1c-1.9,1.7-5.2,2-6.8,0.1c-2.3-2.6-4.9-6.1-12.1-15.3h-13.1c-3.7,0-8.8-2.9-8.8-9.5H629
							c1.5-0.1,4-1.5,4-4.4c0-2.7-2.4-4.5-4-4.5h-31.2l0,29.5c0,3.2-2.5,5.4-5.1,5.4c-2.5,0-5.1-2.2-5.1-5.3V26.9
							C587.7,21.9,593,17.8,596.8,17.8z"/>
					</g>
					<g>
						<path class="st1" d="M459.1,17.9h33.4c5.1,0,12.9,4.1,12.9,14v0.6c0,5.3-3.3,9.9-7.9,12.1c0,0-2.4,0.8-4.6,1.1h-21
							c-3.7,0-8.5-3-8.5-9.5h27.9c1.5-0.1,4.1-1.4,4.1-4.3c0-2.7-2.4-4.5-4-4.5l-31.2,0l0,29.5c0,3.2-2.5,5.4-5.1,5.4
							c-2.5,0-5.1-2.2-5.1-5.3V27C450,22,455.3,17.9,459.1,17.9z"/>
					</g>
				</g>
			</g>
		</g>
		<g>
			<g>
				<path class="st2" d="M669,41.8c0,13.8,6.9,26.1,19.1,32.1c11.5,5.7,26.8,5.7,38.3,0c11.4-5.6,19.1-18.4,19.1-32.1
					c0-21.1-16.8-38.3-38.3-38.3C685.7,3.5,669,20.6,669,41.8z"/>
			</g>
			<g>
				<path class="st1" d="M706.6,13.4c-3.8,13.1-15.3,32.2-23.7,41.6h19.8l0,5.7c0,3.2-2.6,6.6-6.3,6.5c-5.2-0.1-11.7-2.5-15.6-9.1
					c-2.9-4.8-4.9-8.7-4.9-16.3c0-16.7,13.5-30.6,30.6-30.6c17,0,30.6,14.3,30.6,30.6c0,7.7-3.6,14.3-4.8,16.2
					c-4.2,6.8-10.6,9.2-15.5,9.2c-3.4,0-6.5-2.5-6.5-6.5V55h20.1C721.9,45.6,710.4,26.5,706.6,13.4z"/>
			</g>
		</g>
	</g>
</g>
</svg>
