<?xml version="1.0" encoding="utf-8"?>
<!-- Generator: Adobe Illustrator 22.0.1, SVG Export Plug-In . SVG Version: 6.00 Build 0)  -->
<svg version="1.1" id="Layer_1" xmlns="http://www.w3.org/2000/svg" xmlns:xlink="http://www.w3.org/1999/xlink" x="0px" y="0px"
	 width="1145.2px" height="323.1px" viewBox="0 0 1145.2 323.1" style="enable-background:new 0 0 1145.2 323.1;"
	 xml:space="preserve">
<g>
	<defs>
		<rect id="SVGID_1_" width="1145.2" height="323.1"/>
	</defs>
	<clipPath id="SVGID_2_">
		<use xlink:href="#SVGID_1_"  style="overflow:visible;"/>
	</clipPath>
	<rect style="clip-path:url(#SVGID_2_);fill:#ED1C24;" width="1145.2" height="323.1"/>
	<g style="clip-path:url(#SVGID_2_);">
		<defs>
			<rect id="SVGID_3_" width="1145.2" height="323.1"/>
		</defs>
		<clipPath id="SVGID_4_">
			<use xlink:href="#SVGID_3_"  style="overflow:visible;"/>
		</clipPath>
		<path style="clip-path:url(#SVGID_4_);fill:#FFFFFF;" d="M117.3,198.2v25.5c0,8.2-1.1,17.8-6,24.7c-4.6,6.6-11.6,9.3-19.5,9.3
			c-7.9,0-14.9-2.7-19.5-9.3c-4.9-6.9-6-16.5-6-24.7V100.5c0-8.7,1.2-19.7,7.8-26.1c6.5-6.3,16.8-7.6,25.4-7.6h36.6
			c18.9,0,37.2,4.6,51.3,17.7c13.7,12.8,19.2,29.6,19.2,48c0,18.1-4.8,35.2-18,48.1c-13.3,13-30.9,17.5-49.1,17.5H117.3z
			 M117.3,151.1h12.4c5.7,0,12.9-0.8,17.5-4.7c4.1-3.5,5.2-8.6,5.2-13.8c0-5-1-10.3-4.9-13.6c-4.5-3.8-12.1-4.5-17.7-4.5h-12.4
			V151.1z"/>
		<path style="clip-path:url(#SVGID_4_);fill:#FFFFFF;" d="M270.1,207.6h10.6c8.1,0,17.7,1,24.6,5.5c6.5,4.2,9.4,10.7,9.4,18.4
			c0,7.7-2.9,14.3-9.4,18.5c-6.9,4.5-16.5,5.5-24.6,5.5h-28.8c-8.1,0-18.8-1-25.1-6.7c-6.3-5.8-7.6-15.8-7.6-24V98.5
			c0-8.2,1.1-17.7,5.9-24.7l0,0c4.6-6.6,11.6-9.3,19.5-9.3c7.9,0,14.9,2.8,19.5,9.3l0,0c4.8,6.9,5.9,16.4,5.9,24.7V207.6z"/>
		<path style="clip-path:url(#SVGID_4_);fill:#FFFFFF;" d="M520.8,248.7c-6.4-5.8-7.6-15.9-7.6-24V100.4c0-8.7,1.2-19.6,7.8-26.1
			l0,0c6.5-6.3,16.8-7.6,25.4-7.6h32.7c10.4,0,21.1,0.8,31.3,3.2c8.7,2.1,17.1,5.3,24.7,10.1c12.9,8.3,22.6,19.5,29.5,33.2
			c7.3,14.4,10.7,29.9,10.7,46c0,26-6.5,50.9-24.8,70.1c-18,18.9-41.8,26.1-67.5,26.1H546C537.8,255.5,527.1,254.5,520.8,248.7
			 M564.2,207.6h13.4c11.9,0,24.3-2.5,32.7-11.6c8.7-9.7,10.7-24.4,10.7-36.9c0-11.7-2.1-24.8-10.8-33.4
			c-8.7-8.6-21.6-10.8-33.3-10.8h-12.6V207.6z"/>
		<path style="clip-path:url(#SVGID_4_);fill:#FFFFFF;" d="M746.1,223.8c0,8.2-1.1,17.8-6,24.6c-4.6,6.6-11.6,9.3-19.5,9.3
			c-7.9,0-14.9-2.7-19.5-9.3c-4.9-6.9-6-16.4-6-24.6V98.5c0-8.2,1.1-17.7,5.9-24.7l0,0c4.6-6.6,11.6-9.3,19.5-9.3
			c7.9,0,14.9,2.8,19.5,9.3l0,0c4.8,6.9,5.9,16.4,5.9,24.7V223.8z"/>
		<path style="clip-path:url(#SVGID_4_);fill:#FFFFFF;" d="M887.2,166.8V98.5c0-8.2,1.1-17.7,5.9-24.7l0,0
			c4.6-6.6,11.6-9.3,19.5-9.3c7.9,0,14.9,2.8,19.5,9.3l0,0c4.8,6.9,5.9,16.4,5.9,24.7v129.8c0,7.4-1,16.1-5.5,22.2
			c-4.4,6-11,8.3-18.2,8.3c-5.3,0-10.2-1.5-14.7-4.4c-4.9-3.1-9.2-7.8-12.7-12.5l0,0l-64.3-85v66.8c0,8.2-1.1,17.8-6,24.6
			c-4.6,6.6-11.6,9.3-19.5,9.3c-7.9,0-14.9-2.7-19.5-9.3c-4.9-6.9-6-16.4-6-24.6V97c0-7.8,1-16.8,5.6-23.4l0,0
			c4.4-6.2,10.9-8.9,18.4-8.9c4.9,0,9.5,1.2,13.8,3.7c4.6,2.7,8.6,7.1,11.9,11.3l0,0L887.2,166.8z"/>
		<path style="clip-path:url(#SVGID_4_);fill:#FFFFFF;" d="M1017,114.9v21.6h23.4c8.1,0,17.6,1,24.5,5.5c6.5,4.2,9.5,10.8,9.5,18.5
			c0,7.7-3,14.3-9.5,18.5c-6.9,4.4-16.5,5.4-24.5,5.4H1017v23.2h29.2c8.1,0,17.7,1,24.6,5.5c6.5,4.2,9.4,10.7,9.4,18.4
			c0,7.7-2.9,14.3-9.4,18.5c-6.9,4.5-16.5,5.5-24.6,5.5h-47.4c-8.1,0-18.9-0.9-25.1-6.7c-6.3-5.8-7.6-15.8-7.6-24V100.4
			c0-8.7,1.2-19.6,7.8-26.1l0,0c6.5-6.3,16.8-7.6,25.4-7.6h45.7c8.1,0,17.6,1,24.5,5.6c6.6,4.3,9.6,10.9,9.6,18.7
			c0,7.7-3,14.2-9.5,18.4c-7,4.5-16.5,5.5-24.6,5.5H1017z"/>
		<path style="clip-path:url(#SVGID_4_);fill:#FFFFFF;" d="M310.5,161.3c0-26.8,7.1-51.9,25.6-71.8c17.9-19.3,41-27.7,67.2-27.7
			c2.5,0,4.9,0.1,7.3,0.2c-10.3,13.2-16.6,29.7-19.2,50.4c-6.1,2-11.3,5.8-15.7,11.4c-8.3,10.7-10.7,24.7-10.7,37.9
			c0,13,2.5,26.4,10.8,36.8c7.1,8.9,16.1,13.1,27.5,13.1c11.3,0,20.4-4.2,27.5-13.1c8.2-10.4,10.8-23.8,10.8-36.8
			c0-5.1-0.4-10.3-1.3-15.3c10.7-4.4,21.8-7.2,31.9-15.6c6.4-5.3,11.2-10.9,14.7-16.9c6.6,14.6,9.4,30.6,9.4,47.3
			c0,26.8-7,52-25.6,71.9c-18,19.3-41.2,27.6-67.4,27.6c-26.2,0-49.4-8.2-67.3-27.6C317.5,213.2,310.5,188,310.5,161.3"/>
	</g>
	<g style="clip-path:url(#SVGID_2_);">
		<defs>
			<path id="SVGID_5_" d="M489,34.5C489,35.2,489,34.8,489,34.5 M399.8,165.5C399.9,165.5,399.9,165.4,399.8,165.5
				c0.3-3.3,0.7-6.9,1.5-10.8c13-68.3,55.1-103.1,87.7-120.2c0-0.2,0-0.3,0-0.3C422.8,49.5,394.7,86.5,399.8,165.5"/>
		</defs>
		<clipPath id="SVGID_6_">
			<use xlink:href="#SVGID_5_"  style="overflow:visible;"/>
		</clipPath>
		
			<linearGradient id="SVGID_7_" gradientUnits="userSpaceOnUse" x1="0" y1="323.15" x2="1" y2="323.15" gradientTransform="matrix(122.2018 -49.3727 49.3727 122.2018 -15571.8574 -39365.8906)">
			<stop  offset="0" style="stop-color:#A6CE39"/>
			<stop  offset="0.1559" style="stop-color:#A6CE39"/>
			<stop  offset="0.2836" style="stop-color:#97C63B"/>
			<stop  offset="0.5157" style="stop-color:#72B73F"/>
			<stop  offset="0.8236" style="stop-color:#20A244"/>
			<stop  offset="0.9892" style="stop-color:#009745"/>
			<stop  offset="1" style="stop-color:#009745"/>
		</linearGradient>
		<polygon style="clip-path:url(#SVGID_6_);fill:url(#SVGID_7_);" points="407.9,198.2 534.6,147 475.8,1.4 349.1,52.6 		"/>
	</g>
	<g style="clip-path:url(#SVGID_2_);">
		<defs>
			<path id="SVGID_8_" d="M401.3,154.7c-0.7,3.9-1.2,7.4-1.4,10.7c17.9-33.6,43.8-27.1,65.3-44.8c25.1-20.8,25.6-46.9,24.3-76.2
				c-0.2-5.2-0.4-8.9-0.5-10C456.4,51.6,414.3,86.5,401.3,154.7"/>
		</defs>
		<clipPath id="SVGID_9_">
			<use xlink:href="#SVGID_8_"  style="overflow:visible;"/>
		</clipPath>
		<defs>
			<filter id="Adobe_OpacityMaskFilter" filterUnits="userSpaceOnUse" x="339.1" y="-13.3" width="212.4" height="226.5">
				<feColorMatrix  type="matrix" values="1 0 0 0 0  0 1 0 0 0  0 0 1 0 0  0 0 0 1 0"/>
			</filter>
		</defs>
		<mask maskUnits="userSpaceOnUse" x="339.1" y="-13.3" width="212.4" height="226.5" id="SVGID_10_">
			<g style="filter:url(#Adobe_OpacityMaskFilter);">
				<rect x="373.2" y="16" style="clip-path:url(#SVGID_9_);" width="144.1" height="167.9"/>
				<g style="enable-background:new    ;">
					<g>
						<defs>
							
								<rect id="SVGID_11_" x="371.8" y="41.9" transform="matrix(0.2079 -0.9781 0.9781 0.2079 254.9419 514.7372)" width="147" height="116.1"/>
						</defs>
						<clipPath id="SVGID_12_" style="clip-path:url(#SVGID_9_);">
							<use xlink:href="#SVGID_11_"  style="overflow:visible;"/>
						</clipPath>
						
							<linearGradient id="SVGID_13_" gradientUnits="userSpaceOnUse" x1="0" y1="323.15" x2="1" y2="323.15" gradientTransform="matrix(68.2165 14.4999 -14.4999 68.2165 5099.9272 -21950.7969)">
							<stop  offset="0" style="stop-color:#E6E7E8"/>
							<stop  offset="0.5808" style="stop-color:#F1F2F2"/>
							<stop  offset="1" style="stop-color:#FFFFFF"/>
						</linearGradient>
						<polygon style="clip-path:url(#SVGID_12_);fill:url(#SVGID_13_);" points="339.1,176.6 511.1,213.2 551.5,23.3 379.5,-13.3 
													"/>
					</g>
				</g>
			</g>
		</mask>
		<g style="clip-path:url(#SVGID_9_);mask:url(#SVGID_10_);">
			<g>
				<defs>
					<rect id="SVGID_14_" x="373.2" y="16" width="144.1" height="167.9"/>
				</defs>
				<clipPath id="SVGID_15_">
					<use xlink:href="#SVGID_14_"  style="overflow:visible;"/>
				</clipPath>
				<g style="clip-path:url(#SVGID_15_);">
					<defs>
						
							<rect id="SVGID_16_" x="371.8" y="41.9" transform="matrix(0.2079 -0.9781 0.9781 0.2079 254.946 514.7392)" width="147" height="116.1"/>
					</defs>
					<clipPath id="SVGID_17_">
						<use xlink:href="#SVGID_16_"  style="overflow:visible;"/>
					</clipPath>
					
						<linearGradient id="SVGID_18_" gradientUnits="userSpaceOnUse" x1="0" y1="323.15" x2="1" y2="323.15" gradientTransform="matrix(68.2165 14.4999 -14.4999 68.2165 5099.9268 -21950.7969)">
						<stop  offset="0" style="stop-color:#FFF200"/>
						<stop  offset="9.798426e-02" style="stop-color:#F6E900"/>
						<stop  offset="0.2801" style="stop-color:#D1D820"/>
						<stop  offset="0.5264" style="stop-color:#99C035"/>
						<stop  offset="0.8242" style="stop-color:#44A541"/>
						<stop  offset="1" style="stop-color:#009745"/>
					</linearGradient>
					<polygon style="clip-path:url(#SVGID_17_);fill:url(#SVGID_18_);" points="339.1,176.6 511.1,213.2 551.5,23.3 379.5,-13.3 
											"/>
				</g>
			</g>
		</g>
	</g>
</g>
</svg>
