<?xml version="1.0" encoding="utf-8"?>
<!-- Generator: Adobe Illustrator 26.0.1, SVG Export Plug-In . SVG Version: 6.00 Build 0)  -->
<svg version="1.1" id="Layer_1" xmlns="http://www.w3.org/2000/svg" xmlns:xlink="http://www.w3.org/1999/xlink" x="0px" y="0px"
	 viewBox="0 0 476.3 81.4" style="enable-background:new 0 0 476.3 81.4;" xml:space="preserve">
<style type="text/css">
	.st0{fill:#EE2426;}
	.st1{fill:#FFFFFF;}
	.st2{fill:#136634;}
</style>
<g>
	<g>
		<g>
			<g>
				<rect x="4.8" y="4.8" class="st0" width="359" height="71.9"/>
			</g>
			<g>
				<path class="st1" d="M255.3,17.8c3.2,0,5.2,1.2,8.3,5.1L286,55c1.2,1.7,1.1,4.4-1,6.1c-1.8,1.5-5.1,1.7-6.8-0.6l-5.4-7.4h-35.4
					l-5.4,7.6c-1.9,2.2-4.2,2.2-6.3,0.8c-2.2-1.5-2.7-4.3-1.4-6.2l22.7-32.4C250,18.9,252.3,17.8,255.3,17.8z M256.7,29.7
					c-0.6-0.9-0.8-1-1.4-1c-0.7,0-1,0.4-1.5,1c-0.8,1-9.8,14.3-9.9,14.3h22.7C266.6,44.1,257.9,31.6,256.7,29.7z"/>
				<path class="st1" d="M102.2,17.9h32.3c8,0,8.8,9.2,8.8,9.2l-39.8,0c-2,0-3.8,1.5-3.8,4.1c0,3,2.2,4.4,3.7,4.4h28.1
					c5.6,0,13.5,4.6,13.5,12.7c0,10.4-9.2,14.1-12.4,14.1H99.6c-9.8,0-9.2-9.3-9.2-9.3h40.8c1.6,0,4-1.6,4-4c0-2.3-2.1-4.1-3.7-4.1
					H104c-7.8,0-13.9-5.8-13.9-13.7C90.1,22.3,97.7,17.9,102.2,17.9z"/>
				<g>
					<path class="st1" d="M309.5,17.8h33.4c5.1,0,12.9,4.1,12.9,14v0.6c0,5.3-3.3,9.9-7.9,12.1c0,0,0.3,0.5,7.5,10.2
						c0.9,1.3,1,4.3-1.1,6.1c-1.9,1.7-5.2,2-6.8,0.1c-2.3-2.6-4.9-6.1-12.1-15.3h-13.1c-3.7,0-8.8-2.9-8.8-9.5h28.2
						c1.5-0.1,4-1.5,4-4.4c0-2.7-2.4-4.5-4-4.5h-31.2l0,29.5c0,3.2-2.5,5.4-5.1,5.4c-2.5,0-5.1-2.2-5.1-5.3V26.9
						C300.5,21.9,305.8,17.8,309.5,17.8z"/>
				</g>
				<g>
					<path class="st1" d="M171.8,17.9h33.4c5.1,0,12.9,4.1,12.9,14v0.6c0,5.3-3.3,9.9-7.9,12.1c0,0-2.4,0.8-4.6,1.1h-21
						c-3.7,0-8.5-3-8.5-9.5H204c1.5-0.1,4.1-1.4,4.1-4.3c0-2.7-2.4-4.5-4-4.5l-31.2,0l0,29.5c0,3.2-2.5,5.4-5.1,5.4
						c-2.5,0-5.1-2.2-5.1-5.3V27C162.8,22,168.1,17.9,171.8,17.9z"/>
				</g>
			</g>
		</g>
		<g>
			<g>
				<path class="st2" d="M381.9,41.8c0,13.8,6.9,26.1,19.1,32.1c11.5,5.7,26.8,5.7,38.3,0c11.4-5.6,19.1-18.4,19.1-32.1
					c0-21.1-16.8-38.3-38.3-38.3C398.6,3.5,381.9,20.6,381.9,41.8z"/>
			</g>
			<g>
				<path class="st1" d="M420.2,13.4c-3.8,13.1-15.3,32.2-23.7,41.6h19.8l0,5.7c0,3.2-2.6,6.6-6.3,6.5c-5.2-0.1-11.7-2.5-15.6-9.1
					c-2.9-4.8-4.9-8.7-4.9-16.3c0-16.7,13.5-30.6,30.6-30.6c17,0,30.6,14.3,30.6,30.6c0,7.7-3.6,14.3-4.8,16.2
					c-4.2,6.8-10.6,9.2-15.5,9.2c-3.4,0-6.5-2.5-6.5-6.5V55h20.2C435.5,45.6,424,26.5,420.2,13.4z"/>
			</g>
		</g>
	</g>
</g>
<g>
</g>
<g>
</g>
<g>
</g>
<g>
</g>
<g>
</g>
<g>
</g>
</svg>
